<?xml version="1.0" encoding="UTF-8"?>
<svg xmlns="http://www.w3.org/2000/svg" width="300" height="200" viewBox="0 0 300 200">
  <defs>
    <linearGradient id="bond-grad" x1="0%" y1="0%" x2="100%" y2="0%">
      <stop offset="0%" style="stop-color:#8080a0"/>
      <stop offset="100%" style="stop-color:#a0a0c0"/>
    </linearGradient>
  </defs>
  <rect width="100%" height="100%" fill="#1a1a2e" rx="8"/>
  
  <!-- Bonds -->
  <g stroke="url(#bond-grad)" stroke-width="2" stroke-linecap="round">
    <line x1="-2.9422863405994804" y1="170.9807621135332" x2="23.03847577293368" y2="155.9807621135332"/>
    <line x1="23.03847577293368" y1="155.9807621135332" x2="38.03847577293368" y2="130.00000000000003"/>
    <line x1="38.03847577293368" y1="130.00000000000003" x2="38.03847577293368" y2="100.00000000000003"/>
    <line x1="38.03847577293368" y1="100.00000000000003" x2="53.03847577293368" y2="74.01923788646687"/>
    <line x1="53.03847577293368" y1="74.01923788646687" x2="79.01923788646684" y2="59.01923788646687"/>
    <line x1="79.01923788646684" y1="59.01923788646687" x2="109.01923788646684" y2="59.019237886466854"/>
    <line x1="109.01923788646684" y1="59.019237886466854" x2="135" y2="44.019237886466854"/>
    <line x1="135" y1="44.019237886466854" x2="165" y2="44.01923788646685"/>
    <line x1="165" y1="44.01923788646685" x2="190.98076211353316" y2="29.01923788646684"/>
    <line x1="190.98076211353316" y1="29.01923788646684" x2="220.98076211353316" y2="29.019237886466833"/>
    <line x1="220.98076211353316" y1="29.019237886466833" x2="246.96152422706632" y2="44.019237886466826"/>
    <line x1="246.96152422706632" y1="44.019237886466826" x2="276.9615242270663" y2="44.01923788646682"/>
    <line x1="276.9615242270663" y1="44.01923788646682" x2="302.9422863405995" y2="59.01923788646681"/>
  </g>
  
  <!-- Atoms -->
  <g font-family="Arial, sans-serif" font-size="14" font-weight="bold" text-anchor="middle" dominant-baseline="central">
    <circle cx="23.03847577293368" cy="155.9807621135332" r="12" fill="#1a1a2e"/>
    <text x="23.03847577293368" y="155.9807621135332" fill="#ff6b6b">O</text>
    <circle cx="38.03847577293368" cy="100.00000000000003" r="12" fill="#1a1a2e"/>
    <text x="38.03847577293368" y="100.00000000000003" fill="#ff6b6b">O</text>
    <circle cx="109.01923788646684" cy="59.019237886466854" r="12" fill="#1a1a2e"/>
    <text x="109.01923788646684" y="59.019237886466854" fill="#ff6b6b">O</text>
    <circle cx="190.98076211353316" cy="29.01923788646684" r="12" fill="#1a1a2e"/>
    <text x="190.98076211353316" y="29.01923788646684" fill="#ff6b6b">O</text>
    <circle cx="246.96152422706632" cy="44.019237886466826" r="12" fill="#1a1a2e"/>
    <text x="246.96152422706632" y="44.019237886466826" fill="#ff6b6b">O</text>
    <circle cx="302.9422863405995" cy="59.01923788646681" r="12" fill="#1a1a2e"/>
    <text x="302.9422863405995" y="59.01923788646681" fill="#ff6b6b">O</text>
  </g>
  
  <!-- Label -->
  <text x="150" y="185" text-anchor="middle" fill="#6060a0" font-family="Arial" font-size="10">Methyl glycoside</text>
</svg>