<?xml version="1.0" encoding="UTF-8"?>
<svg xmlns="http://www.w3.org/2000/svg" width="300" height="200" viewBox="0 0 300 200">
  <defs>
    <linearGradient id="bond-grad" x1="0%" y1="0%" x2="100%" y2="0%">
      <stop offset="0%" style="stop-color:#8080a0"/>
      <stop offset="100%" style="stop-color:#a0a0c0"/>
    </linearGradient>
  </defs>
  <rect width="100%" height="100%" fill="#1a1a2e" rx="8"/>
  
  <!-- Bonds -->
  <g stroke="url(#bond-grad)" stroke-width="2" stroke-linecap="round">
    <line x1="45.53847577293368" y1="155.98076211353316" x2="71.51923788646684" y2="140.98076211353316"/>
    <line x1="71.51923788646684" y1="140.98076211353316" x2="86.51923788646684" y2="115"/>
    <line x1="86.51923788646684" y1="115" x2="86.51923788646684" y2="85"/>
    <line x1="86.51923788646684" y1="85" x2="101.51923788646684" y2="59.01923788646684"/>
    <line x1="101.51923788646684" y1="59.01923788646684" x2="127.5" y2="44.01923788646684"/>
    <line x1="127.5" y1="44.01923788646684" x2="157.5" y2="44.019237886466826"/>
    <line x1="157.5" y1="44.019237886466826" x2="183.48076211353316" y2="59.019237886466826"/>
    <line x1="183.48076211353316" y1="59.019237886466826" x2="213.48076211353316" y2="59.01923788646682"/>
    <line x1="213.48076211353316" y1="59.01923788646682" x2="239.46152422706632" y2="74.01923788646681"/>
    <line x1="239.46152422706632" y1="74.01923788646681" x2="254.46152422706632" y2="99.99999999999996" stroke-dasharray="5,3"/>
    <line x1="254.46152422706632" y1="99.99999999999996" x2="239.46152422706635" y2="125.98076211353313" stroke-dasharray="5,3"/>
    <line x1="239.46152422706635" y1="125.98076211353313" x2="209.46152422706635" y2="125.98076211353316" stroke-dasharray="5,3"/>
    <line x1="209.46152422706635" y1="125.98076211353316" x2="194.46152422706632" y2="100.00000000000003" stroke-dasharray="5,3"/>
    <line x1="194.46152422706632" y1="100.00000000000003" x2="209.46152422706626" y2="74.01923788646684" stroke-dasharray="5,3"/>
    <line x1="209.46152422706626" y1="74.01923788646684" x2="239.46152422706626" y2="74.01923788646678" stroke-dasharray="5,3"/>
  </g>
  
  <!-- Atoms -->
  <g font-family="Arial, sans-serif" font-size="14" font-weight="bold" text-anchor="middle" dominant-baseline="central">
    <circle cx="45.53847577293368" cy="155.98076211353316" r="12" fill="#1a1a2e"/>
    <text x="45.53847577293368" y="155.98076211353316" fill="#ff6b6b">O</text>
    <circle cx="86.51923788646684" cy="115" r="12" fill="#1a1a2e"/>
    <text x="86.51923788646684" y="115" fill="#4ecdc4">N</text>
  </g>
  
  <!-- Label -->
  <text x="150" y="185" text-anchor="middle" fill="#6060a0" font-family="Arial" font-size="10">Hemiaminal</text>
</svg>