<?xml version="1.0" encoding="UTF-8"?>
<svg xmlns="http://www.w3.org/2000/svg" width="300" height="200" viewBox="0 0 300 200">
  <defs>
    <linearGradient id="bond-grad" x1="0%" y1="0%" x2="100%" y2="0%">
      <stop offset="0%" style="stop-color:#8080a0"/>
      <stop offset="100%" style="stop-color:#a0a0c0"/>
    </linearGradient>
  </defs>
  <rect width="100%" height="100%" fill="#1a1a2e" rx="8"/>
  
  <!-- Bonds -->
  <g stroke="url(#bond-grad)" stroke-width="2" stroke-linecap="round">
    <line x1="60.53847577293372" y1="183.97114317029977" x2="86.51923788646688" y2="168.97114317029977"/>
    <line x1="86.51923788646688" y1="168.97114317029977" x2="116.51923788646688" y2="168.97114317029977"/>
    <line x1="116.51923788646688" y1="168.97114317029977" x2="142.50000000000006" y2="153.97114317029977"/>
    <line x1="142.50000000000006" y1="153.97114317029977" x2="157.50000000000006" y2="127.99038105676661" stroke-dasharray="5,3"/>
    <line x1="157.50000000000006" y1="127.99038105676661" x2="187.50000000000006" y2="127.99038105676661" stroke-dasharray="5,3"/>
    <line x1="187.50000000000006" y1="127.99038105676661" x2="202.50000000000006" y2="153.97114317029977" stroke-dasharray="5,3"/>
    <line x1="202.50000000000006" y1="153.97114317029977" x2="187.50000000000006" y2="179.95190528383293" stroke-dasharray="5,3"/>
    <line x1="187.50000000000006" y1="179.95190528383293" x2="157.50000000000006" y2="179.95190528383293" stroke-dasharray="5,3"/>
    <line x1="157.50000000000006" y1="179.95190528383293" x2="142.50000000000006" y2="153.97114317029977" stroke-dasharray="5,3"/>
    <line x1="142.50000000000006" y1="153.97114317029977" x2="157.5" y2="127.9903810567666"/>
    <line x1="157.5" y1="127.9903810567666" x2="183.48076211353316" y2="112.99038105676658"/>
    <line x1="183.48076211353316" y1="112.99038105676658" x2="198.48076211353316" y2="87.0096189432334"/>
    <line x1="198.48076211353316" y1="87.0096189432334" x2="224.46152422706632" y2="72.00961894323339"/>
    <line x1="224.46152422706632" y1="72.00961894323339" x2="239.46152422706626" y2="46.028856829700224"/>
    <line x1="239.46152422706626" y1="46.028856829700224" x2="239.46152422706626" y2="16.02885682970023"/>
  </g>
  
  <!-- Atoms -->
  <g font-family="Arial, sans-serif" font-size="14" font-weight="bold" text-anchor="middle" dominant-baseline="central">
    <circle cx="60.53847577293372" cy="183.97114317029977" r="12" fill="#1a1a2e"/>
    <text x="60.53847577293372" y="183.97114317029977" fill="#ff6b6b">O</text>
    <circle cx="116.51923788646688" cy="168.97114317029977" r="12" fill="#1a1a2e"/>
    <text x="116.51923788646688" y="168.97114317029977" fill="#4ecdc4">N</text>
  </g>
  
  <!-- Label -->
  <text x="150" y="185" text-anchor="middle" fill="#6060a0" font-family="Arial" font-size="10">N-benzyl cyclohexanecarboxamide</text>
</svg>