<?xml version="1.0" encoding="UTF-8"?>
<svg xmlns="http://www.w3.org/2000/svg" width="300" height="200" viewBox="0 0 300 200">
  <defs>
    <linearGradient id="bond-grad" x1="0%" y1="0%" x2="100%" y2="0%">
      <stop offset="0%" style="stop-color:#8080a0"/>
      <stop offset="100%" style="stop-color:#a0a0c0"/>
    </linearGradient>
  </defs>
  <rect width="100%" height="100%" fill="#1a1a2e" rx="8"/>
  
  <!-- Bonds -->
  <g stroke="url(#bond-grad)" stroke-width="2" stroke-linecap="round">
    <line x1="71.51923788646684" y1="133.48076211353316" x2="97.5" y2="148.48076211353316"/>
    <line x1="97.5" y1="148.48076211353316" x2="127.5" y2="148.48076211353316"/>
    <line x1="127.5" y1="148.48076211353316" x2="153.48076211353316" y2="133.48076211353316"/>
    <line x1="153.48076211353316" y1="133.48076211353316" x2="168.48076211353316" y2="107.5"/>
    <line x1="168.48076211353316" y1="107.5" x2="168.48076211353316" y2="77.5"/>
    <line x1="168.48076211353316" y1="77.5" x2="183.48076211353316" y2="51.51923788646685" stroke-dasharray="5,3"/>
    <line x1="183.48076211353316" y1="51.51923788646685" x2="213.48076211353316" y2="51.51923788646684" stroke-dasharray="5,3"/>
    <line x1="213.48076211353316" y1="51.51923788646684" x2="228.48076211353316" y2="77.5" stroke-dasharray="5,3"/>
    <line x1="228.48076211353316" y1="77.5" x2="213.4807621135332" y2="103.48076211353316" stroke-dasharray="5,3"/>
    <line x1="213.4807621135332" y1="103.48076211353316" x2="183.4807621135332" y2="103.48076211353319" stroke-dasharray="5,3"/>
    <line x1="183.4807621135332" y1="103.48076211353319" x2="168.48076211353316" y2="77.50000000000006" stroke-dasharray="5,3"/>
  </g>
  
  <!-- Atoms -->
  <g font-family="Arial, sans-serif" font-size="14" font-weight="bold" text-anchor="middle" dominant-baseline="central">
    <circle cx="127.5" cy="148.48076211353316" r="12" fill="#1a1a2e"/>
    <text x="127.5" y="148.48076211353316" fill="#ff6b6b">O</text>
  </g>
  
  <!-- Label -->
  <text x="150" y="185" text-anchor="middle" fill="#6060a0" font-family="Arial" font-size="10">Ethyl phenethyl ether</text>
</svg>