<?xml version="1.0" encoding="UTF-8"?>
<svg xmlns="http://www.w3.org/2000/svg" width="300" height="200" viewBox="0 0 300 200">
  <defs>
    <linearGradient id="bond-grad" x1="0%" y1="0%" x2="100%" y2="0%">
      <stop offset="0%" style="stop-color:#8080a0"/>
      <stop offset="100%" style="stop-color:#a0a0c0"/>
    </linearGradient>
  </defs>
  <rect width="100%" height="100%" fill="#1a1a2e" rx="8"/>
  
  <!-- Bonds -->
  <g stroke="url(#bond-grad)" stroke-width="2" stroke-linecap="round">
    <line x1="73.52885682970026" y1="204.46152422706632" x2="99.50961894323342" y2="219.46152422706632"/>
    <line x1="99.50961894323342" y1="219.46152422706632" x2="129.50961894323342" y2="219.46152422706632"/>
    <line x1="129.50961894323342" y1="219.46152422706632" x2="155.49038105676658" y2="204.46152422706632"/>
    <line x1="155.49038105676658" y1="204.46152422706632" x2="185.49038105676658" y2="204.46152422706632"/>
    <line x1="185.49038105676658" y1="204.46152422706632" x2="211.47114317029974" y2="189.46152422706632"/>
    <line x1="211.47114317029974" y1="189.46152422706632" x2="226.47114317029974" y2="163.48076211353316"/>
    <line x1="226.47114317029974" y1="163.48076211353316" x2="226.47114317029974" y2="133.48076211353316"/>
    <line x1="226.47114317029974" y1="133.48076211353316" x2="211.47114317029974" y2="107.50000000000001"/>
    <line x1="211.47114317029974" y1="107.50000000000001" x2="185.49038105676658" y2="92.5"/>
    <line x1="185.49038105676658" y1="92.5" x2="170.49038105676658" y2="66.51923788646684"/>
    <line x1="170.49038105676658" y1="66.51923788646684" x2="170.49038105676658" y2="36.51923788646684"/>
    <line x1="170.49038105676658" y1="36.51923788646684" x2="155.49038105676658" y2="10.53847577293368"/>
    <line x1="155.49038105676658" y1="10.53847577293368" x2="155.49038105676658" y2="-19.46152422706632"/>
  </g>
  
  <!-- Atoms -->
  <g font-family="Arial, sans-serif" font-size="14" font-weight="bold" text-anchor="middle" dominant-baseline="central">
    <circle cx="73.52885682970026" cy="204.46152422706632" r="12" fill="#1a1a2e"/>
    <text x="73.52885682970026" y="204.46152422706632" fill="#ff6b6b">O</text>
    <circle cx="155.49038105676658" cy="204.46152422706632" r="12" fill="#1a1a2e"/>
    <text x="155.49038105676658" y="204.46152422706632" fill="#ff6b6b">O</text>
    <circle cx="211.47114317029974" cy="189.46152422706632" r="12" fill="#1a1a2e"/>
    <text x="211.47114317029974" y="189.46152422706632" fill="#ff6b6b">O</text>
    <circle cx="226.47114317029974" cy="133.48076211353316" r="12" fill="#1a1a2e"/>
    <text x="226.47114317029974" y="133.48076211353316" fill="#ff6b6b">O</text>
    <circle cx="185.49038105676658" cy="92.5" r="12" fill="#1a1a2e"/>
    <text x="185.49038105676658" y="92.5" fill="#ff6b6b">O</text>
    <circle cx="170.49038105676658" cy="36.51923788646684" r="12" fill="#1a1a2e"/>
    <text x="170.49038105676658" y="36.51923788646684" fill="#ff6b6b">O</text>
    <circle cx="155.49038105676658" cy="-19.46152422706632" r="12" fill="#1a1a2e"/>
    <text x="155.49038105676658" y="-19.46152422706632" fill="#ff6b6b">O</text>
  </g>
  
  <!-- Label -->
  <text x="150" y="185" text-anchor="middle" fill="#6060a0" font-family="Arial" font-size="10">Glucose derivative</text>
</svg>