<?xml version="1.0" encoding="UTF-8"?>
<svg xmlns="http://www.w3.org/2000/svg" width="300" height="200" viewBox="0 0 300 200">
  <defs>
    <linearGradient id="bond-grad" x1="0%" y1="0%" x2="100%" y2="0%">
      <stop offset="0%" style="stop-color:#8080a0"/>
      <stop offset="100%" style="stop-color:#a0a0c0"/>
    </linearGradient>
  </defs>
  <rect width="100%" height="100%" fill="#1a1a2e" rx="8"/>
  
  <!-- Bonds -->
  <g stroke="url(#bond-grad)" stroke-width="2" stroke-linecap="round">
    <line x1="45.53847577293368" y1="-22.94228634059948" x2="71.51923788646684" y2="-7.94228634059948"/>
    <line x1="71.51923788646684" y1="-7.94228634059948" x2="86.51923788646684" y2="18.03847577293368"/>
    <line x1="86.51923788646684" y1="18.03847577293368" x2="86.51923788646684" y2="48.03847577293368"/>
    <line x1="86.51923788646684" y1="48.03847577293368" x2="101.51923788646684" y2="74.01923788646684"/>
    <line x1="101.51923788646684" y1="74.01923788646684" x2="127.5" y2="89.01923788646684"/>
    <line x1="127.5" y1="89.01923788646684" x2="142.5" y2="115"/>
    <line x1="142.5" y1="115" x2="168.48076211353316" y2="130"/>
    <line x1="168.48076211353316" y1="130" x2="183.48076211353316" y2="155.98076211353316"/>
    <line x1="183.48076211353316" y1="155.98076211353316" x2="209.46152422706632" y2="170.98076211353316"/>
    <line x1="209.46152422706632" y1="170.98076211353316" x2="239.46152422706632" y2="170.98076211353316" stroke-dasharray="5,3"/>
    <line x1="239.46152422706632" y1="170.98076211353316" x2="254.46152422706632" y2="196.96152422706632" stroke-dasharray="5,3"/>
    <line x1="254.46152422706632" y1="196.96152422706632" x2="239.46152422706632" y2="222.94228634059948" stroke-dasharray="5,3"/>
    <line x1="239.46152422706632" y1="222.94228634059948" x2="209.46152422706632" y2="222.94228634059948" stroke-dasharray="5,3"/>
    <line x1="209.46152422706632" y1="222.94228634059948" x2="194.46152422706632" y2="196.96152422706632" stroke-dasharray="5,3"/>
    <line x1="194.46152422706632" y1="196.96152422706632" x2="209.4615242270663" y2="170.98076211353316" stroke-dasharray="5,3"/>
  </g>
  
  <!-- Atoms -->
  <g font-family="Arial, sans-serif" font-size="14" font-weight="bold" text-anchor="middle" dominant-baseline="central">
    <circle cx="45.53847577293368" cy="-22.94228634059948" r="12" fill="#1a1a2e"/>
    <text x="45.53847577293368" y="-22.94228634059948" fill="#ff6b6b">O</text>
    <circle cx="86.51923788646684" cy="18.03847577293368" r="12" fill="#1a1a2e"/>
    <text x="86.51923788646684" y="18.03847577293368" fill="#4ecdc4">N</text>
  </g>
  
  <!-- Label -->
  <text x="150" y="185" text-anchor="middle" fill="#6060a0" font-family="Arial" font-size="10">N-cyclohexylmethyl benzamide</text>
</svg>