<svg xmlns="http://www.w3.org/2000/svg" viewBox="0 0 1442 300"><path fill="#fff" d="m1314.27 43.98.72 1.81a1.63 1.62-24.5 0 0 2.26.84c6.55-3.43 11.81-3.2 19.88-2.57 20.96 1.64 40.23 8.63 42.11 32.85a2.36 2.36 0 0 1-1.48 2.37l-6.84 2.72a2.5 2.5 0 0 1-1.2.16l-31.83-3.5a2.71 2.6-46.1 0 0-.76.03l-42.48 7.22a1.62 1.62 0 0 0-1.09 2.48q.54.82 1.7 1.38 51.03 24.99 109.02 58.97c2.5 1.46 3.73 2.26 4.7 5.03q3.31 9.38 11.19 17.07 1.22 1.19 1.23 4.28.04 10.91.08 18.65.05 10.4-5.14 17.54c-7.06 9.71-18.19 15.07-29.79 18.23-15.7 4.27-32.6 5.3-50.32 5.31-41.51.01-80.67-9.19-117.1-29.68q-2.5-1.41-5.51-6.01-9.49-14.49-9.88-31.88c-.09-4.14 2.45-6.9 5.86-9.25 7.11-4.93 11.79-7.81 19.45-6.62a.66.66 0 0 1 .56.63c1.07 32.99 32.79 42.26 59.87 46.07q6.38.9 13.18.92 36.91.12 48.57.33a13.11 12.95 35.9 0 0 4.28-.66q9.3-3.09 16.36-8.79c4.15-3.36 3.21-13.26 1.88-17.62-.54-1.76-4.3-5.48-5.91-6.88q-17.11-14.8-38.29-24.21-26.05-11.57-53.57-18.89-16.88-4.48-18.57-4.92-2.25-.57-5.82-4.5c-7.06-7.78-13.46-16.09-16.92-25.57-9.58-26.33 57-39.19 72.39-42.01 2.16-.39 4.71-1.25 6.38-1.73a.68.68 0 0 1 .83.4M436.07 80.28q.37.87 1.13 1.9a1.45 1.43-65.4 0 1 .27.74l1.06 15.43a.28.27 11.2 0 0 .16.23q.45.21.34-.53a.31.31 0 0 1 .52-.27q.13.13.22.24a.07.07 0 0 1 .02.05q.79 26.23 1.68 31.45.27 1.55.79 3.32.47 1.57 1.26 3.2 20.76 43.09 48.33 83.97a1.15 1.15 0 0 1-.4 1.65q-6.89 3.75-10.63 5.66-1.99 1.02-4.3.84c-13-1.05-24.15-5.53-30.47-16.46q-2.12-3.67-4.29-8.5a11.79 11.74 9.7 0 0-2.67-3.75q-16.47-15.53-31.44-31.85-2.04-2.21-3.76-4.47a1.12 1.12 0 0 0-1.75-.03c-18.39 22.19-42.34 36.97-71.86 37.14-25.78.14-51.51-7.54-51.39-38.69.12-30.97 9.1-59.59 33.38-79.49q11.74-9.62 25.88-15.4 5.23-2.14 8.35-2.43 10.29-.98 20.5-2.42 3.49-.5 6.83-.19a.86.25 29 0 1 .13.03l9.9 3.32a1.31 1.31 0 0 0 1.71-1.04c1.3-8.34 12.67-11.83 20.19-12.94 5.9-.86 12.08 1.58 16.74 5.22 6.04 4.73 10.34 13.75 12.41 21.16q.14.52 1.16 2.91M384.9 99.43q-5.78.31-12.48 1.32c-27.53 4.15-42.72 25.9-48.61 51.37-1.21 5.21-2.54 10.76-2.23 15.65a1.19 1.19 0 0 0 1.2 1.12l10.36-.13a2.53 2.19-49.2 0 0 .48-.07q3.54-.98 9.41-4.15 12.89-6.95 22.94-17.04 19.38-19.44 19.63-47.39a.68.67 88.8 0 0-.7-.68M1122.54 91.54l.18-.17a.41.41 0 0 1 .68.24c.84 4.95.23 10.89.63 15.17q.27 2.93.88 18.47.12 3.04.93 6.16.67 2.59 2.24 5.81 20.63 42.48 47.78 82.83a1.06 1.05 58.3 0 1-.35 1.51q-5.64 3.21-10.87 5.79-2.17 1.08-5.12.77c-12.95-1.34-22.83-5.68-29.66-16.72q-.88-1.41-4.34-8.73a6.05 5.86-77.8 0 0-.77-1.24q-1.49-1.84-1.8-2.13-14.59-13.86-27.79-27.96-3.77-4.04-7.18-8.25a1.24 1.24 0 0 0-1.92 0q-12.09 14.97-28.61 25.09c-17.96 11.01-38.39 14.02-59.13 10.95-13.53-2-26.34-7.75-32.2-20.4q-3.42-7.37-3.19-20.46.3-17.91 5.26-34.04c8.32-27.1 27.95-46.86 53.81-57.48 4.01-1.65 6.91-2.36 11.45-2.84q15.06-1.58 17.56-2.11 5.33-1.14 11.28 1.33 3.21 1.34 6.29 1.69a.83.81 8.1 0 0 .91-.67c1.61-9.28 15.12-13.07 22.77-13.26 10.85-.27 19.79 9.08 23.89 18.74q2.66 6.25 3.98 11.23.08.3.55.65a1.4 1.39 15 0 1 .56.96l.99 8.91a.21.21 0 0 0 .31.16m-53.56 7.86q-5.78.31-12.49 1.31c-27.56 4.15-42.77 25.92-48.68 51.41-1.21 5.22-2.54 10.77-2.24 15.67a1.19 1.19 0 0 0 1.21 1.12l10.37-.13a2.53 2.19-49.1 0 0 .48-.07q3.54-.98 9.42-4.15 12.9-6.95 22.97-17.05 19.4-19.45 19.66-47.43a.68.67 88.8 0 0-.7-.68M576.11 98.3q.42-.1.72-.47 12.55-15.16 25.31-28.95 6.43-6.95 12.97-12.77c4.73-4.22 14.28-2.4 19.14.4q6.81 3.92 15.14 11.36c16.06 14.34 28.21 32.44 37.9 52.19q1.08 2.2 4.17 10.6 2.94 7.96 8.88 16.5c14.73 21.14 30.96 41.07 47.91 60.86 2.52 2.95 2.47 5.59 2.18 9.49q-.54 7.32-8.94 6.97c-11.4-.47-23.97-9.19-32.44-16.75q-15.26-13.61-28.85-29.65c-18.13-21.39-35.47-45.42-52.11-69.41q-1.21-1.75-3.13-2.73a.98.98 0 0 0-.93.02q-1.76.97-2.53 2.31c-11.71 20.26-23.08 39.53-36.23 57.98q-9.41 13.2-18.55 22.12c-2.53 2.46-10.08 9.26-13.88 8.05q-10.52-3.37-22.47-8.78-5.04-2.28-9.24-5.72-1.49-1.21-1.13-3.14 5.55-29.87 7.06-47.03 1.69-19.24 1.19-42.22c-.1-4.38 5.97-7.88 9.65-9.63 3.48-1.66 5.05-1.68 9.2-1.53 10.74.38 22.15 2.51 26.92 12.6q1.54 3.27 1.06 6.47a.83.78-3.5 0 0 1.03.86M239.81 155.92l10.42 11.4a5.21 5.2 20.2 0 1 1.31 2.83q.63 4.95.25 10.62-.13 2.02-1.6 2.93c-31.94 19.95-66.84 34.43-104.18 37.15q-2.92.21-18.51.22-10.59 0-18.45-1.01c-37.87-4.88-84.63-19.81-87.71-66.02q-2.82-42.08 31.1-64.51 11.96-7.91 27.97-12.85 21.85-6.74 42.34-8.39 8.51-.69 18.61 1.86 17.76 4.49 24.74 21.21c1.45 3.46-1.29 8.79-3.71 11.23-5.9 5.97-15.17 9.12-23.13 10.68-14.5 2.84-28.41 3.46-42.65 3.58a8.05 7.98 29.5 0 0-3.93 1.07q-23.65 13.65-24.54 41.05-.54 16.76 14.2 23.96c9.71 4.76 20.03 6.77 31.32 6.73 12.7-.04 22.14-.18 34.1-2.17 30.76-5.11 61.65-17.6 89.52-32.02a2.12 2.11-34.8 0 1 2.53.45M851.59 158.49c4.29-2.18 8.08-7.5 11.04-11.86q5.7-8.39 10.82-18.18 12.17-23.26 22.93-48.26a2.66 2.65 11.6 0 1 2.46-1.61q9.92.06 21.15.01c8.38-.04 13.62 7.03 14.91 14.83q.83 5.08.92 10.83c.05 3.03-.4 4.42-2.44 7.06q-10.35 13.34-16.98 24.6-19.94 33.82-42.88 79.87-.86 1.73-1.33 2.41a2.84 2.83-73.3 0 1-2.31 1.25q-6.81.08-14.47-1.6c-11.85-2.6-25.39-7.13-32.19-17.94q-1.14-1.8-2.54-7.77-1.23-5.25-3.47-10.06-14.31-30.69-37.88-80.88-1.99-4.23-.98-7.76 1.47-5.17 3.86-9.45c3.64-6.53 9.68-5.4 17.14-5.43 6.81-.02 10.36-.25 14.46 4.15 6.39 6.87 11.21 15.39 15.25 23.82q11.85 24.73 20.91 51.31a1.16 1.16 0 0 0 1.62.66"/></svg>