<svg xmlns="http://www.w3.org/2000/svg" viewBox="0 0 734 462"><path fill="#fff" d="M404.05 24q.67 0 .88.31 4.54 6.75 10.9 12.42a.93.93 0 0 1-.97 1.56q-4.32-1.77-8.3-5.37a.33.33 0 0 0-.55.25V72.4a.55.55 0 0 1-.52.55q-.86.05-1.49.05-.62 0-1.48-.05a.55.55 0 0 1-.52-.55l.08-39.23a.33.33 0 0 0-.55-.25q-3.99 3.59-8.31 5.35a.93.93 0 0 1-.97-1.56q6.37-5.66 10.92-12.4.21-.31.88-.31"/><path fill="#fff" d="M365.94 462h-2.88l-.05-209.44a.6.59 0 0 0-.6-.59H37.57a.55.55 0 0 1-.55-.55v-2.88a.54.54 0 0 1 .54-.54h323.37a.28.28 0 0 0 .25-.42c-16.45-28.77-35.61-57.66-57.11-82.36q-16.65-19.12-36.42-33.07-11-7.76-24.53-12.2c-41.37-13.59-75.38 15.79-101.41 43.52q-7.8 8.31-33.5 36.74-10.19 11.27-21 20.49c-11.63 9.93-25.65 18.81-41.34 18.5a.33.33 0 0 1-.32-.33v-1.93a.31.31 0 0 1 .31-.31c12.59.19 24.32-5.95 34.27-13.76q13.64-10.73 26.29-24.71 29.52-32.65 34.33-37.65c22.69-23.61 51.56-49.69 87.23-46.41 23.56 2.16 45.07 16.32 62.17 32.77q18.17 17.47 33.75 38.49 20.78 28.02 38.51 58.99a.32.32 0 0 0 .59-.16V26.01a1.05 1.05 0 0 1 1.05-1.05h.88a1.07 1.07 0 0 1 1.07 1.07v221.45a.52.52 0 0 0 .52.52h324.49a1 .99 90 0 1 .99 1v1.98a.99.99 0 0 1-.99.99H367.4a.32.32 0 0 0-.27.48c18.2 31.29 38.3 61.84 62.32 88.07 17.82 19.45 42.96 40.19 70.29 42.87 23.04 2.26 44.03-8.15 61.53-22.63q16.44-13.59 32.72-31.78 20.25-22.6 30.38-33.35c10.72-11.37 23.43-23.05 37.37-29.87q9.4-4.6 20.51-4.93a.74.73-.8 0 1 .76.73v1.16a.68.68 0 0 1-.66.68c-14.69.42-27.08 7.95-38.2 17.27q-10.55 8.83-22.07 21.41-.33.35-29.68 32.57-10.89 11.95-21.9 21.85c-26.31 23.67-57.45 39-93.03 23.7-18.67-8.03-35.11-21.85-48.73-36.45-23.92-25.63-44.71-56.57-62.09-86.88a.36.35-60.1 0 0-.66.18z"/><path fill="#fff" d="M221.23 96.13q-.65-5.55-.12-6.87c2.3-5.62 9.29-5.05 16.02-5.69a2.88 2.88 0 0 0 2.53-2.18q1.23-5.01-3.92-5.92c-3.68-.65-8.42.13-9.42 4.42a.76.76 0 0 1-.74.58h-1.46a.5.5 0 0 1-.49-.59q.85-4.38 4.86-5.82c5.43-1.95 15.69-1.46 14.07 6.99q-1.96 10.17-2.98 14.79a1.21 1.21 0 0 0 1.18 1.47h1.53a.4.39 5.9 0 1 .39.47l-.24 1.1a.66.65 87.8 0 1-.46.5q-4.15 1.21-5.07-2.25a.42.41 61 0 0-.68-.2c-3.95 3.64-10.81 4.37-14.58.13a1.77 1.75-69.6 0 1-.42-.93m17.04-10.24q-2.45.42-8.7.95-5.29.44-5.94 4.68c-.54 3.55 1.61 6.06 5.18 5.99 6.7-.13 8.7-5.54 9.91-11.16a.39.39 0 0 0-.45-.46M437.73 88.65q-.37-1.96.92-4.8 2.34-5.15 5.05-9.09a1.87 1.85 23.1 0 1 1.92-.76l.28.06a.65.64-66.5 0 1 .39 1q-5.58 7.88-6.32 19.15-.93 14.05 6.24 23.91a.56.56 0 0 1-.23.84q-.73.31-1.76-.26a1.09 1.06 7.2 0 1-.52-.65q-.43-1.57-1.48-2.34a1 .96-75.8 0 1-.39-.68q-.1-1-.8-1.25a1.55 1.53-4.1 0 1-.84-.72q-1.68-3.19-2.79-8.12-.52-2.31-.37-5.92c.14-3.16-.8-6.43.59-9.48a1.47 1.4 53.4 0 0 .11-.89M470.14 118.98h-.57a.44.43-67 0 1-.3-.75q2.35-2.27 4.21-6.65a4.08 3.83 63.2 0 0 .27-.92q1.06-6.45 1.41-7.92 1.04-4.36.62-8.05-.94-8.16-1.82-10.41-1.17-2.96-4.71-9.57a.45.44 75.9 0 1 .39-.66h.91a1.44 1.4 72 0 1 1.16.61q12.24 17.29 4.3 37.02-1.34 3.31-4.39 6.65a2.01 1.98 20.8 0 1-1.48.65M420.83 90.98q-1.78 3.43-4.08 4.5-2.89 1.34-8.19 1.57a.69.68 88.7 0 0-.65.69v10.55a2.5 2.49-84 0 0 1.97 2.44l2.43.51a.37.37 0 0 1-.08.73h-13.25a.32.31 90 0 1-.31-.32v-.3a.24.24 0 0 1 .24-.24q2.26.07 3.57-.99a1.14 1.12-20.4 0 0 .4-.86V97.33a.35.35 0 0 0-.38-.35q-1.59.13-4.99-.52-6.53-1.26-8.36-7.51a.1.08 38 0 1-.01-.04l-.4-8.48a.73.72 18.2 0 0-.28-.55l-1.5-1.21a.33.32-26.3 0 1 .2-.58q5.86-.08 7.56 5.7c.6 2.04.07 5.31 1.02 7.58q1.62 3.85 6.55 3.62a.62.62 0 0 0 .59-.62V81.88a1.64 1.64 0 0 0-1.29-1.6l-2.61-.55a.35.35 0 0 1 .07-.7h13.38a.17.17 0 0 1 .17.17v.25a.34.34 0 0 1-.32.34q-2.4.13-3.8 1.21a1.53 1.52-18.9 0 0-.6 1.21v11.02a2.12 2.12 0 0 0 3.18 1.83l3.02-1.74a4 4 0 0 0 1.98-3.79q-.4-4.56.26-6.13 2.26-5.44 7.74-5.28a.4.4 0 0 1 .19.75l-1.61.93a1.1 1.09 74 0 0-.55 1q.23 5.88-.4 10.07a.51.36-73.8 0 1-.57.46q-.11-.07-.15-.33a.08.07-36.7 0 0-.14-.02"/><path fill="#fff" d="m464.74 84.06 2.3.02a.33.32 20 0 1 .25.53l-9.2 11.32a.59.58-41 0 0-.05.67l6.71 11.68a.47.47 0 0 1-.4.7l-1.75.03a1.46 1.45-14.6 0 1-1.32-.77l-4.92-9.35a.42.42 0 0 0-.7-.06l-7.66 9.51a1.86 1.83 19.6 0 1-1.45.68l-1.9-.03a.39.39 0 0 1-.29-.63l9.74-12.13a1.1 1.1 0 0 0 .1-1.21l-5.69-10.39a.38.38 0 0 1 .33-.57h1.66a1.11 1.1 75 0 1 .96.56l4.8 8.49a.37.37 0 0 0 .61.05l6.77-8.57a1.37 1.36-70.5 0 1 1.1-.53M385.14 213.15c6.82-6.41 16.44-2.6 17.01 6.69.47 7.74-3.01 15.97-11.38 17.05-4.8.62-7.49-1.29-9.7-5.25a.33.33 0 0 0-.61.1l-.77 3.63a.76.75 5.6 0 1-.74.6h-1.56a.51.51 0 0 1-.5-.62l7.14-33.61a.9.89-84 0 1 .87-.71h1.66a.51.5 6 0 1 .5.61l-2.39 11.24a.29.28 74.6 0 0 .47.27m8.706-.554a11.38 8.31-73.9 0 0-11.14 8.63 11.38 8.31-73.9 0 0 4.828 13.238 11.38 8.31-73.9 0 0 11.14-8.63 11.38 8.31-73.9 0 0-4.828-13.238M585.01 224.49l6.86 11.88a.37.37 0 0 1-.32.56h-2.38a.37.37 0 0 1-.32-.18l-5.66-9.81a.37.37 0 0 0-.61-.05l-7.95 9.93a.37.37 0 0 1-.29.14h-2.7a.37.37 0 0 1-.29-.6l10.15-12.67a.37.37 0 0 0 .03-.42l-6.17-10.71a.37.37 0 0 1 .32-.55h2.22a.37.37 0 0 1 .32.18l5.08 8.8a.37.37 0 0 0 .61.05l7.12-8.89a.37.37 0 0 1 .29-.14h2.62a.37.37 0 0 1 .29.6l-9.19 11.46a.37.37 0 0 0-.03.42M668.77 226.44q0 .29-.11.56-.12.27-.37.44-6.61 4.34-11.94 10.57a.97.95-68.8 0 1-.72.33h-.8a.57.57 0 0 1-.52-.79q2.26-5.27 5.88-9.01a.35.35 0 0 0-.25-.59h-61.26a.66.65 89.5 0 1-.65-.65q0-.25-.01-.79 0-.55.01-.8a.66.65-89.6 0 1 .65-.65l61.26-.12a.35.35 0 0 0 .25-.59q-3.63-3.73-5.9-9a.57.57 0 0 1 .52-.79h.8a.97.95 68.7 0 1 .72.33q5.34 6.22 11.96 10.54.25.17.36.44.12.27.12.57M215.78 262.98l2.3.02a.33.32 20 0 1 .25.53l-9.21 11.35a.59.58-41.1 0 0-.05.68l6.71 11.69a.47.47 0 0 1-.4.7l-1.75.03a1.46 1.45-14.6 0 1-1.32-.77l-4.93-9.36a.42.42 0 0 0-.7-.06l-7.67 9.53a1.87 1.84 19.5 0 1-1.46.68l-1.9-.03a.39.39 0 0 1-.29-.63l9.75-12.15a1.1 1.1 0 0 0 .1-1.21l-5.7-10.42a.38.38 0 0 1 .33-.57h1.67a1.11 1.1 75 0 1 .96.56l4.81 8.5a.37.37 0 0 0 .61.05l6.78-8.59a1.38 1.36-70.5 0 1 1.11-.53M66.33 278.54c1.8 1.9 4.36 5.55 5.5 8.39a.97.97 0 0 1-1.62 1.01q-5.61-6.22-12.35-10.87a1.05 1.05 0 0 1 .03-1.75q6.57-4.2 12.45-10.95a.94.94 0 0 1 1.57 1.01q-2.3 5.08-6.06 9.09a.31.31 0 0 0 .23.52h88.8a1.12 1.12 0 0 1 1.12 1.12v.82a.99.98 90 0 1-.98.99H66.59a.37.36 67.9 0 0-.26.62"/><rect width="24.74" height="2.14" x="173.94" y="274.01" fill="#fff" rx=".81"/><path fill="#fff" d="M520.63 412.65h1.31a.83.83 0 0 1 .76 1.15q-3.97 9.59-13.89 7.92c-8.24-1.4-9.25-10.24-7.18-17.02 2.28-7.47 9.2-11.42 16.76-8.83q4.74 1.63 5.4 7.96a.26.26 0 0 1-.26.29h-2.16a.34.33 86 0 1-.33-.29q-.79-5.57-5.97-6.36c-12.57-1.92-16.9 24.12-1.99 21.69q4.41-.72 6.24-5.6a1.4 1.4 0 0 1 1.31-.91"/></svg>