<?xml version="1.0" encoding="UTF-8"?>
<svg xmlns="http://www.w3.org/2000/svg" width="300" height="200" viewBox="0 0 300 200">
  <defs>
    <linearGradient id="bond-grad" x1="0%" y1="0%" x2="100%" y2="0%">
      <stop offset="0%" style="stop-color:#8080a0"/>
      <stop offset="100%" style="stop-color:#a0a0c0"/>
    </linearGradient>
  </defs>
  <rect width="100%" height="100%" fill="#1a1a2e" rx="8"/>
  
  <!-- Bonds -->
  <g stroke="url(#bond-grad)" stroke-width="2" stroke-linecap="round">
    <line x1="85.04809471616711" y1="132.00961894323336" x2="100.04809471616711" y2="157.99038105676652" stroke-dasharray="5,3"/>
    <line x1="100.04809471616711" y1="157.99038105676652" x2="85.04809471616713" y2="183.97114317029968" stroke-dasharray="5,3"/>
    <line x1="85.04809471616713" y1="183.97114317029968" x2="55.04809471616712" y2="183.97114317029968" stroke-dasharray="5,3"/>
    <line x1="55.04809471616712" y1="183.97114317029968" x2="40.04809471616711" y2="157.99038105676652"/>
    <line x1="40.04809471616711" y1="157.99038105676652" x2="40.0480947161671" y2="127.99038105676654"/>
    <line x1="40.0480947161671" y1="127.99038105676654" x2="55.04809471616711" y2="102.00961894323338"/>
    <line x1="55.04809471616711" y1="102.00961894323338" x2="81.02885682970027" y2="87.00961894323339"/>
    <line x1="81.02885682970027" y1="87.00961894323339" x2="111.02885682970027" y2="87.00961894323342"/>
    <line x1="111.02885682970027" y1="87.00961894323342" x2="137.00961894323342" y2="72.00961894323342"/>
    <line x1="137.00961894323342" y1="72.00961894323342" x2="167.00961894323342" y2="72.00961894323345"/>
    <line x1="167.00961894323342" y1="72.00961894323345" x2="192.99038105676658" y2="57.00961894323345"/>
    <line x1="192.99038105676658" y1="57.00961894323345" x2="207.99038105676658" y2="31.028856829700295"/>
    <line x1="207.99038105676658" y1="31.028856829700295" x2="233.97114317029974" y2="16.028856829700306" stroke-dasharray="5,3"/>
    <line x1="233.97114317029974" y1="16.028856829700306" x2="259.9519052838329" y2="31.028856829700306" stroke-dasharray="5,3"/>
  </g>
  
  <!-- Atoms -->
  <g font-family="Arial, sans-serif" font-size="14" font-weight="bold" text-anchor="middle" dominant-baseline="central">
    <circle cx="40.0480947161671" cy="127.99038105676654" r="12" fill="#1a1a2e"/>
    <text x="40.0480947161671" y="127.99038105676654" fill="#4ecdc4">N</text>
  </g>
  
  <!-- Label -->
  <text x="150" y="185" text-anchor="middle" fill="#6060a0" font-family="Arial" font-size="10">Benzylcyclohexylmethylamine</text>
</svg>