<?xml version="1.0" encoding="UTF-8" standalone="no"?>
<!DOCTYPE svg PUBLIC "-//W3C//DTD SVG 1.1//EN" "http://www.w3.org/Graphics/SVG/1.1/DTD/svg11.dtd">
<svg xmlns="http://www.w3.org/2000/svg" version="1.1" viewBox="0.00 0.00 1198.00 554.00">
<path fill="#ffffff" d="
  M 685.46 49.71
  Q 685.68 49.71 685.69 49.70
  Q 715.89 34.71 753.27 16.10
  Q 754.31 15.58 756.79 16.13
  A 3.24 3.04 -23.7 0 1 757.44 16.36
  L 826.01 50.50
  A 3.09 3.08 -78.0 0 1 827.70 53.13
  Q 827.71 53.23 827.71 91.61
  Q 827.71 129.99 827.71 130.09
  A 3.09 3.08 78.0 0 1 826.01 132.72
  L 757.44 166.86
  A 3.24 3.04 23.7 0 1 756.79 167.09
  Q 754.31 167.64 753.27 167.12
  Q 715.89 148.52 685.70 133.53
  Q 685.68 133.52 685.46 133.52
  Q 685.25 133.52 685.23 133.53
  Q 655.04 148.52 617.66 167.13
  Q 616.62 167.65 614.14 167.10
  A 3.24 3.04 -23.7 0 1 613.49 166.87
  L 544.92 132.73
  A 3.09 3.08 -78.0 0 1 543.22 130.10
  Q 543.22 130.00 543.22 91.62
  Q 543.21 53.24 543.22 53.14
  A 3.09 3.08 78.0 0 1 544.92 50.51
  L 613.48 16.37
  A 3.24 3.04 23.7 0 1 614.13 16.14
  Q 616.61 15.59 617.65 16.11
  Q 655.04 34.71 685.23 49.70
  Q 685.25 49.71 685.46 49.71
  Z
  M 549.53 91.61
  Q 549.53 122.14 549.58 127.24
  A 0.98 0.98 0.0 0 0 550.12 128.11
  Q 575.05 140.60 615.52 160.72
  Q 615.62 160.77 615.83 160.77
  Q 616.02 160.77 616.12 160.72
  Q 656.59 140.61 681.53 128.12
  A 0.98 0.98 0.0 0 0 682.06 127.25
  Q 682.11 122.15 682.12 91.62
  Q 682.12 61.08 682.07 55.98
  A 0.98 0.98 0.0 0 0 681.53 55.11
  Q 656.60 42.62 616.13 22.50
  Q 616.03 22.45 615.83 22.45
  Q 615.63 22.45 615.53 22.50
  Q 575.06 42.62 550.13 55.10
  A 0.98 0.98 0.0 0 0 549.59 55.97
  Q 549.54 61.07 549.53 91.61
  Z
  M 821.32 91.62
  Q 821.32 61.10 821.27 56.00
  A 0.98 0.98 0.0 0 0 820.73 55.14
  Q 795.82 42.65 755.37 22.55
  Q 755.27 22.50 755.07 22.50
  Q 754.87 22.50 754.78 22.55
  Q 714.32 42.65 689.41 55.13
  A 0.98 0.98 0.0 0 0 688.87 55.99
  Q 688.82 61.09 688.82 91.61
  Q 688.82 122.12 688.87 127.22
  A 0.98 0.98 0.0 0 0 689.40 128.09
  Q 714.32 140.57 754.77 160.68
  Q 754.86 160.73 755.07 160.73
  Q 755.27 160.73 755.36 160.68
  Q 795.81 140.58 820.73 128.10
  A 0.98 0.98 0.0 0 0 821.26 127.23
  Q 821.32 122.13 821.32 91.62
  Z"
/>
<path fill="#ffffff" d="
  M 346.12 32.59
  C 345.28 29.00 340.40 27.67 337.29 28.09
  Q 331.55 28.85 329.11 34.60
  A 0.60 0.60 0.0 0 1 327.97 34.26
  C 329.39 26.21 335.98 21.47 343.94 23.39
  C 348.08 24.39 352.68 28.45 353.15 33.13
  C 353.88 40.26 349.96 46.55 345.25 51.75
  Q 338.08 59.67 333.91 63.57
  A 0.23 0.22 -66.3 0 0 334.06 63.96
  Q 339.22 64.01 347.56 64.01
  C 350.91 64.01 353.07 63.19 354.99 60.61
  A 0.61 0.61 0.0 0 1 356.04 61.21
  L 352.91 68.59
  A 0.66 0.66 0.0 0 1 352.30 69.00
  L 327.35 69.00
  A 0.86 0.86 0.0 0 1 326.79 67.49
  Q 335.62 59.87 342.23 51.67
  C 346.51 46.36 349.57 39.74 346.78 33.11
  A 0.64 0.61 89.4 0 0 346.44 32.76
  L 346.16 32.64
  A 0.05 0.05 0.0 0 1 346.12 32.59
  Z"
/>
<path fill="#ffffff" d="
  M 382.49 47.01
  Q 375.03 47.00 372.70 47.09
  A 0.66 0.65 -0.9 0 0 372.06 47.74
  Q 371.97 61.59 372.20 64.46
  C 372.46 67.80 375.46 67.92 378.17 68.14
  A 0.36 0.36 0.0 0 1 378.50 68.50
  L 378.50 68.80
  A 0.21 0.21 0.0 0 1 378.29 69.01
  L 359.77 69.02
  A 0.45 0.44 -89.4 0 1 359.33 68.56
  L 359.33 68.54
  A 0.45 0.44 -2.0 0 1 359.76 68.09
  C 362.61 68.01 365.65 67.54 365.73 63.98
  Q 365.94 54.75 365.76 28.75
  C 365.74 25.64 362.19 24.90 359.69 24.89
  A 0.36 0.36 0.0 0 1 359.33 24.53
  L 359.33 24.26
  A 0.26 0.26 0.0 0 1 359.59 24.00
  L 378.37 23.99
  A 0.10 0.10 0.0 0 1 378.47 24.08
  L 378.50 24.33
  A 0.44 0.43 -6.6 0 1 378.11 24.81
  C 375.89 25.08 372.97 25.33 372.14 27.68
  A 1.60 1.41 57.3 0 0 372.07 28.14
  L 372.07 44.55
  A 0.38 0.38 0.0 0 0 372.42 44.92
  Q 373.55 45.00 382.49 45.00
  Q 391.43 45.00 392.56 44.93
  A 0.38 0.38 0.0 0 0 392.91 44.55
  L 392.92 28.15
  A 1.60 1.41 -57.3 0 0 392.85 27.69
  C 392.02 25.34 389.10 25.09 386.88 24.82
  A 0.44 0.43 6.6 0 1 386.49 24.34
  L 386.52 24.09
  A 0.10 0.10 0.0 0 1 386.62 24.00
  L 405.40 24.01
  A 0.26 0.26 0.0 0 1 405.66 24.27
  L 405.66 24.54
  A 0.36 0.36 0.0 0 1 405.30 24.90
  C 402.80 24.90 399.25 25.65 399.23 28.76
  Q 399.04 54.76 399.24 63.99
  C 399.32 67.55 402.36 68.02 405.21 68.10
  A 0.45 0.44 2.0 0 1 405.64 68.55
  L 405.64 68.57
  A 0.45 0.44 89.4 0 1 405.20 69.03
  L 386.68 69.01
  A 0.21 0.21 0.0 0 1 386.47 68.80
  L 386.47 68.50
  A 0.36 0.36 0.0 0 1 386.80 68.14
  C 389.51 67.92 392.51 67.80 392.78 64.47
  Q 393.01 61.59 392.91 47.74
  A 0.66 0.65 0.9 0 0 392.28 47.09
  Q 389.95 47.01 382.49 47.01
  Z"
/>
<path fill="#ffffff" d="
  M 422.56 82.63
  L 420.87 86.61
  A 0.63 0.62 11.2 0 1 420.29 86.99
  L 408.24 86.99
  A 0.46 0.46 0.0 0 1 407.93 86.18
  C 411.18 83.31 421.46 73.97 417.82 69.15
  C 415.81 66.47 412.29 66.13 410.04 68.77
  Q 409.98 68.84 408.96 70.61
  A 0.30 0.30 0.0 0 1 408.41 70.40
  C 410.62 58.65 425.83 64.91 419.74 74.54
  Q 416.66 79.41 412.15 83.43
  A 0.32 0.32 0.0 0 0 412.36 83.99
  L 419.71 83.99
  A 1.40 1.40 0.0 0 0 420.70 83.58
  L 422.02 82.26
  A 0.34 0.33 79.1 0 1 422.56 82.63
  Z"
/>
<path fill="#ffffff" d="
  M 494.22 402.54
  L 530.11 420.41
  A 0.34 0.34 0.0 0 1 530.11 421.02
  L 494.18 438.98
  A 0.47 0.47 0.0 0 1 493.50 438.56
  L 493.50 424.40
  A 0.40 0.40 0.0 0 0 493.10 424.00
  Q 256.38 424.02 255.27 423.98
  C 252.85 423.88 252.25 421.94 252.25 419.74
  Q 252.24 344.89 252.25 262.30
  A 0.30 0.30 0.0 0 0 251.95 262.00
  L 83.21 262.00
  A 0.20 0.19 -90.0 0 1 83.02 261.80
  L 83.02 255.22
  A 0.22 0.21 -90.0 0 1 83.23 255.00
  L 251.63 255.00
  A 0.60 0.60 0.0 0 0 252.23 254.40
  Q 252.26 160.44 252.21 95.59
  Q 252.21 91.47 256.08 91.47
  Q 474.51 91.57 492.95 91.44
  A 0.55 0.55 0.0 0 0 493.50 90.89
  L 493.50 76.68
  A 0.40 0.40 0.0 0 1 494.07 76.32
  L 530.03 94.22
  A 0.36 0.36 0.0 0 1 530.03 94.86
  L 494.10 112.83
  A 0.42 0.42 0.0 0 1 493.49 112.45
  L 493.49 98.32
  A 0.57 0.57 0.0 0 0 492.92 97.75
  L 258.81 97.75
  A 0.31 0.31 0.0 0 0 258.50 98.06
  L 258.50 417.19
  A 0.31 0.31 0.0 0 0 258.81 417.50
  L 493.14 417.50
  A 0.36 0.35 0.0 0 0 493.50 417.15
  L 493.50 402.99
  A 0.50 0.50 0.0 0 1 494.22 402.54
  Z"
/>
<path fill="#ffffff" d="
  M 348.20 107.81
  A 0.40 0.39 -36.2 0 1 348.32 107.04
  Q 357.56 106.95 367.25 107.02
  C 387.74 107.19 386.06 134.75 365.74 131.91
  Q 362.02 131.39 361.36 131.34
  A 0.50 0.49 -87.9 0 0 360.83 131.84
  Q 360.83 143.28 360.97 147.25
  C 361.10 150.92 364.13 150.91 366.89 151.13
  A 0.29 0.28 -87.9 0 1 367.15 151.42
  L 367.15 151.71
  A 0.29 0.28 90.0 0 1 366.87 152.00
  L 348.32 152.00
  A 0.40 0.40 0.0 0 1 347.93 151.67
  L 347.88 151.35
  A 0.13 0.12 84.8 0 1 347.98 151.22
  L 352.02 150.64
  A 1.91 1.81 28.2 0 0 352.35 150.55
  Q 354.53 149.60 354.55 145.99
  Q 354.65 128.65 354.57 113.25
  C 354.55 109.59 353.15 108.20 350.01 108.02
  Q 348.60 107.94 348.20 107.81
  Z
  M 360.85 110.65
  L 360.85 128.47
  A 1.59 1.59 0.0 0 0 362.44 130.06
  L 365.49 130.06
  A 10.23 9.20 -90.0 0 0 374.69 119.83
  L 374.69 119.29
  A 10.23 9.20 90.0 0 0 365.49 109.06
  L 362.44 109.06
  A 1.59 1.59 0.0 0 0 360.85 110.65
  Z"
/>
<path fill="#ffffff" d="
  M 395.76 123.53
  Q 395.87 123.83 395.86 145.77
  Q 395.86 146.84 396.56 147.85
  C 398.26 150.28 401.02 148.50 402.87 147.14
  A 0.45 0.45 0.0 0 1 403.53 147.72
  C 401.70 151.11 398.13 154.11 394.31 152.62
  Q 391.86 151.67 390.97 149.01
  A 2.94 2.84 -56.1 0 1 390.81 148.12
  L 390.50 123.63
  A 0.64 0.63 89.5 0 0 389.87 123.00
  L 386.20 123.00
  A 0.54 0.54 0.0 0 1 385.98 121.96
  Q 390.13 120.19 392.44 115.96
  Q 393.79 113.49 395.00 111.29
  A 0.46 0.46 0.0 0 1 395.86 111.52
  L 395.86 120.45
  A 0.56 0.55 0.5 0 0 396.41 121.00
  L 402.05 121.03
  A 0.91 0.91 0.0 0 1 402.96 121.99
  L 402.96 122.04
  A 1.02 1.01 1.5 0 1 401.95 122.99
  L 396.12 123.02
  A 0.38 0.38 0.0 0 0 395.76 123.53
  Z"
/>
<path fill="#ffffff" d="
  M 44.48 260.38
  Q 44.51 260.38 44.52 260.37
  A 0.11 0.05 -77.1 0 0 44.57 260.31
  L 53.40 239.49
  A 0.71 0.71 0.0 0 1 54.71 239.50
  Q 61.98 257.53 71.38 279.84
  Q 72.93 283.53 77.33 284.09
  A 0.41 0.40 4.1 0 1 77.68 284.49
  L 77.68 284.76
  A 0.24 0.24 0.0 0 1 77.44 285.00
  L 60.51 285.00
  A 0.39 0.39 0.0 0 1 60.40 284.24
  L 63.32 283.41
  A 1.43 1.42 -81.8 0 0 64.13 282.80
  Q 65.24 281.00 64.82 279.87
  Q 63.98 277.66 61.03 270.55
  A 0.88 0.87 79.1 0 0 60.22 270.00
  L 43.97 270.00
  A 0.68 0.67 10.8 0 0 43.34 270.42
  L 39.27 280.02
  A 2.14 2.14 0.0 0 0 40.40 282.83
  L 44.17 284.43
  A 0.30 0.29 56.2 0 1 44.06 285.00
  L 31.02 285.00
  A 0.48 0.47 -55.0 0 1 30.86 284.08
  L 33.93 282.96
  A 0.76 0.73 -79.7 0 0 34.25 282.73
  Q 36.10 280.49 37.49 277.28
  Q 40.07 271.31 43.97 262.22
  Q 44.11 261.89 44.38 260.49
  A 0.13 0.13 0.0 0 1 44.48 260.38
  Z
  M 55.89 258.13
  Q 55.99 257.68 55.78 257.26
  Q 53.73 253.15 52.52 249.86
  A 0.28 0.28 0.0 0 0 52.00 249.85
  L 44.52 267.47
  A 0.38 0.37 11.4 0 0 44.87 267.99
  L 59.36 267.99
  A 0.42 0.42 0.0 0 0 59.76 267.46
  Q 58.99 264.75 58.19 263.50
  A 2.72 2.58 -70.0 0 1 57.83 262.67
  Q 57.16 259.95 55.93 258.30
  A 0.22 0.20 34.8 0 1 55.89 258.13
  Z"
/>
<path fill="#ffffff" d="
  M 776.21 347.16
  L 776.50 347.28
  A 0.27 0.26 27.2 0 1 776.62 347.65
  C 772.56 354.65 766.97 358.92 758.78 359.03
  Q 747.79 359.18 741.51 351.18
  C 732.73 339.96 736.33 320.55 749.38 314.32
  Q 759.26 309.61 768.63 314.16
  C 771.08 315.35 773.12 315.46 773.73 312.54
  A 0.64 0.64 0.0 0 1 775.00 312.63
  L 775.81 326.56
  A 0.34 0.34 0.0 0 1 775.48 326.92
  L 775.16 326.95
  A 0.34 0.34 0.0 0 1 774.81 326.70
  C 772.41 318.59 767.43 313.25 758.56 314.02
  C 750.54 314.72 745.91 320.82 744.74 328.27
  C 743.40 336.76 743.49 346.51 749.72 352.07
  Q 754.43 356.27 761.60 356.05
  C 768.27 355.85 771.88 352.25 775.84 347.24
  A 0.32 0.31 -57.7 0 1 776.21 347.16
  Z"
/>
<path fill="#ffffff" d="
  M 804.0047 311.9152
  A 23.62 21.99 -88.8 0 1 825.4952 335.9905
  A 23.62 21.99 -88.8 0 1 803.0153 359.1448
  A 23.62 21.99 -88.8 0 1 781.5248 335.0695
  A 23.62 21.99 -88.8 0 1 804.0047 311.9152
  Z
  M 789.00 335.60
  C 789.06 340.96 789.39 345.23 792.04 350.09
  C 794.44 354.48 798.60 357.01 803.78 356.95
  C 808.95 356.90 813.06 354.27 815.36 349.83
  C 817.91 344.92 818.14 340.64 818.08 335.28
  C 818.02 329.92 817.69 325.64 815.04 320.79
  C 812.64 316.39 808.48 313.86 803.30 313.92
  C 798.13 313.98 794.03 316.60 791.72 321.04
  C 789.17 325.95 788.95 330.24 789.00 335.60
  Z"
/>
<path fill="#ffffff" d="
  M 852.6967 311.9024
  A 23.63 21.90 -87.0 0 1 873.3300 336.6462
  A 23.63 21.90 -87.0 0 1 850.2233 359.0976
  A 23.63 21.90 -87.0 0 1 829.5900 334.3538
  A 23.63 21.90 -87.0 0 1 852.6967 311.9024
  Z
  M 836.92 335.67
  C 837.01 341.04 837.36 345.32 840.04 350.16
  C 842.47 354.55 846.64 357.06 851.83 356.98
  C 857.01 356.89 861.10 354.25 863.39 349.78
  C 865.91 344.86 866.11 340.57 866.03 335.20
  C 865.94 329.83 865.59 325.55 862.91 320.71
  C 860.48 316.32 856.31 313.81 851.12 313.89
  C 845.94 313.98 841.85 316.63 839.56 321.09
  C 837.04 326.02 836.84 330.31 836.92 335.67
  Z"
/>
<path fill="#ffffff" d="
  M 1015.23 347.12
  L 1015.53 347.24
  A 0.27 0.26 27.0 0 1 1015.65 347.61
  C 1011.61 354.62 1006.02 358.91 997.83 359.04
  Q 986.85 359.22 980.55 351.23
  C 971.73 340.03 975.28 320.61 988.32 314.35
  Q 998.19 309.62 1007.57 314.14
  C 1010.03 315.32 1012.06 315.43 1012.67 312.50
  A 0.64 0.64 0.0 0 1 1013.93 312.59
  L 1014.78 326.52
  A 0.34 0.34 0.0 0 1 1014.46 326.88
  L 1014.14 326.91
  A 0.34 0.34 0.0 0 1 1013.79 326.67
  C 1011.36 318.56 1006.36 313.24 997.50 314.03
  C 989.48 314.74 984.87 320.86 983.72 328.32
  C 982.40 336.80 982.51 346.56 988.76 352.11
  Q 993.48 356.29 1000.65 356.05
  C 1007.32 355.83 1010.92 352.22 1014.87 347.20
  A 0.32 0.31 -57.8 0 1 1015.23 347.12
  Z"
/>
<path fill="#ffffff" d="
  M 1058.29 351.87
  C 1051.51 359.78 1039.08 361.42 1030.43 355.37
  Q 1024.26 351.05 1022.04 343.81
  C 1018.12 330.94 1023.07 316.90 1036.57 312.90
  C 1047.84 309.55 1058.33 315.58 1062.79 326.14
  A 1.71 1.68 32.0 0 1 1062.92 326.68
  Q 1063.03 328.10 1063.67 329.01
  A 2.15 2.14 -55.3 0 1 1064.00 330.83
  Q 1063.86 331.34 1064.03 339.75
  C 1064.14 344.79 1061.67 347.93 1058.29 351.87
  Z
  M 1028.02 335.65
  C 1028.09 341.01 1028.42 345.28 1031.08 350.13
  C 1033.50 354.52 1037.66 357.04 1042.84 356.97
  C 1048.01 356.90 1052.11 354.27 1054.40 349.82
  C 1056.94 344.91 1057.16 340.62 1057.09 335.27
  C 1057.02 329.90 1056.69 325.63 1054.02 320.78
  C 1051.61 316.39 1047.45 313.87 1042.27 313.94
  C 1037.09 314.01 1033.00 316.64 1030.70 321.09
  C 1028.17 326.00 1027.95 330.29 1028.02 335.65
  Z"
/>
<path fill="#ffffff" d="
  M 1091.3975 311.8874
  A 23.64 21.94 -87.8 0 1 1112.4138 336.3522
  A 23.64 21.94 -87.8 0 1 1089.5825 359.1326
  A 23.64 21.94 -87.8 0 1 1068.5662 334.6678
  A 23.64 21.94 -87.8 0 1 1091.3975 311.8874
  Z
  M 1075.94 335.65
  C 1076.02 341.01 1076.36 345.28 1079.03 350.13
  C 1081.45 354.51 1085.62 357.03 1090.80 356.95
  C 1095.98 356.88 1100.07 354.24 1102.36 349.78
  C 1104.89 344.87 1105.10 340.58 1105.02 335.22
  C 1104.95 329.86 1104.61 325.58 1101.94 320.74
  C 1099.52 316.35 1095.35 313.83 1090.17 313.91
  C 1084.99 313.99 1080.90 316.62 1078.61 321.08
  C 1076.08 326.00 1075.87 330.28 1075.94 335.65
  Z"
/>
<path fill="#ffffff" d="
  M 900.55 336.00
  Q 893.09 336.00 890.76 336.08
  A 0.66 0.65 -0.9 0 0 890.12 336.73
  Q 890.02 350.59 890.26 353.47
  C 890.52 356.81 893.53 356.93 896.24 357.15
  A 0.36 0.36 0.0 0 1 896.57 357.51
  L 896.57 357.81
  A 0.21 0.21 0.0 0 1 896.36 358.02
  L 877.82 358.04
  A 0.45 0.44 -89.4 0 1 877.38 357.58
  L 877.38 357.56
  A 0.45 0.44 -2.0 0 1 877.80 357.11
  C 880.67 357.03 883.71 356.56 883.78 353.00
  Q 883.99 343.76 883.80 317.73
  C 883.78 314.62 880.23 313.87 877.73 313.86
  A 0.36 0.36 0.0 0 1 877.37 313.50
  L 877.37 313.23
  A 0.26 0.26 0.0 0 1 877.63 312.97
  L 896.42 312.97
  A 0.10 0.10 0.0 0 1 896.52 313.06
  L 896.55 313.31
  A 0.44 0.43 -6.6 0 1 896.16 313.79
  C 893.94 314.06 891.02 314.31 890.19 316.66
  A 1.60 1.41 57.3 0 0 890.12 317.12
  L 890.13 333.54
  A 0.38 0.38 0.0 0 0 890.48 333.92
  Q 891.61 333.99 900.55 333.99
  Q 909.50 333.99 910.63 333.92
  A 0.38 0.38 0.0 0 0 910.98 333.54
  L 910.99 317.12
  A 1.60 1.41 -57.3 0 0 910.92 316.66
  C 910.09 314.31 907.17 314.06 904.95 313.79
  A 0.44 0.43 6.6 0 1 904.56 313.31
  L 904.59 313.06
  A 0.10 0.10 0.0 0 1 904.69 312.97
  L 923.48 312.97
  A 0.26 0.26 0.0 0 1 923.74 313.24
  L 923.74 313.51
  A 0.36 0.36 0.0 0 1 923.38 313.86
  C 920.88 313.87 917.33 314.62 917.31 317.73
  Q 917.12 343.76 917.32 353.00
  C 917.40 356.56 920.44 357.03 923.30 357.11
  A 0.45 0.44 2.0 0 1 923.73 357.56
  L 923.73 357.58
  A 0.45 0.44 89.4 0 1 923.29 358.04
  L 904.75 358.02
  A 0.21 0.21 0.0 0 1 904.54 357.81
  L 904.54 357.51
  A 0.36 0.36 0.0 0 1 904.87 357.15
  C 907.58 356.93 910.59 356.82 910.85 353.48
  Q 911.08 350.59 910.99 336.73
  A 0.66 0.65 0.9 0 0 910.35 336.08
  Q 908.02 336.00 900.55 336.00
  Z"
/>
<path fill="#ffffff" d="
  M 1139.53 334.00
  Q 1148.47 333.99 1149.60 333.92
  A 0.38 0.38 0.0 0 0 1149.95 333.54
  L 1149.95 317.12
  A 1.60 1.41 -57.3 0 0 1149.88 316.66
  C 1149.05 314.31 1146.13 314.06 1143.91 313.79
  A 0.44 0.43 6.6 0 1 1143.52 313.31
  L 1143.55 313.06
  A 0.10 0.10 0.0 0 1 1143.65 312.97
  L 1162.44 312.97
  A 0.26 0.26 0.0 0 1 1162.70 313.23
  L 1162.70 313.50
  A 0.36 0.36 0.0 0 1 1162.34 313.86
  C 1159.84 313.87 1156.29 314.62 1156.27 317.73
  Q 1156.09 343.75 1156.30 352.99
  C 1156.38 356.55 1159.42 357.02 1162.28 357.10
  A 0.45 0.44 2.0 0 1 1162.71 357.55
  L 1162.71 357.57
  A 0.45 0.44 89.4 0 1 1162.27 358.03
  L 1143.73 358.02
  A 0.21 0.21 0.0 0 1 1143.52 357.81
  L 1143.52 357.51
  A 0.36 0.36 0.0 0 1 1143.85 357.15
  C 1146.56 356.93 1149.57 356.81 1149.83 353.47
  Q 1150.06 350.59 1149.96 336.73
  A 0.66 0.65 0.9 0 0 1149.32 336.08
  Q 1146.99 336.00 1139.53 336.00
  Q 1132.06 336.00 1129.73 336.09
  A 0.66 0.65 -0.9 0 0 1129.09 336.74
  Q 1129.00 350.60 1129.23 353.48
  C 1129.50 356.82 1132.51 356.93 1135.22 357.15
  A 0.36 0.36 0.0 0 1 1135.55 357.51
  L 1135.55 357.81
  A 0.21 0.21 0.0 0 1 1135.34 358.02
  L 1116.80 358.05
  A 0.45 0.44 -89.4 0 1 1116.36 357.59
  L 1116.36 357.57
  A 0.45 0.44 -2.0 0 1 1116.79 357.12
  C 1119.65 357.03 1122.69 356.56 1122.76 353.00
  Q 1122.97 343.76 1122.77 317.74
  C 1122.75 314.63 1119.20 313.88 1116.70 313.88
  A 0.36 0.36 0.0 0 1 1116.34 313.52
  L 1116.34 313.25
  A 0.26 0.26 0.0 0 1 1116.60 312.99
  L 1135.39 312.97
  A 0.10 0.10 0.0 0 1 1135.49 313.06
  L 1135.52 313.31
  A 0.44 0.43 -6.6 0 1 1135.13 313.79
  C 1132.91 314.06 1129.99 314.32 1129.16 316.67
  A 1.60 1.41 57.3 0 0 1129.09 317.13
  L 1129.10 333.55
  A 0.38 0.38 0.0 0 0 1129.45 333.92
  Q 1130.58 334.00 1139.53 334.00
  Z"
/>
<path fill="#ffffff" d="
  M 682.75 421.00
  Q 682.80 450.23 682.86 457.23
  A 0.88 0.87 -75.2 0 0 683.29 457.98
  L 731.58 485.86
  A 0.34 0.33 29.9 0 1 731.71 486.32
  L 728.76 491.43
  A 0.20 0.20 0.0 0 1 728.49 491.50
  L 679.42 463.17
  A 0.41 0.40 -42.7 0 0 679.05 463.16
  Q 667.24 469.09 612.06 496.60
  C 610.70 497.28 608.38 496.59 606.82 495.82
  Q 566.52 475.90 540.22 462.81
  C 538.21 461.81 537.62 461.41 537.58 458.99
  Q 537.55 456.75 537.50 421.22
  Q 537.44 385.69 537.47 383.45
  C 537.50 381.03 538.08 380.63 540.09 379.62
  Q 566.35 366.45 606.59 346.41
  C 608.15 345.63 610.46 344.94 611.83 345.61
  Q 667.09 372.95 678.92 378.84
  A 0.41 0.40 42.5 0 0 679.29 378.83
  L 728.27 350.35
  A 0.20 0.20 0.0 0 1 728.54 350.42
  L 731.51 355.52
  A 0.34 0.33 -30.1 0 1 731.38 355.98
  L 683.18 384.01
  A 0.88 0.87 75.1 0 0 682.74 384.76
  Q 682.71 391.77 682.75 421.00
  Z
  M 543.81 421.15
  Q 543.81 451.69 543.86 456.80
  A 0.98 0.98 0.0 0 0 544.40 457.66
  Q 569.34 470.15 609.83 490.27
  Q 609.93 490.32 610.13 490.32
  Q 610.33 490.32 610.43 490.27
  Q 650.91 470.14 675.85 457.65
  A 0.98 0.98 0.0 0 0 676.39 456.78
  Q 676.44 451.68 676.44 421.13
  Q 676.43 390.59 676.38 385.48
  A 0.98 0.98 0.0 0 0 675.84 384.61
  Q 650.90 372.13 610.41 352.01
  Q 610.31 351.96 610.11 351.96
  Q 609.91 351.96 609.82 352.01
  Q 569.33 372.13 544.39 384.63
  A 0.98 0.98 0.0 0 0 543.85 385.50
  Q 543.80 390.60 543.81 421.15
  Z"
/>
<path fill="#ffffff" d="
  M 438.2722 348.8817
  A 23.63 21.98 -88.2 0 1 459.4992 373.1904
  A 23.63 21.98 -88.2 0 1 436.7878 396.1183
  A 23.63 21.98 -88.2 0 1 415.5608 371.8096
  A 23.63 21.98 -88.2 0 1 438.2722 348.8817
  Z
  M 422.96 372.66
  C 423.03 378.01 423.37 382.28 426.03 387.12
  C 428.45 391.50 432.61 394.02 437.78 393.94
  C 442.95 393.87 447.04 391.24 449.33 386.79
  C 451.86 381.88 452.07 377.60 452.00 372.24
  C 451.92 366.89 451.58 362.61 448.92 357.78
  C 446.50 353.39 442.34 350.88 437.17 350.95
  C 432.00 351.03 427.91 353.66 425.62 358.11
  C 423.09 363.02 422.88 367.30 422.96 372.66
  Z"
/>
<path fill="#ffffff" d="
  M 285.08 371.45
  A 0.22 0.22 0.0 0 0 285.44 371.61
  Q 294.95 363.09 300.58 356.96
  Q 302.05 355.36 302.55 353.46
  C 303.15 351.21 300.40 351.00 298.86 350.88
  A 0.37 0.37 0.0 0 1 298.52 350.51
  L 298.52 350.21
  A 0.20 0.20 0.0 0 1 298.72 350.01
  L 314.52 350.01
  A 0.38 0.38 0.0 0 1 314.60 350.76
  Q 309.29 351.89 305.36 355.87
  Q 296.11 365.25 291.37 370.05
  A 0.54 0.53 44.6 0 0 291.38 370.81
  Q 307.86 386.65 309.28 388.06
  C 312.73 391.50 315.58 393.36 319.89 394.14
  A 0.43 0.43 0.0 0 1 319.81 395.00
  L 299.50 395.00
  A 0.18 0.18 0.0 0 1 299.32 394.82
  L 299.32 394.49
  A 0.32 0.31 -5.5 0 1 299.58 394.18
  Q 301.04 393.88 301.74 393.63
  A 2.12 2.11 -32.4 0 0 302.52 390.15
  L 285.59 373.22
  A 0.46 0.46 0.0 0 0 284.83 373.71
  Q 285.10 374.45 285.11 375.50
  Q 285.13 386.25 285.02 389.68
  C 284.90 393.25 287.74 394.27 290.79 394.04
  A 0.37 0.36 87.8 0 1 291.18 394.41
  L 291.18 394.68
  A 0.32 0.31 90.0 0 1 290.87 395.00
  L 272.47 395.00
  A 0.27 0.27 0.0 0 1 272.20 394.73
  L 272.20 394.46
  A 0.37 0.37 0.0 0 1 272.55 394.09
  C 275.56 393.90 278.50 393.71 278.54 390.03
  Q 278.73 373.25 278.65 361.48
  C 278.61 355.75 280.48 351.32 272.52 350.87
  A 0.33 0.32 -89.1 0 1 272.21 350.54
  L 272.21 350.18
  A 0.18 0.18 0.0 0 1 272.39 350.00
  L 290.77 350.01
  A 0.42 0.42 0.0 0 1 291.19 350.44
  L 291.19 350.47
  A 0.43 0.43 0.0 0 1 290.76 350.90
  Q 288.51 350.93 286.59 351.76
  A 2.52 2.52 0.0 0 0 285.08 354.07
  L 285.08 371.45
  Z"
/>
<path fill="#ffffff" d="
  M 372.93 354.65
  Q 372.82 362.36 372.88 390.51
  C 372.89 393.86 376.15 394.07 378.73 394.07
  A 0.36 0.36 0.0 0 1 379.09 394.43
  L 379.09 394.69
  A 0.31 0.31 0.0 0 1 378.78 395.00
  L 360.11 395.00
  A 0.28 0.28 0.0 0 1 359.83 394.72
  L 359.83 394.38
  A 0.40 0.40 0.0 0 1 360.23 393.98
  L 362.74 393.98
  A 3.27 3.26 -79.4 0 0 365.78 391.89
  Q 366.78 389.33 366.80 387.00
  Q 366.97 369.68 366.57 357.67
  A 0.25 0.25 0.0 0 0 366.09 357.57
  L 353.39 384.50
  A 1.18 1.08 59.4 0 0 353.29 384.97
  Q 353.26 387.21 351.73 388.75
  A 0.94 0.87 81.4 0 0 351.54 389.03
  L 349.24 394.45
  A 0.73 0.73 0.0 0 1 347.91 394.47
  L 331.98 360.14
  A 0.60 0.56 0.9 0 0 331.69 359.86
  Q 330.96 359.56 331.09 358.34
  A 0.36 0.36 0.0 0 0 330.74 357.93
  L 330.72 357.93
  A 0.36 0.36 0.0 0 0 330.35 358.33
  Q 330.48 359.58 330.22 360.43
  A 3.15 2.79 59.9 0 0 330.10 361.03
  Q 330.08 361.17 330.09 384.26
  Q 330.09 389.40 330.90 391.90
  A 2.10 2.07 -81.4 0 0 331.64 392.92
  Q 333.52 394.30 336.48 394.01
  A 0.37 0.37 0.0 0 1 336.89 394.38
  L 336.89 394.64
  A 0.36 0.36 0.0 0 1 336.53 395.00
  L 321.26 395.00
  A 0.29 0.29 0.0 0 1 320.97 394.71
  L 320.97 394.41
  A 0.31 0.30 89.0 0 1 321.26 394.10
  C 324.59 394.00 327.73 393.50 327.79 389.23
  Q 327.99 375.80 327.82 356.99
  Q 327.76 350.91 321.51 350.95
  A 0.42 0.42 0.0 0 1 321.09 350.53
  L 321.09 350.28
  A 0.28 0.28 0.0 0 1 321.37 350.00
  L 333.20 350.00
  A 0.95 0.94 77.9 0 1 334.06 350.56
  L 349.89 384.66
  A 0.35 0.35 0.0 0 0 350.44 384.78
  Q 351.04 384.24 351.35 382.77
  A 0.33 0.29 68.3 0 1 351.39 382.66
  L 366.36 350.59
  A 1.01 1.01 0.0 0 1 367.28 350.00
  L 378.78 350.00
  A 0.29 0.29 0.0 0 1 379.07 350.29
  L 379.07 350.55
  A 0.34 0.34 0.0 0 1 378.72 350.89
  Q 377.43 350.89 376.08 351.13
  Q 372.98 351.69 372.93 354.65
  Z"
/>
<path fill="#ffffff" d="
  M 401.91 368.01
  C 398.49 365.32 393.69 368.27 391.26 371.17
  A 1.41 1.39 -25.6 0 0 390.94 372.06
  L 391.00 391.11
  A 1.49 1.47 34.3 0 0 391.11 391.67
  Q 392.17 394.45 395.69 393.99
  A 0.31 0.30 -3.4 0 1 396.04 394.29
  L 396.04 394.77
  A 0.23 0.23 0.0 0 1 395.81 395.00
  L 381.23 395.00
  A 0.21 0.21 0.0 0 1 381.02 394.79
  L 381.02 394.53
  A 0.44 0.44 0.0 0 1 381.45 394.09
  Q 385.84 394.07 385.85 389.04
  Q 385.89 378.17 385.81 371.23
  C 385.78 368.63 384.45 366.61 381.36 367.87
  A 0.50 0.50 0.0 0 1 380.72 367.62
  L 380.61 367.38
  A 0.29 0.28 -24.7 0 1 380.75 367.01
  L 389.78 362.82
  A 0.83 0.82 77.6 0 1 390.95 363.57
  L 390.95 368.41
  A 0.39 0.39 0.0 0 0 391.61 368.68
  C 394.65 365.59 398.40 362.27 402.66 363.11
  C 406.33 363.83 407.80 366.61 408.66 370.09
  A 10.07 9.78 -52.9 0 1 408.94 372.35
  Q 408.96 383.11 409.11 390.49
  Q 409.15 392.77 410.98 393.72
  A 2.23 2.18 -28.5 0 0 411.72 393.93
  Q 412.94 394.03 413.51 394.20
  A 0.41 0.41 0.0 0 1 413.40 395.00
  L 399.10 395.00
  A 0.38 0.37 90.0 0 1 398.73 394.62
  L 398.73 394.29
  A 0.30 0.30 0.0 0 1 399.04 393.99
  C 402.69 394.17 403.85 392.69 403.83 388.99
  Q 403.80 382.06 403.87 373.69
  Q 403.90 371.07 402.59 368.80
  A 2.94 2.84 -86.8 0 0 401.91 368.01
  Z"
/>
<rect fill="#ffffff" x="995.01" y="363.00" width="6.98" height="61.02" rx="0.70"/>
<path fill="#ffffff" d="
  M 472.09 412.50
  L 472.09 407.48
  A 0.47 0.47 0.0 0 0 471.62 407.01
  L 463.70 407.01
  A 1.18 1.18 0.0 0 1 462.72 405.17
  L 472.71 390.39
  A 1.16 1.16 0.0 0 1 474.83 391.04
  L 474.83 404.45
  A 0.57 0.57 0.0 0 0 475.40 405.02
  L 477.15 405.02
  A 0.84 0.84 0.0 0 1 477.99 405.86
  L 477.99 406.20
  A 0.80 0.80 0.0 0 1 477.19 407.00
  L 475.36 407.00
  A 0.53 0.52 0.0 0 0 474.83 407.52
  L 474.83 412.43
  A 0.54 0.54 0.0 0 1 474.29 412.97
  L 472.56 412.97
  A 0.47 0.47 0.0 0 1 472.09 412.50
  Z
  M 472.10 404.47
  L 472.10 394.31
  A 0.31 0.31 0.0 0 0 471.53 394.13
  L 464.53 404.49
  A 0.32 0.32 0.0 0 0 464.80 404.99
  L 471.58 404.99
  A 0.52 0.52 0.0 0 0 472.10 404.47
  Z"
/>
<path fill="#ffffff" d="
  M 936.97 393.00
  Q 937.35 393.00 937.56 393.02
  A 0.67 0.66 2.9 0 1 938.16 393.68
  L 938.16 408.33
  A 0.66 0.66 0.0 0 0 938.81 408.99
  L 953.80 409.07
  A 0.85 0.84 79.4 0 1 954.59 409.62
  Q 954.60 409.65 954.60 410.52
  Q 954.60 411.39 954.58 411.42
  A 0.85 0.84 -79.4 0 1 953.79 411.96
  L 938.80 412.02
  A 0.66 0.66 0.0 0 0 938.15 412.68
  L 938.13 427.33
  A 0.67 0.66 -2.8 0 1 937.53 427.99
  Q 937.32 428.01 936.94 428.01
  Q 936.56 428.01 936.35 427.99
  A 0.67 0.66 2.9 0 1 935.75 427.33
  L 935.75 412.68
  A 0.66 0.66 0.0 0 0 935.10 412.02
  L 920.11 411.94
  A 0.85 0.84 79.4 0 1 919.32 411.40
  Q 919.31 411.36 919.31 410.49
  Q 919.31 409.62 919.32 409.59
  A 0.85 0.84 -79.4 0 1 920.11 409.05
  L 935.10 408.99
  A 0.66 0.66 0.0 0 0 935.75 408.33
  L 935.77 393.68
  A 0.67 0.66 -2.8 0 1 936.37 393.02
  Q 936.58 393.00 936.97 393.00
  Z"
/>
<path fill="#ffffff" d="
  M 1015.34 470.38
  C 1011.38 477.38 1005.86 481.69 997.72 481.89
  Q 986.80 482.16 980.47 474.27
  C 971.61 463.21 974.98 443.87 987.89 437.54
  Q 997.66 432.75 1007.03 437.17
  C 1009.48 438.32 1011.50 438.41 1012.08 435.50
  A 0.64 0.64 0.0 0 1 1013.34 435.58
  L 1014.30 449.42
  A 0.34 0.34 0.0 0 1 1013.98 449.78
  L 1013.66 449.81
  A 0.34 0.34 0.0 0 1 1013.31 449.57
  C 1010.83 441.53 1005.82 436.28 997.01 437.14
  C 989.05 437.92 984.51 444.04 983.43 451.46
  C 982.19 459.91 982.38 469.61 988.64 475.07
  Q 993.37 479.19 1000.49 478.89
  C 1007.12 478.62 1010.67 475.00 1014.56 469.98
  A 0.31 0.31 0.0 0 1 1014.92 469.89
  L 1015.21 470.01
  A 0.27 0.26 26.5 0 1 1015.34 470.38
  Z"
/>
<path fill="#ffffff" d="
  M 1023.87 471.30
  A 6.37 6.21 15.1 0 1 1022.75 469.41
  C 1019.53 460.73 1019.69 450.96 1025.30 443.50
  C 1031.85 434.79 1044.00 432.24 1053.42 438.30
  Q 1059.22 442.04 1062.48 449.76
  A 3.80 3.70 31.0 0 1 1062.77 450.86
  Q 1063.23 455.34 1063.42 456.25
  C 1064.01 459.16 1062.62 462.11 1063.05 464.87
  A 2.79 2.55 46.9 0 1 1063.06 465.70
  Q 1062.57 469.01 1058.60 473.85
  C 1049.60 484.83 1032.50 485.09 1024.68 472.59
  Q 1023.88 471.31 1023.87 471.30
  Z
  M 1027.88 458.63
  C 1027.93 464.34 1028.54 469.25 1031.44 474.04
  C 1036.30 482.07 1046.74 481.68 1052.55 475.01
  C 1055.10 472.08 1056.49 466.71 1056.09 462.12
  Q 1055.91 460.03 1055.89 458.34
  Q 1055.87 456.66 1056.01 454.57
  C 1056.32 449.97 1054.82 444.63 1052.22 441.75
  C 1046.27 435.20 1035.83 435.02 1031.13 443.14
  C 1028.33 447.99 1027.82 452.91 1027.88 458.63
  Z"
/>
<path fill="#ffffff" d="
  M 1091.0563 434.8874
  A 23.61 21.64 -87.8 0 1 1111.7740 459.3107
  A 23.61 21.64 -87.8 0 1 1089.2437 482.0726
  A 23.61 21.64 -87.8 0 1 1068.5260 457.6493
  A 23.61 21.64 -87.8 0 1 1091.0563 434.8874
  Z
  M 1076.05 458.71
  C 1076.16 464.63 1076.12 467.79 1078.55 472.68
  C 1080.86 477.33 1085.26 480.06 1090.49 479.97
  C 1095.73 479.88 1100.04 476.99 1102.18 472.27
  C 1104.44 467.30 1104.29 464.14 1104.19 458.22
  C 1104.08 452.30 1104.12 449.14 1101.69 444.25
  C 1099.39 439.61 1094.98 436.87 1089.75 436.96
  C 1084.51 437.06 1080.20 439.94 1078.06 444.66
  C 1075.80 449.63 1075.95 452.79 1076.05 458.71
  Z"
/>
<path fill="#ffffff" d="
  M 1139.15 459.00
  Q 1131.73 458.99 1129.41 459.07
  A 0.65 0.65 0.0 0 0 1128.78 459.71
  Q 1128.65 473.49 1128.88 476.35
  C 1129.13 479.67 1132.12 479.80 1134.81 480.02
  A 0.36 0.36 0.0 0 1 1135.14 480.38
  L 1135.14 480.68
  A 0.21 0.21 0.0 0 1 1134.93 480.88
  L 1116.50 480.86
  A 0.45 0.44 -89.3 0 1 1116.07 480.40
  L 1116.07 480.38
  A 0.45 0.44 -1.9 0 1 1116.49 479.94
  C 1119.34 479.86 1122.36 479.40 1122.45 475.86
  Q 1122.67 466.68 1122.54 440.81
  C 1122.53 437.72 1119.00 436.97 1116.51 436.95
  A 0.36 0.36 0.0 0 1 1116.16 436.59
  L 1116.16 436.33
  A 0.26 0.26 0.0 0 1 1116.42 436.07
  L 1135.10 436.10
  A 0.10 0.10 0.0 0 1 1135.19 436.19
  L 1135.22 436.44
  A 0.44 0.43 -6.4 0 1 1134.84 436.92
  C 1132.63 437.18 1129.72 437.43 1128.90 439.76
  A 1.59 1.40 57.4 0 0 1128.82 440.22
  L 1128.79 456.54
  A 0.38 0.37 -87.7 0 0 1129.14 456.91
  Q 1130.27 456.99 1139.16 457.01
  Q 1148.05 457.03 1149.17 456.96
  A 0.38 0.37 88.0 0 0 1149.52 456.58
  L 1149.56 440.26
  A 1.59 1.40 -57.2 0 0 1149.49 439.81
  C 1148.67 437.47 1145.77 437.21 1143.57 436.94
  A 0.44 0.43 6.7 0 1 1143.18 436.46
  L 1143.21 436.21
  A 0.10 0.10 0.0 0 1 1143.31 436.12
  L 1161.99 436.17
  A 0.26 0.26 0.0 0 1 1162.24 436.43
  L 1162.24 436.70
  A 0.36 0.36 0.0 0 1 1161.89 437.05
  C 1159.40 437.06 1155.87 437.79 1155.84 440.89
  Q 1155.60 466.75 1155.78 475.93
  C 1155.85 479.47 1158.87 479.95 1161.72 480.04
  A 0.45 0.44 2.1 0 1 1162.14 480.48
  L 1162.14 480.50
  A 0.45 0.44 89.5 0 1 1161.70 480.96
  L 1143.27 480.90
  A 0.21 0.21 0.0 0 1 1143.07 480.69
  L 1143.07 480.40
  A 0.36 0.36 0.0 0 1 1143.40 480.04
  C 1146.09 479.83 1149.08 479.72 1149.35 476.40
  Q 1149.58 473.53 1149.52 459.76
  A 0.65 0.65 0.0 0 0 1148.89 459.11
  Q 1146.58 459.02 1139.15 459.00
  Z"
/>
<path fill="#ffffff" d="
  M 779.26 518.11
  L 779.55 518.23
  A 0.27 0.26 27.0 0 1 779.67 518.61
  C 775.64 525.62 770.05 529.91 761.86 530.05
  Q 750.88 530.24 744.57 522.26
  C 735.74 511.06 739.28 491.64 752.31 485.37
  Q 762.18 480.62 771.57 485.14
  C 774.02 486.31 776.05 486.42 776.66 483.50
  A 0.64 0.64 0.0 0 1 777.93 483.59
  L 778.79 497.52
  A 0.34 0.34 0.0 0 1 778.46 497.88
  L 778.14 497.90
  A 0.34 0.34 0.0 0 1 777.79 497.66
  C 775.36 489.55 770.36 484.23 761.49 485.03
  C 753.48 485.76 748.86 491.88 747.72 499.33
  C 746.41 507.82 746.53 517.58 752.78 523.12
  Q 757.51 527.30 764.67 527.05
  C 771.34 526.83 774.94 523.22 778.89 518.20
  A 0.32 0.31 -57.9 0 1 779.26 518.11
  Z"
/>
<path fill="#ffffff" d="
  M 807.2443 482.9244
  A 23.62 22.03 -88.0 0 1 828.4366 507.2988
  A 23.62 22.03 -88.0 0 1 805.5957 530.1356
  A 23.62 22.03 -88.0 0 1 784.4034 505.7612
  A 23.62 22.03 -88.0 0 1 807.2443 482.9244
  Z
  M 792.07 506.59
  C 792.12 511.94 792.43 516.21 795.07 521.06
  C 797.46 525.46 801.60 527.99 806.77 527.95
  C 811.94 527.91 816.04 525.30 818.36 520.87
  C 820.91 515.97 821.15 511.69 821.10 506.34
  C 821.06 500.99 820.74 496.72 818.11 491.87
  C 815.72 487.47 811.57 484.94 806.40 484.98
  C 801.24 485.03 797.13 487.63 794.82 492.07
  C 792.27 496.96 792.03 501.24 792.07 506.59
  Z"
/>
<path fill="#ffffff" d="
  M 856.9126 482.9241
  A 23.63 21.99 -86.5 0 1 877.4190 507.8525
  A 23.63 21.99 -86.5 0 1 854.0274 530.0959
  A 23.63 21.99 -86.5 0 1 833.5210 505.1675
  A 23.63 21.99 -86.5 0 1 856.9126 482.9241
  Z
  M 840.99 506.69
  C 841.08 512.04 841.43 516.31 844.11 521.14
  C 846.53 525.51 850.70 528.02 855.87 527.93
  C 861.04 527.84 865.12 525.20 867.40 520.75
  C 869.91 515.83 870.12 511.55 870.02 506.20
  C 869.93 500.84 869.59 496.57 866.91 491.74
  C 864.48 487.36 860.31 484.86 855.14 484.95
  C 849.97 485.04 845.89 487.68 843.61 492.13
  C 841.10 497.05 840.90 501.33 840.99 506.69
  Z"
/>
<path fill="#ffffff" d="
  M 903.56 507.00
  Q 896.09 507.00 893.76 507.08
  A 0.66 0.65 -0.9 0 0 893.13 507.73
  Q 893.03 521.59 893.26 524.47
  C 893.52 527.81 896.53 527.93 899.24 528.15
  A 0.36 0.36 0.0 0 1 899.57 528.51
  L 899.57 528.81
  A 0.21 0.21 0.0 0 1 899.36 529.02
  L 880.82 529.02
  A 0.45 0.44 -89.4 0 1 880.38 528.56
  L 880.38 528.54
  A 0.45 0.44 -2.0 0 1 880.81 528.09
  C 883.67 528.01 886.71 527.55 886.79 523.99
  Q 887.00 514.75 886.82 488.74
  C 886.80 485.63 883.25 484.88 880.75 484.87
  A 0.36 0.36 0.0 0 1 880.39 484.51
  L 880.39 484.24
  A 0.26 0.26 0.0 0 1 880.65 483.98
  L 899.44 483.98
  A 0.10 0.10 0.0 0 1 899.54 484.07
  L 899.57 484.32
  A 0.44 0.43 -6.6 0 1 899.18 484.80
  C 896.96 485.07 894.04 485.32 893.21 487.67
  A 1.60 1.41 57.3 0 0 893.14 488.13
  L 893.14 504.54
  A 0.38 0.38 0.0 0 0 893.49 504.92
  Q 894.62 504.99 903.56 505.00
  Q 912.50 505.00 913.63 504.93
  A 0.38 0.38 0.0 0 0 913.98 504.55
  L 913.99 488.14
  A 1.60 1.41 -57.3 0 0 913.92 487.68
  C 913.10 485.33 910.18 485.07 907.96 484.80
  A 0.44 0.43 6.6 0 1 907.57 484.32
  L 907.60 484.07
  A 0.10 0.10 0.0 0 1 907.70 483.98
  L 926.48 484.00
  A 0.26 0.26 0.0 0 1 926.74 484.26
  L 926.74 484.53
  A 0.36 0.36 0.0 0 1 926.38 484.89
  C 923.88 484.89 920.33 485.64 920.31 488.75
  Q 920.11 514.76 920.32 524.00
  C 920.39 527.56 923.43 528.03 926.29 528.11
  A 0.45 0.44 2.0 0 1 926.72 528.56
  L 926.72 528.58
  A 0.45 0.44 89.4 0 1 926.28 529.04
  L 907.75 529.02
  A 0.21 0.21 0.0 0 1 907.54 528.81
  L 907.54 528.51
  A 0.36 0.36 0.0 0 1 907.87 528.15
  C 910.58 527.93 913.58 527.81 913.85 524.47
  Q 914.08 521.60 913.99 507.74
  A 0.66 0.65 0.9 0 0 913.35 507.09
  Q 911.03 507.01 903.56 507.00
  Z"
/>
</svg>
