<?xml version="1.0" encoding="UTF-8" standalone="no"?>
<!DOCTYPE svg PUBLIC "-//W3C//DTD SVG 1.1//EN" "http://www.w3.org/Graphics/SVG/1.1/DTD/svg11.dtd">
<svg xmlns="http://www.w3.org/2000/svg" version="1.1" viewBox="0.00 0.00 583.00 546.00">
<path fill="#ffffff" d="
  M 550.76 454.28
  A 0.36 0.36 0.0 0 1 550.30 453.76
  L 557.48 443.57
  A 0.36 0.36 0.0 0 0 557.19 443.00
  Q 387.68 443.00 155.26 443.00
  Q 153.29 443.00 152.86 441.52
  Q 152.76 441.19 152.76 438.48
  Q 152.77 75.72 152.76 24.23
  A 0.24 0.23 -17.0 0 0 152.39 24.04
  L 141.68 31.07
  A 0.26 0.26 0.0 0 1 141.30 30.73
  L 154.93 3.81
  A 0.28 0.27 44.7 0 1 155.42 3.81
  L 168.87 30.58
  A 0.42 0.42 0.0 0 1 168.25 31.11
  L 158.01 23.90
  A 0.33 0.32 -72.6 0 0 157.50 24.17
  L 157.50 128.24
  A 4.47 4.26 -53.1 0 0 157.62 129.26
  C 158.42 132.69 157.50 135.36 157.50 138.52
  Q 157.50 311.19 157.50 312.43
  A 4.29 4.10 -53.2 0 0 157.62 313.43
  Q 158.49 316.93 157.60 320.71
  A 3.87 3.81 -38.9 0 0 157.50 321.58
  L 157.50 437.59
  A 0.40 0.39 -90.0 0 0 157.89 437.99
  Q 177.34 438.03 192.25 437.96
  C 194.35 437.95 196.69 437.48 198.92 437.57
  Q 208.63 437.99 219.75 438.00
  Q 313.97 438.01 469.49 437.99
  Q 474.07 437.99 477.49 437.60
  C 481.02 437.18 484.36 437.84 488.17 437.88
  Q 517.25 438.11 557.21 437.96
  A 0.22 0.22 0.0 0 0 557.39 437.62
  L 550.36 426.93
  A 0.25 0.25 0.0 0 1 550.68 426.57
  L 577.61 440.21
  A 0.33 0.33 0.0 0 1 577.61 440.79
  L 550.76 454.28
  Z"
/>
<path fill="#ffffff" d="
  M 101.56 125.45
  Q 101.45 125.90 99.50 129.42
  Q 98.48 131.25 96.91 133.05
  Q 92.40 138.22 88.13 142.45
  A 0.31 0.30 22.5 0 0 88.35 142.97
  L 99.47 142.97
  A 2.87 2.77 34.7 0 0 100.38 142.82
  Q 101.99 142.23 103.41 140.59
  A 0.35 0.35 0.0 0 1 104.01 140.92
  L 102.35 146.52
  A 0.65 0.65 0.0 0 1 101.73 146.98
  L 82.55 146.98
  A 0.58 0.58 0.0 0 1 82.17 145.97
  Q 88.17 140.71 93.09 134.85
  Q 96.13 131.23 97.66 127.22
  C 98.28 125.59 98.09 121.44 96.90 119.82
  C 93.07 114.59 86.27 117.00 84.16 122.47
  A 0.56 0.56 0.0 0 1 83.55 122.83
  L 83.52 122.82
  A 0.50 0.49 12.8 0 1 83.12 122.19
  Q 84.17 118.53 85.34 116.87
  C 88.22 112.78 93.40 111.91 97.74 114.24
  Q 103.65 117.41 101.56 125.45
  Z"
/>
<path fill="#ffffff" d="
  M 123.98 142.02
  Q 119.52 132.93 122.07 123.05
  C 123.81 116.32 130.73 108.80 137.50 115.58
  Q 139.43 117.51 139.73 118.26
  Q 140.86 121.06 141.64 122.68
  A 2.58 2.53 -60.9 0 1 141.89 123.59
  Q 142.50 131.99 142.01 134.29
  Q 141.23 137.90 141.40 138.20
  A 1.23 1.22 43.8 0 1 141.43 139.33
  Q 139.77 142.69 136.96 144.93
  Q 132.36 148.61 127.61 145.78
  Q 126.69 145.23 124.49 142.77
  A 3.24 3.14 11.7 0 1 123.98 142.02
  Z
  M 131.93 145.02
  C 137.08 145.01 137.98 137.45 137.89 133.05
  C 137.81 129.39 138.27 124.41 137.36 120.69
  Q 135.95 114.93 131.88 114.94
  Q 127.81 114.95 126.42 120.70
  C 125.52 124.43 125.99 129.41 125.93 133.06
  C 125.85 137.46 126.78 145.03 131.93 145.02
  Z"
/>
<rect fill="#ffffff" x="-2.99" y="-2.49" transform="translate(165.00,132.50) rotate(0.4)" width="5.98" height="4.98" rx="0.58"/>
<rect fill="#ffffff" x="-2.99" y="-2.48" transform="translate(174.00,132.50) rotate(0.2)" width="5.98" height="4.96" rx="0.76"/>
<rect fill="#ffffff" x="-2.99" y="-2.47" transform="translate(183.00,132.51) rotate(0.3)" width="5.98" height="4.94" rx="0.84"/>
<path fill="#ffffff" d="
  M 287.49 235.47
  A 0.23 0.23 0.0 0 0 287.86 235.23
  L 281.77 214.88
  A 2.31 2.30 74.8 0 1 283.42 211.98
  L 283.63 211.91
  A 2.25 2.24 -17.0 0 1 286.45 213.40
  L 294.43 240.09
  A 3.32 3.30 10.4 0 0 295.62 241.80
  C 347.57 280.66 409.71 302.23 472.74 315.52
  Q 475.50 316.10 482.91 316.01
  A 1.34 1.33 -84.2 0 1 484.23 317.64
  L 483.33 321.58
  A 1.76 1.75 3.5 0 1 481.80 322.93
  Q 477.75 323.32 476.45 321.73
  A 1.82 1.80 -19.4 0 0 475.05 321.07
  L 271.64 320.85
  A 0.26 0.26 0.0 0 0 271.51 321.33
  L 290.86 332.67
  A 2.29 2.29 0.0 0 1 291.60 335.92
  L 291.51 336.04
  A 2.43 2.43 0.0 0 1 288.22 336.85
  L 261.94 321.45
  A 3.48 3.39 -29.1 0 0 260.20 320.98
  L 202.30 321.04
  A 1.55 1.53 21.9 0 0 201.20 321.50
  Q 201.02 321.69 200.83 322.35
  A 0.82 0.82 0.0 0 1 200.04 322.94
  L 196.64 322.94
  A 0.67 0.67 0.0 0 1 195.97 322.27
  L 195.97 317.48
  A 0.30 0.30 0.0 0 0 195.39 317.37
  Q 195.04 318.19 194.85 319.27
  Q 194.66 320.34 190.88 320.02
  A 0.90 0.89 2.4 0 1 190.06 319.13
  L 190.06 314.72
  A 0.63 0.62 -3.1 0 1 190.62 314.10
  Q 192.06 313.93 193.18 314.16
  A 0.72 0.72 0.0 0 0 194.05 313.45
  Q 194.13 287.09 193.82 267.25
  Q 193.81 266.78 192.98 265.25
  A 1.77 1.68 -61.1 0 1 192.76 264.40
  L 192.76 243.58
  A 0.18 0.18 0.0 0 0 192.42 243.49
  L 181.19 262.81
  A 2.44 2.44 0.0 0 1 177.92 263.73
  L 177.77 263.65
  A 2.26 2.26 0.0 0 1 176.82 260.49
  L 193.07 232.57
  A 6.86 6.84 60.1 0 0 193.99 229.14
  L 193.99 135.98
  A 1.02 1.02 0.0 0 0 192.97 134.96
  L 190.68 134.96
  A 0.65 0.65 0.0 0 1 190.03 134.31
  L 190.03 131.15
  A 1.14 1.14 0.0 0 1 191.17 130.01
  L 198.94 130.01
  A 1.09 1.09 0.0 0 1 200.02 131.23
  Q 199.83 132.86 201.99 136.25
  Q 216.88 159.70 233.54 180.72
  Q 257.57 211.04 287.49 235.47
  Z
  M 200.38 142.83
  A 0.21 0.21 0.0 0 0 200.00 142.94
  L 200.00 235.97
  A 6.29 6.27 29.9 0 0 200.86 239.14
  L 213.27 260.49
  A 2.28 2.28 0.0 0 1 212.46 263.60
  L 212.24 263.74
  A 2.35 2.34 -30.9 0 1 208.96 262.92
  L 200.47 248.23
  A 0.24 0.24 0.0 0 0 200.02 248.35
  L 200.02 315.27
  A 0.72 0.71 90.0 0 0 200.73 315.99
  L 260.43 315.99
  A 4.29 4.25 -60.2 0 0 262.61 315.39
  L 288.33 300.33
  A 2.30 2.30 0.0 0 1 291.52 301.21
  L 291.58 301.33
  A 2.37 2.37 0.0 0 1 290.76 304.63
  L 271.85 315.68
  A 0.17 0.16 -60.0 0 0 271.93 315.99
  L 451.19 315.99
  A 0.23 0.23 0.0 0 0 451.39 315.64
  L 451.27 315.42
  A 0.17 0.14 71.1 0 0 451.14 315.34
  Q 450.08 315.34 447.71 314.76
  C 393.59 301.48 341.43 281.04 296.58 248.71
  A 6.83 6.81 69.3 0 0 294.09 247.58
  L 261.50 240.17
  A 2.17 2.16 -76.5 0 1 259.88 237.52
  L 259.95 237.26
  A 2.27 2.27 0.0 0 1 262.69 235.43
  L 284.16 240.28
  A 0.20 0.19 -16.6 0 0 284.34 239.95
  Q 278.08 234.07 273.20 229.79
  C 244.71 204.80 220.73 174.64 200.38 142.83
  Z"
/>
<ellipse fill="#ffffff" cx="0.00" cy="0.00" transform="translate(112.44,146.00) rotate(-179.8)" rx="2.71" ry="1.99"/>
<path fill="#ffffff" d="
  M 52.14 195.74
  Q 52.19 195.74 52.24 195.76
  A 0.35 0.14 14.8 0 1 52.42 195.89
  L 65.99 222.90
  A 0.36 0.36 0.0 0 1 65.46 223.35
  L 55.16 216.09
  A 0.42 0.42 0.0 0 0 54.50 216.43
  L 54.50 275.05
  A 0.69 0.68 -0.5 0 1 53.83 275.73
  Q 53.47 275.74 52.12 275.74
  Q 50.77 275.74 50.42 275.73
  A 0.69 0.68 0.5 0 1 49.75 275.05
  L 49.75 216.43
  A 0.42 0.42 0.0 0 0 49.09 216.09
  L 38.79 223.35
  A 0.36 0.36 0.0 0 1 38.26 222.90
  L 51.83 195.89
  A 0.35 0.14 -14.8 0 1 52.00 195.76
  Q 52.05 195.74 52.14 195.74
  Z"
/>
<path fill="#ffffff" d="
  M 39.49 317.08
  A 0.43 0.43 0.0 0 0 38.79 317.42
  L 38.94 326.36
  A 0.87 0.83 28.9 0 0 39.09 326.84
  Q 39.92 328.03 42.55 328.10
  A 0.37 0.37 0.0 0 1 42.91 328.47
  L 42.91 328.75
  A 0.25 0.25 0.0 0 1 42.66 329.00
  L 31.45 329.00
  A 0.30 0.30 0.0 0 1 31.15 328.70
  L 31.15 328.20
  A 0.22 0.21 -86.6 0 1 31.39 327.98
  Q 34.90 328.44 34.89 324.81
  Q 34.83 307.29 34.94 304.50
  Q 35.06 301.54 34.82 299.94
  A 1.12 1.10 -74.4 0 0 34.44 299.25
  Q 33.11 298.08 31.86 298.80
  A 0.52 0.51 63.5 0 1 31.13 298.55
  L 31.02 298.28
  A 0.29 0.28 66.7 0 1 31.16 297.91
  L 38.06 294.98
  A 0.66 0.66 0.0 0 1 38.97 295.59
  L 38.97 298.37
  A 0.35 0.35 0.0 0 0 39.53 298.65
  Q 39.82 298.43 40.89 297.42
  Q 46.08 292.50 51.64 297.36
  Q 52.17 297.83 53.89 301.27
  A 2.33 2.28 -60.3 0 1 54.14 302.23
  Q 54.46 308.79 53.83 311.29
  C 52.27 317.44 45.08 321.69 39.49 317.08
  Z
  M 39.08 302.19
  Q 38.91 306.40 39.06 312.91
  C 39.14 316.59 43.93 317.63 46.64 316.47
  Q 49.01 315.46 50.07 312.31
  A 2.49 2.34 53.5 0 0 50.19 311.29
  Q 49.92 308.09 49.91 304.08
  Q 49.91 302.20 48.57 300.41
  Q 45.00 295.65 40.10 300.04
  A 3.04 3.02 -19.8 0 0 39.08 302.19
  Z"
/>
<path fill="#ffffff" d="
  M 89.42 303.89
  A 0.23 0.22 81.6 0 1 89.13 303.67
  L 89.13 303.17
  A 0.31 0.30 80.7 0 1 89.33 302.88
  L 97.41 299.98
  A 0.45 0.44 -9.6 0 1 98.00 300.39
  L 98.00 330.85
  A 1.84 1.84 0.0 0 0 99.01 332.49
  Q 100.13 333.05 102.06 333.11
  A 0.33 0.33 0.0 0 1 102.38 333.44
  L 102.38 333.78
  A 0.22 0.22 0.0 0 1 102.16 334.00
  L 90.03 334.00
  A 0.28 0.27 81.3 0 1 89.77 333.80
  L 89.67 333.46
  A 0.33 0.33 0.0 0 1 90.00 333.04
  C 92.34 333.08 93.92 332.75 93.92 329.87
  Q 93.92 310.00 93.84 304.85
  A 1.72 1.72 0.0 0 0 91.63 303.23
  L 89.42 303.89
  Z"
/>
<path fill="#ffffff" d="
  M 133.9089 299.9109
  A 17.08 10.69 -89.4 0 1 144.4194 317.1019
  A 17.08 10.69 -89.4 0 1 133.5511 334.0691
  A 17.08 10.69 -89.4 0 1 123.0406 316.8781
  A 17.08 10.69 -89.4 0 1 133.9089 299.9109
  Z
  M 129.12 306.32
  Q 129.06 309.16 128.68 310.83
  C 127.68 315.31 127.95 319.26 128.14 324.51
  A 3.69 3.50 35.9 0 0 128.33 325.53
  C 129.55 329.04 130.90 333.19 135.01 331.75
  Q 138.15 330.65 138.96 327.00
  C 140.29 321.06 141.53 308.12 137.09 303.40
  C 134.35 300.49 130.89 302.37 129.34 305.44
  A 2.07 1.97 60.4 0 0 129.12 306.32
  Z"
/>
<rect fill="#ffffff" x="-2.99" y="-2.99" transform="translate(164.99,317.00) rotate(-0.3)" width="5.98" height="5.98" rx="0.60"/>
<rect fill="#ffffff" x="-3.00" y="-3.00" transform="translate(174.00,317.02) rotate(-0.5)" width="6.00" height="6.00" rx="0.71"/>
<rect fill="#ffffff" x="180.02" y="314.04" width="5.94" height="5.98" rx="0.83"/>
<rect fill="#ffffff" x="-2.51" y="-3.01" transform="translate(198.51,329.01) rotate(0.2)" width="5.02" height="6.02" rx="1.05"/>
<rect fill="#ffffff" x="-3.05" y="-2.50" transform="translate(480.00,329.50) rotate(0.3)" width="6.10" height="5.00" rx="0.97"/>
<ellipse fill="#ffffff" cx="0.00" cy="0.00" transform="translate(115.45,333.00) rotate(-0.3)" rx="2.65" ry="2.00"/>
<rect fill="#ffffff" x="4.96" y="334.01" width="81.98" height="5.98" rx="0.63"/>
<rect fill="#ffffff" x="-2.50" y="-2.99" transform="translate(198.52,337.98) rotate(0.4)" width="5.00" height="5.98" rx="0.97"/>
<rect fill="#ffffff" x="-3.02" y="-3.02" transform="translate(479.99,339.01) rotate(0.5)" width="6.04" height="6.04" rx="0.94"/>
<rect fill="#ffffff" x="-2.51" y="-2.50" transform="translate(198.51,347.50) rotate(0.2)" width="5.02" height="5.00" rx="0.93"/>
<rect fill="#ffffff" x="-3.01" y="-3.02" transform="translate(480.00,348.01) rotate(-0.6)" width="6.02" height="6.04" rx="0.99"/>
<path fill="#ffffff" d="
  M 10.83 380.59
  Q 10.88 354.25 10.88 353.95
  Q 10.91 351.69 9.78 350.75
  A 1.29 1.28 -33.9 0 0 8.54 350.51
  L 7.62 350.83
  A 0.54 0.54 0.0 0 1 7.24 349.83
  L 13.91 347.00
  A 0.73 0.73 0.0 0 1 14.93 347.67
  L 14.93 363.52
  A 0.18 0.18 0.0 0 0 15.23 363.65
  C 16.19 362.79 16.85 361.88 17.77 361.35
  C 24.70 357.31 30.79 363.63 30.86 370.46
  Q 30.93 377.54 26.04 381.42
  C 21.07 385.36 16.69 384.37 11.30 381.38
  A 0.90 0.89 -76.2 0 1 10.83 380.59
  Z
  M 14.84 372.45
  Q 14.80 378.30 14.81 378.76
  A 1.58 1.56 -69.1 0 0 15.27 379.81
  C 19.29 383.78 24.90 381.97 25.90 376.51
  Q 25.94 376.28 25.97 372.54
  Q 26.00 368.81 25.96 368.57
  C 25.05 363.10 19.47 361.20 15.39 365.10
  A 1.58 1.56 70.0 0 0 14.91 366.14
  Q 14.89 366.61 14.84 372.45
  Z"
/>
<rect fill="#ffffff" x="-2.50" y="-2.46" transform="translate(198.51,356.51) rotate(0.2)" width="5.00" height="4.92" rx="0.94"/>
<rect fill="#ffffff" x="-3.04" y="-2.49" transform="translate(480.01,357.50) rotate(0.3)" width="6.08" height="4.98" rx="0.96"/>
<path fill="#ffffff" d="
  M 33.85 380.19
  Q 33.11 374.34 38.33 371.58
  Q 41.67 369.81 45.94 368.23
  A 1.03 1.02 71.7 0 0 46.57 366.97
  L 45.46 363.24
  A 0.39 0.34 -80.0 0 0 45.35 363.06
  Q 43.53 361.34 40.50 362.33
  A 2.28 2.07 -16.6 0 0 38.95 364.89
  Q 39.60 367.34 36.97 368.05
  A 1.98 1.48 75.2 0 1 35.02 366.50
  C 34.52 364.60 35.53 362.57 37.13 361.58
  Q 41.81 358.69 47.63 360.89
  C 49.61 361.64 50.39 363.21 50.57 365.44
  Q 51.19 373.01 50.69 379.67
  A 1.22 1.22 0.0 0 0 52.76 380.64
  Q 53.56 379.86 54.30 379.62
  A 0.32 0.32 0.0 0 1 54.67 380.11
  C 53.41 381.96 50.35 384.85 48.32 383.87
  Q 46.70 383.08 46.60 380.70
  A 0.37 0.37 0.0 0 0 45.98 380.45
  C 42.65 383.63 38.08 386.13 34.61 381.41
  A 1.47 1.46 -63.9 0 1 34.33 380.58
  L 34.33 379.96
  A 0.19 0.19 0.0 0 0 33.99 379.84
  Q 33.92 379.92 33.88 380.19
  A 0.02 0.01 -43.7 0 1 33.85 380.19
  Z
  M 46.00 370.24
  Q 41.29 371.74 38.62 374.55
  A 1.59 1.58 -19.8 0 0 38.18 375.48
  C 37.57 380.59 40.80 382.46 45.45 379.46
  A 2.67 2.66 -16.6 0 0 46.66 377.23
  L 46.66 370.73
  A 0.51 0.51 0.0 0 0 46.00 370.24
  Z"
/>
<path fill="#ffffff" d="
  M 62.04 363.10
  A 0.36 0.36 0.0 0 0 62.65 363.42
  C 64.56 361.34 66.55 359.37 69.51 360.20
  A 1.96 1.95 -75.3 0 1 70.88 362.55
  L 70.85 362.70
  A 1.69 1.69 0.0 0 1 68.65 363.96
  L 65.96 363.06
  A 1.34 1.34 0.0 0 0 64.58 363.38
  L 62.30 365.66
  A 1.30 1.30 0.0 0 0 61.92 366.58
  L 61.92 379.07
  A 1.86 1.85 -57.6 0 0 62.20 380.05
  Q 63.40 381.97 66.06 382.09
  A 0.41 0.41 0.0 0 1 66.44 382.58
  L 66.38 382.83
  A 0.21 0.20 -82.8 0 1 66.18 382.99
  L 54.81 382.99
  A 0.33 0.32 90.0 0 1 54.49 382.66
  L 54.49 382.37
  A 0.13 0.12 80.3 0 1 54.57 382.25
  L 57.31 381.44
  A 0.80 0.79 81.6 0 0 57.87 380.68
  L 57.87 364.89
  A 1.26 1.26 0.0 0 0 56.61 363.63
  L 54.72 363.63
  A 0.39 0.39 0.0 0 1 54.57 362.89
  L 61.45 359.97
  A 0.80 0.80 0.0 0 1 62.54 360.88
  L 62.04 363.10
  Z"
/>
<rect fill="#ffffff" x="-2.51" y="-2.99" transform="translate(198.51,365.99) rotate(0.2)" width="5.02" height="5.98" rx="1.00"/>
<rect fill="#ffffff" x="-3.03" y="-2.51" transform="translate(480.00,366.49) rotate(0.2)" width="6.06" height="5.02" rx="1.05"/>
<rect fill="#ffffff" x="-2.52" y="-3.00" transform="translate(198.50,375.00) rotate(0.1)" width="5.04" height="6.00" rx="0.95"/>
<rect fill="#ffffff" x="-3.04" y="-3.01" transform="translate(479.99,376.01) rotate(0.1)" width="6.08" height="6.02" rx="1.04"/>
<rect fill="#ffffff" x="-2.50" y="-2.99" transform="translate(198.52,383.99) rotate(-0.1)" width="5.00" height="5.98" rx="0.98"/>
<rect fill="#ffffff" x="-3.04" y="-3.01" transform="translate(480.00,385.02) rotate(0.4)" width="6.08" height="6.02" rx="0.97"/>
<rect fill="#ffffff" x="-2.52" y="-2.50" transform="translate(198.51,393.50) rotate(-0.1)" width="5.04" height="5.00" rx="1.01"/>
<rect fill="#ffffff" x="-3.02" y="-3.01" transform="translate(480.00,393.99) rotate(0.3)" width="6.04" height="6.02" rx="1.00"/>
<rect fill="#ffffff" x="-2.51" y="-2.99" transform="translate(198.50,403.01) rotate(0.1)" width="5.02" height="5.98" rx="0.91"/>
<rect fill="#ffffff" x="-3.03" y="-2.49" transform="translate(480.00,403.50) rotate(0.1)" width="6.06" height="4.98" rx="0.92"/>
<rect fill="#ffffff" x="196.01" y="409.01" width="5.02" height="5.98" rx="0.94"/>
<rect fill="#ffffff" x="-3.03" y="-2.51" transform="translate(480.00,412.52) rotate(0.5)" width="6.06" height="5.02" rx="1.07"/>
<rect fill="#ffffff" x="-2.53" y="-3.00" transform="translate(198.50,421.01) rotate(-0.5)" width="5.06" height="6.00" rx="1.00"/>
<rect fill="#ffffff" x="-3.03" y="-3.01" transform="translate(480.00,422.01) rotate(0.2)" width="6.06" height="6.02" rx="1.07"/>
<rect fill="#ffffff" x="-2.51" y="-2.47" transform="translate(198.50,430.48) rotate(-0.1)" width="5.02" height="4.94" rx="1.09"/>
<rect fill="#ffffff" x="-3.02" y="-3.02" transform="translate(479.98,430.99) rotate(-0.6)" width="6.04" height="6.04" rx="1.05"/>
<path fill="#ffffff" d="
  M 73.82 470.44
  C 73.82 478.84 75.24 487.84 82.72 492.85
  A 0.47 0.47 0.0 0 1 82.86 493.49
  L 82.85 493.50
  A 0.44 0.43 -59.5 0 1 82.26 493.65
  C 73.61 488.80 69.28 480.36 69.27 470.44
  C 69.26 460.53 73.58 452.08 82.23 447.22
  A 0.44 0.43 59.4 0 1 82.81 447.37
  L 82.82 447.38
  A 0.47 0.47 0.0 0 1 82.68 448.02
  C 75.21 453.04 73.81 462.04 73.82 470.44
  Z"
/>
<path fill="#ffffff" d="
  M 157.32 462.00
  Q 157.23 458.59 156.69 457.25
  Q 154.53 451.85 149.17 447.90
  A 0.32 0.31 -63.6 0 1 149.06 447.56
  Q 149.14 447.33 149.37 447.30
  Q 149.51 447.28 149.61 447.33
  C 157.47 451.32 162.01 459.15 162.35 467.59
  Q 162.49 471.09 162.08 474.86
  Q 161.63 479.07 160.38 481.92
  Q 159.24 484.52 158.14 486.23
  Q 154.98 491.16 149.72 493.70
  A 0.39 0.37 -27.3 0 1 149.22 493.55
  L 149.21 493.54
  A 0.38 0.38 0.0 0 1 149.33 493.04
  Q 155.59 488.62 157.07 482.33
  Q 158.90 474.49 157.80 462.69
  Q 157.78 462.45 157.63 462.35
  Q 157.47 462.23 157.43 462.20
  A 0.24 0.24 0.0 0 1 157.32 462.00
  Z"
/>
<path fill="#ffffff" d="
  M 96.9688 449.0304
  A 17.01 11.07 -89.6 0 1 107.9197 466.1173
  A 17.01 11.07 -89.6 0 1 96.7312 483.0496
  A 17.01 11.07 -89.6 0 1 85.7803 465.9627
  A 17.01 11.07 -89.6 0 1 96.9688 449.0304
  Z
  M 96.9535 450.7001
  A 15.32 6.34 -89.8 0 0 90.5600 465.9979
  A 15.32 6.34 -89.8 0 0 96.8465 481.3399
  A 15.32 6.34 -89.8 0 0 103.2400 466.0421
  A 15.32 6.34 -89.8 0 0 96.9535 450.7001
  Z"
/>
<path fill="#ffffff" d="
  M 127.22 478.33
  Q 125.70 476.44 125.54 475.71
  Q 125.38 474.97 124.75 472.75
  Q 122.26 463.93 126.58 454.77
  Q 127.84 452.10 130.42 450.43
  C 134.98 447.47 139.25 449.26 142.30 453.52
  Q 147.39 460.64 145.14 469.73
  Q 144.58 471.99 144.61 474.15
  A 2.83 2.78 -31.1 0 1 144.23 475.63
  Q 141.56 480.29 139.07 481.64
  Q 132.42 485.24 127.93 479.24
  Q 127.53 478.71 127.22 478.33
  Z
  M 128.83 465.99
  Q 128.76 481.03 134.88 481.05
  Q 141.00 481.08 141.07 466.05
  Q 141.14 451.02 135.02 450.99
  Q 128.90 450.96 128.83 465.99
  Z"
/>
<path fill="#ffffff" d="
  M 453.96 475.30
  A 0.71 0.71 0.0 0 0 454.67 476.01
  L 458.23 476.00
  A 0.61 0.61 0.0 0 1 458.84 476.61
  L 458.84 478.39
  A 0.61 0.61 0.0 0 1 458.23 479.01
  L 454.67 479.01
  A 0.63 0.63 0.0 0 0 454.04 479.64
  L 454.05 487.65
  A 0.34 0.34 0.0 0 1 453.71 487.99
  L 450.45 488.00
  A 0.54 0.54 0.0 0 1 449.91 487.46
  L 449.91 479.48
  A 0.48 0.48 0.0 0 0 449.43 479.00
  L 436.40 479.01
  A 0.53 0.52 -2.4 0 1 435.87 478.53
  Q 435.69 476.66 436.80 475.05
  Q 443.19 465.88 450.68 455.23
  C 451.55 454.00 452.09 453.81 453.42 454.03
  A 0.64 0.64 0.0 0 1 453.95 454.66
  L 453.96 475.30
  Z
  M 449.99 460.12
  A 0.27 0.27 0.0 0 0 449.51 459.96
  L 438.45 475.44
  A 0.30 0.30 0.0 0 0 438.70 475.91
  L 449.26 475.96
  A 0.57 0.57 0.0 0 0 449.83 475.39
  L 449.99 460.12
  Z"
/>
<path fill="#ffffff" d="
  M 479.64 476.01
  L 483.20 476.01
  A 0.61 0.61 0.0 0 1 483.81 476.62
  L 483.81 478.40
  A 0.61 0.61 0.0 0 1 483.20 479.01
  L 479.64 479.01
  A 0.63 0.63 0.0 0 0 479.01 479.64
  L 479.01 487.65
  A 0.34 0.34 0.0 0 1 478.67 487.99
  L 475.42 487.99
  A 0.54 0.54 0.0 0 1 474.88 487.45
  L 474.88 479.48
  A 0.48 0.48 0.0 0 0 474.40 479.00
  L 461.38 479.00
  A 0.53 0.52 -2.3 0 1 460.85 478.52
  Q 460.67 476.65 461.78 475.05
  Q 468.17 465.88 475.66 455.25
  C 476.53 454.02 477.07 453.83 478.40 454.05
  A 0.64 0.64 0.0 0 1 478.93 454.68
  L 478.93 475.30
  A 0.71 0.71 0.0 0 0 479.64 476.01
  Z
  M 475.01 460.16
  A 0.27 0.27 0.0 0 0 474.53 460.01
  L 463.57 475.56
  A 0.30 0.30 0.0 0 0 463.82 476.03
  L 474.38 476.01
  A 0.57 0.57 0.0 0 0 474.95 475.44
  L 475.01 460.16
  Z"
/>
<path fill="#ffffff" d="
  M 502.03 459.12
  C 504.62 453.58 511.96 452.52 516.74 455.73
  Q 519.47 457.57 519.77 460.08
  Q 520.07 462.72 518.05 465.14
  Q 516.43 467.08 513.29 468.82
  A 0.39 0.39 0.0 0 0 513.23 469.47
  C 517.55 473.00 522.00 476.28 520.21 481.92
  C 517.71 489.75 504.98 490.36 501.93 482.42
  C 499.98 477.36 503.74 473.97 507.33 471.16
  A 0.52 0.51 -48.6 0 0 507.28 470.32
  C 506.13 469.61 505.74 468.65 504.36 467.63
  Q 503.22 466.80 502.85 466.00
  Q 501.74 463.62 501.83 459.96
  A 2.08 2.05 -32.0 0 1 502.03 459.12
  Z
  M 512.10 467.71
  Q 516.64 465.15 516.04 459.44
  A 2.37 2.24 -63.9 0 0 515.78 458.60
  Q 513.96 455.34 509.57 456.13
  C 505.66 456.84 503.46 460.45 506.34 463.72
  Q 508.53 466.20 511.19 467.71
  A 0.93 0.91 44.4 0 0 512.10 467.71
  Z
  M 516.64 483.10
  C 519.05 478.96 512.46 474.22 509.69 472.32
  A 1.26 1.24 -49.7 0 0 508.11 472.46
  Q 503.95 476.54 505.12 481.68
  A 4.16 4.03 -65.9 0 0 505.44 482.56
  C 507.54 486.75 514.07 487.51 516.64 483.10
  Z"
/>
<path fill="#ffffff" d="
  M 193.57 473.46
  Q 193.46 473.91 191.51 477.43
  Q 190.49 479.26 188.91 481.06
  Q 184.40 486.23 180.12 490.46
  A 0.31 0.30 22.5 0 0 180.34 490.98
  L 191.47 490.99
  A 2.87 2.77 34.7 0 0 192.38 490.84
  Q 193.99 490.25 195.41 488.61
  A 0.35 0.35 0.0 0 1 196.01 488.94
  L 194.35 494.54
  A 0.65 0.65 0.0 0 1 193.73 495.00
  L 174.54 494.99
  A 0.58 0.58 0.0 0 1 174.16 493.98
  Q 180.16 488.72 185.09 482.86
  Q 188.14 479.24 189.67 475.23
  C 190.29 473.60 190.10 469.45 188.91 467.83
  C 185.09 462.59 178.28 465.00 176.17 470.47
  A 0.56 0.56 0.0 0 1 175.56 470.83
  L 175.53 470.82
  A 0.50 0.50 0.0 0 1 175.13 470.19
  Q 176.18 466.53 177.35 464.87
  C 180.24 460.78 185.42 459.91 189.76 462.24
  Q 195.67 465.42 193.57 473.46
  Z"
/>
<path fill="#ffffff" d="
  M 218.54 473.46
  Q 218.43 473.91 216.48 477.43
  Q 215.46 479.27 213.89 481.07
  Q 209.38 486.24 205.12 490.48
  A 0.31 0.30 22.4 0 0 205.34 491.00
  L 216.46 490.99
  A 2.87 2.77 34.6 0 0 217.37 490.84
  Q 218.98 490.25 220.40 488.61
  A 0.35 0.35 0.0 0 1 221.00 488.94
  L 219.34 494.54
  A 0.65 0.65 0.0 0 1 218.72 495.00
  L 199.54 495.01
  A 0.58 0.58 0.0 0 1 199.16 494.00
  Q 205.15 488.74 210.07 482.87
  Q 213.11 479.25 214.64 475.23
  C 215.26 473.60 215.07 469.45 213.87 467.83
  C 210.04 462.60 203.24 465.02 201.13 470.49
  A 0.56 0.56 0.0 0 1 200.52 470.85
  L 200.49 470.84
  A 0.50 0.50 0.0 0 1 200.09 470.21
  Q 201.14 466.55 202.31 464.89
  C 205.19 460.80 210.37 459.92 214.71 462.25
  Q 220.62 465.42 218.54 473.46
  Z"
/>
<path fill="#ffffff" d="
  M 255.01 482.29
  A 0.71 0.71 0.0 0 0 255.72 483.00
  L 259.29 483.00
  A 0.61 0.61 0.0 0 1 259.90 483.61
  L 259.90 485.40
  A 0.61 0.61 0.0 0 1 259.28 486.01
  L 255.72 486.00
  A 0.63 0.63 0.0 0 0 255.08 486.64
  L 255.08 494.66
  A 0.34 0.34 0.0 0 1 254.74 495.00
  L 251.48 495.00
  A 0.54 0.54 0.0 0 1 250.94 494.46
  L 250.95 486.47
  A 0.48 0.48 0.0 0 0 250.46 485.99
  L 237.42 485.99
  A 0.53 0.52 -2.3 0 1 236.88 485.50
  Q 236.71 483.63 237.82 482.03
  Q 244.23 472.84 251.74 462.19
  C 252.61 460.96 253.15 460.77 254.49 460.99
  A 0.64 0.64 0.0 0 1 255.02 461.62
  L 255.01 482.29
  Z
  M 239.67 482.49
  A 0.34 0.34 0.0 0 0 239.95 483.03
  L 250.85 483.03
  A 0.34 0.34 0.0 0 0 251.19 482.69
  L 251.19 467.21
  A 0.34 0.34 0.0 0 0 250.57 467.02
  L 239.67 482.49
  Z"
/>
<path fill="#ffffff" d="
  M 112.94 490.85
  Q 117.78 489.26 118.17 484.33
  A 0.71 0.71 0.0 0 0 117.20 483.61
  Q 114.80 484.57 113.31 483.32
  A 1.90 1.62 -38.0 0 1 113.89 480.49
  C 116.64 478.93 119.84 481.14 120.15 483.91
  C 120.62 488.12 116.83 490.97 113.16 491.84
  A 0.39 0.39 0.0 0 1 112.70 491.58
  L 112.65 491.43
  A 0.47 0.46 -18.6 0 1 112.94 490.85
  Z"
/>
<ellipse fill="#ffffff" cx="0.00" cy="0.00" transform="translate(492.48,487.00) rotate(-179.4)" rx="2.61" ry="2.00"/>
<ellipse fill="#ffffff" cx="0.00" cy="0.00" transform="translate(230.45,494.01) rotate(-0.6)" rx="2.67" ry="2.00"/>
<path fill="#ffffff" d="
  M 385.92 521.74
  Q 391.10 504.94 391.14 504.78
  A 0.84 0.83 3.6 0 1 391.98 504.04
  L 393.59 504.08
  A 0.50 0.50 0.0 0 1 394.06 504.75
  Q 394.05 504.78 388.63 522.38
  Q 383.44 539.19 383.41 539.34
  A 0.84 0.83 3.6 0 1 382.56 540.08
  L 380.95 540.04
  A 0.50 0.50 0.0 0 1 380.49 539.37
  Q 380.49 539.34 385.92 521.74
  Z"
/>
<path fill="#ffffff" d="
  M 365.93 531.30
  Q 365.89 532.08 363.31 536.60
  A 1.24 1.12 68.6 0 0 363.17 536.97
  L 362.61 539.42
  A 0.71 0.71 0.0 0 1 361.27 539.54
  L 348.10 508.52
  A 1.37 1.22 15.2 0 0 347.84 508.12
  Q 346.26 506.40 343.73 505.79
  A 0.40 0.40 0.0 0 1 343.83 505.00
  L 357.09 505.01
  A 0.38 0.37 31.8 0 1 357.26 505.72
  Q 357.13 505.78 354.69 506.60
  A 2.01 1.78 -28.3 0 0 353.60 509.56
  C 354.01 510.03 354.03 511.13 354.40 511.95
  Q 357.96 519.83 362.85 531.71
  A 0.44 0.44 0.0 0 0 363.66 531.70
  L 372.35 510.11
  A 2.77 2.77 0.0 0 0 370.81 506.51
  L 369.09 505.82
  A 0.43 0.43 0.0 0 1 369.25 505.00
  L 378.83 505.00
  A 0.49 0.49 0.0 0 1 378.96 505.96
  Q 375.51 506.93 374.55 509.77
  Q 374.25 510.64 367.80 526.46
  Q 365.94 531.02 365.93 531.30
  Z"
/>
<path fill="#ffffff" d="
  M 404.40 517.25
  Q 404.69 521.62 404.62 534.37
  Q 404.61 536.84 407.00 536.93
  Q 412.21 537.13 415.48 536.89
  C 419.99 536.56 421.50 533.18 423.21 529.31
  A 0.40 0.40 0.0 0 1 423.96 529.59
  L 421.29 538.60
  A 0.55 0.54 7.6 0 1 420.76 539.00
  L 395.21 539.00
  A 0.19 0.19 0.0 0 1 395.02 538.81
  L 395.02 538.38
  A 0.41 0.40 -0.0 0 1 395.43 537.98
  L 397.27 537.98
  A 2.66 2.66 0.0 0 0 399.93 535.32
  L 399.93 508.66
  A 2.34 2.33 -83.7 0 0 398.11 506.38
  L 395.16 505.71
  A 0.18 0.17 -83.8 0 1 395.03 505.54
  L 395.03 505.25
  A 0.25 0.25 0.0 0 1 395.28 505.00
  L 410.16 505.00
  A 0.25 0.25 0.0 0 1 410.41 505.25
  L 410.41 505.55
  A 0.39 0.38 1.5 0 1 410.01 505.92
  Q 407.35 505.90 405.62 506.94
  A 1.50 1.49 79.6 0 0 404.92 507.96
  Q 404.21 512.02 404.86 515.74
  Q 404.93 516.17 404.75 516.42
  A 1.36 0.48 -47.7 0 0 404.40 517.25
  Z"
/>
<path fill="#ffffff" d="
  M 448.75 518.89
  Q 448.75 517.55 448.75 517.20
  A 0.68 0.68 0.0 0 1 449.43 516.53
  L 507.72 516.46
  A 0.42 0.41 72.4 0 0 508.06 515.81
  L 500.83 505.57
  A 0.36 0.35 85.5 0 1 501.27 505.05
  L 528.14 518.51
  A 0.35 0.14 75.1 0 1 528.27 518.68
  Q 528.29 518.73 528.29 518.82
  Q 528.29 518.87 528.27 518.92
  A 0.35 0.14 -75.2 0 1 528.14 519.10
  L 501.30 532.62
  A 0.36 0.35 -85.7 0 1 500.86 532.10
  L 508.06 521.85
  A 0.42 0.41 -72.5 0 0 507.72 521.19
  L 449.44 521.26
  A 0.68 0.68 0.0 0 1 448.76 520.59
  Q 448.75 520.24 448.75 518.89
  Z"
/>
</svg>
