<?xml version="1.0" encoding="UTF-8" standalone="yes"?>
<svg xmlns="http://www.w3.org/2000/svg" xmlns:xlink="http://www.w3.org/1999/xlink" width="296.652pt" height="343.118pt" version="1.1" viewBox="-346.692 642.060 296.652 343.118">
  <!--
	Exported with Concepts: Smarter Sketching
	Version: 4663 on iOS 26.2
	https://concepts.app/
	-->
  <title>554D2681-7E46-4FA2-A36C-CC56A177F44D</title>
  <desc>Drawing exported from Concepts: Smarter Sketching</desc>
  <defs></defs>
  <g id="Wire" opacity="1.000">
    <path id="STROKE_89f69d2f-77e1-42be-9ab7-8c07bf0f3d33" opacity="1.000" fill="none" stroke="#f7f5ed" stroke-width="2.897" stroke-opacity="1.000" stroke-linecap="round" stroke-linejoin="round" d="M -330.325 665.549 Q -330.378 665.471 -331.980 662.895 Q -331.750 663.317 -332.214 669.803 Q -332.678 676.289 -334.099 684.127 Q -334.059 683.665 -333.887 676.962 Q -333.716 670.259 -333.263 666.275 Q -332.809 662.290 -332.316 660.282 Q -331.823 658.274 -330.670 657.136 Q -329.518 655.999 -327.516 657.096 Q -325.514 658.193 -324.232 659.592 Q -322.949 660.992 -322.569 662.560 Q -322.189 664.128 -322.326 665.189 Q -322.463 666.251 -322.615 666.727 Q -322.767 667.203 -323.707 668.130 Q -324.646 669.057 -325.813 669.871 Q -326.979 670.685 -332.179 673.777 "></path>
    <path id="STROKE_cc3dc96b-284a-4e7c-b8f3-a9bb74ff337e" opacity="1.000" fill="none" stroke="#f7f5ed" stroke-width="2.897" stroke-opacity="1.000" stroke-linecap="round" stroke-linejoin="round" d="M -291.987 670.459 Q -292.062 670.592 -293.510 669.961 L -293.510 669.928 Q -294.475 669.937 -289.125 669.922 Q -283.775 669.906 -272.917 669.995 Q -272.884 670.161 -272.851 670.326 "></path>
    <path id="STROKE_b9c2c9c7-fb20-41c4-95d4-2fc80b797fc3" opacity="1.000" fill="none" stroke="#f7f5ed" stroke-width="2.897" stroke-opacity="1.000" stroke-linecap="round" stroke-linejoin="round" d="M -287.418 676.497 Q -287.602 676.803 -287.887 677.193 Q -288.172 677.584 -288.146 677.592 Q -288.146 677.658 -288.146 677.791 Q -287.729 678.161 -273.778 677.028 Q -273.778 676.995 -273.778 676.961 Q -273.783 676.961 -275.433 676.961 "></path>
    <path id="STROKE_849831e8-e62e-457b-b3b8-8097dd023c50" opacity="1.000" fill="none" stroke="#f7f5ed" stroke-width="2.897" stroke-opacity="1.000" stroke-linecap="round" stroke-linejoin="round" d="M -335.489 750.479 Q -335.228 751.291 -337.774 749.052 Q -338.347 749.527 -339.650 753.376 Q -340.953 757.224 -341.180 760.087 Q -341.406 762.950 -341.379 764.296 Q -341.353 765.642 -340.910 766.470 Q -340.468 767.298 -339.195 767.839 Q -337.922 768.379 -335.512 768.123 Q -333.102 767.867 -330.762 766.484 Q -328.421 765.101 -326.397 763.145 Q -324.374 761.189 -323.600 758.250 Q -322.827 755.312 -323.292 752.391 Q -323.757 749.471 -325.036 747.117 Q -326.316 744.764 -327.438 743.328 Q -328.561 741.893 -334.827 741.886 Q -334.640 741.122 -335.322 743.579 Q -336.005 746.037 -334.853 749.862 Q -333.700 753.687 -329.732 758.176 Q -325.765 762.666 -322.919 765.066 Q -320.072 767.467 -319.134 769.787 Q -319.168 769.787 -319.995 769.322 "></path>
    <path id="STROKE_f2a1c061-260d-44e7-b77d-600b6000b504" opacity="1.000" fill="none" stroke="#f7f5ed" stroke-width="2.897" stroke-opacity="1.000" stroke-linecap="round" stroke-linejoin="round" d="M -296.026 756.716 Q -297.561 756.471 -297.118 756.483 Q -297.841 755.899 -297.548 756.085 Q -297.548 756.052 -297.548 756.019 Q -296.104 755.870 -296.468 755.969 Q -296.833 756.069 -277.817 755.057 Q -278.002 755.134 -278.479 755.455 "></path>
    <path id="STROKE_2ac9dcd8-b82f-4736-a2de-267b6128e313" opacity="1.000" fill="none" stroke="#f7f5ed" stroke-width="2.897" stroke-opacity="1.000" stroke-linecap="round" stroke-linejoin="round" d="M -294.370 763.550 Q -294.988 764.051 -294.900 764.081 Q -294.900 764.180 -294.900 764.246 Q -294.989 764.260 -294.918 764.190 Q -294.847 764.119 -294.770 764.483 Q -294.693 764.846 -276.161 763.019 Q -276.627 762.936 -278.148 763.550 "></path>
    <path id="STROKE_37ba0e48-e83d-4b71-ae44-68815316b594" opacity="1.000" fill="none" stroke="#f7f5ed" stroke-width="2.897" stroke-opacity="1.000" stroke-linecap="round" stroke-linejoin="round" d="M -335.226 851.416 Q -334.263 851.588 -337.279 872.316 Q -337.573 872.691 -336.796 866.552 Q -336.019 860.413 -335.267 857.055 Q -334.515 853.698 -333.671 851.470 Q -332.827 849.242 -331.406 847.007 Q -329.985 844.772 -328.540 845.113 Q -327.096 845.454 -325.730 847.134 Q -324.364 848.813 -324.194 849.869 Q -324.023 850.924 -324.037 851.234 Q -324.052 851.544 -324.029 853.583 Q -324.007 855.621 -326.011 857.637 Q -328.015 859.652 -330.359 861.107 Q -332.704 862.563 -334.299 862.762 Q -333.822 861.743 -315.825 872.980 Q -315.858 872.847 -315.892 872.714 "></path>
    <path id="STROKE_4434f4e7-2329-4ee3-9803-d41b2ce7e6e3" opacity="1.000" fill="none" stroke="#f7f5ed" stroke-width="2.897" stroke-opacity="1.000" stroke-linecap="round" stroke-linejoin="round" d="M -289.207 856.989 Q -289.916 857.216 -291.326 856.491 L -291.326 856.458 Q -291.183 856.442 -284.554 856.532 Q -277.925 856.622 -270.402 855.330 "></path>
    <path id="STROKE_35338c11-bab1-4a0f-b3bb-01970df63be0" opacity="1.000" fill="none" stroke="#f7f5ed" stroke-width="2.897" stroke-opacity="1.000" stroke-linecap="round" stroke-linejoin="round" d="M -288.744 865.880 Q -288.690 865.865 -289.737 866.245 Q -289.737 866.311 -289.737 866.411 Q -288.301 866.981 -269.608 865.681 Q -269.874 865.681 -271.197 865.814 "></path>
    <path id="STROKE_22999664-5eed-4afc-ad4f-42211146c7ca" opacity="1.000" fill="none" stroke="#f7f5ed" stroke-width="2.897" stroke-opacity="1.000" stroke-linecap="round" stroke-linejoin="round" d="M -323.938 959.270 Q -323.902 959.416 -323.742 959.319 Q -323.581 959.222 -323.364 959.043 Q -323.146 958.864 -322.870 958.533 Q -322.594 958.202 -322.599 958.094 Q -322.605 957.987 -322.582 958.221 Q -322.559 958.456 -322.475 957.531 Q -322.392 956.607 -322.462 956.102 Q -322.532 955.598 -323.620 954.761 Q -324.708 953.924 -325.112 953.819 Q -325.515 953.713 -326.990 953.744 Q -328.465 953.774 -329.046 954.185 Q -329.626 954.596 -329.834 954.680 Q -330.041 954.765 -331.401 956.324 Q -332.762 957.884 -333.060 959.866 Q -333.358 961.849 -333.393 963.357 Q -333.427 964.865 -332.007 966.242 Q -330.586 967.619 -328.021 969.563 Q -325.456 971.507 -324.072 973.027 Q -322.687 974.546 -322.290 976.009 Q -321.893 977.472 -322.825 977.735 Q -323.757 977.997 -325.895 978.166 Q -328.032 978.335 -330.091 978.385 Q -332.151 978.434 -333.655 978.298 Q -335.160 978.161 -335.858 977.750 Q -336.555 977.340 -336.756 976.639 Q -336.957 975.939 -336.386 975.128 "></path>
    <path id="STROKE_fed1ddd3-29c6-4dac-bc87-cb6ba186aadc" opacity="1.000" fill="none" stroke="#f7f5ed" stroke-width="2.897" stroke-opacity="1.000" stroke-linecap="round" stroke-linejoin="round" d="M -295.068 965.574 Q -295.505 965.651 -296.657 965.640 Q -296.607 965.491 -296.666 965.593 Q -296.724 965.695 -289.709 965.704 Q -282.694 965.714 -274.939 964.379 Q -275.138 964.512 -275.336 964.645 "></path>
    <path id="STROKE_e4e7f8c7-6fb2-4291-9e6c-9831d80b31c7" opacity="1.000" fill="none" stroke="#f7f5ed" stroke-width="2.897" stroke-opacity="1.000" stroke-linecap="round" stroke-linejoin="round" d="M -289.109 971.413 Q -289.821 972.059 -289.912 972.181 Q -290.002 972.303 -289.837 972.176 Q -291.884 972.953 -273.813 971.147 Q -273.979 971.147 -274.145 971.147 "></path>
    <path id="STROKE_80db1f64-89e5-4192-a18b-2e26e207d5c6" opacity="1.000" fill="none" stroke="#f7f5ed" stroke-width="2.897" stroke-opacity="1.000" stroke-linecap="round" stroke-linejoin="round" d="M -230.904 680.946 Q -232.161 680.946 -232.129 680.946 Q -232.405 680.957 -233.619 680.880 Q -232.553 681.493 -218.118 673.902 Q -203.682 666.311 -188.924 657.392 Q -188.958 657.392 -189.256 657.392 Q -189.118 657.602 -185.597 659.617 Q -182.076 661.633 -176.319 664.805 Q -170.561 667.977 -166.235 670.278 Q -161.910 672.579 -159.625 673.927 Q -157.340 675.274 -155.122 676.687 Q -152.905 678.099 -151.500 679.232 Q -150.095 680.365 -148.501 679.565 Q -146.906 678.766 -145.698 677.857 Q -144.489 676.948 -143.052 675.927 Q -141.615 674.906 -138.307 672.538 Q -134.999 670.169 -132.460 667.922 Q -129.920 665.675 -109.202 653.610 Q -109.235 653.610 -109.335 653.610 Q -109.268 653.444 -109.202 653.278 "></path>
    <path id="STROKE_df4f1031-57e0-4453-89f1-2b249e65cb6d" opacity="1.000" fill="none" stroke="#f7f5ed" stroke-width="2.897" stroke-opacity="1.000" stroke-linecap="round" stroke-linejoin="round" d="M -117.744 647.373 Q -117.928 647.373 -117.214 647.373 Q -117.523 647.217 -120.333 648.851 Q -123.143 650.485 -127.519 653.324 Q -131.894 656.162 -133.994 657.508 Q -136.094 658.853 -140.494 661.813 Q -144.895 664.774 -149.130 668.273 "></path>
    <path id="STROKE_8939b39b-abb7-4c2c-a5c9-600ffd06a514" opacity="1.000" fill="none" stroke="#f7f5ed" stroke-width="2.897" stroke-opacity="1.000" stroke-linecap="round" stroke-linejoin="round" d="M -241.366 761.695 Q -241.191 761.695 -245.141 761.729 L -245.141 761.762 Q -244.775 762.836 -234.112 757.204 Q -223.449 751.573 -217.846 748.635 Q -212.242 745.697 -209.990 744.471 Q -207.738 743.246 -207.117 742.706 Q -206.496 742.167 -206.169 741.878 Q -205.842 741.589 -205.811 741.562 Q -205.781 741.535 -205.785 741.534 Q -205.789 741.534 -205.843 741.586 Q -205.896 741.637 -205.833 741.586 Q -205.769 741.536 -205.069 740.876 Q -204.370 740.217 -204.518 740.397 Q -203.779 741.024 -203.823 740.994 Q -203.235 741.248 -199.404 744.422 Q -195.573 747.597 -189.417 751.802 Q -183.260 756.007 -180.407 757.670 Q -177.554 759.334 -174.678 760.943 Q -171.803 762.553 -170.061 763.664 Q -168.318 764.774 -167.510 764.630 Q -166.701 764.486 -166.024 763.927 Q -165.347 763.369 -164.425 762.786 Q -163.502 762.203 -155.761 755.164 Q -148.021 748.124 -142.205 743.381 Q -136.388 738.638 -133.534 736.675 Q -130.680 734.712 -129.796 733.828 Q -128.912 732.943 -128.651 732.665 Q -128.389 732.386 -128.140 731.705 Q -126.574 731.943 -126.063 732.338 Q -125.551 732.732 -122.612 734.313 Q -119.673 735.895 -115.841 737.916 Q -112.009 739.938 -85.299 750.880 Q -85.359 750.979 -86.160 750.681 "></path>
    <path id="STROKE_36664ad8-1ad0-42e7-aaca-1aaf66ddc3a5" opacity="1.000" fill="none" stroke="#f7f5ed" stroke-width="2.897" stroke-opacity="1.000" stroke-linecap="round" stroke-linejoin="round" d="M -68.944 746.899 Q -68.119 746.069 -68.291 746.232 Q -68.462 746.395 -68.390 746.297 Q -68.317 746.198 -68.437 745.762 Q -68.558 745.326 -68.494 745.460 Q -68.430 745.595 -69.396 745.330 Q -70.361 745.066 -72.129 747.403 Q -73.896 749.740 -74.876 751.496 Q -75.857 753.253 -76.508 756.144 Q -77.158 759.036 -77.232 760.515 Q -77.305 761.994 -76.771 763.367 Q -76.236 764.740 -75.358 765.442 Q -74.480 766.143 -71.751 766.876 Q -69.022 767.608 -66.492 766.790 Q -63.962 765.971 -62.310 764.990 Q -60.659 764.009 -59.013 762.073 Q -57.367 760.136 -56.581 756.873 Q -55.794 753.610 -55.755 751.646 Q -55.716 749.683 -55.628 747.432 Q -55.541 745.182 -57.456 743.714 Q -57.811 744.737 -57.754 744.643 Q -58.095 744.784 -58.410 749.551 Q -58.726 754.317 -58.667 758.292 Q -58.608 762.267 -55.668 767.800 Q -55.469 767.800 -55.304 767.800 "></path>
    <path id="STROKE_584262ef-be72-4519-ab71-14a8ce62f5a7" opacity="1.000" fill="none" stroke="#f7f5ed" stroke-width="2.897" stroke-opacity="1.000" stroke-linecap="round" stroke-linejoin="round" d="M -235.871 861.222 Q -236.750 861.168 -236.665 861.056 Q -236.938 860.901 -237.333 860.661 Q -237.728 860.421 -237.691 860.426 Q -237.725 860.426 -237.791 860.426 Q -238.530 860.963 -234.895 859.178 Q -231.260 857.393 -223.634 853.032 Q -216.007 848.670 -210.612 845.647 Q -205.218 842.623 -201.571 839.791 Q -201.605 839.791 -201.836 839.791 Q -201.575 840.377 -201.472 840.321 Q -200.567 840.990 -200.678 840.919 Q -200.511 841.278 -195.209 845.288 Q -189.906 849.298 -184.857 852.529 Q -179.807 855.760 -175.529 858.362 Q -171.250 860.964 -166.478 864.208 Q -166.511 864.208 -166.544 864.208 Q -165.523 863.311 -165.500 863.344 Q -165.477 863.377 -165.483 863.354 Q -165.489 863.331 -165.166 863.191 Q -164.843 863.051 -159.382 858.728 Q -153.922 854.405 -148.339 849.862 Q -142.757 845.319 -139.825 843.058 Q -136.892 840.797 -135.174 839.551 Q -133.455 838.306 -132.833 837.753 Q -132.210 837.201 -131.843 836.778 Q -131.476 836.354 -131.516 836.208 Q -131.693 836.267 -131.715 836.274 "></path>
    <path id="STROKE_7c5a97a3-93b4-47b1-97ef-fb5579ae4398" opacity="1.000" fill="none" stroke="#f7f5ed" stroke-width="2.897" stroke-opacity="1.000" stroke-linecap="round" stroke-linejoin="round" d="M -123.769 827.051 Q -124.132 826.175 -125.027 823.734 Q -125.000 823.713 -124.796 840.388 L -124.630 840.454 "></path>
    <path id="STROKE_72b1b815-fc0b-4e2b-b57a-48f58f9f6ee6" opacity="1.000" fill="none" stroke="#f7f5ed" stroke-width="2.897" stroke-opacity="1.000" stroke-linecap="round" stroke-linejoin="round" d="M -124.100 826.719 Q -124.108 826.691 -124.067 825.127 Q -123.677 824.672 -122.467 826.609 Q -121.257 828.547 -119.402 831.234 Q -117.547 833.922 -116.497 835.366 Q -115.448 836.811 -113.804 837.923 Q -112.160 839.036 -110.725 838.464 "></path>
    <path id="STROKE_ff4f2b69-b704-4b4e-b921-77e8a516361e" opacity="1.000" fill="none" stroke="#f7f5ed" stroke-width="2.897" stroke-opacity="1.000" stroke-linecap="round" stroke-linejoin="round" d="M -109.335 824.464 Q -109.036 825.115 -109.931 822.539 Q -110.250 822.947 -110.433 825.229 Q -110.616 827.511 -110.724 831.383 Q -110.831 835.254 -111.255 839.326 "></path>
    <path id="STROKE_e754b032-a5f6-48fb-bc0a-9086c14827fa" opacity="1.000" fill="none" stroke="#f7f5ed" stroke-width="2.897" stroke-opacity="1.000" stroke-linecap="round" stroke-linejoin="round" d="M -125.954 799.715 Q -126.273 799.162 -126.881 796.795 Q -126.669 795.774 -126.881 812.587 "></path>
    <path id="STROKE_e26a7130-aba7-4938-9054-a03966173b1c" opacity="1.000" fill="none" stroke="#f7f5ed" stroke-width="2.897" stroke-opacity="1.000" stroke-linecap="round" stroke-linejoin="round" d="M -125.226 804.956 Q -125.652 804.956 -125.888 804.956 Q -125.935 804.745 -123.493 804.980 Q -121.051 805.216 -118.863 804.879 Q -116.676 804.541 -115.847 803.714 Q -115.019 802.886 -114.755 802.361 Q -114.491 801.836 -114.585 801.884 Q -114.679 801.932 -114.484 801.381 Q -114.290 800.829 -114.578 799.108 Q -114.867 797.387 -116.353 795.999 Q -116.546 795.047 -115.757 812.056 "></path>
    <path id="STROKE_d7a438ef-6388-4eb6-b0c5-37bd835049b0" opacity="1.000" fill="none" stroke="#f7f5ed" stroke-width="2.897" stroke-opacity="1.000" stroke-linecap="round" stroke-linejoin="round" d="M -99.800 835.544 Q -100.543 834.797 -100.495 834.814 Q -100.685 834.686 -101.323 833.885 Q -101.226 834.265 -93.278 839.294 Q -85.330 844.323 -80.868 846.543 Q -76.406 848.762 -72.880 850.477 Q -69.355 852.191 -66.976 853.192 Q -64.597 854.193 -60.071 856.976 Q -60.104 856.976 -60.733 856.577 "></path>
    <path id="STROKE_c199f060-c2b4-4e03-95ca-ba5eefe0601f" opacity="1.000" fill="none" stroke="#f7f5ed" stroke-width="2.897" stroke-opacity="1.000" stroke-linecap="round" stroke-linejoin="round" d="M -231.037 960.151 Q -231.434 959.820 -232.361 957.033 Q -231.563 957.501 -225.057 961.347 Q -218.552 965.193 -208.709 969.508 Q -198.865 973.823 -194.158 975.880 Q -189.450 977.937 -187.231 978.615 Q -185.011 979.293 -184.375 979.877 Q -183.740 980.460 -172.504 972.806 Q -161.269 965.151 -155.434 961.130 Q -149.600 957.109 -147.412 955.501 Q -145.225 953.893 -144.128 953.005 Q -143.031 952.117 -142.940 951.715 Q -142.849 951.313 -142.528 950.684 Q -142.208 950.055 -141.996 949.783 Q -141.784 949.511 -141.774 949.572 Q -141.764 949.633 -141.731 949.451 Q -141.697 949.269 -141.063 949.241 Q -140.428 949.214 -136.631 951.564 Q -132.833 953.915 -125.948 957.030 Q -119.062 960.146 -114.584 962.356 Q -110.107 964.566 -89.073 974.019 Q -90.143 974.020 -90.033 973.986 Q -90.723 973.795 -91.059 973.687 "></path>
    <path id="STROKE_076e62a3-52e8-484c-8cbf-86c490641ca9" opacity="1.000" fill="none" stroke="#f7f5ed" stroke-width="2.897" stroke-opacity="1.000" stroke-linecap="round" stroke-linejoin="round" d="M -141.382 926.711 Q -141.686 926.369 -142.574 924.521 Q -142.089 924.288 -141.965 931.267 Q -141.841 938.246 -142.316 943.248 Q -142.792 948.250 -142.674 952.322 Q -142.005 952.381 -141.118 951.260 "></path>
    <path id="STROKE_51f8d5e2-a60a-4cf3-8a97-0c732e89f34b" opacity="1.000" fill="none" stroke="#f7f5ed" stroke-width="2.897" stroke-opacity="1.000" stroke-linecap="round" stroke-linejoin="round" d="M -147.871 901.298 Q -148.143 900.843 -149.428 899.374 Q -149.495 899.189 -149.908 900.433 Q -150.321 901.677 -150.369 904.602 Q -150.417 907.527 -150.405 909.404 Q -150.394 911.280 -150.049 912.457 Q -149.704 913.633 -148.409 914.855 Q -147.115 916.078 -145.572 916.199 Q -144.030 916.321 -142.454 915.711 Q -140.878 915.100 -139.491 913.804 Q -138.105 912.508 -136.928 910.118 Q -135.750 907.727 -135.482 904.830 Q -135.214 901.933 -135.432 900.169 Q -135.650 898.404 -136.386 897.382 Q -137.121 896.360 -138.272 895.638 Q -139.423 894.915 -140.944 894.720 Q -142.465 894.524 -143.407 895.053 Q -144.348 895.583 -144.605 896.194 Q -144.863 896.804 -144.954 897.122 Q -145.045 897.439 -144.362 900.436 "></path>
    <path id="STROKE_1f4ce85d-3a19-486c-a1e1-21f97771d119" opacity="1.000" fill="none" stroke="#f7f5ed" stroke-width="2.897" stroke-opacity="1.000" stroke-linecap="round" stroke-linejoin="round" d="M -128.603 897.649 Q -128.544 898.109 -128.736 896.056 Q -128.769 896.969 -128.206 913.772 "></path>
    <path id="STROKE_ab23d412-2d6c-4365-8b8d-51ffef12e166" opacity="1.000" fill="none" stroke="#f7f5ed" stroke-width="2.897" stroke-opacity="1.000" stroke-linecap="round" stroke-linejoin="round" d="M -127.080 904.151 Q -127.113 904.151 -127.809 904.151 Q -126.555 905.128 -126.782 904.815 Q -126.787 904.784 -124.758 905.039 Q -122.730 905.295 -120.412 905.124 Q -118.094 904.954 -116.532 903.907 Q -114.969 902.860 -114.643 901.290 Q -114.318 899.721 -114.358 898.426 Q -114.398 897.132 -116.022 895.127 Q -116.693 896.516 -114.698 916.161 "></path>
  </g>
</svg>