<?xml version="1.0" encoding="UTF-8" standalone="no"?>
<!DOCTYPE svg PUBLIC "-//W3C//DTD SVG 1.1//EN" "http://www.w3.org/Graphics/SVG/1.1/DTD/svg11.dtd">
<svg xmlns="http://www.w3.org/2000/svg" version="1.1" viewBox="0.00 0.00 328.00 170.00">
<path fill="#ffffff" d="
  M 156.28 43.69
  Q 156.54 43.69 156.57 43.68
  Q 193.68 25.82 224.07 11.10
  Q 225.27 10.52 227.26 10.80
  A 3.15 3.15 0.0 0 1 228.14 11.07
  L 297.58 44.59
  A 2.56 2.54 -78.9 0 1 299.03 46.76
  Q 299.03 46.93 299.04 83.30
  Q 299.04 119.67 299.03 119.84
  A 2.56 2.54 78.9 0 1 297.58 122.00
  L 228.14 155.53
  A 3.15 3.15 0.0 0 1 227.26 155.80
  Q 225.27 156.08 224.07 155.50
  Q 193.68 140.78 156.57 122.92
  Q 156.55 122.91 156.29 122.91
  Q 156.03 122.91 156.00 122.92
  Q 118.89 140.78 88.50 155.50
  Q 87.30 156.08 85.31 155.80
  A 3.15 3.15 0.0 0 1 84.43 155.53
  L 14.99 122.01
  A 2.56 2.54 -78.9 0 1 13.55 119.84
  Q 13.54 119.68 13.54 83.30
  Q 13.54 46.93 13.54 46.77
  A 2.56 2.54 78.9 0 1 14.99 44.60
  L 84.43 11.08
  A 3.15 3.15 0.0 0 1 85.31 10.81
  Q 87.30 10.53 88.50 11.11
  Q 118.89 25.82 156.00 43.68
  Q 156.02 43.69 156.28 43.69
  Z
  M 19.98 83.28
  Q 19.97 101.69 20.06 117.14
  A 0.51 0.49 -78.4 0 0 20.34 117.59
  Q 84.39 148.51 86.33 149.36
  C 86.39 149.38 86.36 149.38 86.46 149.38
  C 86.56 149.38 86.53 149.38 86.59 149.36
  Q 88.53 148.51 152.60 117.63
  A 0.51 0.49 78.5 0 0 152.88 117.18
  Q 152.98 101.73 152.98 83.32
  Q 152.99 64.91 152.90 49.46
  A 0.51 0.49 -78.4 0 0 152.62 49.01
  Q 88.57 18.09 86.63 17.25
  C 86.57 17.22 86.60 17.23 86.50 17.23
  C 86.40 17.23 86.43 17.22 86.37 17.25
  Q 84.43 18.09 20.36 48.97
  A 0.51 0.49 78.5 0 0 20.08 49.42
  Q 19.98 64.87 19.98 83.28
  Z
  M 159.72 83.28
  Q 159.71 101.69 159.79 117.14
  A 0.51 0.49 -78.4 0 0 160.08 117.59
  Q 224.13 148.51 226.07 149.36
  C 226.13 149.38 226.10 149.38 226.20 149.38
  C 226.30 149.38 226.27 149.38 226.33 149.36
  Q 228.27 148.51 292.34 117.63
  A 0.51 0.49 78.5 0 0 292.63 117.18
  Q 292.72 101.73 292.73 83.32
  Q 292.73 64.91 292.65 49.46
  A 0.51 0.49 -78.4 0 0 292.36 49.01
  Q 228.31 18.09 226.37 17.24
  C 226.31 17.21 226.34 17.22 226.24 17.22
  C 226.14 17.22 226.17 17.21 226.11 17.24
  Q 224.17 18.09 160.10 48.97
  A 0.51 0.49 78.5 0 0 159.81 49.42
  Q 159.72 64.87 159.72 83.28
  Z"
/>
<rect fill="#ffffff" x="-38.93" y="-3.14" transform="translate(59.17,44.77) rotate(-24.2)" width="77.86" height="6.28" rx="0.58"/>
<rect fill="#ffffff" x="279.00" y="53.00" width="7.00" height="65.00" rx="0.50"/>
</svg>
