<?xml version="1.0" encoding="UTF-8" standalone="yes"?>
<svg xmlns="http://www.w3.org/2000/svg" xmlns:xlink="http://www.w3.org/1999/xlink" width="334.725pt" height="408.866pt" version="1.1" viewBox="-347.422 610.677 334.725 408.866">
  <!--
	Exported with Concepts: Smarter Sketching
	Version: 4663 on iOS 26.2
	https://concepts.app/
	-->
  <title>554D2681-7E46-4FA2-A36C-CC56A177F44D</title>
  <desc>Drawing exported from Concepts: Smarter Sketching</desc>
  <defs></defs>
  <g id="Wire" opacity="1.000">
    <path id="STROKE_89f69d2f-77e1-42be-9ab7-8c07bf0f3d33" opacity="1.000" fill="none" stroke="#f7f5ed" stroke-width="2.897" stroke-opacity="1.000" stroke-linecap="round" stroke-linejoin="round" d="M -334.165 646.241 Q -334.219 646.163 -335.821 643.587 Q -335.591 644.009 -336.055 650.495 Q -336.519 656.981 -337.939 664.819 Q -337.899 664.357 -337.728 657.654 Q -337.557 650.951 -337.103 646.967 Q -336.650 642.982 -336.156 640.974 Q -335.663 638.966 -334.511 637.828 Q -333.358 636.691 -331.356 637.788 Q -329.355 638.885 -328.072 640.284 Q -326.790 641.684 -326.410 643.252 Q -326.030 644.820 -326.167 645.881 Q -326.303 646.943 -326.455 647.419 Q -326.607 647.895 -327.547 648.822 Q -328.487 649.749 -329.653 650.563 Q -330.820 651.377 -336.019 654.469 "></path>
    <path id="STROKE_cc3dc96b-284a-4e7c-b8f3-a9bb74ff337e" opacity="1.000" fill="none" stroke="#f7f5ed" stroke-width="2.897" stroke-opacity="1.000" stroke-linecap="round" stroke-linejoin="round" d="M -295.827 651.151 Q -295.902 651.284 -297.350 650.653 L -297.350 650.620 Q -298.315 650.629 -292.965 650.614 Q -287.616 650.598 -276.757 650.687 Q -276.724 650.852 -276.691 651.018 "></path>
    <path id="STROKE_b9c2c9c7-fb20-41c4-95d4-2fc80b797fc3" opacity="1.000" fill="none" stroke="#f7f5ed" stroke-width="2.897" stroke-opacity="1.000" stroke-linecap="round" stroke-linejoin="round" d="M -291.258 657.189 Q -291.443 657.495 -291.727 657.885 Q -292.012 658.276 -291.987 658.284 Q -291.987 658.350 -291.987 658.483 Q -291.570 658.853 -277.618 657.720 Q -277.618 657.687 -277.618 657.653 Q -277.623 657.653 -279.273 657.653 "></path>
    <path id="STROKE_849831e8-e62e-457b-b3b8-8097dd023c50" opacity="1.000" fill="none" stroke="#f7f5ed" stroke-width="2.897" stroke-opacity="1.000" stroke-linecap="round" stroke-linejoin="round" d="M -335.489 750.479 Q -335.228 751.291 -337.774 749.052 Q -338.347 749.527 -339.650 753.376 Q -340.953 757.224 -341.180 760.087 Q -341.406 762.950 -341.379 764.296 Q -341.353 765.642 -340.910 766.470 Q -340.468 767.298 -339.195 767.839 Q -337.922 768.379 -335.512 768.123 Q -333.102 767.867 -330.762 766.484 Q -328.421 765.101 -326.397 763.145 Q -324.374 761.189 -323.600 758.250 Q -322.827 755.312 -323.292 752.391 Q -323.757 749.471 -325.036 747.117 Q -326.316 744.764 -327.438 743.328 Q -328.561 741.893 -334.827 741.886 Q -334.640 741.122 -335.322 743.579 Q -336.005 746.037 -334.853 749.862 Q -333.700 753.687 -329.732 758.176 Q -325.765 762.666 -322.919 765.066 Q -320.072 767.467 -319.134 769.787 Q -319.168 769.787 -319.995 769.322 "></path>
    <path id="STROKE_f2a1c061-260d-44e7-b77d-600b6000b504" opacity="1.000" fill="none" stroke="#f7f5ed" stroke-width="2.897" stroke-opacity="1.000" stroke-linecap="round" stroke-linejoin="round" d="M -296.026 756.716 Q -297.561 756.471 -297.118 756.483 Q -297.841 755.899 -297.548 756.085 Q -297.548 756.052 -297.548 756.019 Q -296.104 755.870 -296.468 755.969 Q -296.833 756.069 -277.817 755.057 Q -278.002 755.134 -278.479 755.455 "></path>
    <path id="STROKE_2ac9dcd8-b82f-4736-a2de-267b6128e313" opacity="1.000" fill="none" stroke="#f7f5ed" stroke-width="2.897" stroke-opacity="1.000" stroke-linecap="round" stroke-linejoin="round" d="M -294.370 763.550 Q -294.988 764.051 -294.900 764.081 Q -294.900 764.180 -294.900 764.246 Q -294.989 764.260 -294.918 764.190 Q -294.847 764.119 -294.770 764.483 Q -294.693 764.846 -276.161 763.019 Q -276.627 762.936 -278.148 763.550 "></path>
    <path id="STROKE_37ba0e48-e83d-4b71-ae44-68815316b594" opacity="1.000" fill="none" stroke="#f7f5ed" stroke-width="2.897" stroke-opacity="1.000" stroke-linecap="round" stroke-linejoin="round" d="M -337.146 862.430 Q -336.183 862.603 -339.199 883.330 Q -339.493 883.706 -338.716 877.566 Q -337.939 871.427 -337.187 868.069 Q -336.435 864.712 -335.591 862.484 Q -334.748 860.257 -333.326 858.022 Q -331.905 855.787 -330.460 856.128 Q -329.016 856.468 -327.650 858.148 Q -326.284 859.828 -326.114 860.883 Q -325.943 861.938 -325.958 862.248 Q -325.972 862.558 -325.950 864.597 Q -325.927 866.636 -327.931 868.651 Q -329.935 870.666 -332.280 872.121 Q -334.624 873.577 -336.219 873.776 Q -335.742 872.757 -317.746 883.994 Q -317.779 883.861 -317.812 883.729 "></path>
    <path id="STROKE_4434f4e7-2329-4ee3-9803-d41b2ce7e6e3" opacity="1.000" fill="none" stroke="#f7f5ed" stroke-width="2.897" stroke-opacity="1.000" stroke-linecap="round" stroke-linejoin="round" d="M -291.127 868.003 Q -291.837 868.230 -293.246 867.506 L -293.246 867.473 Q -293.103 867.456 -286.474 867.546 Q -279.845 867.636 -272.322 866.345 "></path>
    <path id="STROKE_35338c11-bab1-4a0f-b3bb-01970df63be0" opacity="1.000" fill="none" stroke="#f7f5ed" stroke-width="2.897" stroke-opacity="1.000" stroke-linecap="round" stroke-linejoin="round" d="M -290.664 876.894 Q -290.611 876.879 -291.657 877.259 Q -291.657 877.326 -291.657 877.425 Q -290.221 877.996 -271.528 876.695 Q -271.794 876.695 -273.117 876.828 "></path>
    <path id="STROKE_0091b6db-9523-480d-9c03-9b01a00e51e4" opacity="1.000" fill="none" stroke="#f7f5ed" stroke-width="2.897" stroke-opacity="1.000" stroke-linecap="round" stroke-linejoin="round" d="M -235.255 642.890 Q -234.730 642.470 -235.719 637.681 Q -235.944 637.297 -236.213 637.578 Q -236.483 637.859 -236.847 638.343 Q -237.211 638.826 -237.449 639.397 Q -237.686 639.968 -238.101 640.554 Q -238.515 641.141 -239.678 644.643 Q -240.841 648.146 -240.987 651.018 Q -241.133 653.889 -241.188 655.657 Q -241.243 657.425 -240.009 658.831 Q -238.775 660.236 -236.640 660.692 Q -234.505 661.149 -232.211 660.773 Q -229.916 660.397 -227.794 658.606 Q -225.672 656.815 -224.453 654.640 Q -223.234 652.464 -222.835 649.106 Q -222.436 645.748 -224.032 641.695 Q -224.098 641.695 -224.231 641.695 Q -224.064 642.290 -224.320 646.993 Q -224.576 651.696 -224.760 654.630 Q -224.944 657.565 -223.403 660.473 "></path>
    <path id="STROKE_bc6b5d2d-1d31-49b8-b301-8bab4d66d0ab" opacity="1.000" fill="none" stroke="#f7f5ed" stroke-width="2.897" stroke-opacity="1.000" stroke-linecap="round" stroke-linejoin="round" d="M -222.277 651.582 Q -222.340 651.610 -223.535 652.610 Q -224.168 652.651 -221.369 652.775 Q -218.570 652.899 -216.358 652.664 Q -214.147 652.428 -212.918 651.820 Q -211.689 651.212 -210.782 650.526 Q -209.876 649.840 -209.497 648.673 Q -209.119 647.506 -209.556 645.949 Q -209.993 644.392 -212.146 642.956 Q -212.075 643.290 -212.219 642.998 Q -212.363 642.707 -211.418 662.729 "></path>
    <path id="STROKE_21aa8782-0c6c-45b5-b2ff-d142f34b92f4" opacity="1.000" fill="none" stroke="#f7f5ed" stroke-width="2.897" stroke-opacity="1.000" stroke-linecap="round" stroke-linejoin="round" d="M -204.267 663.857 Q -204.923 664.091 -205.184 663.759 Q -205.444 663.426 -205.512 663.312 Q -205.579 663.198 -205.655 662.633 Q -205.731 662.068 -205.748 662.093 Q -205.765 662.119 -205.555 661.463 Q -205.346 660.807 -205.305 660.864 Q -205.264 660.921 -204.733 660.479 Q -204.202 660.036 -203.664 659.853 Q -203.127 659.669 -202.614 659.513 Q -202.101 659.356 -201.828 659.319 Q -201.556 659.282 -201.534 659.248 Q -201.512 659.214 -200.720 659.034 Q -199.928 658.854 -199.328 658.986 Q -198.728 659.119 -198.249 659.480 Q -197.769 659.842 -197.622 660.397 Q -197.475 660.952 -197.353 661.554 Q -197.231 662.157 -197.309 664.112 Q -197.388 666.066 -200.758 671.023 Q -200.250 670.954 -198.515 670.990 Q -196.781 671.025 -195.308 672.015 Q -193.834 673.005 -193.415 673.842 Q -192.996 674.680 -193.276 675.420 Q -193.556 676.161 -194.178 676.369 Q -194.800 676.577 -196.225 676.938 Q -197.650 677.299 -197.666 677.283 Q -197.683 677.267 -198.462 677.433 Q -199.240 677.598 -200.616 677.712 Q -201.992 677.826 -202.655 677.847 Q -203.317 677.868 -203.799 677.810 Q -204.280 677.752 -204.681 677.891 Q -205.083 678.029 -205.832 677.530 Q -206.581 677.030 -206.452 675.932 "></path>
    <path id="STROKE_b45628c8-e23c-4eb7-b23f-08f2c967998e" opacity="1.000" fill="none" stroke="#f7f5ed" stroke-width="2.897" stroke-opacity="1.000" stroke-linecap="round" stroke-linejoin="round" d="M -183.695 651.136 Q -183.613 651.375 -183.741 650.609 Q -183.868 649.842 -184.755 649.477 Q -185.004 649.412 -184.532 649.462 Q -184.060 649.512 -174.628 650.168 Q -165.197 650.823 -157.985 651.168 Q -150.772 651.513 -142.974 651.667 Q -143.860 651.667 -143.636 651.667 Q -144.238 651.683 -144.364 651.203 "></path>
    <path id="STROKE_69060ed6-12f4-4692-9029-a85d45938d32" opacity="1.000" fill="none" stroke="#f7f5ed" stroke-width="2.897" stroke-opacity="1.000" stroke-linecap="round" stroke-linejoin="round" d="M -94.637 616.965 Q -95.027 616.965 -93.048 616.965 Q -93.786 616.038 -101.368 621.666 Q -108.950 627.293 -115.707 632.328 Q -122.465 637.362 -126.053 639.965 Q -129.641 642.568 -131.271 643.727 Q -132.901 644.887 -136.828 647.411 Q -140.755 649.936 -143.636 653.525 Q -143.464 653.356 -138.811 656.094 Q -134.158 658.832 -124.062 664.671 Q -113.967 670.510 -108.675 673.276 Q -103.384 676.042 -99.595 677.828 Q -95.806 679.613 -92.492 681.125 Q -89.178 682.637 -81.990 686.103 Q -82.056 686.037 -82.652 685.042 "></path>
    <path id="STROKE_69407673-5562-4094-82d2-6f24d778a871" opacity="1.000" fill="none" stroke="#f7f5ed" stroke-width="2.897" stroke-opacity="1.000" stroke-linecap="round" stroke-linejoin="round" d="M -85.566 619.885 Q -86.169 619.227 -86.095 619.221 Q -86.318 619.295 -86.956 616.634 Q -86.700 616.750 -85.426 624.622 Q -84.152 632.494 -83.961 643.990 Q -83.770 655.486 -83.531 664.152 Q -83.291 672.818 -83.083 676.227 Q -82.875 679.636 -82.700 681.972 Q -82.525 684.308 -82.586 688.226 "></path>
    <path id="STROKE_4b95e923-397c-4ceb-b4eb-8b5ad624862a" opacity="1.000" fill="none" stroke="#f7f5ed" stroke-width="2.897" stroke-opacity="1.000" stroke-linecap="round" stroke-linejoin="round" d="M -235.144 753.516 Q -235.031 753.112 -235.387 752.150 Q -235.742 751.189 -236.373 750.394 Q -237.003 749.600 -237.265 749.608 Q -237.526 749.617 -237.921 749.861 Q -238.316 750.105 -238.765 750.646 Q -239.215 751.188 -240.322 753.157 Q -241.429 755.126 -242.211 758.064 Q -242.993 761.002 -242.971 762.845 Q -242.950 764.688 -242.684 766.338 Q -242.417 767.989 -240.656 768.965 Q -238.896 769.942 -236.103 770.031 Q -233.311 770.120 -230.598 769.535 Q -227.886 768.949 -225.214 767.406 Q -222.542 765.863 -220.602 764.365 Q -218.663 762.867 -218.065 759.843 Q -217.468 756.819 -217.379 754.817 Q -217.291 752.815 -217.707 751.488 Q -218.123 750.161 -218.736 749.505 Q -219.350 748.850 -219.822 748.616 Q -220.293 748.383 -220.264 748.386 Q -220.234 748.390 -220.221 748.339 Q -220.208 748.289 -220.221 748.339 Q -220.234 748.390 -220.579 748.621 Q -220.925 748.851 -221.172 749.665 Q -221.420 750.479 -221.705 751.304 Q -221.990 752.129 -221.992 756.457 Q -221.994 760.785 -222.006 763.254 Q -222.019 765.722 -221.441 767.977 Q -220.864 770.231 -216.803 771.630 "></path>
    <path id="STROKE_0ce0a44d-3178-40db-977d-b19e170e5210" opacity="1.000" fill="none" stroke="#f7f5ed" stroke-width="2.897" stroke-opacity="1.000" stroke-linecap="round" stroke-linejoin="round" d="M -201.242 760.350 Q -200.278 760.344 -203.825 760.483 Q -204.199 760.421 -198.940 760.542 Q -193.682 760.664 -185.947 759.886 Q -186.079 759.898 -186.410 759.952 "></path>
    <path id="STROKE_b3a8c3e4-e2a3-4dc0-8a11-1ac38279669c" opacity="1.000" fill="none" stroke="#f7f5ed" stroke-width="2.897" stroke-opacity="1.000" stroke-linecap="round" stroke-linejoin="round" d="M -173.366 752.786 Q -173.505 752.918 -177.041 750.464 Q -177.571 750.561 -178.966 754.288 Q -180.361 758.016 -180.557 760.296 Q -180.752 762.576 -180.662 765.206 Q -180.572 767.836 -177.928 767.982 Q -175.283 768.127 -173.689 767.806 Q -172.095 767.484 -170.923 766.974 Q -169.750 766.464 -167.394 764.968 Q -165.039 763.472 -163.245 760.692 Q -161.451 757.911 -162.474 750.762 Q -162.575 750.680 -163.003 750.729 Q -163.331 751.449 -163.423 755.191 Q -163.514 758.932 -163.581 761.290 Q -163.647 763.647 -161.447 766.255 "></path>
    <path id="STROKE_bb38bf7e-a647-4fa5-b403-a0e17d85cb62" opacity="1.000" fill="none" stroke="#f7f5ed" stroke-width="2.897" stroke-opacity="1.000" stroke-linecap="round" stroke-linejoin="round" d="M -159.660 760.217 Q -160.100 760.489 -162.043 759.653 L -162.043 759.620 Q -162.133 759.441 -158.419 759.745 Q -154.706 760.049 -152.278 759.904 Q -149.850 759.760 -148.566 759.323 Q -147.282 758.886 -146.571 758.188 Q -145.861 757.491 -145.767 755.434 Q -145.674 753.376 -148.999 750.729 Q -149.197 750.342 -149.579 754.916 Q -149.961 759.490 -147.675 767.184 "></path>
    <path id="STROKE_1d8c7f1e-0e80-4e21-b3a7-2a859d6c7910" opacity="1.000" fill="none" stroke="#f7f5ed" stroke-width="2.897" stroke-opacity="1.000" stroke-linecap="round" stroke-linejoin="round" d="M -136.286 770.966 Q -135.973 771.286 -137.084 770.828 Q -138.194 770.370 -138.508 769.876 Q -138.822 769.382 -138.907 769.101 Q -138.992 768.819 -138.933 768.853 Q -138.873 768.886 -138.949 768.889 Q -139.024 768.891 -138.938 768.654 Q -138.852 768.417 -137.817 768.156 Q -136.782 767.896 -137.011 768.012 Q -137.239 768.129 -136.043 767.943 Q -134.847 767.757 -134.170 768.664 Q -133.493 769.571 -133.228 770.782 Q -132.964 771.993 -134.364 774.830 Q -135.763 777.666 -138.010 780.248 Q -140.257 782.831 -145.059 783.938 Q -145.043 784.038 -145.197 783.846 Q -145.352 783.654 -145.070 782.244 Q -144.787 780.834 -143.390 779.301 Q -141.992 777.767 -140.932 776.932 Q -139.871 776.096 -138.816 775.633 Q -137.760 775.170 -136.779 777.989 Q -135.797 780.807 -134.942 782.505 Q -134.087 784.202 -133.428 784.772 Q -132.770 785.343 -130.658 785.829 "></path>
    <path id="STROKE_99350f44-b493-447d-9b52-a8422b9b53c4" opacity="1.000" fill="none" stroke="#f7f5ed" stroke-width="2.897" stroke-opacity="1.000" stroke-linecap="round" stroke-linejoin="round" d="M -123.175 759.156 Q -123.358 758.786 -125.956 757.630 Q -126.046 757.925 -116.389 758.093 Q -106.731 758.261 -87.751 759.156 Q -88.225 759.171 -89.671 759.089 "></path>
    <path id="STROKE_15fc0374-9de5-4f8f-b000-45e760c99c46" opacity="1.000" fill="none" stroke="#f7f5ed" stroke-width="2.897" stroke-opacity="1.000" stroke-linecap="round" stroke-linejoin="round" d="M -35.176 720.606 Q -35.176 720.573 -35.243 720.373 Q -35.599 719.588 -43.908 725.619 Q -52.218 731.650 -57.166 735.418 Q -62.114 739.185 -68.020 743.621 Q -73.925 748.056 -77.099 750.356 Q -80.273 752.656 -82.539 754.668 Q -84.805 756.681 -86.082 757.737 Q -87.359 758.792 -88.711 760.682 Q -88.966 760.865 -82.780 764.569 Q -76.593 768.272 -72.179 770.582 Q -67.765 772.891 -65.741 773.936 Q -63.717 774.981 -61.855 775.866 Q -59.993 776.750 -57.477 778.152 Q -54.961 779.554 -47.267 782.819 Q -39.573 786.083 -31.866 788.815 "></path>
    <path id="STROKE_5a4c14a6-e87c-4afc-b1a6-f45fd494c3bb" opacity="1.000" fill="none" stroke="#f7f5ed" stroke-width="2.897" stroke-opacity="1.000" stroke-linecap="round" stroke-linejoin="round" d="M -31.535 723.592 Q -32.397 722.976 -32.410 722.877 Q -32.424 722.777 -32.362 722.862 Q -32.428 722.729 -32.660 721.734 Q -32.614 721.602 -31.619 737.971 Q -30.624 754.340 -30.377 763.662 Q -30.130 772.985 -30.020 777.261 Q -29.911 781.537 -29.932 783.599 Q -29.953 785.662 -29.948 786.383 Q -29.943 787.105 -29.945 787.535 Q -29.946 787.966 -29.945 788.124 Q -29.945 788.283 -29.945 788.138 Q -29.946 787.993 -29.945 788.490 Q -29.944 788.987 -30.005 789.677 Q -30.066 790.366 -30.034 790.220 Q -30.002 790.074 -30.541 790.739 "></path>
    <path id="STROKE_452cc452-c2c0-4b86-ada5-89a827c6372b" opacity="1.000" fill="none" stroke="#f7f5ed" stroke-width="2.897" stroke-opacity="1.000" stroke-linecap="round" stroke-linejoin="round" d="M -237.395 862.265 Q -236.773 861.408 -236.866 859.213 Q -236.935 859.120 -236.667 875.734 "></path>
    <path id="STROKE_e7ecff58-54c8-437e-a589-f6adeb26a1da" opacity="1.000" fill="none" stroke="#f7f5ed" stroke-width="2.897" stroke-opacity="1.000" stroke-linecap="round" stroke-linejoin="round" d="M -236.402 869.431 Q -236.402 869.398 -236.535 868.568 Q -236.105 868.341 -231.983 868.534 Q -227.861 868.728 -224.827 868.409 Q -221.793 868.091 -220.199 867.752 Q -218.604 867.413 -218.017 866.479 Q -217.430 865.546 -217.367 864.924 Q -217.303 864.301 -220.378 859.943 Q -220.308 860.034 -220.506 865.396 Q -220.703 870.758 -219.385 877.791 "></path>
    <path id="STROKE_5ee690cd-8e0f-4244-a044-df556633445d" opacity="1.000" fill="none" stroke="#f7f5ed" stroke-width="2.897" stroke-opacity="1.000" stroke-linecap="round" stroke-linejoin="round" d="M -213.161 876.000 Q -213.050 875.089 -213.095 875.336 Q -213.007 875.342 -213.137 875.362 Q -213.268 875.381 -213.249 875.405 Q -213.229 875.429 -212.891 875.082 Q -212.553 874.734 -211.422 874.830 Q -210.290 874.927 -209.535 875.155 Q -208.780 875.384 -207.874 876.336 Q -206.968 877.289 -206.708 878.841 Q -206.447 880.393 -206.681 882.068 Q -206.916 883.743 -208.960 885.705 Q -211.004 887.667 -213.352 889.015 Q -215.699 890.364 -217.504 890.742 Q -219.310 891.120 -220.974 890.796 Q -221.225 890.703 -220.928 888.893 Q -220.632 887.084 -218.885 886.543 Q -217.138 886.001 -215.674 886.016 Q -214.210 886.030 -207.202 891.260 "></path>
    <path id="STROKE_fc3e5e5f-335f-4f5e-9c98-dd589a5cddf0" opacity="1.000" fill="none" stroke="#f7f5ed" stroke-width="2.897" stroke-opacity="1.000" stroke-linecap="round" stroke-linejoin="round" d="M -200.646 863.857 Q -200.680 863.658 -201.640 861.668 Q -201.256 862.495 -201.441 875.933 "></path>
    <path id="STROKE_930110a6-fd0f-4843-9996-d22e5cb000b0" opacity="1.000" fill="none" stroke="#f7f5ed" stroke-width="2.897" stroke-opacity="1.000" stroke-linecap="round" stroke-linejoin="round" d="M -201.507 863.061 Q -201.507 862.406 -201.507 860.142 Q -201.714 860.227 -199.516 864.499 Q -197.318 868.771 -195.200 871.490 Q -193.082 874.209 -191.995 875.214 Q -190.909 876.218 -189.727 876.756 Q -188.546 877.293 -185.218 876.796 "></path>
    <path id="STROKE_b34bc2ed-736c-45d6-8e92-9f4d3d6b110f" opacity="1.000" fill="none" stroke="#f7f5ed" stroke-width="2.897" stroke-opacity="1.000" stroke-linecap="round" stroke-linejoin="round" d="M -184.358 869.497 Q -184.578 868.986 -186.675 858.616 Q -186.474 859.729 -186.280 865.552 Q -186.086 871.374 -185.152 877.725 "></path>
    <path id="STROKE_ef9a2209-ab6f-4d91-b20c-f8c2c1069659" opacity="1.000" fill="none" stroke="#f7f5ed" stroke-width="2.897" stroke-opacity="1.000" stroke-linecap="round" stroke-linejoin="round" d="M -177.140 871.090 Q -177.167 871.092 -177.438 870.393 Q -177.240 869.925 -154.693 869.962 Q -154.859 869.962 -155.687 869.829 "></path>
    <path id="STROKE_ceb80e07-851e-4055-a674-cdbba0955ff2" opacity="1.000" fill="none" stroke="#f7f5ed" stroke-width="2.897" stroke-opacity="1.000" stroke-linecap="round" stroke-linejoin="round" d="M -140.987 860.673 Q -140.366 860.373 -143.007 857.488 Q -143.936 857.350 -144.777 861.731 Q -145.619 866.112 -145.751 868.697 Q -145.884 871.282 -145.817 872.799 Q -145.750 874.316 -145.298 875.003 Q -144.846 875.690 -143.011 876.076 Q -141.175 876.461 -138.908 875.977 Q -136.641 875.493 -134.106 874.095 Q -131.571 872.698 -129.532 870.780 Q -127.494 868.863 -126.394 865.179 Q -125.295 861.496 -127.976 856.692 Q -128.042 856.692 -128.142 856.692 Q -128.038 857.051 -128.249 861.899 Q -128.460 866.747 -126.089 873.147 "></path>
    <path id="STROKE_33c7ef4f-95d9-4cfe-a8eb-dd0e897063e4" opacity="1.000" fill="none" stroke="#f7f5ed" stroke-width="2.897" stroke-opacity="1.000" stroke-linecap="round" stroke-linejoin="round" d="M -125.890 867.706 Q -125.811 867.812 -127.082 866.578 Q -127.297 866.360 -123.989 866.547 Q -120.680 866.733 -118.147 866.212 Q -115.613 865.690 -114.856 865.297 Q -114.098 864.903 -113.431 864.046 Q -112.765 863.189 -112.753 862.744 Q -112.740 862.300 -113.278 861.171 Q -113.816 860.043 -114.317 859.479 Q -114.818 858.916 -115.991 857.421 Q -116.047 858.937 -116.024 858.815 Q -116.002 859.762 -116.138 865.177 Q -116.274 870.591 -114.700 877.260 "></path>
    <path id="STROKE_5cef2a1a-6c22-424e-bfae-8661a59fec67" opacity="1.000" fill="none" stroke="#f7f5ed" stroke-width="2.897" stroke-opacity="1.000" stroke-linecap="round" stroke-linejoin="round" d="M -106.622 876.862 Q -107.229 876.839 -107.152 876.763 Q -107.190 876.197 -107.255 876.290 Q -107.320 876.383 -107.336 876.290 Q -107.353 876.197 -107.236 876.065 Q -107.120 875.933 -106.066 875.766 Q -105.013 875.599 -103.706 876.071 Q -102.400 876.544 -102.450 878.107 Q -102.500 879.670 -102.515 880.891 Q -102.529 882.111 -104.346 884.527 Q -106.164 886.943 -108.009 888.736 Q -109.854 890.529 -113.243 890.862 Q -113.551 890.585 -112.998 889.271 Q -112.444 887.958 -110.879 887.549 Q -109.313 887.141 -108.577 887.141 Q -107.840 887.141 -105.758 888.362 Q -103.676 889.582 -99.603 890.929 "></path>
    <path id="STROKE_a9c16cb0-d248-431f-b338-9c309f885433" opacity="1.000" fill="none" stroke="#f7f5ed" stroke-width="2.897" stroke-opacity="1.000" stroke-linecap="round" stroke-linejoin="round" d="M -98.875 865.848 Q -100.277 865.845 -100.166 865.782 Q -100.589 865.667 -100.861 865.549 Q -100.861 865.483 -100.861 865.450 Q -100.241 865.421 -81.195 865.848 Q -82.215 865.846 -82.156 865.815 L -82.387 865.782 "></path>
    <path id="STROKE_4bf96fed-90df-40f3-99d6-734849e11ad2" opacity="1.000" fill="none" stroke="#f7f5ed" stroke-width="2.897" stroke-opacity="1.000" stroke-linecap="round" stroke-linejoin="round" d="M -78.083 864.521 Q -78.851 864.521 -78.901 864.521 Q -78.952 864.521 -78.944 864.521 Q -79.110 864.521 -79.672 864.521 Q -79.358 864.350 -77.168 862.821 Q -74.978 861.292 -66.320 855.768 Q -57.661 850.243 -52.907 847.433 Q -48.152 844.623 -41.218 841.268 Q -34.284 837.912 -30.162 836.219 Q -26.039 834.526 -21.536 830.947 Q -21.459 831.201 -22.066 832.075 "></path>
    <path id="STROKE_c26a7c1c-b6b3-49c4-8531-9b3f7cf009df" opacity="1.000" fill="none" stroke="#f7f5ed" stroke-width="2.897" stroke-opacity="1.000" stroke-linecap="round" stroke-linejoin="round" d="M -76.428 866.379 Q -76.211 866.379 -78.679 866.379 Q -78.454 867.546 -70.586 873.058 Q -62.718 878.571 -57.220 882.192 Q -51.722 885.813 -47.007 888.505 Q -42.291 891.196 -37.045 894.413 Q -31.799 897.630 -28.850 899.662 Q -25.900 901.694 -24.383 902.673 Q -24.152 902.540 -23.986 902.407 "></path>
    <path id="STROKE_36124329-5d22-48fd-b1d6-24c4e3708408" opacity="1.000" fill="none" stroke="#f7f5ed" stroke-width="2.897" stroke-opacity="1.000" stroke-linecap="round" stroke-linejoin="round" d="M -19.682 831.677 Q -19.730 831.644 -19.602 830.903 Q -19.473 830.162 -19.152 828.426 Q -19.119 828.426 -19.086 828.426 Q -19.042 829.246 -18.770 835.600 Q -18.498 841.955 -18.853 851.697 Q -19.208 861.438 -19.592 866.078 Q -19.976 870.718 -19.890 877.491 Q -19.803 884.265 -19.984 888.625 Q -20.165 892.986 -20.218 894.824 Q -20.272 896.663 -20.319 898.783 Q -20.366 900.903 -20.352 902.110 Q -20.338 903.317 -20.342 903.869 Q -20.346 904.421 -20.345 904.389 Q -20.344 904.358 -20.344 904.335 Q -20.345 904.313 -20.344 904.364 Q -20.344 904.415 -20.344 904.390 Q -20.344 904.365 -20.344 905.460 Q -20.477 905.194 -20.609 904.929 "></path>
    <path id="STROKE_22999664-5eed-4afc-ad4f-42211146c7ca" opacity="1.000" fill="none" stroke="#f7f5ed" stroke-width="2.897" stroke-opacity="1.000" stroke-linecap="round" stroke-linejoin="round" d="M -328.639 978.114 Q -328.604 978.259 -328.443 978.162 Q -328.282 978.065 -328.065 977.887 Q -327.847 977.708 -327.571 977.377 Q -327.295 977.045 -327.300 976.938 Q -327.306 976.830 -327.283 977.065 Q -327.261 977.300 -327.177 976.375 Q -327.093 975.451 -327.163 974.946 Q -327.234 974.441 -328.322 973.604 Q -329.410 972.768 -329.813 972.662 Q -330.216 972.557 -331.691 972.588 Q -333.167 972.618 -333.747 973.029 Q -334.328 973.439 -334.535 973.524 Q -334.742 973.608 -336.103 975.168 Q -337.463 976.727 -337.761 978.710 Q -338.060 980.693 -338.094 982.201 Q -338.128 983.708 -336.708 985.085 Q -335.288 986.462 -332.722 988.407 Q -330.157 990.351 -328.773 991.870 Q -327.389 993.390 -326.991 994.853 Q -326.594 996.316 -327.526 996.578 Q -328.459 996.841 -330.596 997.010 Q -332.733 997.179 -334.793 997.228 Q -336.852 997.278 -338.357 997.141 Q -339.861 997.005 -340.559 996.594 Q -341.257 996.183 -341.457 995.483 Q -341.658 994.782 -341.087 993.972 "></path>
    <path id="STROKE_fed1ddd3-29c6-4dac-bc87-cb6ba186aadc" opacity="1.000" fill="none" stroke="#f7f5ed" stroke-width="2.897" stroke-opacity="1.000" stroke-linecap="round" stroke-linejoin="round" d="M -299.770 984.417 Q -300.206 984.495 -301.359 984.484 Q -301.308 984.335 -301.367 984.437 Q -301.425 984.539 -294.410 984.548 Q -287.395 984.557 -279.640 983.223 Q -279.839 983.356 -280.038 983.488 "></path>
    <path id="STROKE_e4e7f8c7-6fb2-4291-9e6c-9831d80b31c7" opacity="1.000" fill="none" stroke="#f7f5ed" stroke-width="2.897" stroke-opacity="1.000" stroke-linecap="round" stroke-linejoin="round" d="M -293.810 990.256 Q -294.523 990.903 -294.613 991.025 Q -294.704 991.147 -294.539 991.019 Q -296.585 991.796 -278.515 989.991 Q -278.680 989.991 -278.846 989.991 "></path>
    <path id="STROKE_5173afce-fe99-45a1-9e1f-abe4c7843616" opacity="1.000" fill="none" stroke="#f7f5ed" stroke-width="2.897" stroke-opacity="1.000" stroke-linecap="round" stroke-linejoin="round" d="M -242.626 975.991 Q -242.626 974.706 -242.626 974.763 Q -242.626 973.836 -242.626 972.806 Q -242.682 971.608 -242.419 977.321 Q -242.156 983.035 -242.201 987.828 Q -242.246 992.622 -242.362 996.759 "></path>
    <path id="STROKE_dc1c2852-e09a-46f4-9020-7d508c74a6b3" opacity="1.000" fill="none" stroke="#f7f5ed" stroke-width="2.897" stroke-opacity="1.000" stroke-linecap="round" stroke-linejoin="round" d="M -241.302 986.673 Q -241.475 986.026 -241.534 986.143 Q -242.029 985.703 -241.898 985.778 L -241.898 985.744 Q -240.673 985.825 -240.805 985.877 Q -240.002 985.906 -237.853 986.167 Q -235.704 986.427 -233.460 986.029 Q -231.216 985.631 -230.037 984.997 Q -228.858 984.364 -227.933 982.250 Q -227.008 980.136 -228.953 975.128 L -228.986 975.128 Q -228.986 976.661 -228.986 976.455 Q -228.836 978.057 -228.954 982.481 Q -229.072 986.905 -229.083 989.853 Q -229.094 992.801 -227.861 995.100 "></path>
    <path id="STROKE_e310d2c1-864c-423e-aae8-7864076e7659" opacity="1.000" fill="none" stroke="#f7f5ed" stroke-width="2.897" stroke-opacity="1.000" stroke-linecap="round" stroke-linejoin="round" d="M -217.134 978.512 Q -217.015 978.630 -218.590 976.057 Q -218.531 976.763 -218.765 980.620 Q -218.999 984.477 -219.062 986.359 Q -219.125 988.241 -218.808 989.563 Q -218.490 990.885 -217.751 991.694 Q -217.011 992.503 -216.359 993.234 Q -215.707 993.965 -213.690 994.279 Q -211.672 994.592 -210.073 994.416 Q -208.474 994.240 -206.864 992.904 Q -205.254 991.567 -204.963 988.392 Q -204.672 985.217 -204.640 983.403 Q -204.609 981.589 -204.958 979.790 Q -205.307 977.990 -206.072 976.578 Q -206.838 975.167 -208.751 974.651 Q -210.664 974.136 -212.874 974.271 Q -215.084 974.405 -217.068 977.981 "></path>
    <path id="STROKE_3be9ecc7-44a7-4264-9fa4-2e5048b50c9b" opacity="1.000" fill="none" stroke="#f7f5ed" stroke-width="2.897" stroke-opacity="1.000" stroke-linecap="round" stroke-linejoin="round" d="M -194.819 984.417 Q -194.926 984.605 -196.541 983.721 Q -196.541 983.654 -196.541 983.588 Q -196.461 983.756 -156.349 981.398 L -156.349 981.365 Q -158.115 981.151 -157.508 981.199 Q -158.233 981.042 -158.137 981.067 Q -157.752 981.273 -158.997 980.702 "></path>
    <path id="STROKE_dd88c8c9-3de0-48a3-825b-6e39598dcced" opacity="1.000" fill="none" stroke="#f7f5ed" stroke-width="2.897" stroke-opacity="1.000" stroke-linecap="round" stroke-linejoin="round" d="M -111.720 942.815 Q -111.720 941.565 -111.720 941.953 Q -111.720 941.820 -111.720 941.621 Q -111.658 940.996 -120.024 948.393 Q -128.390 955.790 -133.650 960.032 Q -138.910 964.275 -142.347 967.233 Q -145.783 970.190 -149.299 973.062 Q -152.815 975.934 -154.965 977.455 Q -157.115 978.975 -157.839 981.199 Q -157.398 981.618 -155.850 982.666 Q -154.302 983.714 -149.793 986.820 Q -145.285 989.926 -134.459 995.665 Q -123.633 1001.404 -118.105 1004.030 Q -112.577 1006.656 -109.985 1008.204 Q -107.392 1009.752 -105.629 1010.560 Q -105.728 1010.361 -105.827 1010.162 "></path>
    <path id="STROKE_7ec43c3d-6c47-48ec-ac26-b722166457be" opacity="1.000" fill="none" stroke="#f7f5ed" stroke-width="2.897" stroke-opacity="1.000" stroke-linecap="round" stroke-linejoin="round" d="M -108.674 942.351 Q -108.844 941.506 -109.270 940.029 Q -108.585 941.301 -108.024 947.849 Q -107.462 954.396 -107.177 963.081 Q -106.892 971.765 -106.232 978.242 Q -105.573 984.719 -105.370 989.979 Q -105.168 995.240 -104.399 999.388 Q -103.631 1003.537 -103.642 1013.612 Q -103.808 1013.446 -103.973 1013.280 "></path>
  </g>
</svg>