<?xml version="1.0" encoding="UTF-8" standalone="yes"?>
<svg xmlns="http://www.w3.org/2000/svg" xmlns:xlink="http://www.w3.org/1999/xlink" width="312.111pt" height="286.793pt" version="1.1" viewBox="-349.983 651.552 312.111 286.793">
  <!--
	Exported with Concepts: Smarter Sketching
	Version: 4663 on iOS 26.2
	https://concepts.app/
	-->
  <title>554D2681-7E46-4FA2-A36C-CC56A177F44D</title>
  <desc>Drawing exported from Concepts: Smarter Sketching</desc>
  <defs></defs>
  <g id="Wire" opacity="1.000">
    <path id="STROKE_89f69d2f-77e1-42be-9ab7-8c07bf0f3d33" opacity="1.000" fill="none" stroke="#f7f5ed" stroke-width="2.897" stroke-opacity="1.000" stroke-linecap="round" stroke-linejoin="round" d="M -330.325 665.549 Q -330.378 665.471 -331.980 662.895 Q -331.750 663.317 -332.214 669.803 Q -332.678 676.289 -334.099 684.127 Q -334.059 683.665 -333.887 676.962 Q -333.716 670.259 -333.263 666.275 Q -332.809 662.290 -332.316 660.282 Q -331.823 658.274 -330.670 657.136 Q -329.518 655.999 -327.516 657.096 Q -325.514 658.193 -324.232 659.592 Q -322.949 660.992 -322.569 662.560 Q -322.189 664.128 -322.326 665.189 Q -322.463 666.251 -322.615 666.727 Q -322.767 667.203 -323.707 668.130 Q -324.646 669.057 -325.813 669.871 Q -326.979 670.685 -332.179 673.777 "></path>
    <path id="STROKE_cc3dc96b-284a-4e7c-b8f3-a9bb74ff337e" opacity="1.000" fill="none" stroke="#f7f5ed" stroke-width="2.897" stroke-opacity="1.000" stroke-linecap="round" stroke-linejoin="round" d="M -291.987 670.459 Q -292.062 670.592 -293.510 669.961 L -293.510 669.928 Q -294.475 669.937 -289.125 669.922 Q -283.775 669.906 -272.917 669.995 Q -272.884 670.161 -272.851 670.326 "></path>
    <path id="STROKE_b9c2c9c7-fb20-41c4-95d4-2fc80b797fc3" opacity="1.000" fill="none" stroke="#f7f5ed" stroke-width="2.897" stroke-opacity="1.000" stroke-linecap="round" stroke-linejoin="round" d="M -287.418 676.497 Q -287.602 676.803 -287.887 677.193 Q -288.172 677.584 -288.146 677.592 Q -288.146 677.658 -288.146 677.791 Q -287.729 678.161 -273.778 677.028 Q -273.778 676.995 -273.778 676.961 Q -273.783 676.961 -275.433 676.961 "></path>
    <path id="STROKE_849831e8-e62e-457b-b3b8-8097dd023c50" opacity="1.000" fill="none" stroke="#f7f5ed" stroke-width="2.897" stroke-opacity="1.000" stroke-linecap="round" stroke-linejoin="round" d="M -335.622 735.881 Q -335.361 736.694 -337.906 734.455 Q -338.479 734.930 -339.782 738.778 Q -341.085 742.627 -341.312 745.490 Q -341.539 748.353 -341.512 749.699 Q -341.485 751.045 -341.042 751.873 Q -340.600 752.701 -339.327 753.241 Q -338.055 753.782 -335.645 753.526 Q -333.234 753.269 -330.894 751.887 Q -328.553 750.504 -326.530 748.548 Q -324.506 746.592 -323.733 743.653 Q -322.959 740.714 -323.424 737.794 Q -323.889 734.874 -325.169 732.520 Q -326.448 730.167 -327.571 728.731 Q -328.693 727.295 -334.960 727.289 Q -334.772 726.524 -335.455 728.982 Q -336.137 731.440 -334.985 735.265 Q -333.832 739.089 -329.865 743.579 Q -325.897 748.069 -323.051 750.469 Q -320.205 752.869 -319.267 755.190 Q -319.300 755.190 -320.128 754.725 "></path>
    <path id="STROKE_f2a1c061-260d-44e7-b77d-600b6000b504" opacity="1.000" fill="none" stroke="#f7f5ed" stroke-width="2.897" stroke-opacity="1.000" stroke-linecap="round" stroke-linejoin="round" d="M -296.158 742.118 Q -297.693 741.873 -297.250 741.886 Q -297.973 741.302 -297.681 741.488 Q -297.681 741.455 -297.681 741.422 Q -296.236 741.273 -296.601 741.372 Q -296.965 741.471 -277.949 740.460 Q -278.134 740.537 -278.611 740.858 "></path>
    <path id="STROKE_2ac9dcd8-b82f-4736-a2de-267b6128e313" opacity="1.000" fill="none" stroke="#f7f5ed" stroke-width="2.897" stroke-opacity="1.000" stroke-linecap="round" stroke-linejoin="round" d="M -294.503 748.953 Q -295.121 749.453 -295.032 749.483 Q -295.032 749.583 -295.032 749.649 Q -295.121 749.663 -295.050 749.592 Q -294.979 749.522 -294.902 749.885 Q -294.826 750.249 -276.294 748.422 Q -276.759 748.339 -278.280 748.953 "></path>
    <path id="STROKE_37ba0e48-e83d-4b71-ae44-68815316b594" opacity="1.000" fill="none" stroke="#f7f5ed" stroke-width="2.897" stroke-opacity="1.000" stroke-linecap="round" stroke-linejoin="round" d="M -338.471 819.302 Q -337.507 819.474 -340.523 840.202 Q -340.818 840.577 -340.041 834.438 Q -339.264 828.299 -338.511 824.941 Q -337.759 821.584 -336.916 819.356 Q -336.072 817.129 -334.651 814.893 Q -333.229 812.658 -331.785 812.999 Q -330.340 813.340 -328.974 815.020 Q -327.608 816.700 -327.438 817.755 Q -327.268 818.810 -327.282 819.120 Q -327.296 819.430 -327.274 821.469 Q -327.252 823.508 -329.256 825.523 Q -331.260 827.538 -333.604 828.993 Q -335.948 830.449 -337.544 830.648 Q -337.066 829.629 -319.070 840.866 Q -319.103 840.733 -319.136 840.600 "></path>
    <path id="STROKE_4434f4e7-2329-4ee3-9803-d41b2ce7e6e3" opacity="1.000" fill="none" stroke="#f7f5ed" stroke-width="2.897" stroke-opacity="1.000" stroke-linecap="round" stroke-linejoin="round" d="M -292.452 824.875 Q -293.161 825.102 -294.570 824.378 L -294.570 824.344 Q -294.427 824.328 -287.799 824.418 Q -281.170 824.508 -273.647 823.216 "></path>
    <path id="STROKE_35338c11-bab1-4a0f-b3bb-01970df63be0" opacity="1.000" fill="none" stroke="#f7f5ed" stroke-width="2.897" stroke-opacity="1.000" stroke-linecap="round" stroke-linejoin="round" d="M -291.988 833.766 Q -291.935 833.751 -292.981 834.131 Q -292.981 834.197 -292.981 834.297 Q -291.545 834.867 -272.852 833.567 Q -273.118 833.567 -274.441 833.700 "></path>
    <path id="STROKE_22999664-5eed-4afc-ad4f-42211146c7ca" opacity="1.000" fill="none" stroke="#f7f5ed" stroke-width="2.897" stroke-opacity="1.000" stroke-linecap="round" stroke-linejoin="round" d="M -332.148 914.218 Q -332.113 914.363 -331.952 914.266 Q -331.792 914.169 -331.574 913.991 Q -331.357 913.812 -331.081 913.481 Q -330.804 913.149 -330.810 913.042 Q -330.815 912.934 -330.793 913.169 Q -330.770 913.404 -330.686 912.479 Q -330.602 911.555 -330.673 911.050 Q -330.743 910.545 -331.831 909.708 Q -332.919 908.872 -333.322 908.766 Q -333.726 908.661 -335.201 908.692 Q -336.676 908.722 -337.257 909.133 Q -337.837 909.543 -338.044 909.628 Q -338.251 909.712 -339.612 911.272 Q -340.973 912.831 -341.271 914.814 Q -341.569 916.797 -341.603 918.305 Q -341.638 919.812 -340.217 921.189 Q -338.797 922.566 -336.232 924.511 Q -333.667 926.455 -332.282 927.974 Q -330.898 929.494 -330.501 930.957 Q -330.104 932.420 -331.036 932.682 Q -331.968 932.945 -334.105 933.114 Q -336.243 933.283 -338.302 933.332 Q -340.361 933.382 -341.866 933.245 Q -343.371 933.109 -344.068 932.698 Q -344.766 932.287 -344.967 931.587 Q -345.167 930.886 -344.597 930.076 "></path>
    <path id="STROKE_fed1ddd3-29c6-4dac-bc87-cb6ba186aadc" opacity="1.000" fill="none" stroke="#f7f5ed" stroke-width="2.897" stroke-opacity="1.000" stroke-linecap="round" stroke-linejoin="round" d="M -303.279 920.521 Q -303.716 920.599 -304.868 920.588 Q -304.818 920.439 -304.876 920.541 Q -304.935 920.643 -297.920 920.652 Q -290.905 920.661 -283.150 919.327 Q -283.348 919.460 -283.547 919.592 "></path>
    <path id="STROKE_e4e7f8c7-6fb2-4291-9e6c-9831d80b31c7" opacity="1.000" fill="none" stroke="#f7f5ed" stroke-width="2.897" stroke-opacity="1.000" stroke-linecap="round" stroke-linejoin="round" d="M -297.320 926.360 Q -298.032 927.007 -298.122 927.129 Q -298.213 927.251 -298.048 927.123 Q -300.095 927.900 -282.024 926.095 Q -282.190 926.095 -282.355 926.095 "></path>
    <path id="STROKE_89be7336-08d7-4d89-9d3b-45d0e5d1ff42" opacity="1.000" fill="none" stroke="#f7f5ed" stroke-width="2.897" stroke-opacity="1.000" stroke-linecap="round" stroke-linejoin="round" d="M -240.572 682.207 Q -240.279 682.248 -243.684 683.003 Q -243.584 684.073 -234.543 679.615 Q -225.501 675.157 -220.720 672.563 Q -215.939 669.968 -211.209 667.319 Q -206.478 664.670 -200.843 661.771 Q -200.909 661.771 -201.240 661.771 Q -201.557 661.916 -198.392 663.945 Q -195.227 665.974 -192.247 667.943 Q -189.266 669.913 -182.158 674.147 Q -175.051 678.381 -157.075 687.051 Q -157.108 687.051 -157.142 687.051 Q -156.242 686.119 -153.587 683.634 Q -150.933 681.149 -145.346 676.081 Q -139.759 671.013 -135.172 667.438 Q -130.585 663.862 -122.379 659.515 Q -122.377 659.515 -123.107 659.515 "></path>
    <path id="STROKE_33640285-36ed-410b-9160-6a1f452ef56d" opacity="1.000" fill="none" stroke="#f7f5ed" stroke-width="2.897" stroke-opacity="1.000" stroke-linecap="round" stroke-linejoin="round" d="M -200.313 676.036 Q -200.619 675.742 -201.770 674.643 Q -201.203 675.136 -196.007 677.961 Q -190.811 680.786 -169.921 691.463 Q -170.117 691.950 -170.318 692.027 "></path>
    <path id="STROKE_5766d629-71bc-4594-9a09-091ee7bb75ff" opacity="1.000" fill="none" stroke="#f7f5ed" stroke-width="2.897" stroke-opacity="1.000" stroke-linecap="round" stroke-linejoin="round" d="M -243.551 750.549 Q -243.186 750.892 -244.412 751.212 Q -243.731 751.342 -208.921 733.529 L -208.921 733.496 Q -208.954 733.496 -209.186 733.496 Q -209.094 733.893 -208.305 734.233 Q -207.517 734.574 -201.688 738.678 Q -195.859 742.783 -190.813 746.163 Q -185.766 749.543 -182.687 751.493 Q -179.607 753.443 -175.019 755.989 Q -175.053 755.989 -175.086 755.989 Q -175.123 756.297 -173.827 755.392 Q -172.532 754.487 -164.289 747.863 Q -156.047 741.238 -151.732 737.944 Q -147.416 734.650 -145.360 733.383 Q -143.303 732.116 -142.688 731.275 Q -142.072 730.434 -139.926 728.984 Q -139.993 728.811 -139.171 729.358 Q -138.348 729.904 -129.821 734.059 Q -121.294 738.214 -99.469 746.236 Q -99.369 746.236 -100.462 746.236 "></path>
    <path id="STROKE_2861f810-9427-4209-bf7e-c7b1060f6d33" opacity="1.000" fill="none" stroke="#f7f5ed" stroke-width="2.897" stroke-opacity="1.000" stroke-linecap="round" stroke-linejoin="round" d="M -83.379 741.392 Q -83.909 741.186 -84.469 740.270 Q -85.029 739.354 -85.350 739.228 Q -85.672 739.102 -85.906 739.297 Q -86.141 739.491 -86.523 739.792 Q -86.905 740.093 -87.021 740.390 Q -87.138 740.687 -87.322 740.821 Q -87.506 740.954 -88.946 743.172 Q -90.385 745.389 -90.790 748.208 Q -91.196 751.028 -91.175 752.588 Q -91.154 754.149 -90.509 755.419 Q -89.864 756.689 -88.203 757.909 Q -86.542 759.128 -83.898 759.467 Q -81.254 759.806 -78.804 758.986 Q -76.353 758.165 -74.069 756.689 Q -71.784 755.212 -70.179 753.074 Q -68.574 750.935 -67.980 749.654 Q -67.385 748.374 -67.133 746.351 Q -66.880 744.328 -66.778 742.072 Q -66.676 739.816 -68.977 738.008 Q -69.734 739.038 -69.965 744.143 Q -70.196 749.249 -70.037 753.526 Q -69.878 757.802 -66.295 763.553 "></path>
    <path id="STROKE_b16cd287-9ca9-433b-a831-e80fd0313850" opacity="1.000" fill="none" stroke="#f7f5ed" stroke-width="2.897" stroke-opacity="1.000" stroke-linecap="round" stroke-linejoin="round" d="M -245.935 832.558 Q -247.340 832.558 -246.862 832.558 Q -246.995 832.558 -247.259 832.558 Q -246.931 832.269 -237.763 828.007 Q -228.596 823.746 -223.899 821.719 Q -219.202 819.693 -217.444 818.883 Q -215.687 818.072 -214.368 817.230 Q -213.049 816.388 -213.490 815.705 Q -213.092 815.382 -211.594 816.143 Q -210.095 816.903 -206.553 819.339 Q -203.010 821.774 -198.642 824.679 Q -194.274 827.583 -189.939 830.286 Q -185.605 832.989 -179.919 836.407 Q -179.952 836.407 -180.052 836.407 Q -180.395 836.335 -179.555 835.942 Q -178.716 835.549 -172.413 830.379 Q -166.111 825.209 -160.924 821.459 Q -155.738 817.709 -152.202 815.836 Q -148.666 813.964 -146.415 811.525 Q -146.448 811.525 -146.547 811.525 Q -146.273 811.704 -143.967 812.863 Q -141.661 814.022 -139.950 814.774 Q -138.238 815.526 -137.451 815.864 Q -136.665 816.203 -128.928 819.302 Q -121.191 822.401 -116.250 824.472 Q -111.310 826.543 -108.209 829.307 Q -108.854 829.313 -109.335 828.975 "></path>
    <path id="STROKE_e87ec796-7f60-4936-a971-31343e9d966f" opacity="1.000" fill="none" stroke="#f7f5ed" stroke-width="2.897" stroke-opacity="1.000" stroke-linecap="round" stroke-linejoin="round" d="M -98.012 824.596 Q -97.803 824.932 -97.846 823.203 L -97.813 823.203 Q -97.698 823.004 -97.681 841.250 Q -97.515 841.051 -97.350 840.852 "></path>
    <path id="STROKE_84d0be49-d3ae-418e-bd1a-b34f2a666539" opacity="1.000" fill="none" stroke="#f7f5ed" stroke-width="2.897" stroke-opacity="1.000" stroke-linecap="round" stroke-linejoin="round" d="M -97.085 826.786 Q -97.085 826.842 -97.085 824.596 Q -96.872 824.219 -94.460 827.776 Q -92.047 831.333 -90.638 833.587 Q -89.228 835.840 -88.031 837.423 Q -86.835 839.006 -85.704 839.889 Q -84.574 840.771 -81.922 840.454 "></path>
    <path id="STROKE_d927e8db-9268-41a1-b435-7870624c2a1b" opacity="1.000" fill="none" stroke="#f7f5ed" stroke-width="2.897" stroke-opacity="1.000" stroke-linecap="round" stroke-linejoin="round" d="M -82.253 826.719 Q -81.876 826.805 -83.047 824.596 Q -83.158 826.145 -81.789 841.582 "></path>
    <path id="STROKE_656f9d5f-4a39-45c0-a4f9-d18bf25e98ef" opacity="1.000" fill="none" stroke="#f7f5ed" stroke-width="2.897" stroke-opacity="1.000" stroke-linecap="round" stroke-linejoin="round" d="M -74.837 826.985 Q -74.837 825.816 -74.837 825.956 Q -74.837 824.787 -74.837 825.094 Q -74.837 824.862 -74.837 824.464 Q -74.858 826.984 -73.513 842.644 "></path>
    <path id="STROKE_4445dac5-6b62-45a6-9eba-ef804a0a179b" opacity="1.000" fill="none" stroke="#f7f5ed" stroke-width="2.897" stroke-opacity="1.000" stroke-linecap="round" stroke-linejoin="round" d="M -71.923 833.952 Q -72.218 833.584 -73.049 832.558 Q -73.794 832.302 -71.439 832.950 Q -69.085 833.598 -67.198 833.516 Q -65.311 833.434 -64.412 832.877 Q -63.514 832.320 -63.150 831.734 Q -62.785 831.149 -62.648 829.352 Q -62.510 827.556 -62.889 826.593 Q -63.268 825.630 -64.143 824.862 Q -64.160 824.764 -64.111 826.277 Q -64.061 827.789 -64.423 833.694 Q -64.784 839.599 -63.647 845.762 "></path>
    <path id="STROKE_52b796ba-a377-4654-95b2-83d2686f29aa" opacity="1.000" fill="none" stroke="#f7f5ed" stroke-width="2.897" stroke-opacity="1.000" stroke-linecap="round" stroke-linejoin="round" d="M -54.377 843.573 Q -54.574 843.202 -54.741 842.279 Q -53.425 841.884 -53.748 842.047 Q -52.677 841.709 -51.657 842.315 Q -50.638 842.922 -50.029 843.910 Q -49.421 844.899 -49.314 846.509 Q -49.206 848.119 -49.503 850.075 Q -49.799 852.031 -56.959 856.976 Q -57.925 856.306 -42.855 855.317 Q -43.733 855.857 -45.305 856.577 "></path>
    <path id="STROKE_30994ee5-192a-4819-beb0-81673048a2bc" opacity="1.000" fill="none" stroke="#f7f5ed" stroke-width="2.897" stroke-opacity="1.000" stroke-linecap="round" stroke-linejoin="round" d="M -244.942 924.985 Q -245.553 925.018 -247.259 924.919 Q -247.599 925.097 -237.896 919.995 Q -228.193 914.893 -223.215 912.092 Q -218.238 909.291 -215.763 907.945 Q -213.288 906.600 -212.364 904.947 Q -212.697 904.402 -210.006 905.936 Q -207.315 907.470 -202.513 910.953 Q -197.711 914.436 -194.591 916.613 Q -191.470 918.791 -177.072 925.383 Q -177.105 925.383 -177.138 925.383 Q -177.465 925.705 -169.021 919.339 Q -160.577 912.972 -155.716 909.393 Q -150.856 905.815 -148.738 904.435 Q -146.620 903.056 -145.672 902.525 Q -144.724 901.993 -144.693 900.634 Q -144.562 899.921 -140.084 902.716 Q -135.607 905.510 -132.388 907.327 Q -129.169 909.145 -125.436 911.184 Q -121.704 913.223 -118.529 914.672 Q -115.355 916.122 -110.858 919.412 Q -111.401 919.457 -111.917 919.213 "></path>
    <path id="STROKE_fa42befd-6447-43aa-b465-6902c7a7bba8" opacity="1.000" fill="none" stroke="#f7f5ed" stroke-width="2.897" stroke-opacity="1.000" stroke-linecap="round" stroke-linejoin="round" d="M -97.482 918.483 Q -97.263 919.199 -97.813 915.165 Q -98.454 916.539 -99.134 919.991 Q -99.815 923.442 -99.897 925.433 Q -99.979 927.424 -99.506 929.370 Q -99.034 931.316 -97.022 932.122 Q -95.011 932.929 -93.247 932.267 Q -91.484 931.604 -90.675 931.028 Q -89.867 930.452 -88.289 928.566 Q -86.711 926.680 -86.144 924.058 Q -85.577 921.436 -85.550 919.742 Q -85.524 918.047 -86.032 916.836 Q -86.539 915.626 -88.133 914.549 Q -89.727 913.472 -91.132 913.346 Q -92.536 913.220 -93.764 912.963 Q -94.993 912.707 -95.633 913.541 Q -96.274 914.375 -96.573 915.353 Q -96.872 916.330 -95.562 917.620 "></path>
    <path id="STROKE_17c03fd4-d234-41bd-9826-e9ca8d5ef70e" opacity="1.000" fill="none" stroke="#f7f5ed" stroke-width="2.897" stroke-opacity="1.000" stroke-linecap="round" stroke-linejoin="round" d="M -78.413 913.838 Q -78.377 913.423 -78.480 913.295 Q -78.583 913.167 -78.487 913.290 Q -78.391 913.412 -79.207 911.914 Q -79.200 913.161 -79.174 913.142 Q -78.751 914.380 -78.081 931.090 "></path>
    <path id="STROKE_58e43676-47fd-40fe-8a10-d892a8cd6926" opacity="1.000" fill="none" stroke="#f7f5ed" stroke-width="2.897" stroke-opacity="1.000" stroke-linecap="round" stroke-linejoin="round" d="M -76.823 921.601 Q -76.856 921.601 -77.221 921.535 Q -75.983 921.674 -76.128 921.701 Q -75.249 921.745 -72.830 921.977 Q -70.412 922.209 -68.658 921.419 Q -66.904 920.629 -66.134 919.775 Q -65.364 918.921 -65.113 918.379 Q -64.862 917.837 -64.797 917.192 Q -64.733 916.547 -64.638 915.102 Q -64.544 913.656 -66.163 911.118 Q -66.293 910.931 -66.167 918.091 Q -66.041 925.250 -63.183 932.682 "></path>
  </g>
</svg>