<?xml version="1.0" encoding="UTF-8" standalone="no"?>
<!DOCTYPE svg PUBLIC "-//W3C//DTD SVG 1.1//EN" "http://www.w3.org/Graphics/SVG/1.1/DTD/svg11.dtd">
<svg xmlns="http://www.w3.org/2000/svg" version="1.1" viewBox="0.00 0.00 328.00 178.00">
<path fill="#ffffff" d="
  M 163.92 46.78
  C 164.08 46.78 164.03 46.79 164.13 46.75
  Q 194.88 31.99 231.57 14.20
  Q 232.67 13.67 235.33 14.08
  A 1.85 1.84 61.8 0 1 235.92 14.26
  Q 282.67 36.85 304.14 47.19
  Q 306.25 48.21 306.35 49.99
  Q 306.54 53.59 306.54 86.37
  Q 306.54 119.15 306.35 122.75
  Q 306.25 124.53 304.14 125.55
  Q 282.67 135.89 235.92 158.48
  A 1.85 1.84 -61.8 0 1 235.33 158.66
  Q 232.67 159.07 231.57 158.54
  Q 194.88 140.75 164.12 125.99
  C 164.03 125.94 164.08 125.96 163.92 125.96
  C 163.76 125.96 163.81 125.94 163.72 125.99
  Q 132.96 140.75 96.27 158.54
  Q 95.17 159.07 92.51 158.66
  A 1.85 1.84 61.8 0 1 91.92 158.48
  Q 45.17 135.89 23.70 125.55
  Q 21.59 124.53 21.49 122.75
  Q 21.30 119.15 21.30 86.37
  Q 21.30 53.58 21.50 49.99
  Q 21.59 48.20 23.70 47.18
  Q 45.17 36.84 91.92 14.26
  A 1.85 1.84 -61.8 0 1 92.51 14.08
  Q 95.17 13.67 96.27 14.20
  Q 132.96 31.99 163.72 46.75
  C 163.81 46.79 163.76 46.78 163.92 46.78
  Z
  M 160.60 86.34
  Q 160.59 59.76 160.53 52.54
  A 0.52 0.52 0.0 0 0 160.25 52.09
  Q 127.49 36.26 94.35 20.31
  Q 94.33 20.30 94.16 20.30
  Q 93.93 20.30 93.91 20.31
  Q 60.78 36.29 28.04 52.16
  A 0.52 0.52 0.0 0 0 27.76 52.61
  Q 27.71 59.82 27.72 86.40
  Q 27.74 112.98 27.79 120.20
  A 0.52 0.52 0.0 0 0 28.08 120.65
  Q 60.84 136.48 93.98 152.43
  Q 94.00 152.44 94.17 152.44
  Q 94.39 152.44 94.41 152.43
  Q 127.54 136.45 160.28 120.58
  A 0.52 0.52 0.0 0 0 160.57 120.13
  Q 160.61 112.92 160.60 86.34
  Z
  M 167.28 86.37
  Q 167.28 112.96 167.33 120.18
  A 0.52 0.52 0.0 0 0 167.62 120.63
  Q 200.38 136.48 233.53 152.45
  Q 233.55 152.46 233.77 152.46
  Q 233.94 152.46 233.96 152.45
  Q 267.11 136.48 299.87 120.62
  A 0.52 0.52 0.0 0 0 300.15 120.17
  Q 300.20 112.95 300.20 86.37
  Q 300.20 59.78 300.15 52.56
  A 0.52 0.52 0.0 0 0 299.86 52.11
  Q 267.10 36.26 233.96 20.28
  Q 233.94 20.27 233.71 20.27
  Q 233.54 20.27 233.52 20.28
  Q 200.38 36.26 167.62 52.11
  A 0.52 0.52 0.0 0 0 167.33 52.56
  Q 167.28 59.78 167.28 86.37
  Z"
/>
<rect fill="#ffffff" x="38.00" y="54.00" width="7.00" height="64.00" rx="0.44"/>
<rect fill="#ffffff" x="286.00" y="53.99" width="7.00" height="64.00" rx="0.45"/>
</svg>
