<?xml version="1.0" encoding="UTF-8" standalone="no"?>
<!DOCTYPE svg PUBLIC "-//W3C//DTD SVG 1.1//EN" "http://www.w3.org/Graphics/SVG/1.1/DTD/svg11.dtd">
<svg xmlns="http://www.w3.org/2000/svg" version="1.1" viewBox="0.00 0.00 932.00 326.00">
<path fill="#ffffff" d="
  M 147.1201 20.9204
  A 23.60 22.12 -88.3 0 1 168.5303 45.1662
  A 23.60 22.12 -88.3 0 1 145.7199 68.0996
  A 23.60 22.12 -88.3 0 1 124.3097 43.8538
  A 23.60 22.12 -88.3 0 1 147.1201 20.9204
  Z
  M 132.07 43.64
  Q 132.07 47.66 132.08 47.98
  Q 132.24 52.42 133.89 56.55
  Q 138.00 66.83 148.01 65.88
  C 153.48 65.36 157.40 61.58 159.28 56.61
  Q 160.48 53.44 160.64 52.06
  Q 160.88 50.03 160.88 45.25
  Q 160.88 41.23 160.87 40.92
  Q 160.71 36.47 159.06 32.34
  Q 154.95 22.06 144.94 23.01
  C 139.47 23.53 135.55 27.31 133.67 32.28
  Q 132.47 35.45 132.31 36.83
  Q 132.07 38.86 132.07 43.64
  Z"
/>
<rect fill="#ffffff" x="133.00" y="68.99" width="8.00" height="55.00" rx="0.49"/>
<rect fill="#ffffff" x="148.00" y="68.96" width="8.00" height="55.00" rx="0.62"/>
<path fill="#ffffff" d="
  M 163.18 164.14
  L 163.53 164.26
  A 0.28 0.27 24.5 0 1 163.68 164.65
  C 158.67 173.40 150.86 177.49 141.01 175.64
  Q 128.38 173.27 124.16 159.57
  Q 123.14 156.27 124.01 149.27
  Q 125.57 136.73 136.50 131.29
  Q 146.28 126.43 157.15 131.86
  A 1.83 1.80 -34.2 0 0 158.08 132.04
  Q 160.26 131.84 160.66 129.59
  A 0.64 0.64 0.0 0 1 161.93 129.66
  L 162.88 143.50
  A 0.47 0.47 0.0 0 1 161.96 143.69
  Q 160.99 140.94 159.82 138.68
  C 156.98 133.15 151.36 130.39 145.29 131.07
  Q 136.09 132.11 132.81 141.12
  Q 129.77 149.45 131.76 159.67
  Q 133.95 170.89 144.95 172.78
  C 153.10 174.18 158.43 170.38 162.91 164.23
  A 0.23 0.23 0.0 0 1 163.18 164.14
  Z"
/>
<path fill="#ffffff" d="
  M 276.20 164.07
  L 276.55 164.19
  A 0.28 0.27 24.4 0 1 276.71 164.58
  C 271.72 173.35 263.92 177.46 254.06 175.64
  Q 241.43 173.30 237.16 159.62
  Q 236.13 156.32 236.98 149.31
  Q 238.51 136.77 249.43 131.29
  Q 259.20 126.41 270.09 131.81
  A 1.83 1.80 -34.3 0 0 271.02 131.98
  Q 273.20 131.77 273.59 129.52
  A 0.64 0.64 0.0 0 1 274.86 129.59
  L 275.85 143.43
  A 0.47 0.47 0.0 0 1 274.93 143.62
  Q 273.95 140.87 272.78 138.61
  C 269.92 133.09 264.29 130.35 258.22 131.05
  Q 249.02 132.12 245.76 141.14
  Q 242.74 149.48 244.76 159.69
  Q 246.98 170.90 257.99 172.77
  C 266.15 174.14 271.47 170.33 275.93 164.17
  A 0.23 0.23 0.0 0 1 276.20 164.07
  Z"
/>
<path fill="#ffffff" d="
  M 453.69 164.64
  C 448.68 173.39 440.87 177.48 431.02 175.63
  Q 418.40 173.26 414.17 159.57
  Q 413.15 156.27 414.02 149.27
  Q 415.58 136.73 426.51 131.29
  Q 436.29 126.43 447.16 131.86
  A 1.83 1.80 -34.2 0 0 448.09 132.03
  Q 450.27 131.83 450.67 129.58
  A 0.64 0.64 0.0 0 1 451.94 129.65
  L 452.89 143.49
  A 0.47 0.47 0.0 0 1 451.97 143.68
  Q 451.00 140.93 449.83 138.67
  C 446.99 133.14 441.37 130.39 435.30 131.07
  Q 426.10 132.11 422.82 141.12
  Q 419.78 149.45 421.77 159.66
  Q 423.96 170.88 434.96 172.77
  C 443.11 174.17 448.44 170.37 452.92 164.22
  A 0.23 0.23 0.0 0 1 453.19 164.13
  L 453.54 164.25
  A 0.28 0.27 24.5 0 1 453.69 164.64
  Z"
/>
<path fill="#ffffff" d="
  M 631.17 164.16
  L 631.52 164.28
  A 0.28 0.27 24.6 0 1 631.67 164.67
  C 626.64 173.41 618.82 177.48 608.98 175.61
  Q 596.36 173.22 592.16 159.52
  Q 591.15 156.22 592.03 149.22
  Q 593.61 136.69 604.55 131.27
  Q 614.34 126.43 625.20 131.88
  A 1.83 1.80 -34.1 0 0 626.13 132.05
  Q 628.31 131.86 628.71 129.61
  A 0.64 0.64 0.0 0 1 629.98 129.68
  L 630.91 143.52
  A 0.47 0.47 0.0 0 1 629.99 143.71
  Q 629.02 140.96 627.86 138.69
  C 625.03 133.16 619.41 130.40 613.34 131.07
  Q 604.14 132.09 600.84 141.09
  Q 597.79 149.42 599.76 159.63
  Q 601.93 170.85 612.92 172.76
  C 621.07 174.18 626.41 170.39 630.90 164.25
  A 0.23 0.23 0.0 0 1 631.17 164.16
  Z"
/>
<path fill="#ffffff" d="
  M 774.3148 128.9358
  A 23.60 22.11 -87.9 0 1 795.5452 153.3302
  A 23.60 22.11 -87.9 0 1 772.5852 176.1042
  A 23.60 22.11 -87.9 0 1 751.3548 151.7098
  A 23.60 22.11 -87.9 0 1 774.3148 128.9358
  Z
  M 786.72 161.84
  Q 786.67 162.01 786.85 162.28
  A 0.22 0.22 0.0 0 0 787.24 162.22
  Q 787.88 159.97 787.89 159.25
  Q 787.99 152.79 788.07 149.00
  Q 788.20 142.48 784.43 136.93
  Q 780.06 130.49 772.44 131.00
  C 767.48 131.33 763.74 133.98 761.63 138.42
  Q 759.64 142.64 759.29 146.28
  Q 758.70 152.54 759.42 158.61
  C 760.43 167.11 765.64 175.29 775.44 173.84
  C 780.57 173.08 786.86 168.02 786.89 161.86
  A 0.09 0.09 0.0 0 0 786.72 161.84
  Z"
/>
<path fill="#ffffff" d="
  M 839.19 164.09
  L 839.54 164.21
  A 0.28 0.27 24.4 0 1 839.69 164.60
  C 834.69 173.37 826.88 177.48 817.01 175.66
  Q 804.37 173.31 800.10 159.61
  Q 799.07 156.31 799.93 149.30
  Q 801.46 136.74 812.39 131.27
  Q 822.18 126.38 833.07 131.79
  A 1.83 1.80 -34.3 0 0 834.00 131.96
  Q 836.19 131.75 836.58 129.50
  A 0.64 0.64 0.0 0 1 837.85 129.57
  L 838.84 143.42
  A 0.47 0.47 0.0 0 1 837.92 143.61
  Q 836.94 140.86 835.76 138.60
  C 832.91 133.07 827.27 130.33 821.20 131.03
  Q 811.99 132.09 808.72 141.12
  Q 805.70 149.47 807.71 159.69
  Q 809.93 170.92 820.95 172.78
  C 829.12 174.17 834.44 170.35 838.92 164.18
  A 0.23 0.23 0.0 0 1 839.19 164.09
  Z"
/>
<path fill="#ffffff" d="
  M 38.54 153.00
  Q 29.62 153.00 28.66 153.13
  A 0.65 0.64 86.9 0 0 28.10 153.76
  Q 28.06 161.70 28.21 170.26
  C 28.27 173.66 31.60 174.06 34.29 174.07
  A 0.24 0.23 -0.0 0 1 34.53 174.30
  L 34.53 174.57
  A 0.43 0.42 -0.0 0 1 34.10 174.99
  L 15.58 175.00
  A 0.22 0.22 0.0 0 1 15.36 174.78
  L 15.36 174.52
  A 0.45 0.44 89.3 0 1 15.79 174.07
  C 18.77 174.02 21.68 173.47 21.73 169.97
  Q 21.98 153.00 21.76 134.37
  A 2.22 2.18 -65.4 0 0 21.27 133.01
  Q 19.39 130.71 15.67 131.00
  A 0.30 0.30 0.0 0 1 15.35 130.70
  L 15.35 130.38
  A 0.36 0.36 0.0 0 1 15.71 130.02
  L 34.24 130.02
  A 0.25 0.24 -0.0 0 1 34.49 130.26
  L 34.49 130.58
  A 0.28 0.28 0.0 0 1 34.23 130.86
  C 31.86 131.06 28.65 131.32 28.15 134.07
  A 0.87 0.78 -41.8 0 0 28.13 134.25
  L 28.10 150.46
  A 0.50 0.50 0.0 0 0 28.60 150.97
  Q 30.52 151.00 38.54 151.00
  Q 46.56 151.00 48.48 150.96
  A 0.50 0.50 0.0 0 0 48.98 150.46
  L 48.95 134.24
  A 0.87 0.78 41.8 0 0 48.92 134.06
  C 48.41 131.31 45.21 131.05 42.84 130.86
  A 0.28 0.28 0.0 0 1 42.58 130.58
  L 42.58 130.26
  A 0.25 0.24 -0.0 0 1 42.83 130.02
  L 61.36 130.01
  A 0.36 0.36 0.0 0 1 61.72 130.37
  L 61.72 130.69
  A 0.30 0.30 0.0 0 1 61.40 130.99
  Q 57.68 130.70 55.80 133.00
  A 2.22 2.18 65.4 0 0 55.31 134.36
  Q 55.10 152.99 55.35 169.96
  C 55.40 173.46 58.32 174.01 61.30 174.06
  A 0.45 0.44 -89.4 0 1 61.73 174.51
  L 61.73 174.77
  A 0.22 0.22 0.0 0 1 61.51 174.99
  L 42.99 174.99
  A 0.43 0.42 -0.0 0 1 42.56 174.57
  L 42.56 174.30
  A 0.24 0.23 -0.0 0 1 42.80 174.07
  C 45.49 174.06 48.82 173.66 48.88 170.25
  Q 49.02 161.69 48.98 153.76
  A 0.65 0.64 -86.9 0 0 48.42 153.13
  Q 47.46 153.00 38.54 153.00
  Z"
/>
<path fill="#ffffff" d="
  M 303.52 151.00
  Q 311.54 151.00 313.46 150.96
  A 0.50 0.50 0.0 0 0 313.96 150.46
  L 313.93 134.24
  A 0.87 0.78 41.8 0 0 313.91 134.06
  C 313.40 131.31 310.19 131.05 307.82 130.85
  A 0.28 0.28 0.0 0 1 307.56 130.57
  L 307.56 130.25
  A 0.25 0.24 -0.0 0 1 307.81 130.01
  L 326.35 130.01
  A 0.36 0.36 0.0 0 1 326.71 130.37
  L 326.71 130.69
  A 0.30 0.30 0.0 0 1 326.39 130.99
  Q 322.67 130.70 320.79 133.00
  A 2.22 2.18 65.4 0 0 320.30 134.36
  Q 320.08 153.00 320.33 169.97
  C 320.38 173.47 323.30 174.02 326.28 174.07
  A 0.45 0.44 -89.3 0 1 326.71 174.52
  L 326.71 174.78
  A 0.22 0.22 0.0 0 1 326.49 175.00
  L 307.96 175.00
  A 0.43 0.42 0.0 0 1 307.53 174.58
  L 307.53 174.31
  A 0.24 0.23 0.0 0 1 307.77 174.08
  C 310.46 174.07 313.79 173.67 313.85 170.26
  Q 314.00 161.70 313.96 153.76
  A 0.65 0.64 -86.9 0 0 313.40 153.13
  Q 312.43 153.00 303.52 153.00
  Q 294.60 153.00 293.63 153.13
  A 0.65 0.64 86.9 0 0 293.07 153.76
  Q 293.03 161.70 293.18 170.26
  C 293.24 173.67 296.57 174.07 299.26 174.08
  A 0.24 0.23 0.0 0 1 299.50 174.31
  L 299.50 174.58
  A 0.43 0.42 0.0 0 1 299.07 175.00
  L 280.54 175.00
  A 0.22 0.22 0.0 0 1 280.32 174.78
  L 280.32 174.52
  A 0.45 0.44 89.4 0 1 280.75 174.07
  C 283.73 174.02 286.65 173.47 286.70 169.97
  Q 286.95 153.00 286.73 134.36
  A 2.22 2.18 -65.4 0 0 286.24 133.00
  Q 284.36 130.70 280.64 130.99
  A 0.30 0.30 0.0 0 1 280.32 130.69
  L 280.32 130.37
  A 0.36 0.36 0.0 0 1 280.68 130.01
  L 299.22 130.01
  A 0.25 0.24 0.0 0 1 299.47 130.25
  L 299.47 130.57
  A 0.28 0.28 0.0 0 1 299.21 130.85
  C 296.84 131.05 293.63 131.31 293.12 134.06
  A 0.87 0.78 -41.8 0 0 293.10 134.24
  L 293.07 150.46
  A 0.50 0.50 0.0 0 0 293.57 150.96
  Q 295.49 151.00 303.52 151.00
  Z"
/>
<path fill="#ffffff" d="
  M 480.55 153.00
  Q 471.63 153.00 470.66 153.13
  A 0.65 0.64 86.9 0 0 470.10 153.76
  Q 470.06 161.70 470.21 170.26
  C 470.27 173.67 473.60 174.07 476.29 174.08
  A 0.24 0.23 0.0 0 1 476.53 174.31
  L 476.53 174.58
  A 0.43 0.42 0.0 0 1 476.10 175.00
  L 457.57 175.00
  A 0.22 0.22 0.0 0 1 457.35 174.78
  L 457.35 174.52
  A 0.45 0.44 89.4 0 1 457.78 174.07
  C 460.76 174.02 463.68 173.47 463.73 169.97
  Q 463.98 153.00 463.76 134.36
  A 2.22 2.18 -65.4 0 0 463.27 133.00
  Q 461.39 130.70 457.67 130.99
  A 0.30 0.30 0.0 0 1 457.35 130.69
  L 457.35 130.37
  A 0.36 0.36 0.0 0 1 457.71 130.01
  L 476.25 130.01
  A 0.25 0.24 0.0 0 1 476.50 130.25
  L 476.50 130.57
  A 0.28 0.28 0.0 0 1 476.24 130.85
  C 473.87 131.05 470.66 131.31 470.15 134.06
  A 0.87 0.78 -41.8 0 0 470.13 134.24
  L 470.10 150.46
  A 0.50 0.50 0.0 0 0 470.60 150.97
  Q 472.52 151.00 480.55 151.00
  Q 488.57 151.00 490.49 150.97
  A 0.50 0.50 0.0 0 0 490.99 150.46
  L 490.96 134.24
  A 0.87 0.78 41.8 0 0 490.94 134.06
  C 490.43 131.31 487.22 131.05 484.85 130.85
  A 0.28 0.28 0.0 0 1 484.59 130.57
  L 484.59 130.25
  A 0.25 0.24 -0.0 0 1 484.84 130.01
  L 503.38 130.01
  A 0.36 0.36 0.0 0 1 503.74 130.37
  L 503.74 130.69
  A 0.30 0.30 0.0 0 1 503.42 130.99
  Q 499.70 130.70 497.82 133.00
  A 2.22 2.18 65.4 0 0 497.33 134.36
  Q 497.11 153.00 497.36 169.97
  C 497.41 173.47 500.33 174.02 503.31 174.07
  A 0.45 0.44 -89.4 0 1 503.74 174.52
  L 503.74 174.78
  A 0.22 0.22 0.0 0 1 503.52 175.00
  L 484.99 175.00
  A 0.43 0.42 -0.0 0 1 484.56 174.58
  L 484.56 174.31
  A 0.24 0.23 -0.0 0 1 484.80 174.08
  C 487.49 174.07 490.82 173.67 490.88 170.26
  Q 491.03 161.70 490.99 153.76
  A 0.65 0.64 -86.9 0 0 490.43 153.13
  Q 489.46 153.00 480.55 153.00
  Z"
/>
<path fill="#ffffff" d="
  M 658.55 153.00
  Q 649.63 153.00 648.67 153.13
  A 0.65 0.64 86.9 0 0 648.11 153.76
  Q 648.07 161.70 648.22 170.25
  C 648.28 173.66 651.60 174.06 654.29 174.07
  A 0.24 0.23 0.0 0 1 654.53 174.30
  L 654.53 174.57
  A 0.43 0.42 0.0 0 1 654.10 174.99
  L 635.58 174.99
  A 0.22 0.22 0.0 0 1 635.36 174.77
  L 635.36 174.51
  A 0.45 0.44 89.4 0 1 635.79 174.06
  C 638.77 174.01 641.69 173.46 641.74 169.96
  Q 641.99 153.00 641.77 134.36
  A 2.22 2.18 -65.4 0 0 641.28 133.00
  Q 639.40 130.70 635.68 130.99
  A 0.30 0.30 0.0 0 1 635.36 130.69
  L 635.36 130.37
  A 0.36 0.36 0.0 0 1 635.72 130.01
  L 654.26 130.01
  A 0.25 0.24 0.0 0 1 654.51 130.25
  L 654.51 130.57
  A 0.28 0.28 0.0 0 1 654.25 130.85
  C 651.88 131.05 648.67 131.31 648.16 134.06
  A 0.87 0.78 -41.8 0 0 648.14 134.24
  L 648.11 150.46
  A 0.50 0.50 0.0 0 0 648.61 150.96
  Q 650.53 151.00 658.55 151.00
  Q 666.58 151.00 668.50 150.96
  A 0.50 0.50 0.0 0 0 668.99 150.46
  L 668.96 134.24
  A 0.87 0.78 41.8 0 0 668.94 134.06
  C 668.43 131.31 665.22 131.05 662.85 130.85
  A 0.28 0.28 0.0 0 1 662.59 130.57
  L 662.59 130.25
  A 0.25 0.24 0.0 0 1 662.84 130.01
  L 681.38 130.01
  A 0.36 0.36 0.0 0 1 681.74 130.37
  L 681.74 130.69
  A 0.30 0.30 0.0 0 1 681.42 130.99
  Q 677.70 130.70 675.82 133.00
  A 2.22 2.18 65.4 0 0 675.33 134.36
  Q 675.11 153.00 675.36 169.97
  C 675.41 173.47 678.33 174.02 681.31 174.07
  A 0.45 0.44 -89.3 0 1 681.74 174.52
  L 681.74 174.78
  A 0.22 0.22 0.0 0 1 681.52 175.00
  L 662.99 175.00
  A 0.43 0.42 0.0 0 1 662.56 174.58
  L 662.56 174.31
  A 0.24 0.23 0.0 0 1 662.80 174.08
  C 665.49 174.07 668.82 173.67 668.88 170.26
  Q 669.03 161.70 668.99 153.76
  A 0.65 0.64 -86.9 0 0 668.43 153.13
  Q 667.47 153.00 658.55 153.00
  Z"
/>
<path fill="#ffffff" d="
  M 866.55 153.00
  Q 857.63 153.00 856.66 153.13
  A 0.65 0.64 86.9 0 0 856.10 153.76
  Q 856.06 161.70 856.21 170.26
  C 856.27 173.67 859.60 174.07 862.29 174.08
  A 0.24 0.23 0.0 0 1 862.53 174.31
  L 862.53 174.58
  A 0.43 0.42 0.0 0 1 862.10 175.00
  L 843.57 175.00
  A 0.22 0.22 0.0 0 1 843.35 174.78
  L 843.35 174.52
  A 0.45 0.44 89.4 0 1 843.78 174.07
  C 846.76 174.02 849.68 173.47 849.73 169.97
  Q 849.98 153.00 849.77 134.36
  A 2.22 2.18 -65.4 0 0 849.28 133.00
  Q 847.40 130.70 843.68 130.99
  A 0.30 0.30 0.0 0 1 843.36 130.69
  L 843.36 130.37
  A 0.36 0.36 0.0 0 1 843.72 130.01
  L 862.25 130.01
  A 0.25 0.24 0.0 0 1 862.50 130.25
  L 862.50 130.57
  A 0.28 0.28 0.0 0 1 862.24 130.85
  C 859.87 131.05 856.66 131.31 856.15 134.06
  A 0.87 0.78 -41.8 0 0 856.13 134.24
  L 856.10 150.46
  A 0.50 0.50 0.0 0 0 856.60 150.96
  Q 858.52 151.00 866.55 151.00
  Q 874.57 151.00 876.49 150.96
  A 0.50 0.50 0.0 0 0 876.99 150.46
  L 876.96 134.24
  A 0.87 0.78 41.8 0 0 876.94 134.06
  C 876.43 131.31 873.22 131.05 870.85 130.85
  A 0.28 0.28 0.0 0 1 870.59 130.57
  L 870.59 130.25
  A 0.25 0.24 -0.0 0 1 870.84 130.01
  L 889.38 130.01
  A 0.36 0.36 0.0 0 1 889.74 130.37
  L 889.74 130.69
  A 0.30 0.30 0.0 0 1 889.42 130.99
  Q 885.70 130.70 883.82 133.00
  A 2.22 2.18 65.4 0 0 883.33 134.36
  Q 883.11 153.00 883.36 169.97
  C 883.41 173.46 886.33 174.01 889.31 174.06
  A 0.45 0.44 -89.4 0 1 889.74 174.51
  L 889.74 174.77
  A 0.22 0.22 0.0 0 1 889.52 174.99
  L 870.99 175.00
  A 0.43 0.42 -0.0 0 1 870.56 174.58
  L 870.56 174.31
  A 0.24 0.23 -0.0 0 1 870.80 174.08
  C 873.49 174.07 876.82 173.67 876.88 170.26
  Q 877.03 161.70 876.99 153.76
  A 0.65 0.64 -86.9 0 0 876.43 153.13
  Q 875.47 153.00 866.55 153.00
  Z"
/>
<rect fill="#ffffff" x="70.56" y="157.03" width="34.88" height="2.94" rx="0.40"/>
<rect fill="#ffffff" x="182.58" y="157.05" width="34.90" height="2.90" rx="0.55"/>
<rect fill="#ffffff" x="360.57" y="157.06" width="34.92" height="2.88" rx="0.58"/>
<rect fill="#ffffff" x="537.57" y="157.06" width="34.94" height="2.88" rx="0.58"/>
<rect fill="#ffffff" x="698.59" y="157.04" width="34.88" height="2.92" rx="0.49"/>
<path fill="#ffffff" d="
  M 342.40 188.57
  L 341.08 192.44
  A 0.82 0.81 -80.4 0 1 340.31 192.99
  L 328.22 192.99
  A 0.45 0.44 -65.6 0 1 327.93 192.21
  C 331.71 188.86 337.15 183.87 338.33 178.82
  C 339.75 172.66 331.55 170.63 329.02 176.54
  A 0.37 0.37 0.0 0 1 328.31 176.33
  C 330.45 164.63 347.22 170.72 338.67 182.19
  Q 335.72 186.16 332.17 189.44
  A 0.32 0.31 -66.2 0 0 332.38 189.99
  L 339.94 189.99
  A 0.86 0.84 -67.2 0 0 340.54 189.74
  L 341.97 188.31
  A 0.26 0.26 0.0 0 1 342.40 188.57
  Z"
/>
<path fill="#ffffff" d="
  M 520.39 188.57
  L 519.07 192.44
  A 0.82 0.81 -80.4 0 1 518.30 192.99
  L 506.22 192.99
  A 0.45 0.44 -65.6 0 1 505.93 192.21
  C 509.71 188.86 515.14 183.87 516.33 178.83
  C 517.75 172.67 509.55 170.64 507.02 176.55
  A 0.37 0.37 0.0 0 1 506.31 176.34
  C 508.45 164.64 525.21 170.73 516.66 182.20
  Q 513.71 186.16 510.17 189.44
  A 0.32 0.31 -66.2 0 0 510.38 189.99
  L 517.93 189.99
  A 0.85 0.84 -67.2 0 0 518.53 189.74
  L 519.96 188.31
  A 0.26 0.26 0.0 0 1 520.39 188.57
  Z"
/>
<path fill="#ffffff" d="
  M 893.38 174.94
  A 0.27 0.27 0.0 0 1 892.95 174.64
  C 894.61 169.97 900.51 167.94 903.59 172.46
  A 3.27 3.07 20.5 0 1 903.99 173.27
  Q 904.89 175.89 901.48 178.99
  A 0.63 0.62 35.2 0 0 901.66 180.03
  Q 905.29 181.58 905.03 185.70
  C 904.65 191.58 898.81 194.09 893.60 192.65
  A 1.48 1.48 0.0 0 1 892.53 191.01
  L 892.56 190.83
  A 1.12 1.12 0.0 0 1 894.25 190.09
  L 897.04 191.81
  A 1.21 1.21 0.0 0 0 897.49 191.96
  C 902.44 192.56 903.96 187.33 901.34 183.87
  A 2.74 2.57 86.2 0 0 900.71 183.28
  Q 898.85 182.08 896.43 181.87
  A 0.34 0.34 0.0 0 1 896.35 181.21
  C 898.95 180.34 901.24 179.25 901.63 176.30
  C 902.23 171.89 896.52 170.42 894.19 173.87
  Q 893.58 174.77 893.38 174.94
  Z"
/>
<rect fill="#ffffff" x="609.00" y="179.98" width="7.00" height="56.04" rx="0.75"/>
<path fill="#ffffff" d="
  M 612.5929 241.9382
  A 23.60 22.10 -87.2 0 1 633.5136 266.5896
  A 23.60 22.10 -87.2 0 1 610.2871 289.0818
  A 23.60 22.10 -87.2 0 1 589.3664 264.4304
  A 23.60 22.10 -87.2 0 1 612.5929 241.9382
  Z
  M 597.02 265.64
  C 597.12 274.92 599.86 287.11 611.75 286.98
  C 623.64 286.85 626.11 274.60 626.01 265.32
  C 625.91 256.04 623.17 243.85 611.28 243.98
  C 599.39 244.11 596.92 256.36 597.02 265.64
  Z"
/>
<path fill="#ffffff" d="
  M 677.21 277.11
  L 677.56 277.22
  A 0.28 0.27 24.4 0 1 677.71 277.61
  C 672.72 286.37 664.91 290.48 655.06 288.65
  Q 642.43 286.30 638.18 272.61
  Q 637.15 269.31 638.01 262.31
  Q 639.55 249.76 650.47 244.31
  Q 660.24 239.43 671.12 244.84
  A 1.83 1.80 -34.3 0 0 672.05 245.01
  Q 674.23 244.80 674.63 242.55
  A 0.64 0.64 0.0 0 1 675.90 242.62
  L 676.87 256.46
  A 0.47 0.47 0.0 0 1 675.96 256.65
  Q 674.98 253.91 673.81 251.65
  C 670.96 246.12 665.33 243.38 659.26 244.07
  Q 650.06 245.13 646.80 254.14
  Q 643.77 262.48 645.78 272.69
  Q 647.99 283.91 658.99 285.78
  C 667.15 287.16 672.47 283.35 676.94 277.20
  A 0.23 0.23 0.0 0 1 677.21 277.11
  Z"
/>
<path fill="#ffffff" d="
  M 704.55 266.00
  Q 695.63 266.00 694.67 266.13
  A 0.65 0.64 86.9 0 0 694.11 266.76
  Q 694.06 274.70 694.21 283.25
  C 694.27 286.66 697.60 287.06 700.29 287.07
  A 0.24 0.23 0.0 0 1 700.53 287.30
  L 700.53 287.57
  A 0.43 0.42 0.0 0 1 700.10 287.99
  L 681.58 287.99
  A 0.22 0.22 0.0 0 1 681.36 287.77
  L 681.36 287.51
  A 0.45 0.44 89.4 0 1 681.79 287.06
  C 684.77 287.01 687.68 286.46 687.73 282.96
  Q 687.99 266.00 687.77 247.36
  A 2.22 2.18 -65.4 0 0 687.28 246.00
  Q 685.40 243.70 681.68 243.99
  A 0.30 0.30 0.0 0 1 681.36 243.69
  L 681.36 243.37
  A 0.36 0.36 0.0 0 1 681.72 243.01
  L 700.26 243.01
  A 0.25 0.24 0.0 0 1 700.51 243.25
  L 700.51 243.57
  A 0.28 0.28 0.0 0 1 700.25 243.85
  C 697.88 244.05 694.67 244.31 694.16 247.06
  A 0.87 0.78 -41.8 0 0 694.14 247.24
  L 694.11 263.46
  A 0.50 0.50 0.0 0 0 694.60 263.96
  Q 696.52 264.00 704.55 264.00
  Q 712.57 264.00 714.49 263.96
  A 0.50 0.50 0.0 0 0 714.99 263.46
  L 714.96 247.24
  A 0.87 0.78 41.8 0 0 714.94 247.06
  C 714.43 244.31 711.22 244.05 708.85 243.85
  A 0.28 0.28 0.0 0 1 708.59 243.57
  L 708.59 243.25
  A 0.25 0.24 -0.0 0 1 708.84 243.01
  L 727.38 243.01
  A 0.36 0.36 0.0 0 1 727.74 243.37
  L 727.74 243.69
  A 0.30 0.30 0.0 0 1 727.42 243.99
  Q 723.70 243.70 721.82 246.00
  A 2.22 2.18 65.4 0 0 721.33 247.36
  Q 721.11 266.00 721.36 282.96
  C 721.41 286.46 724.33 287.01 727.31 287.06
  A 0.45 0.44 -89.3 0 1 727.74 287.51
  L 727.74 287.77
  A 0.22 0.22 0.0 0 1 727.52 287.99
  L 708.99 287.99
  A 0.43 0.42 -0.0 0 1 708.56 287.57
  L 708.56 287.30
  A 0.24 0.23 -0.0 0 1 708.80 287.07
  C 711.49 287.06 714.82 286.66 714.88 283.25
  Q 715.03 274.70 714.99 266.76
  A 0.65 0.64 -86.9 0 0 714.43 266.13
  Q 713.46 266.00 704.55 266.00
  Z"
/>
<path fill="#ffffff" d="
  M 730.38 287.95
  A 0.27 0.27 0.0 0 1 729.95 287.65
  C 731.60 282.98 737.50 280.94 740.58 285.46
  A 3.27 3.07 20.5 0 1 740.98 286.26
  Q 741.89 288.88 738.48 291.99
  A 0.63 0.62 35.2 0 0 738.66 293.03
  Q 742.29 294.57 742.04 298.69
  C 741.67 304.57 735.84 307.08 730.63 305.65
  A 1.48 1.48 0.0 0 1 729.56 304.01
  L 729.58 303.83
  A 1.12 1.12 0.0 0 1 731.27 303.09
  L 734.06 304.81
  A 1.21 1.21 0.0 0 0 734.51 304.96
  C 739.46 305.55 740.97 300.32 738.35 296.86
  A 2.74 2.56 86.1 0 0 737.72 296.28
  Q 735.86 295.08 733.44 294.87
  A 0.34 0.34 0.0 0 1 733.36 294.21
  C 735.96 293.34 738.24 292.25 738.63 289.30
  C 739.22 284.89 733.51 283.43 731.19 286.88
  Q 730.58 287.78 730.38 287.95
  Z"
/>
</svg>
