<?xml version="1.0" encoding="UTF-8" standalone="no"?>
<!DOCTYPE svg PUBLIC "-//W3C//DTD SVG 1.1//EN" "http://www.w3.org/Graphics/SVG/1.1/DTD/svg11.dtd">
<svg xmlns="http://www.w3.org/2000/svg" version="1.1" viewBox="0.00 0.00 1250.00 330.00">
<path fill="#ffffff" d="
  M 92.03 56.06
  A 1.00 0.99 -55.8 0 1 90.09 56.43
  C 88.54 51.53 86.35 46.54 82.93 43.18
  Q 74.36 34.76 61.31 38.15
  C 52.92 40.33 47.85 47.63 45.87 55.60
  C 41.85 71.74 43.86 94.86 64.46 98.40
  Q 78.56 100.82 87.68 90.73
  Q 90.09 88.06 91.61 86.22
  A 0.38 0.37 -60.4 0 1 92.03 86.10
  L 93.59 86.63
  A 0.18 0.17 24.0 0 1 93.69 86.88
  C 85.43 101.40 72.10 105.02 56.42 102.13
  C 49.23 100.80 41.79 95.24 37.82 88.68
  C 25.88 68.97 34.25 42.44 56.68 35.38
  Q 68.30 31.73 81.40 36.86
  Q 84.20 37.96 85.34 37.61
  Q 87.45 36.96 88.25 34.64
  A 1.21 1.21 0.0 0 1 90.60 34.96
  L 92.03 56.06
  Z"
/>
<path fill="#ffffff" d="
  M 347.03 56.06
  A 1.00 0.99 -55.8 0 1 345.09 56.43
  C 343.54 51.53 341.35 46.54 337.93 43.18
  Q 329.36 34.76 316.31 38.15
  C 307.92 40.33 302.85 47.63 300.87 55.60
  C 296.85 71.74 298.86 94.86 319.46 98.40
  Q 333.56 100.82 342.68 90.73
  Q 345.09 88.06 346.61 86.22
  A 0.38 0.37 -60.4 0 1 347.03 86.10
  L 348.59 86.63
  A 0.18 0.17 24.0 0 1 348.69 86.88
  C 340.43 101.40 327.10 105.02 311.42 102.13
  C 304.23 100.80 296.79 95.24 292.82 88.68
  C 280.88 68.97 289.25 42.44 311.68 35.38
  Q 323.30 31.73 336.40 36.86
  Q 339.20 37.96 340.34 37.61
  Q 342.45 36.96 343.25 34.64
  A 1.21 1.21 0.0 0 1 345.60 34.96
  L 347.03 56.06
  Z"
/>
<path fill="#ffffff" d="
  M 516.03 56.06
  A 1.00 0.99 -55.8 0 1 514.09 56.43
  C 512.54 51.53 510.35 46.54 506.93 43.18
  Q 498.36 34.76 485.31 38.15
  C 476.92 40.33 471.85 47.63 469.87 55.60
  C 465.85 71.74 467.86 94.86 488.46 98.40
  Q 502.56 100.82 511.68 90.73
  Q 514.09 88.06 515.61 86.22
  A 0.38 0.37 -60.4 0 1 516.03 86.10
  L 517.59 86.63
  A 0.18 0.17 24.0 0 1 517.69 86.88
  C 509.43 101.40 496.10 105.02 480.42 102.13
  C 473.23 100.80 465.79 95.24 461.82 88.68
  C 449.88 68.97 458.25 42.44 480.68 35.38
  Q 492.30 31.73 505.40 36.86
  Q 508.20 37.96 509.34 37.61
  Q 511.45 36.96 512.25 34.64
  A 1.21 1.21 0.0 0 1 514.60 34.96
  L 516.03 56.06
  Z"
/>
<path fill="#ffffff" d="
  M 783.03 56.06
  A 1.00 0.99 -55.8 0 1 781.09 56.43
  C 779.54 51.53 777.35 46.54 773.93 43.18
  Q 765.36 34.76 752.31 38.15
  C 743.92 40.33 738.85 47.63 736.87 55.60
  C 732.85 71.74 734.86 94.86 755.46 98.40
  Q 769.56 100.82 778.68 90.73
  Q 781.09 88.06 782.61 86.22
  A 0.38 0.37 -60.4 0 1 783.03 86.10
  L 784.59 86.63
  A 0.18 0.17 24.0 0 1 784.69 86.88
  C 776.43 101.40 763.10 105.02 747.42 102.13
  C 740.23 100.80 732.79 95.24 728.82 88.68
  C 716.88 68.97 725.25 42.44 747.68 35.38
  Q 759.30 31.73 772.40 36.86
  Q 775.20 37.96 776.34 37.61
  Q 778.45 36.96 779.25 34.64
  A 1.21 1.21 0.0 0 1 781.60 34.96
  L 783.03 56.06
  Z"
/>
<path fill="#ffffff" d="
  M 1001.2215 33.7780
  A 34.83 33.46 -85.7 0 1 1031.9758 71.0188
  A 34.83 33.46 -85.7 0 1 995.9985 103.2420
  A 34.83 33.46 -85.7 0 1 965.2442 66.0012
  A 34.83 33.46 -85.7 0 1 1001.2215 33.7780
  Z
  M 977.22 68.69
  C 977.37 82.50 981.73 99.90 999.03 99.72
  C 1016.33 99.54 1020.33 82.05 1020.18 68.25
  C 1020.04 54.44 1015.68 37.04 998.38 37.22
  C 981.08 37.40 977.08 54.89 977.22 68.69
  Z"
/>
<path fill="#ffffff" d="
  M 1098.03 56.06
  A 1.00 0.99 -55.8 0 1 1096.09 56.43
  C 1094.54 51.53 1092.35 46.54 1088.93 43.18
  Q 1080.36 34.76 1067.31 38.15
  C 1058.92 40.33 1053.85 47.63 1051.87 55.60
  C 1047.85 71.74 1049.86 94.86 1070.46 98.40
  Q 1084.56 100.82 1093.68 90.73
  Q 1096.09 88.06 1097.61 86.22
  A 0.38 0.37 -60.4 0 1 1098.03 86.10
  L 1099.59 86.63
  A 0.18 0.17 24.0 0 1 1099.69 86.88
  C 1091.43 101.40 1078.10 105.02 1062.42 102.13
  C 1055.23 100.80 1047.79 95.24 1043.82 88.68
  C 1031.88 68.97 1040.25 42.44 1062.68 35.38
  Q 1074.30 31.73 1087.40 36.86
  Q 1090.20 37.96 1091.34 37.61
  Q 1093.45 36.96 1094.25 34.64
  A 1.21 1.21 0.0 0 1 1096.60 34.96
  L 1098.03 56.06
  Z"
/>
<path fill="#ffffff" d="
  M 108.27 68.50
  Q 108.27 47.66 108.21 43.52
  C 108.13 37.75 103.82 37.19 99.21 36.93
  A 0.89 0.89 0.0 0 1 98.38 35.99
  L 98.40 35.71
  A 0.77 0.76 1.6 0 1 99.17 34.99
  L 126.91 35.01
  A 1.02 1.02 0.0 0 1 127.93 35.97
  L 127.93 35.99
  A 0.94 0.94 0.0 0 1 127.01 36.99
  Q 123.74 37.04 121.11 38.12
  A 4.20 4.19 -5.4 0 0 118.60 41.14
  Q 118.04 43.78 118.03 47.50
  Q 117.99 65.52 118.01 66.59
  A 0.40 0.39 0.6 0 0 118.40 66.98
  Q 119.99 67.00 133.63 67.00
  Q 147.28 67.01 148.87 66.99
  A 0.40 0.39 -0.6 0 0 149.26 66.60
  Q 149.28 65.53 149.24 47.51
  Q 149.23 43.79 148.68 41.15
  A 4.20 4.19 5.4 0 0 146.18 38.12
  Q 143.55 37.04 140.28 36.99
  A 0.94 0.94 0.0 0 1 139.36 35.99
  L 139.36 35.97
  A 1.02 1.02 0.0 0 1 140.38 35.01
  L 168.12 35.01
  A 0.77 0.76 -1.6 0 1 168.88 35.73
  L 168.90 36.01
  A 0.89 0.89 0.0 0 1 168.07 36.95
  C 163.46 37.21 159.15 37.76 159.07 43.53
  Q 159.01 47.67 159.00 68.51
  Q 159.00 89.35 159.06 93.48
  C 159.14 99.25 163.45 99.81 168.06 100.07
  A 0.89 0.89 0.0 0 1 168.89 101.01
  L 168.87 101.29
  A 0.77 0.76 1.6 0 1 168.10 102.01
  L 140.36 102.00
  A 1.02 1.02 0.0 0 1 139.34 101.04
  L 139.34 101.02
  A 0.94 0.94 0.0 0 1 140.26 100.02
  Q 143.53 99.97 146.16 98.89
  A 4.20 4.19 -5.4 0 0 148.67 95.86
  Q 149.22 93.22 149.23 89.50
  Q 149.28 71.48 149.26 70.41
  A 0.40 0.39 0.6 0 0 148.87 70.02
  Q 147.28 70.01 133.63 70.00
  Q 119.99 70.00 118.40 70.02
  A 0.40 0.39 -0.6 0 0 118.01 70.40
  Q 117.99 71.47 118.02 89.49
  Q 118.03 93.21 118.58 95.85
  A 4.20 4.19 5.4 0 0 121.09 98.88
  Q 123.72 99.96 126.99 100.02
  A 0.94 0.94 0.0 0 1 127.91 101.02
  L 127.91 101.04
  A 1.02 1.02 0.0 0 1 126.89 102.00
  L 99.15 102.00
  A 0.77 0.76 -1.6 0 1 98.38 101.28
  L 98.36 101.00
  A 0.89 0.89 0.0 0 1 99.19 100.06
  C 103.80 99.80 108.11 99.24 108.20 93.47
  Q 108.26 89.33 108.27 68.50
  Z"
/>
<path fill="#ffffff" d="
  M 557.63 67.00
  Q 571.28 67.00 572.87 66.99
  A 0.40 0.39 -0.6 0 0 573.26 66.60
  Q 573.28 65.53 573.24 47.51
  Q 573.23 43.79 572.68 41.15
  A 4.20 4.19 5.4 0 0 570.17 38.12
  Q 567.54 37.04 564.27 36.99
  A 0.94 0.94 0.0 0 1 563.35 35.99
  L 563.35 35.97
  A 1.02 1.02 0.0 0 1 564.37 35.01
  L 592.11 35.00
  A 0.77 0.76 -1.6 0 1 592.88 35.72
  L 592.90 36.00
  A 0.89 0.89 0.0 0 1 592.07 36.94
  C 587.46 37.20 583.15 37.76 583.06 43.53
  Q 583.00 47.66 583.00 68.50
  Q 583.00 89.34 583.06 93.48
  C 583.15 99.25 587.46 99.81 592.07 100.07
  A 0.89 0.89 0.0 0 1 592.90 101.01
  L 592.88 101.29
  A 0.77 0.76 1.6 0 1 592.11 102.01
  L 564.37 102.00
  A 1.02 1.02 0.0 0 1 563.35 101.04
  L 563.35 101.02
  A 0.94 0.94 0.0 0 1 564.27 100.02
  Q 567.54 99.97 570.17 98.89
  A 4.20 4.19 -5.4 0 0 572.68 95.86
  Q 573.23 93.22 573.24 89.50
  Q 573.28 71.48 573.26 70.41
  A 0.40 0.39 0.6 0 0 572.87 70.02
  Q 571.28 70.00 557.63 70.00
  Q 543.99 70.01 542.40 70.02
  A 0.40 0.39 -0.6 0 0 542.01 70.41
  Q 541.99 71.48 542.03 89.50
  Q 542.04 93.22 542.59 95.86
  A 4.20 4.19 5.4 0 0 545.10 98.89
  Q 547.73 99.97 551.00 100.02
  A 0.94 0.94 0.0 0 1 551.92 101.02
  L 551.92 101.04
  A 1.02 1.02 0.0 0 1 550.90 102.00
  L 523.16 102.01
  A 0.77 0.76 -1.6 0 1 522.39 101.29
  L 522.37 101.01
  A 0.89 0.89 0.0 0 1 523.20 100.07
  C 527.81 99.81 532.12 99.25 532.21 93.48
  Q 532.27 89.34 532.27 68.50
  Q 532.26 47.67 532.21 43.53
  C 532.12 37.76 527.81 37.20 523.20 36.94
  A 0.89 0.89 0.0 0 1 522.37 36.00
  L 522.39 35.72
  A 0.77 0.76 1.6 0 1 523.16 35.00
  L 550.90 35.01
  A 1.02 1.02 0.0 0 1 551.92 35.97
  L 551.92 35.99
  A 0.94 0.94 0.0 0 1 551.00 36.99
  Q 547.73 37.04 545.10 38.12
  A 4.20 4.19 -5.4 0 0 542.59 41.15
  Q 542.04 43.79 542.03 47.51
  Q 541.99 65.53 542.01 66.60
  A 0.40 0.39 0.6 0 0 542.40 66.99
  Q 543.99 67.00 557.63 67.00
  Z"
/>
<path fill="#ffffff" d="
  M 799.26 68.50
  Q 799.27 47.66 799.21 43.52
  C 799.12 37.75 794.81 37.19 790.20 36.93
  A 0.89 0.89 0.0 0 1 789.37 35.99
  L 789.39 35.71
  A 0.77 0.76 1.6 0 1 790.16 34.99
  L 817.91 35.00
  A 1.02 1.02 0.0 0 1 818.93 35.96
  L 818.93 35.98
  A 0.94 0.94 0.0 0 1 818.01 36.98
  Q 814.74 37.03 812.11 38.11
  A 4.20 4.19 -5.4 0 0 809.59 41.14
  Q 809.04 43.78 809.03 47.50
  Q 808.99 65.53 809.01 66.60
  A 0.40 0.39 0.6 0 0 809.40 66.98
  Q 810.99 67.00 824.64 67.00
  Q 838.28 67.01 839.87 66.99
  A 0.40 0.39 -0.6 0 0 840.26 66.60
  Q 840.28 65.53 840.25 47.51
  Q 840.24 43.79 839.69 41.15
  A 4.20 4.19 5.4 0 0 837.18 38.12
  Q 834.55 37.04 831.28 36.98
  A 0.94 0.94 0.0 0 1 830.36 35.98
  L 830.36 35.96
  A 1.02 1.02 0.0 0 1 831.38 35.00
  L 859.12 35.00
  A 0.77 0.76 -1.6 0 1 859.89 35.72
  L 859.91 36.00
  A 0.89 0.89 0.0 0 1 859.08 36.94
  C 854.47 37.20 850.16 37.76 850.07 43.53
  Q 850.01 47.67 850.01 68.51
  Q 850.01 89.35 850.06 93.49
  C 850.15 99.26 854.46 99.82 859.07 100.08
  A 0.89 0.89 0.0 0 1 859.90 101.02
  L 859.88 101.30
  A 0.77 0.76 1.6 0 1 859.11 102.02
  L 831.37 102.01
  A 1.02 1.02 0.0 0 1 830.35 101.05
  L 830.35 101.03
  A 0.94 0.94 0.0 0 1 831.27 100.03
  Q 834.54 99.98 837.17 98.90
  A 4.20 4.19 -5.4 0 0 839.68 95.87
  Q 840.23 93.23 840.24 89.51
  Q 840.28 71.48 840.26 70.41
  A 0.40 0.39 0.6 0 0 839.87 70.03
  Q 838.28 70.01 824.64 70.01
  Q 810.99 70.00 809.40 70.02
  A 0.40 0.39 -0.6 0 0 809.01 70.41
  Q 808.99 71.48 809.03 89.50
  Q 809.03 93.22 809.58 95.86
  A 4.20 4.19 5.4 0 0 812.09 98.89
  Q 814.72 99.97 817.99 100.02
  A 0.94 0.94 0.0 0 1 818.91 101.02
  L 818.91 101.04
  A 1.02 1.02 0.0 0 1 817.89 102.00
  L 790.15 102.01
  A 0.77 0.76 -1.6 0 1 789.38 101.29
  L 789.36 101.01
  A 0.89 0.89 0.0 0 1 790.19 100.07
  C 794.80 99.81 799.11 99.25 799.20 93.48
  Q 799.26 89.34 799.26 68.50
  Z"
/>
<path fill="#ffffff" d="
  M 1113.26 68.50
  Q 1113.26 47.66 1113.20 43.52
  C 1113.12 37.75 1108.81 37.19 1104.20 36.93
  A 0.89 0.89 0.0 0 1 1103.37 35.99
  L 1103.39 35.71
  A 0.77 0.76 1.6 0 1 1104.16 34.99
  L 1131.90 35.00
  A 1.02 1.02 0.0 0 1 1132.92 35.96
  L 1132.92 35.98
  A 0.94 0.94 0.0 0 1 1132.00 36.98
  Q 1128.73 37.03 1126.10 38.11
  A 4.20 4.19 -5.4 0 0 1123.59 41.14
  Q 1123.04 43.78 1123.03 47.50
  Q 1122.99 65.53 1123.01 66.60
  A 0.40 0.39 0.6 0 0 1123.40 66.98
  Q 1124.99 67.00 1138.63 67.00
  Q 1152.28 67.01 1153.87 66.99
  A 0.40 0.39 -0.6 0 0 1154.26 66.60
  Q 1154.28 65.53 1154.24 47.51
  Q 1154.23 43.79 1153.69 41.15
  A 4.20 4.19 5.4 0 0 1151.18 38.12
  Q 1148.54 37.03 1145.27 36.98
  A 0.94 0.94 0.0 0 1 1144.35 35.98
  L 1144.35 35.96
  A 1.02 1.02 0.0 0 1 1145.37 35.00
  L 1173.12 35.00
  A 0.77 0.76 -1.6 0 1 1173.89 35.72
  L 1173.91 36.00
  A 0.89 0.89 0.0 0 1 1173.08 36.94
  C 1168.47 37.20 1164.16 37.76 1164.07 43.53
  Q 1164.01 47.67 1164.01 68.51
  Q 1164.00 89.35 1164.06 93.49
  C 1164.15 99.26 1168.46 99.82 1173.07 100.08
  A 0.89 0.89 0.0 0 1 1173.90 101.02
  L 1173.88 101.30
  A 0.77 0.76 1.6 0 1 1173.11 102.02
  L 1145.36 102.01
  A 1.02 1.02 0.0 0 1 1144.34 101.05
  L 1144.34 101.03
  A 0.94 0.94 0.0 0 1 1145.26 100.03
  Q 1148.53 99.98 1151.17 98.90
  A 4.20 4.19 -5.4 0 0 1153.68 95.87
  Q 1154.23 93.23 1154.24 89.51
  Q 1154.28 71.48 1154.26 70.41
  A 0.40 0.39 0.6 0 0 1153.87 70.03
  Q 1152.28 70.01 1138.63 70.01
  Q 1124.99 70.00 1123.40 70.02
  A 0.40 0.39 -0.6 0 0 1123.00 70.41
  Q 1122.98 71.48 1123.02 89.50
  Q 1123.03 93.22 1123.58 95.86
  A 4.20 4.19 5.4 0 0 1126.09 98.89
  Q 1128.72 99.98 1131.99 100.03
  A 0.94 0.94 0.0 0 1 1132.91 101.03
  L 1132.91 101.05
  A 1.02 1.02 0.0 0 1 1131.89 102.01
  L 1104.15 102.01
  A 0.77 0.76 -1.6 0 1 1103.38 101.29
  L 1103.36 101.01
  A 0.89 0.89 0.0 0 1 1104.19 100.07
  C 1108.80 99.81 1113.11 99.25 1113.20 93.48
  Q 1113.26 89.34 1113.26 68.50
  Z"
/>
<rect fill="#ffffff" x="206.95" y="76.01" width="53.04" height="3.98" rx="0.88"/>
<rect fill="#ffffff" x="375.96" y="76.02" width="53.08" height="3.96" rx="0.89"/>
<rect fill="#ffffff" x="642.96" y="76.01" width="53.04" height="3.98" rx="0.89"/>
<rect fill="#ffffff" x="884.97" y="76.01" width="53.02" height="3.98" rx="0.84"/>
<path fill="#ffffff" d="
  M 185.70 109.84
  Q 192.64 113.46 191.01 120.25
  C 189.18 127.90 180.70 130.25 173.74 128.44
  A 1.81 1.81 0.0 0 1 172.43 126.32
  L 172.46 126.20
  A 1.61 1.61 0.0 0 1 174.44 124.98
  Q 175.66 125.30 177.88 126.28
  C 182.70 128.39 188.52 125.29 187.63 119.76
  C 186.89 115.22 182.67 113.05 178.21 112.96
  A 0.42 0.42 0.0 0 1 178.11 112.14
  C 181.01 111.40 183.94 109.88 185.26 106.93
  C 186.73 103.65 184.64 99.68 181.09 99.09
  Q 176.41 98.32 173.73 103.03
  A 0.44 0.44 0.0 0 1 173.17 103.21
  L 173.07 103.17
  A 0.48 0.48 0.0 0 1 172.81 102.53
  Q 175.19 97.18 179.85 96.17
  C 183.94 95.28 188.71 97.37 189.52 101.73
  C 190.08 104.73 187.70 107.07 185.59 109.13
  A 0.44 0.44 0.0 0 0 185.70 109.84
  Z"
/>
<path fill="#ffffff" d="
  M 601.48 124.95
  Q 611.02 125.18 613.11 124.81
  Q 614.89 124.48 616.32 122.71
  A 0.43 0.43 0.0 0 1 617.06 123.11
  L 615.25 128.43
  A 0.83 0.82 -80.6 0 1 614.47 128.99
  L 595.58 128.99
  A 0.58 0.58 0.0 0 1 595.19 127.98
  C 601.01 122.79 610.52 114.76 611.06 106.74
  C 611.33 102.80 608.30 99.91 604.48 99.98
  Q 599.28 100.07 597.05 105.57
  A 0.46 0.44 19.3 0 1 596.49 105.83
  L 596.46 105.82
  A 0.57 0.56 -72.6 0 1 596.10 105.12
  C 597.94 99.19 601.08 94.90 607.79 96.23
  Q 615.67 97.80 615.20 105.61
  A 4.14 3.70 -37.4 0 1 615.01 106.60
  C 612.84 113.30 606.61 119.21 601.24 124.34
  A 0.36 0.35 23.7 0 0 601.48 124.95
  Z"
/>
<path fill="#ffffff" d="
  M 1190.58 109.13
  A 0.44 0.44 0.0 0 0 1190.68 109.84
  Q 1197.62 113.47 1195.98 120.25
  C 1194.14 127.89 1185.67 130.23 1178.72 128.42
  A 1.81 1.81 0.0 0 1 1177.41 126.30
  L 1177.44 126.18
  A 1.60 1.60 0.0 0 1 1179.42 124.96
  Q 1180.64 125.28 1182.85 126.26
  C 1187.67 128.37 1193.49 125.28 1192.60 119.76
  C 1191.87 115.22 1187.65 113.05 1183.20 112.95
  A 0.42 0.42 0.0 0 1 1183.10 112.13
  C 1186.00 111.40 1188.93 109.88 1190.25 106.93
  C 1191.72 103.66 1189.64 99.69 1186.09 99.09
  Q 1181.41 98.32 1178.73 103.02
  A 0.44 0.44 0.0 0 1 1178.17 103.20
  L 1178.07 103.16
  A 0.48 0.48 0.0 0 1 1177.81 102.52
  Q 1180.20 97.18 1184.85 96.18
  C 1188.94 95.29 1193.70 97.38 1194.51 101.74
  C 1195.07 104.74 1192.69 107.08 1190.58 109.13
  Z"
/>
<rect fill="#ffffff" x="307.01" y="110.01" width="10.98" height="82.00" rx="0.68"/>
<rect fill="#ffffff" x="330.01" y="109.97" width="10.00" height="82.02" rx="0.78"/>
<rect fill="#ffffff" x="748.00" y="110.02" width="10.00" height="82.00" rx="0.56"/>
<path fill="#ffffff" d="
  M 326.2215 200.7780
  A 34.83 33.46 -85.7 0 1 356.9758 238.0188
  A 34.83 33.46 -85.7 0 1 320.9985 270.2420
  A 34.83 33.46 -85.7 0 1 290.2442 233.0012
  A 34.83 33.46 -85.7 0 1 326.2215 200.7780
  Z
  M 302.22 235.70
  C 302.37 249.51 306.73 266.91 324.03 266.74
  C 341.34 266.56 345.34 249.06 345.19 235.25
  C 345.05 221.44 340.69 204.04 323.38 204.22
  C 306.08 204.40 302.08 221.89 302.22 235.70
  Z"
/>
<path fill="#ffffff" d="
  M 754.2215 201.7780
  A 34.83 33.46 -85.7 0 1 784.9758 239.0188
  A 34.83 33.46 -85.7 0 1 748.9985 271.2420
  A 34.83 33.46 -85.7 0 1 718.2442 234.0012
  A 34.83 33.46 -85.7 0 1 754.2215 201.7780
  Z
  M 730.22 236.70
  C 730.37 250.51 734.73 267.91 752.03 267.74
  C 769.33 267.56 773.34 250.07 773.19 236.26
  C 773.05 222.45 768.69 205.04 751.39 205.22
  C 734.08 205.40 730.08 222.89 730.22 236.70
  Z"
/>
<path fill="#ffffff" d="
  M 851.03 224.06
  A 1.00 0.99 -55.8 0 1 849.09 224.43
  C 847.54 219.53 845.35 214.54 841.93 211.18
  Q 833.36 202.76 820.31 206.15
  C 811.92 208.33 806.85 215.63 804.87 223.60
  C 800.85 239.74 802.86 262.86 823.46 266.40
  Q 837.57 268.82 846.68 258.73
  Q 849.09 256.06 850.61 254.22
  A 0.38 0.37 -60.4 0 1 851.03 254.10
  L 852.59 254.62
  A 0.18 0.17 24.0 0 1 852.69 254.87
  C 844.44 269.40 831.11 273.02 815.43 270.13
  C 808.24 268.80 800.79 263.24 796.82 256.68
  C 784.88 236.98 793.25 210.44 815.68 203.38
  Q 827.29 199.73 840.40 204.86
  Q 843.20 205.96 844.34 205.61
  Q 846.45 204.96 847.24 202.64
  A 1.21 1.21 0.0 0 1 849.59 202.96
  L 851.03 224.06
  Z"
/>
<path fill="#ffffff" d="
  M 866.27 236.50
  Q 866.27 215.66 866.21 211.52
  C 866.13 205.75 861.82 205.19 857.21 204.93
  A 0.89 0.89 0.0 0 1 856.38 203.99
  L 856.40 203.71
  A 0.77 0.76 1.6 0 1 857.17 202.99
  L 884.91 203.01
  A 1.02 1.02 0.0 0 1 885.93 203.97
  L 885.93 203.99
  A 0.94 0.94 0.0 0 1 885.01 204.99
  Q 881.74 205.04 879.11 206.12
  A 4.20 4.19 -5.4 0 0 876.60 209.15
  Q 876.05 211.79 876.04 215.51
  Q 875.99 233.53 876.01 234.60
  A 0.40 0.39 0.6 0 0 876.40 234.98
  Q 878.00 235.00 891.64 235.00
  Q 905.28 235.01 906.87 234.99
  A 0.40 0.39 -0.6 0 0 907.26 234.60
  Q 907.28 233.53 907.25 215.51
  Q 907.24 211.79 906.69 209.15
  A 4.20 4.19 5.4 0 0 904.18 206.12
  Q 901.55 205.04 898.28 204.99
  A 0.94 0.94 0.0 0 1 897.36 203.99
  L 897.36 203.97
  A 1.02 1.02 0.0 0 1 898.38 203.01
  L 926.12 203.01
  A 0.77 0.76 -1.6 0 1 926.89 203.73
  L 926.91 204.01
  A 0.89 0.89 0.0 0 1 926.08 204.95
  C 921.47 205.21 917.16 205.76 917.07 211.53
  Q 917.01 215.67 917.01 236.51
  Q 917.00 257.35 917.06 261.49
  C 917.15 267.26 921.46 267.82 926.07 268.08
  A 0.89 0.89 0.0 0 1 926.90 269.02
  L 926.88 269.30
  A 0.77 0.76 1.6 0 1 926.11 270.02
  L 898.37 270.00
  A 1.02 1.02 0.0 0 1 897.35 269.04
  L 897.35 269.02
  A 0.94 0.94 0.0 0 1 898.27 268.02
  Q 901.54 267.97 904.17 266.89
  A 4.20 4.19 -5.4 0 0 906.68 263.86
  Q 907.23 261.22 907.24 257.50
  Q 907.28 239.48 907.26 238.41
  A 0.40 0.39 0.6 0 0 906.87 238.03
  Q 905.28 238.01 891.64 238.01
  Q 878.00 238.00 876.40 238.02
  A 0.40 0.39 -0.6 0 0 876.01 238.41
  Q 875.99 239.48 876.03 257.50
  Q 876.04 261.22 876.59 263.86
  A 4.20 4.19 5.4 0 0 879.10 266.89
  Q 881.73 267.97 885.00 268.02
  A 0.94 0.94 0.0 0 1 885.92 269.02
  L 885.92 269.04
  A 1.02 1.02 0.0 0 1 884.90 270.00
  L 857.16 270.00
  A 0.77 0.76 -1.6 0 1 856.39 269.28
  L 856.37 269.00
  A 0.89 0.89 0.0 0 1 857.20 268.06
  C 861.81 267.80 866.12 267.25 866.20 261.48
  Q 866.26 257.34 866.27 236.50
  Z"
/>
<path fill="#ffffff" d="
  M 943.60 277.14
  A 0.44 0.44 0.0 0 0 943.71 277.85
  Q 950.64 281.48 949.00 288.27
  C 947.15 295.92 938.66 298.25 931.70 296.42
  A 1.81 1.81 0.0 0 1 930.40 294.30
  L 930.43 294.18
  A 1.61 1.61 0.0 0 1 932.41 292.96
  Q 933.63 293.29 935.85 294.27
  C 940.67 296.39 946.49 293.30 945.62 287.77
  C 944.89 283.23 940.67 281.05 936.21 280.95
  A 0.42 0.42 0.0 0 1 936.11 280.13
  C 939.01 279.40 941.95 277.88 943.28 274.94
  C 944.75 271.66 942.67 267.68 939.12 267.08
  Q 934.44 266.30 931.75 271.01
  A 0.44 0.44 0.0 0 1 931.19 271.19
  L 931.09 271.15
  A 0.48 0.48 0.0 0 1 930.83 270.51
  Q 933.23 265.16 937.89 264.16
  C 941.98 263.28 946.75 265.38 947.55 269.74
  C 948.10 272.75 945.72 275.08 943.60 277.14
  Z"
/>
</svg>
