<?xml version="1.0" encoding="UTF-8" standalone="no"?>
<!DOCTYPE svg PUBLIC "-//W3C//DTD SVG 1.1//EN" "http://www.w3.org/Graphics/SVG/1.1/DTD/svg11.dtd">
<svg xmlns="http://www.w3.org/2000/svg" version="1.1" viewBox="0.00 0.00 848.00 212.00">
<path fill="#ffffff" d="
  M 60.32 50.09
  L 60.65 50.21
  A 0.17 0.17 0.0 0 1 60.75 50.45
  Q 55.24 60.42 45.78 61.75
  C 32.47 63.60 21.83 55.30 20.74 41.81
  C 19.29 23.78 35.60 10.76 52.62 18.13
  C 55.24 19.26 56.67 19.45 57.56 16.54
  A 0.66 0.66 0.0 0 1 58.85 16.69
  L 59.86 30.37
  A 0.50 0.50 0.0 0 1 58.89 30.59
  Q 57.60 27.21 56.69 25.47
  C 51.58 15.83 38.07 15.45 31.60 24.13
  C 28.31 28.55 27.82 36.26 28.10 41.71
  C 28.57 51.03 33.38 57.94 43.03 58.92
  C 51.04 59.73 55.35 56.07 59.96 50.20
  A 0.33 0.33 0.0 0 1 60.32 50.09
  Z"
/>
<path fill="#ffffff" d="
  M 230.25 50.21
  L 230.58 50.33
  A 0.17 0.17 0.0 0 1 230.68 50.57
  Q 225.10 60.51 215.63 61.78
  C 202.31 63.55 191.72 55.17 190.71 41.68
  C 189.37 23.64 205.77 10.72 222.75 18.19
  C 225.36 19.34 226.79 19.54 227.70 16.64
  A 0.66 0.66 0.0 0 1 228.99 16.79
  L 229.90 30.48
  A 0.50 0.50 0.0 0 1 228.93 30.69
  Q 227.67 27.31 226.77 25.56
  C 221.71 15.89 208.20 15.42 201.68 24.07
  C 198.36 28.46 197.83 36.18 198.08 41.62
  C 198.49 50.95 203.25 57.89 212.90 58.93
  C 220.91 59.79 225.24 56.15 229.89 50.31
  A 0.33 0.33 0.0 0 1 230.25 50.21
  Z"
/>
<path fill="#ffffff" d="
  M 342.29 50.15
  L 342.62 50.27
  A 0.17 0.17 0.0 0 1 342.72 50.51
  Q 337.18 60.46 327.71 61.76
  C 314.40 63.57 303.78 55.24 302.73 41.75
  C 301.33 23.71 317.69 10.74 334.69 18.16
  C 337.30 19.30 338.73 19.49 339.63 16.59
  A 0.66 0.66 0.0 0 1 340.92 16.74
  L 341.88 30.42
  A 0.50 0.50 0.0 0 1 340.91 30.64
  Q 339.64 27.26 338.73 25.52
  C 333.65 15.86 320.14 15.44 313.64 24.10
  C 310.34 28.51 309.83 36.22 310.10 41.67
  C 310.54 50.99 315.32 57.92 324.97 58.92
  C 332.98 59.76 337.30 56.11 341.93 50.26
  A 0.33 0.33 0.0 0 1 342.29 50.15
  Z"
/>
<path fill="#ffffff" d="
  M 503.73 50.51
  Q 498.19 60.46 488.73 61.76
  C 475.43 63.57 464.82 55.24 463.77 41.76
  C 462.37 23.74 478.71 10.78 495.70 18.19
  C 498.31 19.33 499.74 19.52 500.64 16.62
  A 0.66 0.66 0.0 0 1 501.93 16.77
  L 502.89 30.44
  A 0.50 0.50 0.0 0 1 501.92 30.66
  Q 500.65 27.28 499.74 25.54
  C 494.66 15.89 481.16 15.47 474.67 24.13
  C 471.37 28.53 470.86 36.24 471.13 41.68
  C 471.57 51.00 476.35 57.92 485.99 58.92
  C 494.00 59.76 498.31 56.11 502.94 50.26
  A 0.33 0.33 0.0 0 1 503.30 50.15
  L 503.63 50.27
  A 0.17 0.17 0.0 0 1 503.73 50.51
  Z"
/>
<path fill="#ffffff" d="
  M 87.51 38.00
  Q 95.66 38.00 97.33 37.92
  A 0.64 0.64 0.0 0 0 97.93 37.28
  Q 98.00 31.04 97.98 22.67
  Q 97.97 17.37 91.85 18.01
  A 0.27 0.27 0.0 0 1 91.55 17.74
  L 91.55 17.40
  A 0.40 0.40 0.0 0 1 91.95 17.00
  L 110.48 17.00
  A 0.23 0.22 90.0 0 1 110.70 17.23
  L 110.70 17.62
  A 0.28 0.27 90.0 0 1 110.43 17.90
  Q 106.62 17.96 105.18 19.45
  Q 104.33 20.31 104.22 24.77
  Q 104.12 29.03 104.12 39.00
  Q 104.12 48.97 104.22 53.23
  Q 104.33 57.69 105.18 58.55
  Q 106.62 60.04 110.43 60.10
  A 0.28 0.27 90.0 0 1 110.70 60.38
  L 110.70 60.77
  A 0.23 0.22 90.0 0 1 110.48 61.00
  L 91.95 61.00
  A 0.40 0.40 0.0 0 1 91.55 60.60
  L 91.55 60.26
  A 0.27 0.27 0.0 0 1 91.85 59.99
  Q 97.97 60.63 97.98 55.33
  Q 98.00 46.96 97.93 40.72
  A 0.64 0.64 0.0 0 0 97.33 40.09
  Q 95.66 40.00 87.51 40.01
  Q 79.36 40.01 77.68 40.09
  A 0.64 0.64 0.0 0 0 77.08 40.72
  Q 77.01 46.96 77.03 55.33
  Q 77.04 60.63 83.16 59.99
  A 0.27 0.27 0.0 0 1 83.46 60.26
  L 83.46 60.60
  A 0.40 0.40 0.0 0 1 83.06 61.00
  L 64.53 61.00
  A 0.23 0.22 90.0 0 1 64.31 60.77
  L 64.31 60.38
  A 0.28 0.27 -90.0 0 1 64.58 60.10
  Q 68.39 60.04 69.83 58.55
  Q 70.68 57.69 70.79 53.24
  Q 70.90 48.97 70.90 39.00
  Q 70.90 29.03 70.79 24.77
  Q 70.68 20.31 69.83 19.45
  Q 68.39 17.96 64.58 17.90
  A 0.28 0.27 90.0 0 1 64.31 17.62
  L 64.31 17.23
  A 0.23 0.22 90.0 0 1 64.53 17.00
  L 83.06 17.00
  A 0.40 0.40 0.0 0 1 83.46 17.40
  L 83.46 17.74
  A 0.27 0.27 0.0 0 1 83.16 18.01
  Q 77.04 17.37 77.03 22.67
  Q 77.01 31.04 77.08 37.28
  A 0.64 0.64 0.0 0 0 77.68 37.92
  Q 79.36 38.00 87.51 38.00
  Z"
/>
<path fill="#ffffff" d="
  M 352.91 38.99
  Q 352.92 29.01 352.82 24.75
  Q 352.72 20.29 351.87 19.43
  Q 350.43 17.94 346.61 17.88
  A 0.28 0.27 -89.9 0 1 346.34 17.60
  L 346.35 17.21
  A 0.23 0.22 -89.9 0 1 346.57 16.98
  L 365.10 17.00
  A 0.40 0.40 0.0 0 1 365.50 17.40
  L 365.50 17.74
  A 0.27 0.27 0.0 0 1 365.20 18.01
  Q 359.08 17.36 359.07 22.66
  Q 359.04 31.04 359.10 37.28
  A 0.64 0.64 0.0 0 0 359.70 37.91
  Q 361.38 38.00 369.53 38.01
  Q 377.69 38.01 379.36 37.93
  A 0.64 0.64 0.0 0 0 379.96 37.30
  Q 380.04 31.06 380.03 22.68
  Q 380.03 17.38 373.90 18.02
  A 0.27 0.27 0.0 0 1 373.60 17.74
  L 373.60 17.40
  A 0.40 0.40 0.0 0 1 374.00 17.01
  L 392.54 17.02
  A 0.23 0.22 -89.9 0 1 392.76 17.25
  L 392.76 17.65
  A 0.28 0.27 -89.9 0 1 392.49 17.93
  Q 388.68 17.98 387.24 19.47
  Q 386.39 20.33 386.27 24.79
  Q 386.16 29.05 386.15 39.03
  Q 386.14 49.00 386.24 53.27
  Q 386.35 57.72 387.20 58.58
  Q 388.64 60.08 392.45 60.14
  A 0.28 0.27 -89.9 0 1 392.72 60.42
  L 392.72 60.81
  A 0.23 0.22 -89.9 0 1 392.50 61.04
  L 373.96 61.02
  A 0.40 0.40 0.0 0 1 373.56 60.62
  L 373.56 60.28
  A 0.27 0.27 0.0 0 1 373.86 60.01
  Q 379.98 60.66 380.00 55.36
  Q 380.02 46.98 379.96 40.74
  A 0.64 0.64 0.0 0 0 379.36 40.11
  Q 377.68 40.02 369.53 40.01
  Q 361.37 40.00 359.70 40.08
  A 0.64 0.64 0.0 0 0 359.10 40.72
  Q 359.02 46.96 359.03 55.33
  Q 359.04 60.64 365.16 60.00
  A 0.27 0.27 0.0 0 1 365.46 60.27
  L 365.46 60.61
  A 0.40 0.40 0.0 0 1 365.06 61.01
  L 346.52 60.99
  A 0.23 0.22 -89.9 0 1 346.30 60.76
  L 346.30 60.37
  A 0.28 0.27 -89.9 0 1 346.57 60.09
  Q 350.38 60.04 351.82 58.55
  Q 352.68 57.69 352.79 53.23
  Q 352.90 48.97 352.91 38.99
  Z"
/>
<path fill="#ffffff" d="
  M 513.91 39.01
  Q 513.90 29.04 513.79 24.78
  Q 513.68 20.32 512.83 19.46
  Q 511.39 17.98 507.58 17.92
  A 0.28 0.27 90.0 0 1 507.31 17.64
  L 507.31 17.25
  A 0.23 0.22 90.0 0 1 507.53 17.02
  L 526.06 17.01
  A 0.40 0.40 0.0 0 1 526.46 17.41
  L 526.46 17.75
  A 0.27 0.27 0.0 0 1 526.16 18.02
  Q 520.04 17.38 520.03 22.68
  Q 520.02 31.05 520.09 37.28
  A 0.64 0.64 0.0 0 0 520.69 37.92
  Q 522.36 38.00 530.51 37.99
  Q 538.66 37.99 540.33 37.91
  A 0.64 0.64 0.0 0 0 540.94 37.27
  Q 541.00 31.04 540.98 22.67
  Q 540.96 17.37 534.85 18.01
  A 0.27 0.27 0.0 0 1 534.55 17.74
  L 534.55 17.40
  A 0.40 0.40 0.0 0 1 534.95 17.00
  L 553.47 16.99
  A 0.23 0.22 90.0 0 1 553.69 17.22
  L 553.69 17.61
  A 0.28 0.27 90.0 0 1 553.42 17.89
  Q 549.61 17.96 548.17 19.45
  Q 547.32 20.31 547.22 24.76
  Q 547.11 29.02 547.12 38.99
  Q 547.12 48.96 547.23 53.21
  Q 547.34 57.67 548.19 58.53
  Q 549.64 60.02 553.44 60.07
  A 0.28 0.27 90.0 0 1 553.71 60.35
  L 553.71 60.74
  A 0.23 0.22 90.0 0 1 553.49 60.97
  L 534.97 60.98
  A 0.40 0.40 0.0 0 1 534.57 60.58
  L 534.57 60.24
  A 0.27 0.27 0.0 0 1 534.87 59.97
  Q 540.99 60.61 541.00 55.31
  Q 541.01 46.95 540.94 40.71
  A 0.64 0.64 0.0 0 0 540.33 40.08
  Q 538.66 39.99 530.51 40.00
  Q 522.37 40.00 520.69 40.09
  A 0.64 0.64 0.0 0 0 520.09 40.72
  Q 520.02 46.96 520.05 55.32
  Q 520.06 60.62 526.18 59.98
  A 0.27 0.27 0.0 0 1 526.48 60.25
  L 526.48 60.59
  A 0.40 0.40 0.0 0 1 526.08 60.99
  L 507.56 61.00
  A 0.23 0.22 90.0 0 1 507.34 60.77
  L 507.34 60.38
  A 0.28 0.27 90.0 0 1 507.61 60.10
  Q 511.41 60.04 512.85 58.55
  Q 513.70 57.69 513.81 53.23
  Q 513.91 48.97 513.91 39.01
  Z"
/>
<rect fill="#ffffff" x="136.54" y="43.04" width="34.88" height="2.90" rx="0.42"/>
<rect fill="#ffffff" x="248.55" y="43.04" width="34.88" height="2.90" rx="0.43"/>
<rect fill="#ffffff" x="409.59" y="43.06" width="34.90" height="2.86" rx="0.47"/>
<path fill="#ffffff" d="
  M 113.02 61.48
  C 116.90 52.10 128.78 59.49 122.30 64.82
  Q 121.36 65.59 121.26 65.73
  A 0.45 0.45 0.0 0 0 121.47 66.41
  C 124.34 67.53 125.68 70.48 124.88 73.43
  C 123.61 78.08 118.05 79.92 113.67 78.65
  A 1.52 1.41 35.9 0 1 113.14 76.02
  Q 113.54 75.78 114.37 76.18
  C 115.87 76.91 116.89 78.20 118.71 78.03
  C 120.95 77.83 122.79 75.73 122.63 73.44
  Q 122.28 68.28 116.46 67.89
  A 0.38 0.38 0.0 0 1 116.39 67.15
  C 119.12 66.45 121.92 65.17 121.66 61.71
  A 1.69 1.68 25.0 0 0 121.36 60.89
  C 119.64 58.48 116.08 58.14 114.22 60.84
  Q 113.46 61.95 113.43 61.95
  A 0.35 0.35 0.0 0 1 113.02 61.48
  Z"
/>
<path fill="#ffffff" d="
  M 569.40 74.57
  L 568.08 78.44
  A 0.83 0.82 9.4 0 1 567.30 78.99
  L 555.25 78.99
  A 0.47 0.47 0.0 0 1 554.94 78.17
  C 558.93 74.69 564.33 69.91 565.56 64.59
  Q 566.02 62.65 564.01 61.05
  C 561.13 58.75 557.34 60.18 555.98 63.55
  A 0.30 0.30 0.0 0 1 555.41 63.40
  C 556.11 57.61 562.01 54.87 566.58 58.94
  C 571.85 63.63 562.64 72.39 559.34 75.38
  A 0.35 0.35 0.0 0 0 559.58 75.99
  L 566.58 75.99
  A 1.88 1.85 -63.6 0 0 567.73 75.59
  L 569.20 74.43
  A 0.13 0.13 0.0 0 1 569.40 74.57
  Z"
/>
<rect fill="#ffffff" x="203.01" y="67.01" width="7.00" height="54.00" rx="0.67"/>
<rect fill="#ffffff" x="216.98" y="66.99" width="7.00" height="54.02" rx="0.61"/>
<rect fill="#ffffff" x="482.00" y="67.01" width="7.00" height="54.00" rx="0.48"/>
<rect fill="#ffffff" x="316.00" y="68.00" width="7.00" height="54.98" rx="0.50"/>
<path fill="#ffffff" d="
  M 216.9107 125.9581
  A 23.10 22.09 -86.3 0 1 237.4640 150.4355
  A 23.10 22.09 -86.3 0 1 213.9293 172.0619
  A 23.10 22.09 -86.3 0 1 193.3760 147.5845
  A 23.10 22.09 -86.3 0 1 216.9107 125.9581
  Z
  M 201.01 149.12
  C 201.09 158.28 203.91 170.07 215.67 169.97
  C 227.43 169.86 230.04 158.02 229.96 148.86
  C 229.87 139.71 227.05 127.91 215.30 128.02
  C 203.54 128.12 200.93 139.96 201.01 149.12
  Z"
/>
<path fill="#ffffff" d="
  M 486.5784 126.9276
  A 23.10 22.09 -87.2 0 1 507.5136 151.0791
  A 23.10 22.09 -87.2 0 1 484.3216 173.0724
  A 23.10 22.09 -87.2 0 1 463.3864 148.9209
  A 23.10 22.09 -87.2 0 1 486.5784 126.9276
  Z
  M 471.04 150.17
  C 471.15 159.34 474.01 171.15 485.79 171.01
  C 497.57 170.87 500.15 159.00 500.04 149.82
  C 499.93 140.65 497.06 128.84 485.29 128.98
  C 473.51 129.12 470.93 141.00 471.04 150.17
  Z"
/>
<path fill="#ffffff" d="
  M 551.33 161.13
  L 551.66 161.25
  A 0.17 0.17 0.0 0 1 551.76 161.49
  Q 546.23 171.46 536.76 172.77
  C 523.45 174.61 512.81 166.28 511.74 152.79
  C 510.31 134.75 526.65 121.75 543.67 129.14
  C 546.28 130.27 547.72 130.46 548.61 127.56
  A 0.66 0.66 0.0 0 1 549.90 127.71
  L 550.89 141.39
  A 0.51 0.50 -57.7 0 1 549.92 141.61
  Q 548.64 138.23 547.73 136.49
  C 542.62 126.84 529.11 126.44 522.62 135.12
  C 519.32 139.53 518.83 147.25 519.11 152.70
  C 519.56 162.03 524.36 168.95 534.01 169.93
  C 542.03 170.76 546.34 167.10 550.97 161.24
  A 0.33 0.33 0.0 0 1 551.33 161.13
  Z"
/>
<path fill="#ffffff" d="
  M 595.09 150.01
  Q 595.08 159.98 595.19 164.24
  Q 595.30 168.69 596.15 169.55
  Q 597.59 171.04 601.39 171.11
  A 0.28 0.27 -90.0 0 1 601.66 171.39
  L 601.66 171.78
  A 0.23 0.22 -90.0 0 1 601.44 172.01
  L 582.92 172.00
  A 0.40 0.40 0.0 0 1 582.52 171.60
  L 582.52 171.26
  A 0.27 0.27 0.0 0 1 582.82 170.99
  Q 588.94 171.63 588.95 166.33
  Q 588.97 157.97 588.90 151.73
  A 0.64 0.64 0.0 0 0 588.30 151.09
  Q 586.63 151.01 578.48 151.01
  Q 570.33 151.01 568.66 151.09
  A 0.64 0.64 0.0 0 0 568.06 151.72
  Q 567.98 157.96 568.00 166.33
  Q 568.01 171.62 574.13 170.99
  A 0.27 0.27 0.0 0 1 574.43 171.26
  L 574.43 171.60
  A 0.40 0.40 0.0 0 1 574.03 172.00
  L 555.50 171.99
  A 0.23 0.22 -90.0 0 1 555.28 171.76
  L 555.28 171.37
  A 0.28 0.27 -90.0 0 1 555.55 171.09
  Q 559.36 171.03 560.80 169.54
  Q 561.65 168.68 561.76 164.23
  Q 561.87 159.97 561.88 150.00
  Q 561.88 140.03 561.77 135.77
  Q 561.66 131.32 560.82 130.46
  Q 559.38 128.97 555.57 128.91
  A 0.28 0.27 -90.0 0 1 555.30 128.63
  L 555.30 128.24
  A 0.23 0.22 -90.0 0 1 555.52 128.01
  L 574.04 128.01
  A 0.40 0.40 0.0 0 1 574.44 128.41
  L 574.44 128.75
  A 0.27 0.27 0.0 0 1 574.14 129.02
  Q 568.02 128.38 568.01 133.68
  Q 567.99 142.05 568.06 148.29
  A 0.64 0.64 0.0 0 0 568.66 148.92
  Q 570.33 149.00 578.48 149.00
  Q 586.63 149.01 588.30 148.92
  A 0.64 0.64 0.0 0 0 588.91 148.29
  Q 588.98 142.05 588.96 133.69
  Q 588.95 128.39 582.83 129.03
  A 0.27 0.27 0.0 0 1 582.53 128.76
  L 582.53 128.42
  A 0.40 0.40 0.0 0 1 582.93 128.02
  L 601.46 128.02
  A 0.23 0.22 -90.0 0 1 601.68 128.25
  L 601.68 128.64
  A 0.28 0.27 -90.0 0 1 601.41 128.92
  Q 597.60 128.98 596.16 130.47
  Q 595.31 131.33 595.20 135.78
  Q 595.09 140.04 595.09 150.01
  Z"
/>
<path fill="#ffffff" d="
  M 321.9503 128.9708
  A 23.09 22.12 -86.2 0 1 342.4914 153.4760
  A 23.09 22.12 -86.2 0 1 318.8897 175.0492
  A 23.09 22.12 -86.2 0 1 298.3486 150.5440
  A 23.09 22.12 -86.2 0 1 321.9503 128.9708
  Z
  M 306.02 152.15
  C 306.11 161.31 308.95 173.10 320.71 172.98
  C 332.47 172.86 335.07 161.01 334.97 151.85
  C 334.88 142.69 332.04 130.89 320.28 131.01
  C 308.52 131.14 305.92 142.99 306.02 152.15
  Z"
/>
<path fill="#ffffff" d="
  M 386.28 163.16
  L 386.61 163.28
  A 0.17 0.17 0.0 0 1 386.71 163.52
  Q 381.16 173.47 371.69 174.77
  C 358.38 176.57 347.77 168.23 346.73 154.74
  C 345.34 136.71 361.70 123.75 378.69 131.18
  C 381.30 132.32 382.73 132.51 383.64 129.61
  A 0.66 0.66 0.0 0 1 384.93 129.76
  L 385.88 143.44
  A 0.50 0.50 0.0 0 1 384.91 143.66
  Q 383.64 140.27 382.73 138.53
  C 377.65 128.87 364.15 128.45 357.65 137.11
  C 354.34 141.51 353.83 149.22 354.09 154.67
  C 354.53 163.99 359.31 170.92 368.95 171.93
  C 376.97 172.77 381.28 169.12 385.92 163.27
  A 0.33 0.33 0.0 0 1 386.28 163.16
  Z"
/>
<path fill="#ffffff" d="
  M 396.92 151.99
  Q 396.94 142.02 396.83 137.76
  Q 396.73 133.31 395.88 132.45
  Q 394.44 130.95 390.63 130.89
  A 0.28 0.27 -89.9 0 1 390.36 130.61
  L 390.36 130.22
  A 0.23 0.22 -89.9 0 1 390.58 129.99
  L 409.11 130.01
  A 0.40 0.40 0.0 0 1 409.51 130.41
  L 409.51 130.75
  A 0.27 0.27 0.0 0 1 409.21 131.02
  Q 403.09 130.37 403.07 135.67
  Q 403.04 144.04 403.11 150.28
  A 0.64 0.64 0.0 0 0 403.71 150.91
  Q 405.38 150.99 413.53 151.00
  Q 421.68 151.01 423.35 150.93
  A 0.64 0.64 0.0 0 0 423.95 150.30
  Q 424.03 144.06 424.02 135.69
  Q 424.02 130.40 417.90 131.03
  A 0.27 0.27 0.0 0 1 417.60 130.76
  L 417.60 130.42
  A 0.40 0.40 0.0 0 1 418.00 130.02
  L 436.52 130.04
  A 0.23 0.22 -89.9 0 1 436.74 130.27
  L 436.74 130.66
  A 0.28 0.27 -89.9 0 1 436.47 130.94
  Q 432.66 131.00 431.22 132.48
  Q 430.37 133.34 430.26 137.80
  Q 430.14 142.06 430.13 152.02
  Q 430.12 161.99 430.23 166.25
  Q 430.33 170.71 431.18 171.57
  Q 432.62 173.06 436.43 173.12
  A 0.28 0.27 -89.9 0 1 436.70 173.40
  L 436.70 173.79
  A 0.23 0.22 -89.9 0 1 436.47 174.02
  L 417.95 174.00
  A 0.40 0.40 0.0 0 1 417.55 173.60
  L 417.55 173.26
  A 0.27 0.27 0.0 0 1 417.85 172.99
  Q 423.97 173.64 423.98 168.34
  Q 424.01 159.97 423.95 153.73
  A 0.64 0.64 0.0 0 0 423.35 153.10
  Q 421.68 153.02 413.53 153.01
  Q 405.38 153.00 403.71 153.08
  A 0.64 0.64 0.0 0 0 403.10 153.71
  Q 403.03 159.95 403.04 168.32
  Q 403.04 173.62 409.16 172.98
  A 0.27 0.27 0.0 0 1 409.46 173.25
  L 409.46 173.59
  A 0.40 0.40 0.0 0 1 409.06 173.99
  L 390.53 173.97
  A 0.23 0.22 -89.9 0 1 390.32 173.74
  L 390.32 173.35
  A 0.28 0.27 -89.9 0 1 390.59 173.07
  Q 394.39 173.02 395.84 171.53
  Q 396.69 170.67 396.80 166.22
  Q 396.91 161.96 396.92 151.99
  Z"
/>
<path fill="#ffffff" d="
  M 605.43 172.95
  A 0.35 0.35 0.0 0 1 605.02 172.48
  C 608.90 163.09 620.78 170.49 614.30 175.82
  Q 613.36 176.59 613.26 176.73
  A 0.45 0.45 0.0 0 0 613.47 177.41
  C 616.34 178.53 617.68 181.48 616.88 184.44
  C 615.61 189.09 610.05 190.93 605.66 189.66
  A 1.52 1.41 35.9 0 1 605.13 187.02
  Q 605.53 186.78 606.36 187.19
  C 607.87 187.92 608.89 189.21 610.71 189.04
  C 612.95 188.84 614.79 186.74 614.63 184.45
  Q 614.28 179.28 608.46 178.89
  A 0.38 0.38 0.0 0 1 608.39 178.15
  C 611.12 177.45 613.92 176.17 613.66 172.71
  A 1.69 1.69 0.0 0 0 613.36 171.89
  C 611.64 169.48 608.08 169.14 606.22 171.84
  Q 605.46 172.95 605.43 172.95
  Z"
/>
<path fill="#ffffff" d="
  M 439.43 173.95
  A 0.35 0.35 0.0 0 1 439.02 173.48
  C 442.90 164.11 454.78 171.49 448.30 176.82
  Q 447.36 177.59 447.26 177.73
  A 0.45 0.45 0.0 0 0 447.47 178.41
  C 450.34 179.53 451.68 182.48 450.88 185.43
  C 449.61 190.08 444.05 191.92 439.67 190.65
  A 1.52 1.41 35.9 0 1 439.14 188.02
  Q 439.54 187.78 440.37 188.18
  C 441.87 188.91 442.89 190.20 444.71 190.03
  C 446.95 189.83 448.79 187.73 448.63 185.44
  Q 448.28 180.28 442.46 179.89
  A 0.38 0.38 0.0 0 1 442.39 179.15
  C 445.12 178.45 447.92 177.17 447.66 173.71
  A 1.69 1.68 25.0 0 0 447.36 172.89
  C 445.64 170.48 442.08 170.14 440.22 172.84
  Q 439.46 173.95 439.43 173.95
  Z"
/>
</svg>
