<?xml version="1.0" encoding="UTF-8" standalone="no"?>
<!DOCTYPE svg PUBLIC "-//W3C//DTD SVG 1.1//EN" "http://www.w3.org/Graphics/SVG/1.1/DTD/svg11.dtd">
<svg xmlns="http://www.w3.org/2000/svg" version="1.1" viewBox="0.00 0.00 560.00 230.00">
<path fill="#ffffff" d="
  M 339.33 47.55
  Q 339.32 46.65 339.34 46.62
  A 0.91 0.89 11.2 0 1 340.17 46.07
  L 355.15 46.01
  A 0.67 0.66 -0.1 0 0 355.82 45.35
  L 355.80 30.64
  A 0.63 0.63 0.0 0 1 356.41 30.01
  Q 356.63 30.00 357.12 30.00
  Q 357.60 30.00 357.82 30.00
  A 0.63 0.63 0.0 0 1 358.44 30.63
  L 358.44 45.34
  A 0.67 0.66 -0.0 0 0 359.12 46.01
  L 374.10 46.04
  A 0.91 0.89 -11.3 0 1 374.93 46.58
  Q 374.94 46.61 374.94 47.51
  Q 374.94 48.38 374.93 48.41
  A 0.91 0.89 11.2 0 1 374.10 48.96
  L 359.12 49.02
  A 0.67 0.66 -0.1 0 0 358.45 49.68
  L 358.47 64.39
  A 0.63 0.63 0.0 0 1 357.85 65.02
  Q 357.64 65.03 357.15 65.03
  Q 356.66 65.03 356.45 65.02
  A 0.63 0.63 0.0 0 1 355.83 64.39
  L 355.82 49.68
  A 0.67 0.66 -0.0 0 0 355.15 49.02
  L 340.17 48.99
  A 0.91 0.89 -11.3 0 1 339.34 48.45
  Q 339.33 48.42 339.33 47.55
  Z"
/>
<path fill="#ffffff" d="
  M 485.1901 30.8692
  A 23.64 21.98 -88.4 0 1 506.5014 55.1137
  A 23.64 21.98 -88.4 0 1 483.8699 78.1308
  A 23.64 21.98 -88.4 0 1 462.5586 53.8863
  A 23.64 21.98 -88.4 0 1 485.1901 30.8692
  Z
  M 469.96 53.23
  Q 469.30 60.10 472.21 67.21
  C 474.13 71.92 477.50 75.18 482.30 75.83
  Q 490.64 76.95 495.56 69.99
  Q 499.79 64.01 498.94 56.29
  Q 498.93 56.17 498.98 55.66
  Q 499.65 48.79 496.75 41.68
  C 494.82 36.97 491.45 33.71 486.65 33.06
  Q 478.31 31.94 473.39 38.90
  Q 469.16 44.88 470.01 52.60
  Q 470.02 52.72 469.96 53.23
  Z"
/>
<rect fill="#ffffff" x="98.55" y="32.00" width="34.90" height="3.00" rx="0.44"/>
<rect fill="#ffffff" x="-39.20" y="-3.24" transform="translate(215.57,54.76) rotate(-26.5)" width="78.40" height="6.48" rx="0.54"/>
<path fill="#ffffff" d="
  M 185.82 82.68
  Q 185.86 82.68 185.90 82.68
  A 0.18 0.01 0.3 0 0 186.05 82.67
  Q 218.57 66.51 251.89 49.90
  Q 253.23 49.23 255.18 49.50
  A 2.18 2.14 -27.1 0 1 255.88 49.72
  L 325.26 84.25
  A 0.21 0.21 0.0 0 1 325.36 84.53
  L 322.67 89.94
  A 0.22 0.22 0.0 0 1 322.37 90.04
  L 254.53 56.28
  A 0.97 0.95 -44.3 0 0 253.66 56.28
  Q 210.73 77.58 186.00 89.98
  Q 185.98 89.99 185.82 89.99
  Q 185.67 89.99 185.65 89.98
  Q 160.92 77.58 117.99 56.28
  A 0.97 0.95 44.3 0 0 117.12 56.28
  L 49.28 90.04
  A 0.22 0.22 0.0 0 1 48.98 89.94
  L 46.29 84.53
  A 0.21 0.21 0.0 0 1 46.39 84.25
  L 115.77 49.72
  A 2.18 2.14 27.1 0 1 116.47 49.50
  Q 118.42 49.23 119.76 49.90
  Q 153.08 66.51 185.60 82.67
  A 0.18 0.01 -0.3 0 0 185.75 82.68
  Q 185.79 82.68 185.82 82.68
  Z"
/>
<rect fill="#ffffff" x="-39.14" y="-3.24" transform="translate(418.96,77.45) rotate(-26.5)" width="78.28" height="6.48" rx="0.53"/>
<rect fill="#ffffff" x="-39.14" y="-3.24" transform="translate(425.14,90.46) rotate(-26.5)" width="78.28" height="6.48" rx="0.59"/>
<path fill="#ffffff" d="
  M 351.47 96.39
  L 351.01 95.83
  A 0.01 0.01 0.0 0 1 351.00 95.82
  L 344.27 88.02
  A 0.26 0.26 0.0 0 0 343.82 88.19
  Q 343.91 104.50 343.82 114.76
  Q 343.80 117.40 344.32 119.81
  A 1.63 1.60 -77.0 0 0 344.89 120.74
  Q 346.89 122.35 349.83 121.98
  A 0.46 0.46 0.0 0 1 350.35 122.44
  L 350.35 122.73
  A 0.27 0.27 0.0 0 1 350.08 123.00
  L 335.05 123.00
  A 0.50 0.50 0.0 0 1 334.55 122.47
  L 334.55 122.45
  A 0.48 0.48 0.0 0 1 335.07 122.00
  C 341.95 122.45 341.04 117.83 341.18 112.28
  C 341.47 100.72 341.44 92.39 341.06 84.47
  A 1.73 1.70 26.9 0 0 340.78 83.64
  Q 337.90 79.29 332.70 78.89
  A 0.42 0.42 0.0 0 1 332.31 78.47
  L 332.31 78.21
  A 0.20 0.19 -90.0 0 1 332.50 78.01
  L 343.52 78.01
  A 1.30 1.28 70.1 0 1 344.52 78.49
  L 371.23 111.37
  A 0.38 0.37 25.7 0 0 371.90 111.14
  Q 371.86 86.30 371.84 83.26
  C 371.81 79.57 369.18 78.94 365.92 78.93
  A 0.38 0.38 0.0 0 1 365.54 78.55
  L 365.54 78.29
  A 0.29 0.28 -90.0 0 1 365.82 78.00
  L 380.64 78.00
  A 0.33 0.32 90.0 0 1 380.96 78.33
  L 380.96 78.65
  A 0.25 0.25 0.0 0 1 380.72 78.90
  C 377.58 79.13 374.94 79.18 374.93 83.25
  Q 374.86 103.97 374.96 120.25
  Q 374.97 121.90 374.74 122.85
  A 0.82 0.82 0.0 0 1 373.31 123.18
  L 351.47 96.40
  L 351.47 96.39
  Z"
/>
<path fill="#ffffff" d="
  M 35.13 89.04
  Q 35.61 89.04 35.83 89.04
  A 0.63 0.62 -89.6 0 1 36.44 89.67
  L 36.44 104.34
  A 0.67 0.66 0.0 0 0 37.11 105.00
  L 52.05 105.04
  A 0.91 0.89 -11.2 0 1 52.88 105.59
  Q 52.90 105.62 52.90 106.51
  Q 52.90 107.38 52.88 107.41
  A 0.91 0.89 11.2 0 1 52.06 107.95
  L 37.12 108.01
  A 0.67 0.66 -0.1 0 0 36.45 108.67
  L 36.46 123.34
  A 0.63 0.62 89.5 0 1 35.85 123.97
  Q 35.63 123.97 35.15 123.97
  Q 34.66 123.97 34.45 123.97
  A 0.63 0.62 -89.6 0 1 33.83 123.34
  L 33.83 108.67
  A 0.67 0.66 0.0 0 0 33.16 108.01
  L 18.22 107.97
  A 0.91 0.89 -11.2 0 1 17.39 107.43
  Q 17.38 107.40 17.38 106.53
  Q 17.38 105.64 17.39 105.61
  A 0.91 0.89 11.2 0 1 18.22 105.06
  L 33.16 105.01
  A 0.67 0.66 -0.1 0 0 33.83 104.34
  L 33.81 89.67
  A 0.63 0.62 89.5 0 1 34.43 89.05
  Q 34.64 89.04 35.13 89.04
  Z"
/>
<rect fill="#ffffff" x="-39.13" y="-3.24" transform="translate(422.05,141.19) rotate(26.5)" width="78.26" height="6.48" rx="0.53"/>
<path fill="#ffffff" d="
  M 482.2543 151.9044
  A 23.62 22.06 -88.0 0 1 503.4766 176.2799
  A 23.62 22.06 -88.0 0 1 480.6057 199.1156
  A 23.62 22.06 -88.0 0 1 459.3834 174.7401
  A 23.62 22.06 -88.0 0 1 482.2543 151.9044
  Z
  M 467.01 175.60
  C 467.07 181.45 467.69 186.50 471.00 191.46
  C 473.43 195.10 477.22 197.02 481.75 196.98
  C 486.27 196.94 490.03 194.95 492.40 191.27
  C 495.62 186.24 496.15 181.19 496.09 175.34
  C 496.04 169.49 495.42 164.45 492.11 159.49
  C 489.68 155.84 485.88 153.93 481.36 153.97
  C 476.83 154.01 473.08 156.00 470.71 159.68
  C 467.49 164.70 466.96 169.75 467.01 175.60
  Z"
/>
<rect fill="#ffffff" x="-10.66" y="-1.46" transform="translate(516.32,156.49) rotate(-0.1)" width="21.32" height="2.92" rx="0.64"/>
</svg>
