<?xml version="1.0" encoding="UTF-8" standalone="yes"?>
<svg xmlns="http://www.w3.org/2000/svg" xmlns:xlink="http://www.w3.org/1999/xlink" width="664.530pt" height="369.218pt" version="1.1" viewBox="-337.794 576.691 664.530 369.218">
  <!--
	Exported with Concepts: Smarter Sketching
	Version: 4663 on iOS 26.2
	https://concepts.app/
	-->
  <title>554D2681-7E46-4FA2-A36C-CC56A177F44D</title>
  <desc>Drawing exported from Concepts: Smarter Sketching</desc>
  <defs></defs>
  <g id="Wire" opacity="1.000">
    <path id="STROKE_354f9168-50dd-4f2e-9ccb-c40f48dbde5f" opacity="1.000" fill="none" stroke="#f7f5ed" stroke-width="2.897" stroke-opacity="1.000" stroke-linecap="round" stroke-linejoin="round" d="M -326.584 682.406 Q -327.964 682.815 -327.710 682.705 Q -328.987 682.856 -328.637 682.837 Q -328.869 682.870 -329.365 682.870 Q -327.867 682.266 -319.446 677.164 Q -311.025 672.061 -304.805 668.133 Q -298.584 664.204 -295.638 662.372 Q -292.693 660.541 -291.674 659.743 Q -290.655 658.946 -289.891 658.582 Q -289.126 658.218 -288.160 658.865 Q -287.194 659.511 -283.266 661.639 Q -279.337 663.766 -275.575 666.164 Q -271.812 668.563 -263.530 673.497 Q -255.249 678.431 -246.200 683.235 L -246.200 683.269 Q -245.756 683.566 -243.059 681.558 Q -240.361 679.551 -234.259 673.924 Q -228.156 668.298 -223.775 664.258 Q -219.394 660.218 -212.629 654.141 "></path>
    <path id="STROKE_f23fde9d-6d37-4c97-a7ac-3db84b261877" opacity="1.000" fill="none" stroke="#f7f5ed" stroke-width="2.897" stroke-opacity="1.000" stroke-linecap="round" stroke-linejoin="round" d="M -287.915 671.724 Q -287.915 671.364 -287.915 670.197 Q -287.401 670.119 -282.616 673.396 Q -277.832 676.673 -272.722 679.499 Q -267.612 682.324 -264.536 683.961 Q -261.461 685.598 -256.596 688.709 Q -256.728 688.676 -256.861 688.643 "></path>
    <path id="STROKE_2f049e37-a06f-4fa0-8c34-ab37ec8e1cce" opacity="1.000" fill="none" stroke="#f7f5ed" stroke-width="2.897" stroke-opacity="1.000" stroke-linecap="round" stroke-linejoin="round" d="M -162.306 668.340 Q -162.851 668.298 -165.816 667.212 Q -164.563 667.594 -94.172 666.084 Q -94.318 666.086 -94.822 665.691 Q -95.325 665.296 -95.325 665.241 Q -95.325 665.187 -95.203 665.318 Q -95.082 665.449 -96.695 663.257 Q -98.308 661.064 -106.090 656.994 Q -106.188 657.035 -104.184 658.614 Q -102.179 660.193 -98.997 661.632 Q -95.816 663.072 -93.978 663.638 Q -92.140 664.204 -91.191 664.458 Q -90.242 664.711 -87.881 664.956 Q -88.788 664.956 -88.709 664.956 Q -90.141 665.298 -89.934 665.387 Q -90.487 665.215 -94.984 668.771 Q -99.481 672.327 -101.627 674.227 Q -103.773 676.126 -104.928 677.288 Q -106.084 678.450 -106.156 679.553 Q -105.809 679.712 -105.229 679.885 "></path>
    <path id="STROKE_5a4aee39-7533-4b55-a0f7-6ebbe477c0c6" opacity="1.000" fill="none" stroke="#f7f5ed" stroke-width="2.897" stroke-opacity="1.000" stroke-linecap="round" stroke-linejoin="round" d="M -151.580 628.529 Q -151.190 629.507 -152.573 625.875 Q -151.995 626.278 -152.175 646.510 "></path>
    <path id="STROKE_96f6432c-668e-4b18-802a-458354049693" opacity="1.000" fill="none" stroke="#f7f5ed" stroke-width="2.897" stroke-opacity="1.000" stroke-linecap="round" stroke-linejoin="round" d="M -150.520 636.226 Q -150.475 636.226 -150.917 636.226 Q -150.942 636.810 -148.408 637.131 Q -145.874 637.453 -144.040 637.275 Q -142.206 637.097 -140.528 636.234 Q -138.850 635.370 -138.286 632.576 Q -137.722 629.781 -139.860 626.406 Q -140.598 625.548 -137.542 644.719 "></path>
    <path id="STROKE_fda87e3a-f2e9-48e4-86b1-840540701d40" opacity="1.000" fill="none" stroke="#f7f5ed" stroke-width="2.897" stroke-opacity="1.000" stroke-linecap="round" stroke-linejoin="round" d="M -124.696 627.866 Q -124.565 628.025 -124.939 626.844 Q -125.313 625.663 -126.020 625.238 Q -126.727 624.813 -127.062 624.989 Q -127.398 625.166 -127.335 625.176 Q -127.271 625.186 -127.650 625.327 Q -128.030 625.469 -129.196 628.125 Q -130.363 630.782 -130.733 632.810 Q -131.103 634.838 -131.027 636.361 Q -130.951 637.883 -130.849 639.032 Q -130.747 640.181 -130.049 640.902 Q -129.351 641.623 -129.037 642.103 Q -128.724 642.584 -125.927 643.263 Q -123.130 643.943 -120.752 643.761 Q -118.375 643.580 -115.779 642.134 Q -113.182 640.688 -111.366 638.894 Q -109.549 637.101 -108.812 634.505 Q -108.076 631.908 -108.007 629.747 Q -107.939 627.585 -108.868 626.304 Q -109.796 625.022 -110.472 624.371 Q -111.147 623.720 -112.314 623.951 Q -112.527 625.056 -113.035 629.604 Q -113.544 634.152 -112.154 639.615 Q -110.765 645.079 -107.944 649.496 "></path>
    <path id="STROKE_691661b2-903d-4e5c-96f6-4eef3f143643" opacity="1.000" fill="none" stroke="#f7f5ed" stroke-width="2.897" stroke-opacity="1.000" stroke-linecap="round" stroke-linejoin="round" d="M -57.091 675.307 Q -57.426 675.307 -59.144 675.307 Q -58.176 674.767 -23.454 652.946 Q -23.488 652.946 -23.719 652.946 Q -22.988 653.617 -22.823 653.730 Q -22.658 653.842 -22.549 653.865 Q -22.440 653.887 -22.686 653.849 Q -22.931 653.810 -15.774 658.136 Q -8.617 662.463 -3.000 665.489 Q 2.616 668.515 6.959 670.313 Q 11.301 672.111 15.480 674.278 L 15.480 674.311 Q 16.956 674.025 16.665 674.190 Q 16.374 674.356 20.692 671.098 Q 25.011 667.840 27.463 665.627 Q 29.916 663.415 36.088 658.382 Q 42.260 653.349 48.455 647.771 Q 48.256 647.904 48.057 648.036 "></path>
    <path id="STROKE_663039a9-cdde-4273-8f64-0d61a0862742" opacity="1.000" fill="none" stroke="#f7f5ed" stroke-width="2.897" stroke-opacity="1.000" stroke-linecap="round" stroke-linejoin="round" d="M 16.804 675.174 Q 16.758 674.467 16.738 674.610 Q 16.708 674.409 16.539 673.979 Q 16.631 674.350 17.930 701.449 Q 17.963 701.416 18.459 700.653 "></path>
    <path id="STROKE_5730621a-bc4c-4b71-b69c-2bddd4fbcf6e" opacity="1.000" fill="none" stroke="#f7f5ed" stroke-width="2.897" stroke-opacity="1.000" stroke-linecap="round" stroke-linejoin="round" d="M 13.228 715.781 Q 13.549 716.380 12.599 713.060 Q 12.608 712.678 11.441 713.594 Q 10.274 714.510 8.740 717.613 Q 7.206 720.717 6.393 723.187 Q 5.580 725.657 5.391 727.418 Q 5.203 729.179 5.427 730.177 Q 5.651 731.176 6.126 731.710 Q 6.601 732.244 7.373 732.619 Q 8.145 732.995 8.694 733.093 Q 9.243 733.191 9.911 733.151 Q 10.579 733.110 11.575 733.295 Q 12.571 733.479 15.391 732.764 Q 18.210 732.048 21.172 730.203 Q 24.135 728.359 25.812 726.713 Q 27.490 725.067 28.278 722.995 Q 29.066 720.923 28.928 718.819 Q 28.790 716.714 28.206 715.050 Q 27.622 713.387 25.942 711.999 Q 25.866 712.882 25.503 716.845 Q 25.139 720.808 25.582 725.542 Q 26.025 730.277 28.954 735.354 Q 29.021 735.354 29.120 735.354 Q 29.275 734.556 29.318 734.624 "></path>
    <path id="STROKE_8dd515a9-9525-4d1b-abbf-342b6e1a026d" opacity="1.000" fill="none" stroke="#fac859" stroke-width="2.897" stroke-opacity="1.000" stroke-linecap="round" stroke-linejoin="round" d="M 9.587 657.392 Q 10.554 656.978 10.216 657.093 Q 10.768 656.154 12.304 659.169 Q 13.841 662.184 15.392 663.880 Q 16.944 665.576 19.784 666.415 "></path>
    <path id="STROKE_4a99c598-449e-4c15-853b-4289cc45e051" opacity="1.000" fill="none" stroke="#fac859" stroke-width="2.897" stroke-opacity="1.000" stroke-linecap="round" stroke-linejoin="round" d="M 16.738 656.197 Q 16.572 656.217 16.028 656.746 Q 15.484 657.276 15.496 657.546 Q 15.507 657.816 15.566 657.424 Q 15.624 657.033 14.778 659.874 Q 13.932 662.714 13.337 664.714 Q 12.742 666.713 12.169 668.738 "></path>
    <path id="STROKE_d95a762e-8055-4869-8185-4c2b59426ff6" opacity="1.000" fill="none" stroke="#fac859" stroke-width="2.897" stroke-opacity="1.000" stroke-linecap="round" stroke-linejoin="round" d="M 8.792 663.231 Q 8.766 663.377 8.858 664.724 Q 9.121 665.790 20.313 659.979 "></path>
    <path id="STROKE_2855949d-6a5e-45cd-a68e-2abd73fd644f" opacity="1.000" fill="none" stroke="#f7f5ed" stroke-width="2.897" stroke-opacity="1.000" stroke-linecap="round" stroke-linejoin="round" d="M 94.474 663.363 Q 94.998 663.118 93.679 663.960 Q 94.396 663.977 102.712 663.849 Q 111.028 663.722 115.962 663.731 Q 120.896 663.740 132.436 663.779 Q 143.976 663.819 151.374 663.816 Q 158.772 663.813 163.776 663.539 Q 168.781 663.265 171.435 662.953 Q 174.089 662.641 175.719 662.434 Q 175.723 662.536 175.648 662.475 Q 175.574 662.414 175.612 662.439 Q 175.651 662.464 175.302 662.185 Q 174.954 661.906 174.611 661.636 Q 174.268 661.365 174.202 661.335 Q 174.135 661.304 174.493 661.520 Q 174.850 661.736 167.310 655.866 Q 168.331 656.729 170.395 657.927 Q 172.459 659.126 183.665 661.705 Q 183.627 660.645 178.215 664.177 Q 172.803 667.710 167.376 672.321 Q 167.574 672.553 167.773 672.719 "></path>
    <path id="STROKE_40adee20-6909-4b65-9049-856f52d1f4d3" opacity="1.000" fill="none" stroke="#f7f5ed" stroke-width="2.897" stroke-opacity="1.000" stroke-linecap="round" stroke-linejoin="round" d="M 108.577 627.866 Q 108.577 627.495 108.577 624.017 Q 109.082 624.267 110.034 641.003 "></path>
    <path id="STROKE_ecd79c82-b24b-426a-880f-6b45a0423d2d" opacity="1.000" fill="none" stroke="#f7f5ed" stroke-width="2.897" stroke-opacity="1.000" stroke-linecap="round" stroke-linejoin="round" d="M 109.637 626.339 Q 109.694 626.430 109.239 625.875 Q 109.308 626.122 111.861 629.459 Q 114.415 632.796 116.633 635.299 Q 118.851 637.802 120.771 638.979 Q 122.691 640.156 125.263 639.676 "></path>
    <path id="STROKE_2ee5435e-dd44-4b57-a860-21e66fce05e0" opacity="1.000" fill="none" stroke="#f7f5ed" stroke-width="2.897" stroke-opacity="1.000" stroke-linecap="round" stroke-linejoin="round" d="M 125.661 625.543 Q 125.727 626.505 125.528 622.889 Q 125.413 622.690 125.862 628.083 Q 126.311 633.476 127.978 640.207 "></path>
    <path id="STROKE_75d5f2c1-1222-439d-8114-292f633ec458" opacity="1.000" fill="none" stroke="#f7f5ed" stroke-width="2.897" stroke-opacity="1.000" stroke-linecap="round" stroke-linejoin="round" d="M 132.944 625.742 Q 132.944 625.543 132.944 623.420 Q 132.944 624.780 132.944 624.647 Q 133.114 626.922 133.739 637.818 "></path>
    <path id="STROKE_6d611735-5a24-472e-90ee-154e93eb5eb0" opacity="1.000" fill="none" stroke="#f7f5ed" stroke-width="2.897" stroke-opacity="1.000" stroke-linecap="round" stroke-linejoin="round" d="M 135.129 630.188 Q 135.162 630.188 135.195 630.188 Q 134.336 630.515 137.337 631.018 Q 140.338 631.521 142.123 631.190 Q 143.907 630.858 144.360 630.516 Q 144.813 630.174 146.018 629.302 Q 147.224 628.431 147.560 627.068 Q 147.896 625.704 147.789 624.740 Q 147.681 623.775 147.596 623.622 Q 147.510 623.469 146.875 623.026 Q 146.240 622.583 146.419 622.756 Q 146.386 622.756 146.353 622.756 Q 146.275 622.520 146.372 627.978 Q 146.469 633.435 148.174 639.809 "></path>
    <path id="STROKE_51b6f6a1-ba53-466b-bdad-8a2648a9d923" opacity="1.000" fill="none" stroke="#f7f5ed" stroke-width="2.897" stroke-opacity="1.000" stroke-linecap="round" stroke-linejoin="round" d="M 155.060 639.543 Q 154.278 638.771 154.579 637.817 Q 154.880 636.863 155.485 636.585 Q 156.091 636.307 155.920 636.350 Q 155.750 636.393 157.486 635.669 Q 159.222 634.944 160.834 634.921 Q 162.447 634.897 162.529 634.949 Q 162.611 635.001 163.014 635.577 Q 163.418 636.153 163.370 636.917 Q 163.322 637.680 162.928 638.728 Q 162.533 639.775 161.779 640.506 Q 161.024 641.237 159.827 642.197 Q 159.956 642.147 161.518 642.370 Q 163.080 642.593 163.979 643.259 Q 164.878 643.925 165.089 644.114 Q 165.299 644.303 165.797 646.042 Q 166.295 647.781 165.208 648.757 Q 164.121 649.733 163.120 650.530 Q 162.118 651.327 160.014 651.678 Q 157.910 652.029 156.384 651.972 Q 154.859 651.915 154.058 651.423 Q 153.257 650.932 153.007 648.302 "></path>
    <path id="STROKE_3b2c64bd-34b1-4b5b-8aa1-c28c0e169b60" opacity="1.000" fill="none" stroke="#f7f5ed" stroke-width="2.897" stroke-opacity="1.000" stroke-linecap="round" stroke-linejoin="round" d="M 108.180 610.150 Q 107.784 609.323 107.253 608.226 Q 107.093 607.805 107.551 610.515 Q 108.584 610.521 108.662 610.528 Q 108.740 610.536 108.544 610.415 Q 108.739 609.845 108.767 609.530 Q 108.795 609.215 108.782 609.196 Q 108.768 609.177 108.774 609.376 Q 108.780 609.575 108.776 608.524 Q 108.448 608.111 108.048 609.354 "></path>
    <path id="STROKE_bd9b997d-00ce-4f8f-b389-5829f00611a9" opacity="1.000" fill="none" stroke="#f7f5ed" stroke-width="2.897" stroke-opacity="1.000" stroke-linecap="round" stroke-linejoin="round" d="M 118.708 608.027 Q 118.649 607.138 118.609 607.330 Q 118.965 607.658 117.914 606.633 Q 117.731 607.713 117.781 607.396 Q 117.647 606.889 118.046 609.188 Q 118.578 609.240 118.543 609.221 Q 119.220 609.203 119.072 609.088 Q 119.406 608.241 119.304 608.358 Q 119.304 606.976 119.304 607.396 Q 119.244 606.510 119.138 606.799 Q 118.102 606.743 118.344 606.766 Q 117.969 606.933 117.582 607.960 "></path>
    <path id="STROKE_797def3b-d8f3-4cf5-989a-946d68a7b32c" opacity="1.000" fill="none" stroke="#ff5b53" stroke-width="2.897" stroke-opacity="1.000" stroke-linecap="round" stroke-linejoin="round" d="M 105.068 598.074 Q 104.732 597.540 104.669 597.398 Q 104.606 597.256 104.637 597.278 Q 104.298 596.246 104.406 596.548 Q 104.537 596.796 104.386 596.644 Q 104.235 596.491 104.489 596.655 Q 104.744 596.819 102.478 593.885 Q 100.212 590.950 96.935 589.229 Q 93.659 587.508 91.759 586.944 Q 89.859 586.380 87.664 585.958 Q 85.469 585.537 79.989 585.281 Q 74.510 585.025 70.751 585.287 Q 66.993 585.549 65.486 585.844 Q 63.979 586.138 59.876 587.659 Q 55.773 589.179 51.799 591.797 Q 47.826 594.415 45.651 595.896 Q 43.476 597.378 40.223 600.312 Q 36.969 603.245 34.340 606.090 Q 31.711 608.934 28.106 614.251 Q 24.500 619.568 21.596 626.056 Q 18.692 632.544 16.340 640.207 Q 16.167 639.184 16.142 639.278 Q 15.774 638.318 15.293 637.005 Q 14.811 635.693 13.757 631.819 Q 12.703 627.945 11.970 622.889 Q 11.985 622.775 12.925 627.715 Q 13.865 632.655 14.170 635.189 Q 14.474 637.722 15.437 640.944 Q 16.400 644.165 32.563 634.103 Q 32.744 633.660 31.040 634.965 "></path>
    <path id="STROKE_576be221-0b20-4cb8-8969-f57ce0a51819" opacity="1.000" fill="none" stroke="#f7f5ed" stroke-width="2.897" stroke-opacity="1.000" stroke-linecap="round" stroke-linejoin="round" d="M 215.050 672.254 Q 214.182 672.254 214.289 672.254 Q 212.900 672.254 213.395 672.254 Q 213.262 672.254 212.865 672.254 Q 213.013 673.561 241.735 652.880 Q 243.423 653.708 242.663 653.428 Q 241.904 653.149 247.923 657.301 Q 253.943 661.453 259.236 664.442 Q 264.529 667.432 269.810 670.861 Q 269.657 670.981 274.121 667.069 Q 278.585 663.157 281.951 660.254 Q 285.317 657.351 287.597 655.436 Q 289.878 653.521 291.728 652.008 Q 293.578 650.495 298.480 646.709 Q 298.496 646.647 298.017 647.174 "></path>
    <path id="STROKE_018ba355-ed75-401d-80d9-8d52cb9a5e3f" opacity="1.000" fill="none" stroke="#f7f5ed" stroke-width="2.897" stroke-opacity="1.000" stroke-linecap="round" stroke-linejoin="round" d="M 271.862 672.122 Q 271.862 670.994 271.862 671.359 Q 271.862 671.292 271.862 671.259 Q 271.973 671.891 271.200 695.544 Q 271.200 695.510 271.068 694.814 "></path>
    <path id="STROKE_f350bb3d-dee7-4c3e-9888-bc342af60f5e" opacity="1.000" fill="none" stroke="#f7f5ed" stroke-width="2.897" stroke-opacity="1.000" stroke-linecap="round" stroke-linejoin="round" d="M 264.976 710.008 Q 265.115 709.249 264.777 707.354 Q 264.704 707.035 264.875 709.687 Q 265.045 712.339 263.320 724.539 "></path>
    <path id="STROKE_0f4b2c28-b1d9-4996-8cc3-5f62a04fe409" opacity="1.000" fill="none" stroke="#f7f5ed" stroke-width="2.897" stroke-opacity="1.000" stroke-linecap="round" stroke-linejoin="round" d="M 265.307 708.482 Q 265.307 708.449 265.307 708.416 Q 264.727 707.254 266.974 711.596 Q 269.221 715.939 270.593 718.444 Q 271.965 720.949 273.036 722.565 Q 274.108 724.182 277.623 723.345 "></path>
    <path id="STROKE_d6f6d5f5-0f70-47d2-839c-f4f660e7de3a" opacity="1.000" fill="none" stroke="#f7f5ed" stroke-width="2.897" stroke-opacity="1.000" stroke-linecap="round" stroke-linejoin="round" d="M 278.881 712.065 Q 279.041 712.492 278.484 708.681 Q 278.473 709.885 278.437 715.198 Q 278.401 720.511 278.815 725.866 "></path>
    <path id="STROKE_45e70af0-da91-4a86-803f-75ed49b8fdb3" opacity="1.000" fill="none" stroke="#f7f5ed" stroke-width="2.897" stroke-opacity="1.000" stroke-linecap="round" stroke-linejoin="round" d="M 285.569 711.667 Q 285.569 712.107 285.569 710.340 Q 285.488 709.586 286.297 723.875 "></path>
    <path id="STROKE_3130b1ba-b884-40bd-81f4-b5c5314016e3" opacity="1.000" fill="none" stroke="#f7f5ed" stroke-width="2.897" stroke-opacity="1.000" stroke-linecap="round" stroke-linejoin="round" d="M 286.694 719.364 Q 286.694 717.868 286.694 718.368 Q 286.694 718.236 286.827 717.738 Q 287.804 717.682 287.787 717.705 Q 288.826 717.520 291.150 717.739 Q 293.474 717.958 295.377 717.427 Q 297.280 716.895 297.647 716.001 Q 298.015 715.107 298.149 713.681 Q 298.284 712.254 296.593 709.079 Q 296.560 709.079 296.461 709.112 Q 296.494 709.737 296.112 715.639 Q 295.730 721.542 297.951 728.852 "></path>
    <path id="STROKE_8b1115f2-cb72-4392-8f7a-d070875f84ad" opacity="1.000" fill="none" stroke="#f7f5ed" stroke-width="2.897" stroke-opacity="1.000" stroke-linecap="round" stroke-linejoin="round" d="M 305.698 726.861 Q 305.698 726.894 305.698 726.994 Q 305.665 726.994 305.632 726.994 Q 306.794 726.994 306.625 726.994 Q 308.100 726.882 307.850 726.928 Q 308.562 726.850 309.678 727.093 Q 310.794 727.336 310.868 727.981 Q 310.942 728.627 311.007 729.592 Q 311.073 730.557 310.375 731.525 Q 309.677 732.492 307.554 734.298 Q 305.430 736.105 302.652 737.146 Q 302.616 736.791 318.279 736.814 Q 318.080 736.781 317.881 736.748 "></path>
    <path id="STROKE_4e5123b0-ff75-4b78-80fc-732ea6959f8f" opacity="1.000" fill="none" stroke="#fac859" stroke-width="2.897" stroke-opacity="1.000" stroke-linecap="round" stroke-linejoin="round" d="M 108.379 691.297 Q 106.890 690.398 107.198 690.588 Q 107.506 690.779 106.922 690.302 Q 105.542 690.069 119.039 690.899 "></path>
    <path id="STROKE_41156e34-70e6-4422-85b7-5ada6f67a36c" opacity="1.000" fill="none" stroke="#fac859" stroke-width="2.897" stroke-opacity="1.000" stroke-linecap="round" stroke-linejoin="round" d="M 125.859 684.529 Q 125.863 684.695 125.860 684.576 Q 125.857 684.457 125.861 683.958 Q 125.865 683.460 125.793 683.070 Q 125.863 683.132 126.194 687.696 Q 126.526 692.259 126.530 695.267 Q 126.535 698.274 127.713 700.454 "></path>
    <path id="STROKE_fbe8ecac-03ea-4497-b28d-4f45259985e1" opacity="1.000" fill="none" stroke="#fac859" stroke-width="2.897" stroke-opacity="1.000" stroke-linecap="round" stroke-linejoin="round" d="M 128.839 693.686 Q 128.808 693.531 128.111 691.961 Q 128.548 692.247 130.888 692.804 Q 133.228 693.361 134.605 693.060 Q 135.982 692.759 136.727 692.993 Q 137.472 693.227 137.998 691.935 Q 138.524 690.642 138.763 689.189 Q 139.001 687.736 137.546 684.994 Q 137.513 684.994 137.447 684.994 Q 137.212 684.495 137.759 689.715 Q 138.306 694.934 140.691 700.719 "></path>
    <path id="STROKE_10f4f197-ef7b-426e-9b86-d7054d9f8fd3" opacity="1.000" fill="none" stroke="#fac859" stroke-width="2.897" stroke-opacity="1.000" stroke-linecap="round" stroke-linejoin="round" d="M 151.087 686.321 Q 147.465 683.582 148.162 684.207 Q 148.860 684.832 148.471 684.562 Q 147.757 685.371 146.619 688.076 Q 145.481 690.781 145.282 693.387 Q 145.082 695.993 145.654 697.740 Q 146.227 699.486 148.392 700.364 Q 150.558 701.242 153.353 701.220 Q 156.148 701.198 158.549 700.434 Q 160.951 699.670 162.782 698.404 Q 164.614 697.137 165.223 694.723 Q 165.833 692.309 165.444 689.451 Q 165.055 686.593 163.270 684.662 Q 163.273 685.455 163.237 685.425 Q 163.173 687.668 163.124 687.627 Q 163.075 687.586 162.993 690.876 Q 162.911 694.166 163.391 697.137 Q 163.872 700.109 164.991 703.379 Q 166.111 706.650 169.362 708.349 "></path>
    <path id="STROKE_05cf06a7-e476-4313-a83e-1c24622e30f1" opacity="1.000" fill="none" stroke="#ff5b53" stroke-width="2.897" stroke-opacity="1.000" stroke-linecap="round" stroke-linejoin="round" d="M -271.825 745.838 Q -271.968 745.465 -272.951 742.321 Q -272.753 741.930 -272.553 761.098 Q -272.559 759.625 -272.560 754.714 Q -272.561 749.803 -272.272 747.371 Q -271.982 744.939 -271.589 742.971 Q -271.196 741.002 -270.638 739.412 Q -270.081 737.821 -268.575 736.730 Q -267.070 735.638 -265.093 736.638 Q -263.116 737.638 -262.497 738.728 Q -261.878 739.818 -261.360 741.657 Q -260.841 743.496 -261.577 745.103 Q -262.312 746.710 -264.614 748.002 Q -266.916 749.294 -271.693 749.553 "></path>
    <path id="STROKE_bd9b7764-7895-4443-b43e-d0ea268f423a" opacity="1.000" fill="none" stroke="#ff5b53" stroke-width="2.897" stroke-opacity="1.000" stroke-linecap="round" stroke-linejoin="round" d="M 15.281 757.582 Q 15.540 757.212 13.725 754.729 Q 13.503 754.404 12.564 758.735 Q 11.625 763.067 11.609 765.578 Q 11.594 768.090 11.663 769.685 Q 11.732 771.281 13.770 772.326 Q 15.809 773.370 18.948 772.343 Q 22.087 771.317 24.339 768.634 Q 26.592 765.952 27.069 763.704 Q 27.546 761.456 27.549 759.909 Q 27.552 758.363 25.326 755.438 Q 23.100 752.514 16.870 750.615 Q 16.475 751.534 16.572 751.477 Q 16.516 753.207 16.539 752.804 Q 15.887 754.792 17.508 757.748 Q 19.130 760.703 21.880 762.766 Q 24.630 764.828 28.555 767.404 Q 32.479 769.979 38.390 774.169 Q 38.357 774.169 37.728 773.904 "></path>
    <path id="STROKE_c4a6ebad-836f-49af-a673-a10257db0206" opacity="1.000" fill="none" stroke="#ff5b53" stroke-width="2.897" stroke-opacity="1.000" stroke-linecap="round" stroke-linejoin="round" d="M 273.716 759.241 Q 273.716 758.237 273.716 758.278 Q 273.716 756.802 273.716 757.316 Q 273.716 757.184 273.716 756.985 Q 274.273 755.608 273.650 774.103 Q 273.617 774.103 273.584 774.103 Q 273.821 774.271 273.627 770.238 Q 273.434 766.206 274.478 762.622 Q 275.523 759.039 276.755 756.432 Q 277.987 753.824 279.545 753.027 Q 281.104 752.231 282.805 752.251 Q 284.506 752.271 285.705 753.048 Q 286.903 753.826 287.216 754.687 Q 287.529 755.547 287.375 757.137 Q 287.221 758.727 286.240 760.002 Q 285.259 761.278 282.438 763.018 Q 279.618 764.759 276.232 765.610 Q 275.003 764.729 295.633 776.890 Q 295.735 777.097 294.640 776.425 "></path>
    <path id="STROKE_6247f6bb-fb90-43e0-9831-611670348d6d" opacity="1.000" fill="none" stroke="#f7f5ed" stroke-width="2.897" stroke-opacity="1.000" stroke-linecap="round" stroke-linejoin="round" d="M 210.812 760.037 Q 210.812 760.004 210.812 759.539 Q 210.727 758.149 208.052 764.900 Q 205.376 771.652 203.108 776.417 Q 200.840 781.182 198.652 785.959 Q 196.464 790.736 193.138 797.982 Q 189.812 805.227 187.421 810.296 Q 185.029 815.364 183.387 818.613 Q 181.745 821.863 180.173 826.426 Q 178.600 830.989 177.663 833.120 Q 176.725 835.250 176.306 836.329 Q 175.887 837.409 174.659 837.833 Q 173.940 837.794 173.123 831.400 Q 172.306 825.007 173.103 817.828 Q 173.170 817.828 173.236 817.828 Q 173.468 817.632 173.975 822.280 Q 174.482 826.929 174.523 830.346 Q 174.563 833.763 174.330 836.096 Q 174.097 838.429 175.961 839.041 Q 177.825 839.653 191.544 833.355 Q 190.332 833.461 190.241 833.460 Q 190.151 833.458 190.319 833.554 Q 189.988 833.819 189.756 834.018 "></path>
    <path id="STROKE_3a5ff8de-e2fc-4453-a291-7d1b056d3a82" opacity="1.000" fill="none" stroke="#f7f5ed" stroke-width="2.897" stroke-opacity="1.000" stroke-linecap="round" stroke-linejoin="round" d="M 207.899 808.208 Q 207.945 808.725 207.833 805.885 Q 208.159 805.057 207.237 825.791 "></path>
    <path id="STROKE_5770e510-dc05-4a22-ad7e-5a717edbc44a" opacity="1.000" fill="none" stroke="#f7f5ed" stroke-width="2.897" stroke-opacity="1.000" stroke-linecap="round" stroke-linejoin="round" d="M 208.627 817.762 Q 208.627 817.729 208.627 817.364 Q 210.538 817.364 209.985 817.364 Q 211.787 817.334 214.045 817.122 Q 216.303 816.910 218.266 815.596 Q 220.228 814.282 218.659 808.539 Q 218.468 808.235 218.344 811.712 Q 218.221 815.190 218.048 819.635 Q 217.874 824.079 219.156 829.639 "></path>
    <path id="STROKE_1366231b-4de2-4633-a56d-aad96012e36c" opacity="1.000" fill="none" stroke="#f7f5ed" stroke-width="2.897" stroke-opacity="1.000" stroke-linecap="round" stroke-linejoin="round" d="M 223.989 827.582 Q 223.559 826.827 223.559 826.852 Q 223.165 825.214 223.327 825.791 Q 223.410 825.336 224.733 825.509 Q 226.056 825.683 226.850 826.675 Q 227.643 827.668 227.814 828.488 Q 227.986 829.308 228.237 830.684 Q 228.489 832.060 226.988 834.193 Q 225.487 836.325 222.959 837.877 Q 220.430 839.428 216.805 839.758 Q 216.698 839.020 216.684 838.961 Q 216.670 838.903 217.140 838.253 Q 217.610 837.603 218.053 837.197 Q 218.495 836.791 220.487 836.113 Q 222.478 835.435 224.350 835.984 Q 226.222 836.534 227.024 837.094 Q 227.826 837.653 228.264 837.880 Q 228.702 838.107 229.160 838.378 Q 229.618 838.650 229.992 838.847 Q 230.365 839.044 230.826 839.303 Q 231.286 839.562 233.458 840.454 "></path>
    <path id="STROKE_a79dfbab-0fe3-43d4-8d61-02f82f6401a3" opacity="1.000" fill="none" stroke="#f7f5ed" stroke-width="2.897" stroke-opacity="1.000" stroke-linecap="round" stroke-linejoin="round" d="M 235.246 818.293 Q 235.794 818.465 233.888 813.118 L 233.855 813.118 Q 233.756 813.657 233.239 817.637 Q 232.722 821.616 232.671 824.196 Q 232.620 826.775 233.376 828.738 Q 234.132 830.701 235.721 831.497 Q 237.309 832.293 238.892 832.245 Q 240.475 832.197 241.741 832.192 Q 243.007 832.187 245.068 830.874 Q 247.130 829.561 248.169 827.124 Q 249.208 824.687 249.450 821.866 Q 249.692 819.046 249.287 817.046 Q 248.882 815.046 247.878 813.310 Q 246.874 811.574 244.489 810.811 Q 242.103 810.048 239.849 809.962 Q 237.595 809.876 236.106 810.478 Q 234.616 811.080 234.120 813.847 "></path>
    <path id="STROKE_e149ecef-3f3a-4970-9db5-ffd29b7c5f4c" opacity="1.000" fill="none" stroke="#fac859" stroke-width="2.897" stroke-opacity="1.000" stroke-linecap="round" stroke-linejoin="round" d="M 234.385 799.317 Q 234.246 799.159 234.359 799.291 Q 234.471 799.423 234.456 799.403 Q 234.440 799.383 234.378 799.313 Q 234.316 799.243 234.425 799.377 Q 234.533 799.510 234.417 799.364 Q 234.301 799.218 233.791 798.565 Q 233.281 797.912 233.351 798.010 Q 233.420 798.107 233.402 798.158 Q 233.384 798.209 233.389 798.768 Q 233.395 799.326 233.398 799.075 Q 233.401 798.823 233.373 799.320 Q 233.344 799.817 233.524 801.174 Q 233.346 801.072 233.795 801.220 Q 234.245 801.369 234.904 801.117 Q 235.563 800.865 235.629 800.605 Q 235.696 800.346 235.893 800.047 Q 236.090 799.749 236.144 799.350 Q 236.198 798.950 236.234 798.350 Q 236.270 797.750 236.369 797.886 Q 236.468 798.023 235.963 797.763 Q 235.459 797.502 235.071 797.965 Q 234.684 798.428 233.988 799.648 "></path>
    <path id="STROKE_7210f147-6478-4733-a8a5-278245f1afef" opacity="1.000" fill="none" stroke="#fac859" stroke-width="2.897" stroke-opacity="1.000" stroke-linecap="round" stroke-linejoin="round" d="M 244.913 798.520 Q 244.435 797.564 244.516 797.724 Q 244.552 797.829 244.300 797.116 Q 244.049 796.402 244.076 796.476 Q 244.104 796.550 244.118 796.629 Q 244.118 796.563 244.118 796.530 Q 243.901 796.602 243.887 800.544 Q 244.676 800.599 244.648 800.577 Q 246.295 800.498 245.774 800.478 Q 246.880 800.036 246.932 796.663 Q 247.061 796.738 246.836 796.518 Q 246.611 796.299 244.714 797.127 "></path>
    <path id="STROKE_c86b86dc-b7c6-431a-b2bc-f50b49ec8d0c" opacity="1.000" fill="none" stroke="#f7f5ed" stroke-width="2.897" stroke-opacity="1.000" stroke-linecap="round" stroke-linejoin="round" d="M 64.478 880.530 Q 65.298 880.576 62.492 880.464 Q 63.852 880.195 94.407 863.180 Q 94.407 863.113 94.407 863.080 Q 94.756 863.080 93.811 863.080 Q 94.697 864.632 101.838 869.952 Q 108.978 875.273 125.330 883.914 Q 125.296 883.914 125.197 883.914 Q 125.066 883.719 125.034 883.743 Q 125.001 883.767 125.728 883.114 Q 126.455 882.460 131.280 878.223 Q 136.105 873.986 142.313 868.628 Q 148.521 863.271 154.199 857.905 Q 154.014 857.974 153.272 858.568 "></path>
    <path id="STROKE_1a20c247-78e8-4b87-8870-27b6b46d7556" opacity="1.000" fill="none" stroke="#f7f5ed" stroke-width="2.897" stroke-opacity="1.000" stroke-linecap="round" stroke-linejoin="round" d="M 124.535 884.113 Q 124.535 883.883 124.535 882.123 Q 124.872 882.343 124.932 907.933 Q 124.970 908.088 124.866 906.673 "></path>
    <path id="STROKE_0a7efe00-b33a-4cff-b4ea-7770b2b31e65" opacity="1.000" fill="none" stroke="#f7f5ed" stroke-width="2.897" stroke-opacity="1.000" stroke-linecap="round" stroke-linejoin="round" d="M 119.569 920.076 Q 119.939 920.045 117.218 918.417 Q 116.219 919.221 115.302 923.054 Q 114.385 926.887 114.249 929.103 Q 114.112 931.319 114.288 932.604 Q 114.464 933.890 116.077 935.015 Q 117.690 936.139 119.249 936.162 Q 120.808 936.186 121.974 935.872 Q 123.140 935.559 124.356 934.181 Q 125.571 932.804 126.298 931.382 Q 127.025 929.961 127.187 929.026 Q 127.350 928.092 127.519 927.555 Q 127.687 927.019 127.876 925.244 Q 128.065 923.469 127.013 920.827 Q 125.961 918.186 124.112 918.183 Q 122.264 918.181 121.536 918.047 Q 120.807 917.913 120.385 918.230 Q 119.962 918.547 119.507 919.839 Q 119.052 921.131 119.183 921.306 Q 119.314 921.481 119.237 921.533 Q 119.159 921.586 119.701 922.398 "></path>
    <path id="STROKE_686e0a0d-eab6-4a81-9c7d-50af17fda5ff" opacity="1.000" fill="none" stroke="#f7f5ed" stroke-width="2.897" stroke-opacity="1.000" stroke-linecap="round" stroke-linejoin="round" d="M 134.070 920.407 Q 133.972 920.254 133.751 919.672 Q 133.530 919.091 133.549 919.116 Q 133.568 919.141 133.553 919.101 Q 133.538 919.062 133.435 918.681 Q 133.333 918.300 133.357 918.383 Q 133.381 918.466 133.370 918.433 Q 133.358 918.401 133.341 918.218 Q 133.997 919.541 134.931 936.730 "></path>
    <path id="STROKE_9a8f51cc-a48c-4843-94fb-3f3bcd637821" opacity="1.000" fill="none" stroke="#f7f5ed" stroke-width="2.897" stroke-opacity="1.000" stroke-linecap="round" stroke-linejoin="round" d="M 136.586 927.573 Q 136.934 927.895 135.593 927.042 Q 136.376 927.943 138.677 928.460 Q 140.978 928.976 142.379 928.611 Q 143.781 928.246 144.999 927.310 Q 146.217 926.374 146.826 923.788 Q 147.436 921.202 146.286 918.085 Q 146.220 918.085 146.187 918.085 Q 146.022 919.795 146.219 925.695 Q 146.416 931.595 148.902 937.459 "></path>
  </g>
</svg>