<?xml version="1.0" encoding="UTF-8" standalone="no"?>
<!DOCTYPE svg PUBLIC "-//W3C//DTD SVG 1.1//EN" "http://www.w3.org/Graphics/SVG/1.1/DTD/svg11.dtd">
<svg xmlns="http://www.w3.org/2000/svg" version="1.1" viewBox="0.00 0.00 584.00 216.00">
<path fill="#ffffff" d="
  M 490.6038 29.9182
  A 23.62 22.05 -87.2 0 1 511.4737 54.5871
  A 23.62 22.05 -87.2 0 1 488.2962 77.1018
  A 23.62 22.05 -87.2 0 1 467.4263 52.4329
  A 23.62 22.05 -87.2 0 1 490.6038 29.9182
  Z
  M 475.03 53.66
  Q 475.08 56.95 475.42 59.77
  C 476.25 66.43 479.94 73.73 487.31 74.77
  C 497.17 76.15 502.88 68.69 503.79 59.78
  Q 504.10 56.70 504.06 53.29
  Q 504.01 49.87 503.62 46.80
  C 502.48 37.92 496.58 30.60 486.76 32.24
  C 479.42 33.47 475.92 40.87 475.27 47.55
  Q 474.99 50.37 475.03 53.66
  Z"
/>
<rect fill="#ffffff" x="-10.67" y="-1.45" transform="translate(524.32,34.51) rotate(0.1)" width="21.34" height="2.90" rx="0.66"/>
<path fill="#ffffff" d="
  M 365.13 37.97
  Q 365.62 37.97 365.84 37.98
  A 0.63 0.62 0.4 0 1 366.45 38.59
  L 366.45 53.53
  A 0.45 0.45 0.0 0 0 366.89 53.98
  L 382.17 54.02
  A 0.74 0.74 0.0 0 1 382.90 54.60
  Q 382.94 54.79 382.94 55.49
  Q 382.94 56.22 382.90 56.41
  A 0.74 0.74 0.0 0 1 382.17 56.99
  L 366.89 57.02
  A 0.45 0.45 0.0 0 0 366.45 57.47
  L 366.45 72.41
  A 0.63 0.62 -0.4 0 1 365.83 73.03
  Q 365.61 73.03 365.13 73.03
  Q 364.64 73.03 364.43 73.03
  A 0.63 0.62 0.4 0 1 363.81 72.41
  L 363.81 57.47
  A 0.45 0.45 0.0 0 0 363.37 57.02
  L 348.09 56.98
  A 0.74 0.74 0.0 0 1 347.37 56.41
  Q 347.32 56.21 347.32 55.48
  Q 347.32 54.79 347.37 54.59
  A 0.74 0.74 0.0 0 1 348.09 54.02
  L 363.37 53.98
  A 0.45 0.45 0.0 0 0 363.81 53.53
  L 363.82 38.59
  A 0.63 0.62 -0.4 0 1 364.43 37.98
  Q 364.65 37.97 365.13 37.97
  Z"
/>
<path fill="#ffffff" d="
  M 193.58 90.84
  Q 193.63 90.84 193.67 90.84
  A 0.21 0.01 -1.5 0 0 193.85 90.82
  Q 206.81 84.44 259.79 58.04
  Q 260.81 57.53 262.94 57.73
  A 2.05 1.96 60.3 0 1 263.61 57.93
  L 333.04 92.44
  A 0.22 0.22 0.0 0 1 333.14 92.74
  L 330.47 98.12
  A 0.25 0.24 -63.4 0 1 330.15 98.23
  L 262.33 64.52
  A 1.15 1.13 -44.4 0 0 261.32 64.52
  Q 218.72 85.66 193.75 98.22
  Q 193.67 98.25 193.58 98.25
  Q 193.49 98.25 193.41 98.22
  Q 168.45 85.66 125.85 64.52
  A 1.15 1.13 44.4 0 0 124.84 64.52
  L 57.02 98.23
  A 0.25 0.24 63.4 0 1 56.70 98.12
  L 54.03 92.74
  A 0.22 0.22 0.0 0 1 54.13 92.44
  L 123.56 57.93
  A 2.05 1.96 -60.3 0 1 124.23 57.73
  Q 126.36 57.53 127.38 58.04
  Q 180.36 84.44 193.32 90.82
  A 0.21 0.01 1.5 0 0 193.50 90.84
  Q 193.54 90.84 193.58 90.84
  Z"
/>
<rect fill="#ffffff" x="-39.14" y="-3.23" transform="translate(426.69,85.65) rotate(-26.4)" width="78.28" height="6.46" rx="0.57"/>
<rect fill="#ffffff" x="-39.19" y="-3.24" transform="translate(292.41,90.77) rotate(26.4)" width="78.38" height="6.48" rx="0.55"/>
<rect fill="#ffffff" x="-39.13" y="-3.23" transform="translate(153.41,91.21) rotate(26.4)" width="78.26" height="6.46" rx="0.52"/>
<path fill="#ffffff" d="
  M 350.82 96.31
  Q 350.87 100.35 350.85 125.07
  Q 350.85 130.74 356.90 129.96
  A 0.33 0.33 0.0 0 1 357.27 130.22
  L 357.33 130.51
  A 0.41 0.41 0.0 0 1 356.93 130.99
  L 341.79 130.99
  A 0.29 0.29 0.0 0 1 341.50 130.70
  L 341.50 130.40
  A 0.10 0.08 -89.3 0 1 341.57 130.32
  L 345.69 129.50
  A 2.94 2.93 84.4 0 0 348.05 126.62
  L 348.05 92.33
  A 0.93 0.90 29.2 0 0 347.90 91.83
  Q 344.95 87.26 339.69 86.92
  A 0.45 0.44 -88.0 0 1 339.27 86.46
  L 339.27 86.45
  A 0.45 0.45 0.0 0 1 339.72 86.00
  L 350.39 86.00
  A 1.20 1.18 70.0 0 1 351.31 86.44
  L 378.42 119.39
  A 0.22 0.22 0.0 0 0 378.81 119.25
  L 378.81 89.87
  A 1.72 1.71 -69.3 0 0 378.24 88.59
  Q 376.11 86.68 373.04 86.99
  A 0.44 0.44 0.0 0 1 372.56 86.55
  L 372.56 86.29
  A 0.29 0.29 0.0 0 1 372.85 86.00
  L 387.78 86.00
  A 0.41 0.40 -90.0 0 1 388.18 86.41
  L 388.18 86.68
  A 0.25 0.24 -88.9 0 1 387.93 86.93
  C 385.07 86.88 381.81 87.25 381.86 91.00
  Q 382.15 113.78 381.80 130.94
  A 0.72 0.72 0.0 0 1 380.53 131.38
  L 351.47 96.07
  A 0.37 0.37 0.0 0 0 350.82 96.31
  Z"
/>
<path fill="#ffffff" d="
  M 25.37 114.48
  Q 25.37 113.79 25.42 113.60
  A 0.74 0.74 0.0 0 1 26.14 113.02
  L 41.37 112.98
  A 0.45 0.45 0.0 0 0 41.81 112.54
  L 41.81 97.64
  A 0.62 0.62 0.0 0 1 42.43 97.03
  Q 42.64 97.02 43.13 97.02
  Q 43.61 97.02 43.83 97.03
  A 0.62 0.62 0.0 0 1 44.44 97.64
  L 44.45 112.54
  A 0.45 0.45 0.0 0 0 44.89 112.98
  L 60.12 113.02
  A 0.74 0.74 0.0 0 1 60.84 113.59
  Q 60.89 113.79 60.89 114.48
  Q 60.89 115.21 60.84 115.40
  A 0.74 0.74 0.0 0 1 60.12 115.97
  L 44.89 116.01
  A 0.45 0.45 0.0 0 0 44.45 116.46
  L 44.45 131.35
  A 0.62 0.62 0.0 0 1 43.83 131.97
  Q 43.62 131.97 43.13 131.97
  Q 42.65 131.97 42.43 131.97
  A 0.62 0.62 0.0 0 1 41.82 131.35
  L 41.81 116.46
  A 0.45 0.45 0.0 0 0 41.37 116.01
  L 26.14 115.98
  A 0.74 0.74 0.0 0 1 25.42 115.40
  Q 25.37 115.21 25.37 114.48
  Z"
/>
<rect fill="#ffffff" x="-39.19" y="-3.23" transform="translate(426.70,132.45) rotate(26.5)" width="78.38" height="6.46" rx="0.52"/>
<path fill="#ffffff" d="
  M 490.5019 139.9243
  A 23.63 22.01 -87.4 0 1 511.4173 164.5284
  A 23.63 22.01 -87.4 0 1 488.3581 187.1357
  A 23.63 22.01 -87.4 0 1 467.4427 162.5316
  A 23.63 22.01 -87.4 0 1 490.5019 139.9243
  Z
  M 474.99 163.63
  Q 475.04 166.93 475.38 169.75
  C 476.21 176.42 479.91 183.73 487.29 184.77
  C 497.17 186.15 502.88 178.67 503.79 169.75
  Q 504.10 166.67 504.06 163.25
  Q 504.01 159.83 503.61 156.75
  C 502.47 147.86 496.57 140.54 486.73 142.18
  C 479.38 143.42 475.87 150.82 475.22 157.51
  Q 474.95 160.34 474.99 163.63
  Z"
/>
<rect fill="#ffffff" x="-10.67" y="-1.46" transform="translate(524.32,144.49) rotate(-0.1)" width="21.34" height="2.92" rx="0.67"/>
</svg>
