<?xml version="1.0" encoding="UTF-8" standalone="no"?>
<!DOCTYPE svg PUBLIC "-//W3C//DTD SVG 1.1//EN" "http://www.w3.org/Graphics/SVG/1.1/DTD/svg11.dtd">
<svg xmlns="http://www.w3.org/2000/svg" version="1.1" viewBox="0.00 0.00 585.00 546.00">
<path fill="#ffffff" d="
  M 428.53 221.53
  L 439.17 203.37
  A 2.42 2.42 0.0 0 1 442.44 202.48
  L 442.57 202.55
  A 2.37 2.36 29.2 0 1 443.50 205.82
  Q 434.68 220.93 429.07 230.32
  Q 428.00 232.13 428.00 234.50
  Q 428.02 415.76 427.98 437.00
  A 0.51 0.51 0.0 0 0 428.49 437.51
  L 560.93 437.51
  A 0.26 0.26 0.0 0 0 561.15 437.11
  L 554.13 426.59
  A 0.30 0.30 0.0 0 1 554.52 426.16
  L 581.36 439.39
  A 0.45 0.45 0.0 0 1 581.36 440.20
  L 554.27 453.58
  A 0.32 0.32 0.0 0 1 553.87 453.10
  L 561.11 442.87
  A 0.40 0.40 0.0 0 0 560.78 442.24
  L 154.69 442.24
  A 2.19 2.18 -0.0 0 1 152.50 440.06
  L 152.50 24.55
  A 0.25 0.24 73.5 0 0 152.12 24.34
  L 141.62 31.35
  A 0.27 0.27 0.0 0 1 141.23 31.01
  L 154.45 4.19
  A 0.52 0.52 0.0 0 1 155.39 4.19
  L 168.68 31.10
  A 0.33 0.33 0.0 0 1 168.19 31.51
  L 158.06 24.34
  A 0.51 0.51 0.0 0 0 157.25 24.75
  L 157.25 44.37
  A 0.64 0.63 -90.0 0 0 157.88 45.01
  L 162.63 45.01
  A 0.36 0.36 0.0 0 1 162.99 45.37
  L 162.99 50.63
  A 0.37 0.36 -90.0 0 1 162.63 51.00
  L 157.83 51.00
  A 0.58 0.58 0.0 0 0 157.25 51.58
  L 157.25 437.11
  A 0.40 0.40 0.0 0 0 157.65 437.51
  L 421.47 437.51
  A 0.53 0.53 0.0 0 0 422.00 436.98
  Q 422.00 238.62 422.00 234.75
  Q 421.99 231.60 421.21 230.30
  Q 419.88 228.07 406.81 205.78
  A 2.30 2.30 0.0 0 1 407.73 202.57
  L 407.85 202.50
  A 2.50 2.50 0.0 0 1 411.19 203.44
  L 421.51 221.09
  A 0.26 0.26 0.0 0 0 422.00 220.96
  L 422.00 51.95
  A 1.01 1.01 0.0 0 0 420.99 50.94
  L 417.70 50.94
  A 0.76 0.75 0.0 0 1 416.94 50.19
  L 416.94 45.95
  A 0.87 0.87 0.0 0 1 417.81 45.08
  L 421.22 45.08
  A 0.76 0.76 0.0 0 1 421.98 45.84
  L 421.98 48.71
  A 1.34 1.34 0.0 0 0 423.32 50.05
  L 424.88 50.05
  A 1.11 1.10 0.0 0 0 425.99 48.95
  L 425.99 45.73
  A 0.76 0.76 0.0 0 1 427.09 45.05
  L 427.39 45.20
  A 1.09 1.09 0.0 0 1 428.00 46.18
  L 428.00 221.39
  A 0.28 0.28 0.0 0 0 428.53 221.53
  Z"
/>
<rect fill="#ffffff" x="-3.00" y="-3.00" transform="translate(169.00,48.01) rotate(0.3)" width="6.00" height="6.00" rx="0.75"/>
<rect fill="#ffffff" x="-2.52" y="-2.98" transform="translate(178.51,48.01) rotate(0.6)" width="5.04" height="5.96" rx="0.94"/>
<rect fill="#ffffff" x="-3.03" y="-2.95" transform="translate(187.99,48.01) rotate(-0.1)" width="6.06" height="5.90" rx="0.90"/>
<rect fill="#ffffff" x="-3.01" y="-2.98" transform="translate(197.01,48.01) rotate(0.3)" width="6.02" height="5.96" rx="0.91"/>
<rect fill="#ffffff" x="-2.51" y="-2.97" transform="translate(206.50,48.02) rotate(0.7)" width="5.02" height="5.94" rx="0.98"/>
<rect fill="#ffffff" x="-2.53" y="-2.96" transform="translate(215.48,48.01) rotate(0.1)" width="5.06" height="5.92" rx="0.97"/>
<rect fill="#ffffff" x="-2.99" y="-2.99" transform="translate(225.02,48.02) rotate(-0.6)" width="5.98" height="5.98" rx="0.90"/>
<rect fill="#ffffff" x="-3.01" y="-2.98" transform="translate(234.00,48.01) rotate(0.3)" width="6.02" height="5.96" rx="0.90"/>
<rect fill="#ffffff" x="-2.52" y="-2.96" transform="translate(243.49,48.01) rotate(0.5)" width="5.04" height="5.92" rx="0.93"/>
<rect fill="#ffffff" x="-2.51" y="-2.98" transform="translate(252.52,48.01) rotate(0.4)" width="5.02" height="5.96" rx="0.94"/>
<rect fill="#ffffff" x="258.95" y="45.05" width="6.06" height="5.92" rx="0.90"/>
<rect fill="#ffffff" x="-3.01" y="-2.97" transform="translate(271.00,48.01) rotate(0.4)" width="6.02" height="5.94" rx="0.89"/>
<rect fill="#ffffff" x="-2.52" y="-2.97" transform="translate(280.52,48.02) rotate(0.4)" width="5.04" height="5.94" rx="0.95"/>
<rect fill="#ffffff" x="-3.03" y="-2.96" transform="translate(289.98,48.01) rotate(-0.2)" width="6.06" height="5.92" rx="0.92"/>
<rect fill="#ffffff" x="-2.99" y="-2.99" transform="translate(298.99,48.02) rotate(-0.5)" width="5.98" height="5.98" rx="0.90"/>
<rect fill="#ffffff" x="-3.02" y="-2.98" transform="translate(308.01,48.02) rotate(0.4)" width="6.04" height="5.96" rx="0.91"/>
<rect fill="#ffffff" x="-2.54" y="-2.98" transform="translate(317.49,48.02) rotate(0.1)" width="5.08" height="5.96" rx="0.96"/>
<rect fill="#ffffff" x="-2.99" y="-2.99" transform="translate(327.00,48.02) rotate(-0.6)" width="5.98" height="5.98" rx="0.91"/>
<rect fill="#ffffff" x="-3.01" y="-2.97" transform="translate(336.00,48.02) rotate(0.4)" width="6.02" height="5.94" rx="0.92"/>
<rect fill="#ffffff" x="-3.02" y="-2.98" transform="translate(345.01,48.01) rotate(0.3)" width="6.04" height="5.96" rx="0.93"/>
<rect fill="#ffffff" x="-2.52" y="-2.98" transform="translate(354.50,48.02) rotate(0.7)" width="5.04" height="5.96" rx="1.01"/>
<rect fill="#ffffff" x="-3.03" y="-2.96" transform="translate(363.99,48.01) rotate(-0.1)" width="6.06" height="5.92" rx="0.93"/>
<rect fill="#ffffff" x="-3.02" y="-2.98" transform="translate(373.01,48.01) rotate(0.3)" width="6.04" height="5.96" rx="0.92"/>
<rect fill="#ffffff" x="-2.51" y="-2.97" transform="translate(382.50,48.02) rotate(0.6)" width="5.02" height="5.94" rx="0.97"/>
<rect fill="#ffffff" x="388.95" y="45.05" width="5.06" height="5.92" rx="0.97"/>
<rect fill="#ffffff" x="-2.99" y="-2.99" transform="translate(401.02,48.02) rotate(-0.6)" width="5.98" height="5.98" rx="0.88"/>
<rect fill="#ffffff" x="-3.00" y="-2.98" transform="translate(410.01,48.01) rotate(0.3)" width="6.00" height="5.96" rx="0.90"/>
<path fill="#ffffff" d="
  M 87.74 142.91
  Q 95.09 143.30 99.09 142.82
  Q 100.93 142.60 102.33 140.71
  A 0.40 0.40 0.0 0 1 103.04 141.07
  L 101.33 146.59
  A 0.60 0.60 0.0 0 1 100.76 147.01
  L 81.54 147.01
  A 0.58 0.58 0.0 0 1 81.15 146.01
  C 86.72 140.86 91.90 135.98 95.37 130.16
  C 96.94 127.52 98.49 122.24 96.01 119.68
  Q 91.22 114.72 85.71 118.69
  C 84.23 119.76 83.79 121.85 82.69 122.80
  A 0.36 0.36 0.0 0 1 82.10 122.47
  Q 82.69 119.03 84.70 116.45
  C 89.12 110.79 97.76 112.31 100.81 118.58
  A 2.00 1.96 -58.5 0 1 101.01 119.45
  L 101.01 124.58
  A 0.98 0.81 -39.7 0 1 100.95 124.90
  C 98.32 131.45 93.63 135.80 87.45 142.16
  A 0.44 0.44 0.0 0 0 87.74 142.91
  Z"
/>
<path fill="#ffffff" d="
  M 142.17 130.07
  Q 142.16 133.41 141.56 136.88
  Q 140.96 140.27 139.41 142.36
  C 135.40 147.77 129.33 149.03 124.91 143.14
  C 122.17 139.49 121.16 134.61 121.17 130.01
  C 121.18 125.40 122.23 120.54 124.99 116.90
  C 129.44 111.03 135.50 112.33 139.48 117.76
  Q 141.02 119.86 141.59 123.25
  Q 142.18 126.73 142.17 130.07
  Z
  M 125.77 129.97
  Q 125.78 145.07 131.94 145.06
  Q 138.07 145.06 138.06 129.97
  Q 138.05 114.87 131.90 114.88
  Q 125.76 114.88 125.77 129.97
  Z"
/>
<path fill="#ffffff" d="
  M 51.03 212.70
  Q 49.35 212.70 49.05 212.69
  A 0.46 0.45 0.8 0 1 48.61 212.24
  L 48.52 153.49
  A 0.38 0.38 0.0 0 0 47.92 153.18
  L 37.70 160.45
  A 0.35 0.35 0.0 0 1 37.19 160.00
  Q 47.70 138.85 50.61 132.99
  C 50.64 132.94 50.91 132.85 50.93 132.85
  C 50.96 132.85 51.22 132.94 51.25 132.99
  Q 54.18 138.84 64.74 159.97
  A 0.35 0.35 0.0 0 1 64.23 160.41
  L 53.99 153.18
  A 0.38 0.38 0.0 0 0 53.40 153.49
  L 53.45 212.23
  A 0.46 0.45 -1.0 0 1 53.01 212.69
  Q 52.71 212.70 51.03 212.70
  Z"
/>
<ellipse fill="#ffffff" cx="0.00" cy="0.00" transform="translate(112.44,146.00) rotate(-180.0)" rx="2.71" ry="2.00"/>
<path fill="#ffffff" d="
  M 38.13 236.25
  C 41.82 230.71 48.62 230.42 52.02 236.50
  Q 54.55 241.01 53.39 246.59
  C 51.95 253.49 44.70 259.47 38.39 253.98
  A 0.31 0.31 0.0 0 0 37.88 254.21
  L 37.88 262.95
  A 1.42 1.20 40.3 0 0 37.95 263.37
  Q 38.58 265.14 41.40 265.06
  A 0.45 0.45 0.0 0 1 41.86 265.54
  L 41.86 265.56
  A 0.48 0.48 0.0 0 1 41.38 266.02
  L 30.41 266.01
  A 0.33 0.32 90.0 0 1 30.09 265.68
  L 30.09 265.42
  A 0.38 0.38 0.0 0 1 30.49 265.04
  Q 33.88 265.17 33.89 262.18
  Q 33.91 250.31 33.89 237.42
  A 1.77 1.72 27.5 0 0 33.57 236.45
  Q 32.56 235.06 30.65 235.83
  A 0.40 0.40 0.0 0 1 30.10 235.46
  L 30.10 235.20
  A 0.39 0.39 0.0 0 1 30.34 234.84
  L 36.97 232.02
  A 0.63 0.62 78.7 0 1 37.83 232.60
  L 37.83 236.16
  A 0.16 0.16 0.0 0 0 38.13 236.25
  Z
  M 37.95 244.60
  Q 37.97 248.61 38.12 250.54
  A 1.63 1.61 23.1 0 0 38.48 251.43
  C 41.90 255.55 46.19 254.74 48.54 250.44
  C 49.53 248.63 49.77 246.69 49.76 244.55
  C 49.75 242.41 49.50 240.48 48.49 238.67
  C 46.10 234.39 41.80 233.62 38.42 237.77
  A 1.63 1.61 -23.6 0 0 38.06 238.66
  Q 37.93 240.59 37.95 244.60
  Z"
/>
<rect fill="#ffffff" x="2.94" y="271.00" width="83.04" height="6.00" rx="0.76"/>
<path fill="#ffffff" d="
  M 13.07 300.26
  A 0.25 0.24 -22.7 0 0 13.49 300.43
  C 22.73 291.17 30.92 302.83 28.48 311.76
  Q 26.82 317.86 20.74 320.31
  Q 15.43 322.46 9.49 318.27
  A 1.22 1.20 -72.6 0 1 8.98 317.28
  L 8.90 289.41
  A 0.60 0.58 -60.0 0 0 8.83 289.13
  Q 7.61 286.69 5.85 287.80
  A 0.57 0.57 0.0 0 1 5.02 287.54
  L 5.01 287.29
  A 0.55 0.54 78.4 0 1 5.35 286.77
  L 11.75 284.05
  A 0.95 0.95 0.0 0 1 13.07 284.92
  L 13.07 300.26
  Z
  M 13.08 309.55
  Q 13.11 315.79 13.13 316.23
  A 1.03 1.02 -69.6 0 0 13.45 316.95
  Q 17.62 320.89 21.63 317.63
  A 2.34 2.33 -8.6 0 0 22.28 316.76
  C 23.34 314.22 23.89 313.11 23.87 309.50
  C 23.86 305.89 23.29 304.78 22.21 302.26
  A 2.34 2.33 8.0 0 0 21.55 301.39
  Q 17.51 298.17 13.38 302.15
  A 1.03 1.02 69.0 0 0 13.06 302.87
  Q 13.05 303.32 13.08 309.55
  Z"
/>
<path fill="#ffffff" d="
  M 31.89 317.01
  Q 31.09 311.42 36.18 308.68
  Q 39.61 306.84 44.02 305.21
  A 0.79 0.78 82.5 0 0 44.54 304.53
  Q 44.88 299.49 41.03 299.00
  C 38.32 298.66 36.38 300.04 36.96 303.07
  A 1.08 1.07 -29.2 0 1 36.69 304.00
  Q 35.50 305.29 34.43 305.00
  A 2.59 2.18 -78.8 0 1 32.88 302.20
  C 33.78 296.14 45.10 295.14 47.93 299.97
  A 1.91 1.88 29.9 0 1 48.18 300.87
  Q 48.21 302.13 48.13 314.26
  Q 48.11 316.08 48.91 317.54
  A 0.85 0.83 71.3 0 0 49.74 317.96
  Q 50.95 317.80 51.91 316.67
  A 0.39 0.38 -57.1 0 1 52.36 316.57
  L 52.69 316.74
  A 0.13 0.12 27.5 0 1 52.75 316.91
  C 51.69 318.75 47.95 322.51 45.66 320.44
  Q 44.65 319.54 44.62 317.59
  A 0.31 0.31 0.0 0 0 44.12 317.35
  C 41.91 319.06 40.57 320.45 38.53 320.88
  Q 33.86 321.86 32.28 317.07
  A 0.07 0.06 -19.7 0 0 32.19 317.03
  Q 32.09 317.06 31.98 317.11
  A 0.11 0.06 77.7 0 1 31.89 317.01
  Z
  M 44.69 315.10
  L 44.69 307.80
  A 0.58 0.58 0.0 0 0 43.93 307.25
  C 40.88 308.23 35.48 310.46 36.13 314.53
  C 36.60 317.45 38.77 318.78 41.52 317.51
  Q 41.92 317.32 44.31 315.80
  A 0.84 0.81 74.3 0 0 44.69 315.10
  Z"
/>
<path fill="#ffffff" d="
  M 61.32 300.34
  A 0.23 0.22 63.9 0 0 61.72 300.48
  C 63.40 298.26 66.38 295.89 69.06 297.47
  A 1.85 1.84 30.8 0 1 69.71 300.02
  L 69.59 300.23
  A 1.79 1.79 0.0 0 1 67.15 300.84
  Q 63.57 298.71 61.38 303.05
  A 2.10 2.06 -32.7 0 0 61.16 304.02
  Q 61.20 306.48 61.12 314.84
  Q 61.08 318.91 65.06 319.13
  A 0.35 0.35 0.0 0 1 65.39 319.48
  L 65.39 319.76
  A 0.24 0.24 0.0 0 1 65.15 320.00
  L 53.88 320.00
  A 0.27 0.27 0.0 0 1 53.63 319.83
  L 53.49 319.50
  A 0.28 0.27 -15.3 0 1 53.71 319.12
  Q 55.54 318.87 56.39 318.37
  A 1.01 1.01 0.0 0 0 56.89 317.48
  L 56.82 302.00
  A 1.55 1.53 -71.1 0 0 56.24 300.79
  Q 55.53 300.21 53.93 300.76
  A 0.47 0.47 0.0 0 1 53.34 300.50
  L 53.23 300.26
  A 0.21 0.20 69.3 0 1 53.34 300.00
  L 60.43 296.99
  A 0.64 0.64 0.0 0 1 61.32 297.58
  L 61.32 300.34
  Z"
/>
<path fill="#ffffff" d="
  M 72.90 470.45
  C 72.91 479.34 74.37 487.65 81.74 492.98
  A 0.42 0.41 -55.8 0 1 81.84 493.54
  L 81.84 493.55
  A 0.40 0.40 0.0 0 1 81.32 493.69
  C 72.73 489.08 68.10 480.02 68.09 470.46
  C 68.08 460.90 72.69 451.83 81.26 447.20
  A 0.40 0.40 0.0 0 1 81.79 447.34
  L 81.79 447.35
  A 0.42 0.41 55.6 0 1 81.69 447.90
  C 74.34 453.25 72.89 461.57 72.90 470.45
  Z"
/>
<path fill="#ffffff" d="
  M 149.76 493.71
  A 0.42 0.41 -29.7 0 1 149.23 493.57
  L 149.06 493.32
  A 0.14 0.14 0.0 0 1 149.10 493.12
  Q 153.32 490.39 155.12 487.04
  C 156.49 484.50 157.78 480.23 157.93 476.81
  Q 158.23 469.71 157.74 463.39
  A 5.60 4.83 -59.2 0 0 157.60 462.59
  Q 157.03 460.37 156.94 458.52
  A 2.76 2.73 33.3 0 0 156.75 457.63
  Q 154.40 451.62 149.36 448.07
  A 0.44 0.44 0.0 0 1 149.24 447.48
  L 149.25 447.47
  A 0.47 0.47 0.0 0 1 149.87 447.31
  Q 158.63 452.32 161.66 462.13
  C 165.25 473.80 161.10 487.94 149.76 493.71
  Z"
/>
<path fill="#ffffff" d="
  M 97.0579 448.9917
  A 17.04 11.01 -89.2 0 1 107.8289 466.1837
  A 17.04 11.01 -89.2 0 1 96.5821 483.0683
  A 17.04 11.01 -89.2 0 1 85.8111 465.8763
  A 17.04 11.01 -89.2 0 1 97.0579 448.9917
  Z
  M 90.82 465.92
  Q 90.73 480.90 96.84 480.93
  Q 102.93 480.97 103.01 465.99
  Q 103.10 451.02 97.00 450.98
  Q 90.91 450.95 90.82 465.92
  Z"
/>
<path fill="#ffffff" d="
  M 126.50 477.31
  Q 125.36 476.16 125.27 475.27
  Q 124.88 471.66 124.17 469.79
  A 2.31 2.03 -62.0 0 1 124.03 469.20
  C 123.49 463.21 124.82 454.21 130.26 450.54
  C 136.35 446.43 141.37 451.00 143.98 456.32
  Q 144.93 458.25 145.08 461.35
  Q 145.51 470.39 144.57 474.43
  Q 143.63 478.44 138.92 481.66
  Q 134.63 484.59 129.73 481.29
  Q 128.92 480.76 127.05 477.98
  A 4.53 4.24 7.5 0 0 126.50 477.31
  Z
  M 128.85 466.03
  Q 128.79 481.02 134.90 481.05
  Q 140.99 481.07 141.06 466.08
  Q 141.13 451.09 135.02 451.07
  Q 128.92 451.04 128.85 466.03
  Z"
/>
<path fill="#ffffff" d="
  M 402.46 484.15
  A 0.44 0.44 0.0 0 0 402.76 484.89
  Q 410.10 485.27 414.09 484.78
  Q 415.93 484.56 417.32 482.67
  A 0.40 0.40 0.0 0 1 418.03 483.02
  L 416.33 488.54
  A 0.60 0.60 0.0 0 1 415.77 488.96
  L 396.57 489.00
  A 0.58 0.57 23.6 0 1 396.18 488.00
  C 401.73 482.85 406.90 477.96 410.35 472.15
  C 411.91 469.51 413.45 464.23 410.97 461.68
  Q 406.17 456.74 400.68 460.71
  C 399.20 461.78 398.77 463.87 397.67 464.82
  A 0.36 0.36 0.0 0 1 397.08 464.49
  Q 397.66 461.06 399.66 458.48
  C 404.07 452.82 412.70 454.32 415.76 460.57
  A 2.00 1.96 -58.6 0 1 415.96 461.44
  L 415.97 466.56
  A 0.98 0.81 -39.8 0 1 415.91 466.88
  C 413.30 473.43 408.62 477.78 402.46 484.15
  Z"
/>
<path fill="#ffffff" d="
  M 428.44 484.16
  A 0.44 0.44 0.0 0 0 428.73 484.91
  Q 436.07 485.29 440.07 484.81
  Q 441.91 484.59 443.31 482.70
  A 0.40 0.40 0.0 0 1 444.02 483.06
  L 442.31 488.58
  A 0.60 0.60 0.0 0 1 441.74 489.00
  L 422.54 489.01
  A 0.58 0.58 0.0 0 1 422.15 488.01
  C 427.71 482.86 432.88 477.98 436.35 472.16
  C 437.91 469.52 439.46 464.25 436.98 461.69
  Q 432.19 456.74 426.69 460.71
  C 425.21 461.78 424.77 463.87 423.67 464.82
  A 0.36 0.36 0.0 0 1 423.08 464.49
  Q 423.67 461.05 425.68 458.47
  C 430.09 452.81 438.72 454.33 441.77 460.59
  A 2.00 1.96 -58.5 0 1 441.98 461.46
  L 441.98 466.58
  A 0.98 0.81 -39.7 0 1 441.92 466.90
  C 439.29 473.45 434.61 477.80 428.44 484.16
  Z"
/>
<path fill="#ffffff" d="
  M 473.57 480.00
  L 460.34 480.00
  A 0.47 0.47 0.0 0 1 459.87 479.52
  Q 459.94 477.36 460.53 476.49
  Q 469.42 463.57 475.11 455.66
  Q 475.93 454.52 477.68 455.06
  A 0.68 0.68 0.0 0 1 478.16 455.71
  L 478.16 476.45
  A 0.55 0.55 0.0 0 0 478.71 477.00
  L 482.29 477.00
  A 0.57 0.57 0.0 0 1 482.86 477.57
  L 482.86 479.40
  A 0.61 0.61 0.0 0 1 482.25 480.01
  L 478.77 480.01
  A 0.62 0.62 0.0 0 0 478.15 480.63
  L 478.15 488.65
  A 0.34 0.33 -90.0 0 1 477.82 488.99
  L 474.44 488.99
  A 0.30 0.30 0.0 0 1 474.14 488.69
  L 474.14 480.57
  A 0.57 0.57 0.0 0 0 473.57 480.00
  Z
  M 473.54 461.01
  L 462.56 476.52
  A 0.31 0.30 17.6 0 0 462.81 477.00
  L 473.34 477.00
  A 0.64 0.64 0.0 0 0 473.98 476.36
  L 473.98 461.15
  A 0.24 0.24 0.0 0 0 473.54 461.01
  Z"
/>
<path fill="#ffffff" d="
  M 111.91 490.89
  Q 116.83 489.17 117.19 484.35
  A 0.75 0.75 0.0 0 0 116.14 483.61
  Q 113.76 484.68 112.08 483.12
  A 1.77 1.37 -41.8 0 1 112.52 480.76
  Q 114.23 479.40 116.10 480.18
  Q 119.78 481.71 119.11 485.92
  A 3.02 2.91 63.6 0 1 118.83 486.81
  Q 116.89 490.71 112.11 491.84
  A 0.35 0.35 0.0 0 1 111.70 491.60
  L 111.65 491.41
  A 0.42 0.41 72.0 0 1 111.91 490.89
  Z"
/>
<ellipse fill="#ffffff" cx="0.00" cy="0.00" transform="translate(453.44,488.01) rotate(-0.2)" rx="2.70" ry="1.99"/>
<path fill="#ffffff" d="
  M 540.79 516.10
  C 540.79 516.12 540.70 516.39 540.65 516.42
  Q 534.76 519.36 513.50 529.97
  A 0.36 0.35 4.2 0 1 513.05 529.45
  L 520.34 519.16
  A 0.38 0.38 0.0 0 0 520.03 518.56
  L 460.92 518.56
  A 0.46 0.45 89.1 0 1 460.47 518.12
  Q 460.45 517.81 460.45 516.12
  Q 460.45 514.44 460.46 514.13
  A 0.46 0.45 -89.1 0 1 460.92 513.69
  L 520.03 513.65
  A 0.38 0.38 0.0 0 0 520.34 513.05
  L 513.04 502.76
  A 0.36 0.35 -4.3 0 1 513.49 502.24
  Q 534.76 512.84 540.65 515.78
  C 540.70 515.80 540.79 516.07 540.79 516.10
  Z"
/>
<path fill="#ffffff" d="
  M 400.72 507.05
  L 402.62 507.05
  A 0.49 0.49 0.0 0 1 403.08 507.68
  L 392.26 542.69
  A 0.49 0.49 0.0 0 1 391.79 543.04
  L 389.90 543.04
  A 0.49 0.49 0.0 0 1 389.44 542.41
  L 400.25 507.40
  A 0.49 0.49 0.0 0 1 400.72 507.05
  Z"
/>
<path fill="#ffffff" d="
  M 372.63 539.46
  Q 372.22 541.21 371.62 542.54
  A 0.71 0.71 0.0 0 1 370.32 542.52
  Q 366.56 533.61 363.71 526.92
  Q 360.64 519.72 357.31 512.38
  Q 355.95 509.39 352.75 508.80
  A 0.40 0.40 0.0 0 1 352.82 508.01
  L 366.02 508.01
  A 0.33 0.33 0.0 0 1 366.15 508.65
  L 363.83 509.64
  A 2.36 2.36 0.0 0 0 362.58 512.73
  L 371.89 534.68
  A 0.45 0.45 0.0 0 0 372.72 534.67
  L 381.50 512.54
  A 2.15 2.13 -59.6 0 0 380.87 510.08
  Q 380.13 509.48 378.07 508.88
  A 0.45 0.44 -36.8 0 1 378.20 508.01
  L 387.81 508.01
  A 0.46 0.46 0.0 0 1 387.95 508.91
  C 385.37 509.73 384.14 511.22 383.12 513.79
  Q 375.15 533.91 372.68 539.31
  A 1.07 0.66 76.7 0 0 372.63 539.46
  Z"
/>
<path fill="#ffffff" d="
  M 433.44 532.13
  L 433.73 532.22
  A 0.38 0.38 0.0 0 1 433.98 532.69
  L 431.26 541.49
  A 0.74 0.73 -81.4 0 1 430.56 542.01
  L 405.26 542.01
  A 0.23 0.23 0.0 0 1 405.03 541.78
  L 405.03 541.30
  A 0.21 0.21 0.0 0 1 405.23 541.09
  C 408.88 541.00 409.88 540.51 409.90 536.48
  Q 410.04 513.29 409.96 511.53
  A 1.90 1.85 27.8 0 0 409.65 510.57
  Q 408.42 508.74 405.45 509.00
  A 0.36 0.36 0.0 0 1 405.05 508.64
  L 405.05 508.34
  A 0.34 0.34 0.0 0 1 405.39 508.00
  L 420.11 508.00
  A 0.29 0.29 0.0 0 1 420.40 508.29
  L 420.40 508.55
  A 0.35 0.35 0.0 0 1 420.05 508.90
  C 417.09 508.87 414.62 509.38 414.62 512.97
  Q 414.63 531.58 414.59 536.98
  Q 414.56 540.01 417.49 540.01
  C 425.19 540.01 430.23 541.22 433.10 532.31
  A 0.27 0.27 0.0 0 1 433.44 532.13
  Z"
/>
</svg>
