<?xml version="1.0" encoding="UTF-8" standalone="no"?>
<!DOCTYPE svg PUBLIC "-//W3C//DTD SVG 1.1//EN" "http://www.w3.org/Graphics/SVG/1.1/DTD/svg11.dtd">
<svg xmlns="http://www.w3.org/2000/svg" version="1.1" viewBox="0.00 0.00 799.00 481.00">
<path fill="#ffffff" d="
  M 598.66 24.35
  Q 597.46 26.71 594.44 27.74
  A 0.41 0.41 0.0 0 0 594.50 28.53
  C 603.01 30.10 603.08 40.65 596.35 44.36
  Q 594.11 45.59 590.00 45.94
  Q 588.55 46.06 571.19 45.99
  A 0.39 0.38 0.8 0 1 570.81 45.61
  L 570.81 45.34
  A 0.30 0.29 1.8 0 1 571.13 45.05
  C 573.12 45.13 575.78 44.61 575.83 42.18
  Q 576.10 30.11 575.80 15.62
  A 2.43 2.43 0.0 0 0 573.75 13.27
  L 571.06 12.85
  A 0.23 0.22 4.5 0 1 570.87 12.63
  L 570.87 12.31
  A 0.29 0.29 0.0 0 1 571.16 12.02
  Q 587.64 11.97 588.75 12.03
  C 594.08 12.32 598.67 14.71 599.79 20.21
  Q 600.18 22.10 598.80 24.11
  A 1.54 1.18 82.6 0 0 598.66 24.35
  Z
  M 580.40 15.36
  L 580.40 25.84
  A 1.22 1.22 0.0 0 0 581.62 27.06
  L 586.68 27.06
  A 7.70 6.01 0.0 0 0 594.38 21.05
  L 594.38 20.15
  A 7.70 6.01 -0.0 0 0 586.68 14.14
  L 581.62 14.14
  A 1.22 1.22 0.0 0 0 580.40 15.36
  Z
  M 595.21 38.97
  L 595.12 34.46
  A 1.21 1.14 -59.3 0 0 595.03 34.06
  C 592.66 28.70 586.25 28.66 580.95 29.11
  A 0.64 0.63 87.6 0 0 580.37 29.75
  L 580.37 42.82
  A 0.64 0.63 -85.2 0 0 580.89 43.45
  Q 584.51 44.13 587.80 43.99
  Q 592.61 43.77 595.15 39.21
  A 0.52 0.48 61.2 0 0 595.21 38.97
  Z"
/>
<path fill="#ffffff" d="
  M 466.80 291.01
  L 478.27 291.01
  A 0.72 0.72 0.0 0 1 478.99 291.73
  L 478.99 296.29
  A 0.69 0.68 90.0 0 1 478.31 296.98
  L 461.66 296.98
  A 2.23 2.22 21.4 0 0 460.03 297.69
  C 432.40 327.43 397.63 345.50 357.60 352.88
  A 0.73 0.73 0.0 0 0 357.00 353.60
  L 357.00 356.34
  A 0.65 0.65 0.0 0 1 356.35 356.99
  Q 345.92 357.04 338.39 356.91
  C 337.42 356.89 336.99 356.47 336.56 355.80
  A 0.85 0.85 0.0 0 0 335.84 355.40
  L 324.62 355.40
  A 0.50 0.49 -76.1 0 0 324.18 355.67
  L 323.75 356.54
  A 0.79 0.78 -76.4 0 1 323.05 356.97
  L 305.62 356.97
  A 0.62 0.62 0.0 0 1 305.00 356.35
  L 305.00 352.63
  A 0.93 0.93 0.0 0 0 304.29 351.73
  C 267.95 343.35 232.75 325.25 207.24 297.67
  A 0.29 0.28 -66.7 0 0 206.75 297.87
  L 206.75 409.18
  A 0.32 0.32 0.0 0 0 207.07 409.50
  L 238.40 409.50
  A 0.60 0.60 0.0 0 0 239.00 408.90
  L 239.00 399.43
  A 0.44 0.43 -0.0 0 1 239.44 399.00
  L 244.59 399.00
  A 0.41 0.40 -0.0 0 1 245.00 399.40
  L 245.00 408.90
  A 0.61 0.61 0.0 0 0 245.61 409.51
  L 382.39 409.51
  A 0.62 0.61 90.0 0 0 383.00 408.89
  L 383.00 399.48
  A 0.49 0.49 0.0 0 1 383.49 398.99
  L 387.53 398.99
  A 0.48 0.47 -90.0 0 1 388.00 399.47
  L 388.00 408.82
  A 0.69 0.69 0.0 0 0 388.69 409.51
  L 529.63 409.51
  A 0.37 0.37 0.0 0 0 530.00 409.14
  L 530.00 399.38
  A 0.38 0.38 0.0 0 1 530.38 399.00
  L 535.64 399.00
  A 0.36 0.36 0.0 0 1 536.00 399.36
  L 536.00 408.77
  A 0.74 0.73 90.0 0 0 536.73 409.51
  L 675.62 409.51
  A 0.38 0.38 0.0 0 0 676.00 409.13
  L 676.00 399.38
  A 0.39 0.38 -0.0 0 1 676.39 399.00
  L 680.61 399.00
  A 0.39 0.39 0.0 0 1 681.00 399.39
  L 681.00 408.95
  A 0.56 0.55 0.0 0 0 681.56 409.50
  L 766.40 409.50
  A 0.27 0.27 0.0 0 0 766.62 409.08
  L 759.73 398.72
  A 0.29 0.29 0.0 0 1 760.10 398.30
  L 787.04 411.77
  A 0.26 0.26 0.0 0 1 787.04 412.24
  Q 769.77 420.85 760.67 425.42
  Q 760.20 425.66 759.90 425.64
  A 0.23 0.23 0.0 0 1 759.72 425.28
  L 766.63 414.91
  A 0.26 0.26 0.0 0 0 766.41 414.50
  L 204.35 414.50
  A 2.36 2.35 90.0 0 1 202.00 412.14
  L 202.00 316.54
  A 0.54 0.54 0.0 0 0 201.46 316.00
  L 189.29 316.00
  A 0.24 0.24 0.0 0 1 189.05 315.76
  L 189.05 315.42
  A 0.38 0.38 0.0 0 1 189.40 315.04
  Q 193.21 314.75 192.37 312.16
  Q 191.62 309.85 189.71 305.57
  A 0.96 0.94 -11.9 0 0 188.84 305.01
  L 176.87 305.01
  A 0.60 0.58 12.8 0 0 176.34 305.33
  L 172.91 312.19
  A 1.21 1.21 0.0 0 0 173.45 313.81
  L 176.78 315.48
  A 0.23 0.23 0.0 0 1 176.69 315.91
  Q 168.99 316.17 166.66 315.85
  A 0.40 0.39 43.8 0 1 166.64 315.07
  C 170.43 314.40 171.33 311.06 172.79 307.70
  Q 177.02 298.00 183.78 282.38
  A 0.68 0.67 45.7 0 1 185.02 282.40
  Q 192.07 299.67 197.65 312.29
  Q 198.69 314.64 201.49 314.88
  A 0.47 0.46 -87.2 0 0 202.00 314.41
  L 202.00 37.20
  A 0.44 0.44 0.0 0 1 202.44 36.76
  L 206.28 36.76
  A 0.47 0.47 0.0 0 1 206.75 37.23
  L 206.75 50.68
  A 0.33 0.33 0.0 0 0 207.08 51.01
  L 222.17 51.01
  A 0.84 0.83 90.0 0 1 223.00 51.85
  L 223.00 56.25
  A 0.73 0.73 0.0 0 1 222.27 56.98
  L 207.06 56.98
  A 0.32 0.31 90.0 0 0 206.75 57.30
  L 206.75 290.39
  A 0.62 0.61 0.0 0 0 207.37 291.00
  L 221.17 291.00
  A 0.84 0.84 0.0 0 1 222.01 291.84
  L 222.01 296.28
  A 0.73 0.72 90.0 0 1 221.29 297.01
  L 214.02 297.01
  A 0.35 0.35 0.0 0 0 213.77 297.60
  Q 235.24 319.00 263.08 332.17
  C 282.60 341.41 303.33 347.88 325.15 350.21
  C 338.93 351.68 352.29 349.32 366.52 346.03
  Q 410.57 335.83 443.35 307.10
  C 466.27 287.01 484.23 260.32 497.72 232.22
  C 511.43 203.67 521.89 172.98 529.96 142.98
  Q 542.11 97.80 550.45 51.74
  A 0.43 0.43 0.0 0 0 549.83 51.28
  L 544.38 54.03
  A 0.70 0.69 76.9 0 0 544.00 54.65
  L 544.00 56.41
  A 0.59 0.59 0.0 0 1 543.41 57.00
  L 525.74 57.00
  A 0.73 0.73 0.0 0 1 525.01 56.27
  L 525.01 51.78
  A 0.76 0.76 0.0 0 1 525.77 51.02
  L 541.35 51.02
  A 1.25 1.23 18.3 0 0 542.34 50.53
  L 556.33 31.98
  A 0.37 0.37 0.0 0 1 556.98 32.10
  L 565.35 61.01
  A 0.30 0.30 0.0 0 1 564.85 61.31
  L 555.93 52.39
  A 0.35 0.35 0.0 0 0 555.33 52.57
  C 545.06 107.17 532.50 162.18 511.56 213.31
  C 500.03 241.47 485.64 267.66 466.53 290.41
  A 0.37 0.36 -69.8 0 0 466.80 291.01
  Z
  M 177.28 302.53
  A 0.31 0.31 0.0 0 0 177.56 302.96
  L 188.20 303.04
  A 0.31 0.31 0.0 0 0 188.49 302.61
  L 183.25 290.17
  A 0.31 0.31 0.0 0 0 182.68 290.16
  L 177.28 302.53
  Z"
/>
<rect fill="#ffffff" x="-9.52" y="-2.96" transform="translate(245.52,53.99) rotate(0.1)" width="19.04" height="5.92" rx="0.94"/>
<rect fill="#ffffff" x="-9.52" y="-2.96" transform="translate(277.51,54.00) rotate(0.1)" width="19.04" height="5.92" rx="0.94"/>
<rect fill="#ffffff" x="-10.03" y="-2.97" transform="translate(310.01,53.99) rotate(0.1)" width="20.06" height="5.94" rx="0.96"/>
<rect fill="#ffffff" x="331.98" y="51.02" width="20.06" height="5.94" rx="0.96"/>
<rect fill="#ffffff" x="363.98" y="51.02" width="20.08" height="5.94" rx="0.97"/>
<rect fill="#ffffff" x="397.00" y="51.02" width="19.04" height="5.94" rx="0.89"/>
<rect fill="#ffffff" x="429.00" y="51.02" width="19.04" height="5.94" rx="0.89"/>
<rect fill="#ffffff" x="461.00" y="51.02" width="19.04" height="5.94" rx="0.89"/>
<rect fill="#ffffff" x="-9.52" y="-2.97" transform="translate(502.52,53.99) rotate(0.1)" width="19.04" height="5.94" rx="0.89"/>
<path fill="#ffffff" d="
  M 615.63 172.29
  C 615.63 173.81 614.52 174.44 613.03 174.60
  C 601.39 175.92 595.54 187.73 595.27 198.50
  Q 595.21 200.93 595.29 255.00
  C 595.31 266.97 594.04 275.97 586.66 283.79
  Q 581.51 289.25 573.33 290.27
  A 0.98 0.97 -3.7 0 1 572.23 289.31
  L 572.23 286.38
  A 1.00 0.99 86.8 0 1 573.11 285.39
  C 581.84 284.39 587.20 276.78 589.37 268.72
  Q 590.32 265.15 590.29 258.69
  Q 590.22 245.83 590.27 200.75
  C 590.28 189.25 594.05 179.19 603.57 172.49
  A 0.21 0.02 -34.7 0 0 603.70 172.38
  Q 603.71 172.36 603.71 172.29
  Q 603.71 172.23 603.70 172.21
  A 0.21 0.02 34.7 0 0 603.57 172.10
  C 594.05 165.40 590.28 155.34 590.26 143.84
  Q 590.20 98.76 590.27 85.90
  Q 590.30 79.44 589.35 75.87
  C 587.18 67.81 581.82 60.20 573.09 59.20
  A 1.00 0.99 -86.8 0 1 572.21 58.21
  L 572.21 55.28
  A 0.98 0.97 3.6 0 1 573.31 54.32
  Q 581.49 55.34 586.64 60.80
  C 594.02 68.62 595.29 77.62 595.27 89.59
  Q 595.20 143.66 595.26 146.09
  C 595.54 156.86 601.39 168.67 613.03 169.98
  C 614.52 170.15 615.63 170.78 615.63 172.29
  Z"
/>
<path fill="#ffffff" d="
  M 102.56 71.63
  Q 102.81 71.63 102.91 71.82
  Q 110.91 87.75 116.16 98.24
  A 0.12 0.12 0.0 0 1 115.99 98.40
  L 105.13 92.14
  A 0.10 0.10 0.0 0 0 104.98 92.22
  L 104.98 135.09
  A 0.66 0.65 89.7 0 1 104.33 135.75
  Q 103.98 135.75 102.63 135.75
  Q 101.28 135.75 100.93 135.75
  A 0.66 0.65 -89.8 0 1 100.28 135.10
  L 100.19 92.23
  A 0.10 0.10 0.0 0 0 100.04 92.15
  L 89.19 98.43
  A 0.12 0.12 0.0 0 1 89.02 98.27
  Q 94.25 87.77 102.22 71.82
  Q 102.32 71.63 102.56 71.63
  Z"
/>
<path fill="#ffffff" d="
  M 217.00 139.22
  A 2.22 2.22 0.0 0 1 219.22 137.00
  L 505.05 137.00
  A 3.95 1.95 0.0 0 1 509.00 138.95
  L 509.00 202.05
  A 3.95 1.95 0.0 0 1 505.05 204.00
  L 219.22 204.00
  A 2.22 2.22 0.0 0 1 217.00 201.78
  L 217.00 139.22
  Z
  M 503.00 142.60
  A 0.60 0.60 0.0 0 0 502.40 142.00
  L 223.60 142.00
  A 0.60 0.60 0.0 0 0 223.00 142.60
  L 223.00 197.40
  A 0.60 0.60 0.0 0 0 223.60 198.00
  L 502.40 198.00
  A 0.60 0.60 0.0 0 0 503.00 197.40
  L 503.00 142.60
  Z"
/>
<path fill="#ffffff" d="
  M 227.96 162.04
  Q 227.98 161.95 228.14 160.44
  A 2.65 2.61 67.4 0 1 228.68 159.10
  Q 232.20 154.57 233.13 153.86
  Q 241.64 147.39 251.56 151.66
  C 253.19 152.36 254.07 151.91 254.75 150.43
  A 0.48 0.48 0.0 0 1 255.67 150.60
  L 256.30 160.35
  A 0.47 0.46 86.9 0 1 255.87 160.84
  L 255.58 160.86
  A 0.23 0.22 82.5 0 1 255.35 160.68
  Q 254.17 155.23 250.07 153.38
  Q 240.40 149.01 234.57 157.70
  Q 233.32 159.56 233.01 164.21
  C 232.88 166.17 231.68 168.39 232.67 170.23
  C 233.03 170.89 232.82 172.00 233.01 173.03
  Q 234.65 181.54 243.33 182.86
  C 249.59 183.81 252.98 180.75 256.51 176.17
  A 0.31 0.30 33.6 0 1 256.91 176.10
  L 256.94 176.12
  A 0.34 0.33 30.7 0 1 257.06 176.56
  C 250.03 189.18 232.69 187.47 227.86 173.95
  Q 226.69 170.69 226.86 165.27
  Q 226.94 162.67 227.53 161.70
  A 0.12 0.12 0.0 0 1 227.75 161.71
  Q 227.88 162.00 227.87 162.11
  A 0.08 0.03 -59.3 0 0 227.96 162.04
  Z"
/>
<path fill="#ffffff" d="
  M 483.64 151.00
  Q 495.57 151.05 496.66 151.09
  A 0.95 0.94 -88.9 0 1 497.57 152.04
  L 497.57 158.05
  A 0.38 0.38 0.0 0 1 497.19 158.43
  L 496.90 158.43
  A 0.12 0.12 0.0 0 1 496.78 158.32
  Q 496.34 153.17 491.34 153.05
  Q 488.93 152.99 486.71 153.07
  A 0.69 0.68 88.3 0 0 486.05 153.78
  Q 486.34 161.94 486.00 179.80
  C 485.94 183.17 488.04 182.68 490.42 183.18
  A 0.40 0.40 0.0 0 1 490.49 183.94
  Q 490.27 184.03 483.50 184.00
  Q 476.73 183.97 476.51 183.88
  A 0.40 0.40 0.0 0 1 476.59 183.12
  C 478.97 182.64 481.07 183.15 481.03 179.78
  Q 480.85 161.92 481.21 153.76
  A 0.69 0.68 -87.8 0 0 480.55 153.04
  Q 478.33 152.94 475.92 152.98
  Q 470.92 153.06 470.44 158.21
  A 0.12 0.12 0.0 0 1 470.32 158.32
  L 470.03 158.31
  A 0.38 0.38 0.0 0 1 469.65 157.93
  L 469.70 151.92
  A 0.95 0.94 89.4 0 1 470.62 150.98
  Q 471.71 150.95 483.64 151.00
  Z"
/>
<path fill="#ffffff" d="
  M 89.12 160.75
  Q 95.04 152.20 105.77 153.04
  Q 107.50 153.17 112.30 154.79
  Q 113.19 155.09 113.74 154.91
  Q 114.38 154.71 114.54 153.56
  A 0.40 0.39 -8.2 0 1 114.78 153.25
  Q 115.07 153.12 115.25 153.28
  A 0.15 0.13 -69.2 0 1 115.29 153.38
  L 116.06 162.27
  A 0.51 0.51 0.0 0 1 115.07 162.47
  C 112.12 153.63 100.86 152.71 94.89 158.97
  A 3.84 3.82 81.7 0 0 94.37 159.67
  Q 90.13 166.88 92.03 174.74
  C 94.17 183.65 101.12 188.12 110.05 184.94
  A 1.36 1.35 80.3 0 0 110.95 183.66
  L 110.95 171.67
  A 1.14 1.12 -77.9 0 0 110.30 170.64
  Q 108.75 169.95 107.32 169.89
  A 0.30 0.29 2.1 0 1 107.04 169.60
  L 107.04 169.32
  A 0.31 0.31 0.0 0 1 107.35 169.01
  L 119.92 169.01
  A 0.20 0.20 0.0 0 1 120.12 169.20
  L 120.14 169.48
  A 0.35 0.35 0.0 0 1 119.82 169.85
  Q 117.73 170.03 116.31 171.49
  A 1.42 1.40 -24.3 0 0 115.92 172.51
  Q 116.08 177.06 115.96 182.36
  C 115.94 183.20 116.46 184.12 116.38 184.83
  Q 116.35 185.08 115.55 185.46
  C 105.57 190.28 91.73 188.79 87.10 177.44
  Q 84.91 172.08 86.70 166.30
  Q 86.98 165.40 86.92 164.64
  Q 86.82 163.36 87.52 163.06
  A 0.68 0.68 0.0 0 0 87.93 162.39
  Q 87.86 161.22 89.06 160.80
  A 0.17 0.11 -6.6 0 0 89.12 160.75
  Z"
/>
<path fill="#ffffff" d="
  M 334.57 158.83
  Q 335.62 157.20 336.28 155.49
  A 0.46 0.46 0.0 0 1 337.17 155.66
  L 337.17 161.51
  A 0.49 0.49 0.0 0 0 337.66 162.00
  L 341.81 162.00
  A 0.80 0.79 -0.0 0 1 342.61 162.79
  L 342.61 163.15
  A 0.86 0.86 0.0 0 1 341.75 164.01
  L 337.68 164.01
  A 0.62 0.61 90.0 0 0 337.07 164.63
  L 337.07 180.12
  A 0.88 0.86 -62.7 0 0 337.22 180.61
  C 338.92 183.15 340.82 181.81 342.32 180.14
  A 0.51 0.51 0.0 0 1 343.17 180.66
  C 341.54 184.87 336.54 186.79 333.48 182.56
  A 1.74 1.73 -65.4 0 1 333.16 181.69
  Q 333.09 180.89 333.15 178.98
  A 0.05 0.03 73.7 0 0 333.09 178.93
  Q 333.08 178.94 333.07 178.96
  A 0.10 0.06 -31.7 0 0 333.04 179.02
  L 333.00 181.93
  A 0.24 0.23 -29.4 0 1 332.96 182.06
  Q 332.95 182.07 332.94 182.09
  A 0.01 0.01 0.0 0 1 332.92 182.09
  Q 332.84 175.77 332.89 165.79
  A 0.88 0.84 65.0 0 1 333.07 165.26
  Q 333.23 165.07 333.31 164.93
  A 0.59 0.59 0.0 0 0 332.82 164.04
  L 329.91 163.93
  A 0.46 0.46 0.0 0 1 329.70 163.07
  Q 332.37 161.52 333.73 159.98
  Q 334.11 159.54 334.57 158.83
  Z"
/>
<path fill="#ffffff" d="
  M 395.46 182.38
  Q 394.93 181.52 394.92 180.57
  Q 394.84 174.50 394.91 166.03
  Q 394.91 165.30 395.15 165.10
  Q 395.63 164.70 395.12 164.16
  A 0.47 0.46 67.9 0 0 394.79 164.01
  L 391.93 164.01
  A 0.48 0.48 0.0 0 1 391.69 163.11
  Q 393.49 162.10 393.52 162.08
  Q 394.37 161.32 397.10 158.16
  Q 397.55 157.64 398.26 155.59
  A 0.48 0.48 0.0 0 1 399.19 155.75
  L 399.17 161.47
  A 0.55 0.54 -89.9 0 0 399.71 162.02
  L 403.82 162.03
  A 0.80 0.79 0.1 0 1 404.62 162.82
  L 404.62 163.19
  A 0.86 0.86 0.0 0 1 403.76 164.04
  L 399.67 164.03
  A 0.62 0.61 -89.9 0 0 399.06 164.65
  L 399.03 179.94
  A 1.08 1.05 30.1 0 0 399.19 180.50
  Q 400.58 182.63 402.82 181.63
  A 1.52 1.50 5.0 0 0 403.49 181.08
  Q 404.05 180.24 404.53 180.05
  A 0.47 0.47 0.0 0 1 405.12 180.70
  C 403.22 184.59 398.36 187.22 395.46 182.38
  Z"
/>
<path fill="#ffffff" d="
  M 628.46 164.94
  C 634.26 166.83 638.13 167.64 641.11 173.89
  A 0.76 0.69 36.2 0 1 641.18 174.24
  L 640.96 180.55
  A 1.50 1.48 60.9 0 1 640.77 181.24
  Q 636.37 189.40 626.75 188.97
  Q 624.45 188.87 623.03 187.36
  A 1.69 1.67 -40.5 0 1 623.24 184.88
  C 624.67 183.77 627.50 185.88 628.73 186.31
  A 2.00 1.99 49.5 0 0 629.73 186.39
  C 633.53 185.73 635.33 185.35 637.57 182.51
  A 1.22 1.16 66.2 0 0 637.83 181.79
  L 637.95 176.26
  A 0.67 0.65 -59.5 0 0 637.86 175.89
  C 634.81 170.50 630.08 169.62 624.34 168.88
  A 0.45 0.45 0.0 0 1 624.00 168.23
  L 629.89 156.45
  A 0.78 0.77 12.7 0 1 630.59 156.01
  L 641.79 156.01
  A 0.19 0.19 0.0 0 1 641.96 156.29
  L 640.24 159.72
  A 0.51 0.50 -76.6 0 1 639.79 160.00
  L 630.80 160.00
  A 1.06 1.06 0.0 0 0 629.85 160.59
  L 628.10 164.09
  A 0.61 0.60 -68.1 0 0 628.46 164.94
  Z"
/>
<path fill="#ffffff" d="
  M 672.89 180.46
  A 0.47 0.47 0.0 0 0 672.43 179.99
  L 659.48 179.98
  A 0.56 0.56 0.0 0 1 658.92 179.45
  Q 658.80 177.48 659.50 176.52
  Q 664.87 169.21 673.86 156.84
  Q 674.70 155.68 676.47 155.98
  A 0.58 0.57 -85.2 0 1 676.95 156.55
  L 676.92 176.36
  A 0.70 0.70 0.0 0 0 677.62 177.06
  L 681.03 177.07
  A 0.65 0.65 0.0 0 1 681.67 177.71
  L 681.67 179.40
  A 0.65 0.65 0.0 0 1 681.02 180.04
  L 677.50 180.04
  A 0.58 0.58 0.0 0 0 676.92 180.62
  L 676.91 188.59
  A 0.32 0.32 0.0 0 1 676.59 188.90
  L 673.37 188.90
  A 0.49 0.49 0.0 0 1 672.89 188.41
  L 672.89 180.46
  Z
  M 661.95 176.93
  L 672.32 177.06
  A 0.54 0.54 0.0 0 0 672.87 176.52
  L 673.05 161.71
  A 0.11 0.11 0.0 0 0 672.84 161.64
  L 661.59 176.18
  A 0.47 0.46 -70.7 0 0 661.95 176.93
  Z"
/>
<path fill="#ffffff" d="
  M 706.63 172.65
  Q 706.56 178.15 704.44 182.65
  C 701.92 188.02 695.65 191.33 690.34 186.88
  Q 686.41 183.58 685.23 178.99
  C 684.78 177.25 684.16 174.59 684.19 172.36
  C 684.22 170.13 684.90 167.49 685.39 165.77
  Q 686.69 161.20 690.71 158.01
  C 696.13 153.69 702.31 157.16 704.69 162.59
  Q 706.70 167.15 706.63 172.65
  Z
  M 695.85 187.03
  C 699.56 187.06 700.85 182.87 701.59 179.98
  A 6.45 6.01 71.3 0 0 701.75 179.10
  C 702.24 173.98 703.04 158.02 696.07 157.97
  C 689.09 157.91 689.66 173.89 690.07 179.01
  A 6.45 6.01 -70.4 0 0 690.21 179.90
  C 690.91 182.79 692.14 187.00 695.85 187.03
  Z"
/>
<path fill="#ffffff" d="
  M 271.5376 160.9551
  A 12.05 11.00 -86.3 0 1 281.7371 173.6899
  A 12.05 11.00 -86.3 0 1 269.9824 185.0049
  A 12.05 11.00 -86.3 0 1 259.7829 172.2701
  A 12.05 11.00 -86.3 0 1 271.5376 160.9551
  Z
  M 264.32 174.06
  C 264.83 177.26 266.59 181.73 269.97 182.72
  Q 273.56 183.78 276.02 180.65
  A 2.22 2.17 68.9 0 0 276.46 179.63
  Q 277.13 175.00 276.66 172.07
  Q 276.19 169.14 274.10 164.95
  A 2.22 2.17 -87.1 0 0 273.36 164.12
  Q 270.05 161.92 266.97 164.05
  C 264.07 166.05 263.80 170.85 264.32 174.06
  Z"
/>
<path fill="#ffffff" d="
  M 292.83 165.13
  C 296.03 162.05 300.98 158.23 304.52 163.58
  Q 305.64 165.29 305.86 167.75
  Q 306.22 171.77 306.02 180.99
  A 1.74 1.70 29.5 0 0 306.32 182.02
  Q 307.07 183.13 308.89 183.05
  A 0.36 0.36 0.0 0 1 309.27 183.41
  L 309.27 183.72
  A 0.28 0.28 0.0 0 1 308.99 184.00
  L 298.39 184.00
  A 0.43 0.42 90.0 0 1 297.97 183.57
  L 297.97 183.28
  A 0.29 0.29 0.0 0 1 298.30 182.99
  Q 301.76 183.33 301.85 180.53
  Q 302.06 173.38 301.87 167.74
  A 3.92 3.92 0.0 0 0 296.70 164.15
  L 295.69 164.49
  A 5.75 5.75 0.0 0 0 291.81 170.47
  Q 292.01 172.72 291.93 179.94
  C 291.90 182.52 293.67 183.10 295.79 183.05
  A 0.34 0.33 -0.0 0 1 296.13 183.38
  L 296.13 183.68
  A 0.32 0.32 0.0 0 1 295.81 184.00
  L 285.10 184.00
  A 0.43 0.43 0.0 0 1 284.67 183.57
  L 284.67 183.29
  A 0.28 0.27 1.0 0 1 284.96 183.02
  C 287.27 183.10 288.16 182.42 287.97 180.03
  Q 287.88 178.97 287.85 165.75
  A 1.14 1.14 0.0 0 0 287.29 164.77
  Q 286.37 164.25 284.81 164.77
  A 0.39 0.38 67.4 0 1 284.35 164.58
  L 284.18 164.22
  A 0.14 0.14 0.0 0 1 284.25 164.02
  L 291.34 161.00
  A 0.56 0.56 0.0 0 1 292.12 161.52
  L 292.12 164.83
  A 0.42 0.42 0.0 0 0 292.83 165.13
  Z"
/>
<path fill="#ffffff" d="
  M 311.71 177.57
  A 0.48 0.47 -51.6 0 1 312.65 177.46
  C 313.56 181.46 318.15 184.74 322.05 182.25
  A 1.46 1.43 -7.6 0 0 322.65 181.48
  Q 324.01 177.51 320.32 175.73
  Q 315.81 173.53 313.86 172.25
  A 2.81 2.71 86.3 0 1 313.15 171.61
  C 311.06 168.91 311.28 164.27 314.18 162.29
  C 316.92 160.42 319.63 160.91 322.71 161.84
  A 1.93 1.92 -56.0 0 0 324.48 161.49
  L 324.69 161.31
  A 0.39 0.39 0.0 0 1 325.33 161.60
  L 325.34 168.47
  A 0.45 0.44 -51.4 0 1 324.46 168.57
  Q 323.13 162.57 317.75 163.05
  C 313.21 163.44 313.81 167.80 317.17 169.50
  C 320.50 171.20 326.00 172.68 326.85 177.15
  Q 327.66 181.31 323.78 183.70
  C 320.32 185.84 317.57 184.91 313.84 184.06
  A 1.02 1.01 -62.1 0 0 312.87 184.36
  Q 312.67 184.58 312.53 184.70
  A 0.50 0.50 0.0 0 1 311.71 184.32
  L 311.71 177.57
  Z"
/>
<path fill="#ffffff" d="
  M 357.18 181.35
  Q 357.04 181.38 354.93 183.08
  C 349.35 187.56 343.39 183.47 344.92 176.71
  A 1.88 1.86 75.3 0 1 345.45 175.79
  C 349.28 172.19 352.45 170.99 357.11 169.14
  A 0.77 0.76 71.3 0 0 357.56 168.21
  L 356.40 164.18
  A 0.89 0.87 -85.5 0 0 355.94 163.63
  Q 353.06 162.24 350.87 163.67
  Q 349.70 164.43 349.87 165.40
  Q 350.47 168.74 347.94 169.01
  A 1.90 1.89 79.7 0 1 345.91 167.60
  Q 345.87 167.43 345.77 165.80
  A 1.45 1.43 -31.5 0 1 345.99 164.91
  C 348.94 160.16 356.61 159.79 360.42 163.14
  A 1.92 1.88 -74.6 0 1 361.05 164.28
  Q 362.33 172.33 361.73 178.24
  Q 361.48 180.69 361.74 181.30
  A 0.97 0.95 79.4 0 0 362.57 181.88
  Q 363.78 181.94 365.03 180.60
  A 0.36 0.35 -55.3 0 1 365.44 180.52
  Q 365.69 180.63 365.70 180.83
  Q 365.71 180.98 365.66 181.06
  Q 364.17 183.65 361.19 184.81
  C 359.12 185.63 357.57 183.73 357.70 181.79
  A 0.42 0.42 0.0 0 0 357.18 181.35
  Z
  M 357.72 179.03
  L 357.72 171.68
  A 0.49 0.49 0.0 0 0 357.09 171.21
  Q 352.97 172.45 350.24 174.94
  C 347.56 177.38 349.32 182.41 353.27 181.92
  C 354.64 181.75 356.42 180.33 357.29 179.79
  A 0.89 0.89 0.0 0 0 357.72 179.03
  Z"
/>
<path fill="#ffffff" d="
  M 374.13 164.92
  A 0.31 0.31 0.0 0 0 374.64 165.16
  C 378.07 162.38 380.82 159.06 385.60 162.34
  Q 386.60 163.02 387.91 166.67
  A 0.69 0.57 40.0 0 1 387.94 166.89
  L 388.04 181.35
  A 1.28 1.25 -65.1 0 0 388.33 182.16
  Q 389.10 183.10 390.79 183.09
  A 0.40 0.40 0.0 0 1 391.19 183.49
  L 391.18 183.76
  A 0.26 0.25 0.1 0 1 390.92 184.01
  L 380.21 183.99
  A 0.29 0.29 0.0 0 1 379.92 183.69
  L 379.92 183.40
  A 0.31 0.30 89.2 0 1 380.21 183.09
  Q 381.74 183.05 382.71 182.54
  A 0.96 0.94 -14.0 0 0 383.22 181.70
  L 383.25 167.00
  A 3.24 3.24 0.0 0 0 378.56 164.09
  L 376.68 165.04
  A 5.09 5.08 -13.8 0 0 373.88 169.64
  L 374.06 181.03
  A 1.30 1.27 -64.1 0 0 374.29 181.75
  Q 375.35 183.20 377.78 183.03
  A 0.27 0.27 0.0 0 1 378.07 183.30
  L 378.06 183.61
  A 0.38 0.38 0.0 0 1 377.68 183.99
  L 366.83 183.97
  A 0.18 0.18 0.0 0 1 366.65 183.79
  L 366.65 183.44
  A 0.42 0.42 0.0 0 1 367.04 183.02
  Q 368.55 182.92 369.19 182.61
  A 0.94 0.93 77.9 0 0 369.72 181.79
  Q 370.03 169.97 369.72 165.86
  Q 369.56 163.87 366.85 164.82
  A 0.40 0.39 66.9 0 1 366.37 164.62
  L 366.20 164.29
  A 0.22 0.22 0.0 0 1 366.31 163.99
  L 373.29 161.02
  A 0.62 0.61 78.7 0 1 374.14 161.59
  L 374.13 164.92
  Z"
/>
<path fill="#ffffff" d="
  M 425.99 183.24
  Q 425.98 190.08 425.95 190.29
  Q 425.41 194.30 429.50 194.06
  A 0.31 0.30 88.3 0 1 429.82 194.37
  L 429.82 194.74
  A 0.25 0.25 0.0 0 1 429.57 194.99
  L 418.14 194.99
  A 0.22 0.22 0.0 0 1 417.92 194.77
  L 417.92 194.46
  A 0.36 0.36 0.0 0 1 418.25 194.10
  Q 420.21 193.93 420.83 193.59
  A 1.90 1.89 76.3 0 0 421.84 191.91
  L 421.91 166.58
  A 1.75 1.68 -59.3 0 0 421.73 165.81
  Q 420.85 163.97 418.63 164.83
  A 0.49 0.48 66.0 0 1 418.02 164.59
  L 417.88 164.32
  A 0.25 0.24 65.3 0 1 418.00 163.98
  L 425.00 161.03
  A 0.63 0.62 -11.6 0 1 425.87 161.60
  L 425.87 164.31
  A 0.52 0.51 64.1 0 0 426.79 164.63
  C 431.45 158.68 438.06 160.43 440.74 166.84
  Q 443.88 174.35 439.01 181.03
  C 435.97 185.19 430.65 186.56 426.50 183.01
  A 0.31 0.31 0.0 0 0 425.99 183.24
  Z
  M 436.81 169.25
  A 5.10 5.10 0.0 0 0 431.71 164.15
  L 431.09 164.15
  A 5.10 5.10 0.0 0 0 425.99 169.25
  L 425.99 177.91
  A 5.10 5.10 0.0 0 0 431.09 183.01
  L 431.71 183.01
  A 5.10 5.10 0.0 0 0 436.81 177.91
  L 436.81 169.25
  Z"
/>
<path fill="#ffffff" d="
  M 446.00 192.83
  A 0.31 0.31 0.0 0 1 445.76 192.28
  C 448.57 190.31 451.10 189.23 451.21 185.27
  A 0.66 0.65 -6.3 0 0 450.39 184.62
  Q 449.19 184.93 448.13 184.97
  A 2.13 1.70 5.3 0 1 445.87 182.79
  Q 446.22 181.65 447.50 181.22
  Q 450.50 180.21 452.63 183.26
  A 2.54 2.49 21.6 0 1 453.04 184.18
  C 454.04 188.73 450.04 192.00 446.00 192.83
  Z"
/>
<ellipse fill="#ffffff" cx="0.00" cy="0.00" transform="translate(651.43,188.01) rotate(-180.2)" rx="2.70" ry="1.99"/>
<rect fill="#ffffff" x="12.99" y="197.00" width="169.02" height="5.00" rx="0.78"/>
<path fill="#ffffff" d="
  M 164.53 214.65
  A 0.27 0.27 0.0 0 1 164.41 214.13
  Q 165.85 213.43 168.23 213.17
  A 0.45 0.44 -2.9 0 1 168.73 213.61
  L 168.73 228.03
  A 0.70 0.69 -78.5 0 0 169.15 228.67
  Q 169.94 229.02 170.65 229.15
  A 0.41 0.41 0.0 0 1 170.57 229.96
  L 164.89 229.96
  A 0.41 0.41 0.0 0 1 164.79 229.15
  L 166.02 228.86
  A 0.80 0.80 0.0 0 0 166.64 228.08
  L 166.64 215.25
  A 0.60 0.60 0.0 0 0 166.04 214.65
  L 164.53 214.65
  Z"
/>
<rect fill="#ffffff" x="-6.64" y="-0.41" transform="translate(154.88,223.50) rotate(-0.1)" width="13.28" height="0.82" rx="0.39"/>
<path fill="#ffffff" d="
  M 27.52 267.38
  Q 27.36 267.65 27.21 267.37
  Q 26.21 265.42 24.62 264.24
  A 0.37 0.28 79.1 0 1 24.53 264.16
  L 20.96 259.26
  A 0.41 0.40 27.1 0 0 20.23 259.49
  L 20.23 267.90
  A 1.22 1.20 30.5 0 0 20.39 268.50
  Q 21.40 270.28 23.81 270.04
  A 0.30 0.29 87.4 0 1 24.13 270.34
  L 24.13 270.66
  A 0.34 0.33 90.0 0 1 23.80 271.00
  L 12.66 271.00
  A 0.34 0.33 90.0 0 1 12.33 270.66
  L 12.33 270.33
  A 0.27 0.27 0.0 0 1 12.60 270.06
  Q 14.53 270.05 15.45 269.36
  A 1.46 1.44 71.7 0 0 16.04 268.17
  Q 15.84 255.81 16.08 242.55
  Q 16.11 240.67 15.62 240.02
  Q 14.94 239.11 13.32 239.79
  A 0.57 0.56 -24.0 0 1 12.59 239.51
  L 12.56 239.30
  A 0.48 0.47 75.0 0 1 12.84 238.81
  L 19.47 235.97
  A 0.61 0.61 0.0 0 1 20.32 236.53
  L 20.32 257.64
  A 0.45 0.45 0.0 0 0 20.98 258.04
  C 22.58 257.19 25.36 254.39 28.42 251.62
  A 0.62 0.61 50.9 0 0 28.50 250.80
  Q 28.00 250.12 26.91 249.93
  A 0.35 0.34 5.0 0 1 26.62 249.59
  L 26.62 249.31
  A 0.31 0.31 0.0 0 1 26.93 249.00
  L 36.35 249.00
  A 0.27 0.26 0.0 0 1 36.62 249.26
  L 36.62 249.56
  A 0.30 0.30 0.0 0 1 36.35 249.86
  C 31.41 250.37 28.52 254.03 24.92 257.07
  A 0.66 0.66 0.0 0 0 24.83 257.98
  Q 29.18 263.48 32.92 267.82
  Q 34.64 269.82 37.44 270.18
  A 0.30 0.29 -86.8 0 1 37.70 270.48
  L 37.70 270.81
  A 0.19 0.19 0.0 0 1 37.51 271.00
  L 27.19 271.00
  A 0.49 0.44 -24.1 0 1 26.91 270.91
  Q 26.51 270.61 26.77 270.23
  Q 26.85 270.11 27.01 270.08
  Q 27.91 269.86 28.42 269.44
  A 0.51 0.51 0.0 0 0 28.46 268.68
  Q 27.63 267.84 27.65 267.42
  A 0.07 0.07 0.0 0 0 27.52 267.38
  Z"
/>
<path fill="#ffffff" d="
  M 139.00 268.69
  Q 138.90 258.45 138.92 240.61
  A 1.21 1.16 -14.3 0 0 137.16 239.61
  Q 136.65 239.87 136.21 239.82
  A 0.44 0.44 0.0 0 1 136.07 238.99
  L 142.42 235.79
  A 0.65 0.65 0.0 0 1 143.36 236.37
  L 143.30 267.53
  A 0.82 0.75 -56.6 0 0 143.34 267.78
  Q 144.09 270.25 146.81 270.04
  A 0.40 0.40 0.0 0 1 147.24 270.44
  L 147.24 270.70
  A 0.30 0.30 0.0 0 1 146.94 271.00
  L 136.28 271.00
  A 0.30 0.30 0.0 0 1 135.98 270.70
  L 135.98 270.40
  A 0.31 0.30 -1.0 0 1 136.28 270.10
  Q 137.78 270.08 138.72 269.30
  A 0.80 0.80 0.0 0 0 139.00 268.69
  Z"
/>
<path fill="#ffffff" d="
  M 42.62 238.84
  A 0.42 0.42 0.0 0 1 42.22 238.42
  L 42.22 238.14
  A 0.14 0.13 0.0 0 1 42.36 238.01
  L 56.15 238.01
  A 0.39 0.38 0.0 0 1 56.54 238.39
  L 56.54 238.66
  A 0.28 0.27 1.0 0 1 56.25 238.93
  C 51.08 238.70 51.67 241.92 51.72 246.03
  Q 51.87 257.80 51.67 262.04
  C 51.39 268.00 47.14 273.63 40.67 271.61
  C 38.72 271.00 36.52 267.41 39.33 266.30
  C 41.87 265.30 42.90 267.30 43.72 269.09
  A 1.56 1.56 0.0 0 0 46.69 268.44
  L 46.69 240.88
  A 1.17 1.16 -74.5 0 0 46.13 239.88
  Q 44.65 238.99 42.62 238.84
  Z"
/>
<path fill="#ffffff" d="
  M 92.12 252.46
  Q 92.20 252.42 94.70 250.24
  C 99.48 246.07 105.47 247.89 105.97 254.37
  Q 106.43 260.19 106.08 267.76
  A 1.91 1.89 32.1 0 0 106.31 268.74
  Q 107.04 270.07 109.13 270.07
  A 0.33 0.32 -90.0 0 1 109.45 270.40
  L 109.45 270.65
  A 0.35 0.34 -90.0 0 1 109.11 271.00
  L 98.35 271.00
  A 0.26 0.26 0.0 0 1 98.09 270.74
  L 98.09 270.47
  A 0.38 0.38 0.0 0 1 98.44 270.09
  Q 100.19 269.98 101.00 269.41
  A 0.97 0.97 0.0 0 0 101.42 268.61
  L 101.42 254.14
  A 3.37 3.37 0.0 0 0 96.53 251.13
  L 94.57 252.12
  A 4.87 4.87 0.0 0 0 91.89 256.47
  L 91.89 267.72
  A 1.61 1.59 -65.7 0 0 92.28 268.77
  Q 93.46 270.12 95.77 270.04
  A 0.32 0.31 -0.9 0 1 96.10 270.35
  L 96.10 270.65
  A 0.34 0.34 0.0 0 1 95.76 270.99
  L 84.60 270.99
  A 0.31 0.30 0.0 0 1 84.29 270.69
  L 84.29 270.35
  A 0.28 0.28 0.0 0 1 84.58 270.07
  Q 86.37 270.10 87.48 269.32
  A 0.87 0.87 0.0 0 0 87.85 268.61
  L 87.85 254.69
  A 3.77 3.76 80.0 0 0 82.80 251.15
  L 81.63 251.58
  A 5.72 5.71 -10.2 0 0 77.86 257.01
  L 77.97 267.46
  A 1.61 1.61 0.0 0 0 78.14 268.18
  Q 79.12 270.25 81.82 270.06
  A 0.29 0.29 0.0 0 1 82.14 270.35
  L 82.14 270.68
  A 0.32 0.32 0.0 0 1 81.82 271.00
  L 71.13 271.00
  A 0.29 0.29 0.0 0 1 70.84 270.71
  L 70.84 270.45
  A 0.34 0.33 87.2 0 1 71.14 270.11
  Q 72.66 269.96 73.40 269.47
  A 1.06 1.04 73.5 0 0 73.87 268.59
  L 73.87 252.86
  A 1.16 1.10 -57.4 0 0 73.79 252.44
  Q 73.20 250.90 71.28 251.88
  A 0.42 0.42 0.0 0 1 70.72 251.70
  L 70.59 251.45
  A 0.25 0.24 -26.6 0 1 70.70 251.13
  L 77.20 247.85
  A 0.73 0.73 0.0 0 1 78.26 248.50
  L 78.26 252.53
  A 0.17 0.17 0.0 0 0 78.54 252.65
  C 80.12 251.18 81.44 249.64 83.25 248.77
  Q 88.45 246.29 91.64 251.45
  Q 91.92 251.89 91.80 252.16
  A 0.24 0.23 -1.6 0 0 92.12 252.46
  Z"
/>
<path fill="#ffffff" d="
  M 110.85 256.61
  C 112.72 250.56 118.90 246.30 125.16 248.59
  C 131.16 250.79 134.33 257.38 132.47 263.43
  C 130.59 269.48 124.41 273.74 118.15 271.45
  C 112.15 269.25 108.97 262.66 110.85 256.61
  Z
  M 115.18 260.93
  C 115.67 264.14 117.38 268.63 120.75 269.66
  Q 124.32 270.75 126.82 267.65
  A 2.22 2.17 69.5 0 0 127.26 266.64
  Q 127.99 262.01 127.55 259.08
  Q 127.11 256.15 125.06 251.94
  A 2.22 2.17 -86.5 0 0 124.33 251.10
  Q 121.04 248.86 117.94 250.96
  C 115.02 252.93 114.70 257.73 115.18 260.93
  Z"
/>
<rect fill="#ffffff" x="-10.00" y="-2.98" transform="translate(245.01,293.99) rotate(0.1)" width="20.00" height="5.96" rx="0.79"/>
<rect fill="#ffffff" x="-10.01" y="-2.94" transform="translate(277.01,294.00) rotate(0.1)" width="20.02" height="5.88" rx="0.87"/>
<rect fill="#ffffff" x="-10.01" y="-2.94" transform="translate(309.01,294.00) rotate(0.2)" width="20.02" height="5.88" rx="0.88"/>
<rect fill="#ffffff" x="-9.51" y="-2.97" transform="translate(341.51,294.00) rotate(0.1)" width="19.02" height="5.94" rx="0.88"/>
<rect fill="#ffffff" x="-9.52" y="-2.96" transform="translate(373.52,294.00) rotate(0.1)" width="19.04" height="5.92" rx="0.93"/>
<rect fill="#ffffff" x="-9.51" y="-2.97" transform="translate(405.50,294.00) rotate(0.1)" width="19.02" height="5.94" rx="0.84"/>
<rect fill="#ffffff" x="-9.49" y="-3.00" transform="translate(437.51,294.00) rotate(0.1)" width="18.98" height="6.00" rx="0.66"/>
<path fill="#ffffff" d="
  M 522.10 310.49
  L 515.99 304.38
  A 0.14 0.14 0.0 0 0 515.75 304.48
  L 515.75 345.50
  A 0.14 0.14 0.0 0 0 515.99 345.60
  L 522.53 339.06
  A 0.14 0.14 0.0 0 1 522.75 339.22
  L 517.02 350.69
  A 0.14 0.14 0.0 0 0 517.01 350.75
  L 517.01 356.89
  A 0.14 0.14 0.0 0 1 516.87 357.03
  L 498.15 357.03
  A 0.14 0.14 0.0 0 1 498.01 356.89
  L 498.01 351.15
  A 0.14 0.14 0.0 0 1 498.15 351.01
  L 509.55 351.01
  A 0.14 0.14 0.0 0 0 509.68 350.81
  L 503.92 339.40
  A 0.14 0.14 0.0 0 1 504.15 339.24
  L 510.76 345.85
  A 0.14 0.14 0.0 0 0 511.00 345.75
  L 511.00 304.50
  A 0.14 0.14 0.0 0 0 510.76 304.40
  L 504.00 311.16
  A 0.14 0.14 0.0 0 1 503.77 311.00
  L 510.67 297.19
  A 0.14 0.14 0.0 0 0 510.54 296.99
  L 492.18 296.99
  A 0.14 0.14 0.0 0 1 492.04 296.85
  L 492.04 291.14
  A 0.14 0.14 0.0 0 1 492.18 291.00
  L 511.56 291.00
  A 0.14 0.14 0.0 0 1 511.70 291.10
  L 512.44 293.68
  A 0.14 0.14 0.0 0 0 512.70 293.70
  L 513.31 292.49
  A 0.14 0.14 0.0 0 1 513.56 292.49
  L 522.51 310.23
  A 0.14 0.14 0.0 0 1 522.44 310.42
  L 522.26 310.51
  A 0.14 0.14 0.0 0 1 522.10 310.49
  Z"
/>
<rect fill="#ffffff" x="-10.01" y="-3.00" transform="translate(534.00,293.99) rotate(0.1)" width="20.02" height="6.00" rx="0.75"/>
<rect fill="#ffffff" x="556.03" y="291.00" width="19.98" height="6.00" rx="0.57"/>
<rect fill="#ffffff" x="589.02" y="291.00" width="18.98" height="6.00" rx="0.48"/>
<path fill="#ffffff" d="
  M 572.51 330.02
  L 571.40 334.14
  A 2.20 2.13 -15.7 0 1 570.84 335.10
  Q 569.60 336.32 568.59 337.30
  Q 563.29 342.43 557.33 337.96
  Q 556.28 337.17 553.96 333.25
  A 0.84 0.82 77.4 0 0 553.36 332.86
  Q 553.15 332.84 553.01 332.67
  Q 552.81 332.44 552.84 332.30
  Q 553.11 330.50 552.49 329.34
  A 2.65 2.61 -60.0 0 1 552.18 328.14
  Q 552.16 325.24 551.92 321.75
  Q 551.37 313.69 558.04 308.77
  C 562.09 305.79 565.88 306.71 569.25 310.25
  Q 573.14 314.34 573.13 320.58
  Q 573.11 330.19 573.01 330.87
  A 0.08 0.07 48.1 0 1 572.86 330.86
  L 572.90 330.08
  A 0.20 0.20 0.0 0 0 572.51 330.02
  Z
  M 566.32 310.90
  C 564.59 308.14 561.39 308.15 559.35 310.63
  Q 557.38 313.03 557.07 316.65
  Q 556.64 321.66 557.02 329.06
  C 557.24 333.15 560.19 341.36 565.44 337.00
  A 2.10 2.01 83.2 0 0 565.99 336.26
  Q 567.54 332.73 567.75 330.53
  Q 568.35 324.55 567.85 317.20
  C 567.73 315.52 566.98 311.97 566.32 310.90
  Z"
/>
<path fill="#ffffff" d="
  M 595.79 321.78
  Q 594.82 321.42 594.48 321.13
  Q 589.67 316.99 591.60 311.83
  A 2.53 2.49 -13.6 0 1 592.09 311.04
  C 596.64 306.00 604.94 305.18 608.88 310.93
  Q 610.11 312.73 609.74 315.35
  A 2.44 2.36 66.8 0 1 609.39 316.27
  Q 607.39 319.33 603.46 321.40
  A 0.48 0.47 -39.5 0 0 603.38 322.19
  C 605.53 323.95 608.68 325.96 609.91 328.86
  C 611.53 332.69 610.09 336.70 606.36 338.59
  Q 597.72 342.98 591.22 334.82
  C 590.21 333.56 590.65 330.83 591.30 329.59
  Q 592.19 327.88 597.28 323.81
  A 0.58 0.58 0.0 0 0 597.28 322.91
  L 596.02 321.91
  A 0.94 0.71 -7.8 0 0 595.79 321.78
  Z
  M 595.53 315.62
  Q 597.89 318.46 601.26 320.51
  A 0.86 0.84 -44.4 0 0 602.13 320.51
  Q 606.87 317.71 606.05 312.06
  A 1.74 1.70 23.4 0 0 605.72 311.26
  Q 603.31 308.09 598.79 309.29
  C 595.95 310.04 594.13 311.62 595.08 314.78
  A 2.53 2.40 18.3 0 0 595.53 315.62
  Z
  M 606.84 334.91
  C 608.56 330.92 602.61 326.83 599.51 324.74
  A 0.87 0.87 0.0 0 0 598.55 324.74
  Q 594.64 327.37 594.83 331.53
  C 595.05 336.27 598.07 338.60 602.64 337.85
  Q 605.79 337.34 606.84 334.91
  Z"
/>
<path fill="#ffffff" d="
  M 627.58 330.99
  L 614.58 330.99
  A 0.56 0.56 0.0 0 1 614.02 330.46
  Q 613.90 328.48 614.60 327.52
  Q 619.98 320.17 628.99 307.74
  Q 629.83 306.58 631.61 306.88
  A 0.58 0.57 -85.3 0 1 632.09 307.45
  L 632.09 327.34
  A 0.70 0.70 0.0 0 0 632.79 328.04
  L 636.21 328.04
  A 0.65 0.65 0.0 0 1 636.86 328.69
  L 636.86 330.38
  A 0.65 0.65 0.0 0 1 636.21 331.03
  L 632.67 331.03
  A 0.58 0.58 0.0 0 0 632.09 331.61
  L 632.09 339.61
  A 0.32 0.32 0.0 0 1 631.77 339.93
  L 628.54 339.93
  A 0.49 0.49 0.0 0 1 628.05 339.44
  L 628.05 331.46
  A 0.47 0.47 0.0 0 0 627.58 330.99
  Z
  M 617.01 327.90
  L 627.36 328.03
  A 0.54 0.54 0.0 0 0 627.91 327.49
  L 628.08 312.70
  A 0.11 0.11 0.0 0 0 627.88 312.63
  L 616.65 327.15
  A 0.46 0.46 0.0 0 0 617.01 327.90
  Z"
/>
<path fill="#ffffff" d="
  M 348.33 324.54
  A 0.34 0.34 0.0 0 1 348.67 324.21
  L 348.92 324.21
  A 0.24 0.23 -0.0 0 1 349.16 324.44
  L 349.16 335.50
  A 0.27 0.27 0.0 0 1 348.89 335.77
  L 348.52 335.77
  A 0.34 0.34 0.0 0 1 348.18 335.41
  Q 348.33 331.72 345.51 331.21
  Q 343.50 330.85 336.22 331.04
  A 0.66 0.65 89.1 0 0 335.59 331.70
  C 335.64 335.62 335.59 339.10 335.56 342.40
  Q 335.53 345.00 337.96 345.01
  Q 345.82 345.02 346.94 344.97
  A 4.67 4.57 -55.1 0 0 348.21 344.73
  Q 351.72 343.56 353.90 339.25
  A 0.36 0.36 0.0 0 1 354.22 339.05
  L 354.64 339.05
  A 0.36 0.36 0.0 0 1 354.98 339.53
  L 352.40 346.41
  A 0.91 0.89 -79.6 0 1 351.56 347.00
  L 326.38 347.00
  A 0.36 0.35 0.0 0 1 326.02 346.65
  L 326.02 346.30
  A 0.21 0.20 -1.5 0 1 326.22 346.10
  C 330.14 345.93 330.89 345.40 330.91 341.25
  Q 330.97 319.70 330.83 317.50
  C 330.66 314.76 328.04 315.29 326.22 314.75
  A 0.38 0.38 0.0 0 1 326.33 314.01
  L 351.58 314.01
  A 0.61 0.60 0.0 0 1 352.19 314.61
  L 352.19 320.63
  A 0.22 0.22 0.0 0 1 351.97 320.85
  L 351.57 320.85
  A 0.37 0.37 0.0 0 1 351.20 320.51
  Q 350.87 316.64 347.79 316.20
  Q 345.28 315.85 336.26 316.06
  A 0.68 0.68 0.0 0 0 335.59 316.74
  L 335.59 328.28
  A 0.68 0.68 0.0 0 0 336.26 328.96
  Q 343.17 329.12 345.12 328.85
  Q 348.28 328.40 348.33 324.54
  Z"
/>
<ellipse fill="#ffffff" cx="0.00" cy="0.00" transform="translate(581.42,339.00) rotate(-179.9)" rx="2.71" ry="2.00"/>
<rect fill="#ffffff" x="209.02" y="351.00" width="18.98" height="6.00" rx="0.47"/>
<rect fill="#ffffff" x="-9.49" y="-3.00" transform="translate(250.51,354.00) rotate(0.1)" width="18.98" height="6.00" rx="0.43"/>
<rect fill="#ffffff" x="273.01" y="351.00" width="19.00" height="6.00" rx="0.40"/>
<rect fill="#ffffff" x="369.00" y="351.00" width="20.00" height="6.00" rx="0.46"/>
<rect fill="#ffffff" x="401.01" y="351.00" width="19.98" height="6.00" rx="0.45"/>
<rect fill="#ffffff" x="433.99" y="351.01" width="19.02" height="5.96" rx="0.77"/>
<rect fill="#ffffff" x="465.98" y="351.03" width="19.06" height="5.92" rx="0.92"/>
<rect fill="#ffffff" x="-9.49" y="-3.00" transform="translate(539.51,354.00) rotate(0.1)" width="18.98" height="6.00" rx="0.55"/>
<rect fill="#ffffff" x="-0.99" y="-3.05" transform="translate(563.00,354.02) rotate(0.4)" width="1.98" height="6.10" rx="0.78"/>
<path fill="#ffffff" d="
  M 392.65 370.34
  Q 392.79 370.56 392.87 371.02
  Q 393.84 376.56 393.93 378.75
  A 2.06 2.05 -30.8 0 1 393.63 379.92
  Q 392.70 381.45 393.06 384.80
  A 3.06 3.04 56.4 0 1 392.70 386.62
  Q 391.25 389.24 390.04 390.81
  C 384.21 398.37 376.57 394.82 373.54 387.24
  C 370.91 380.66 371.17 371.25 375.57 365.30
  C 379.01 360.66 384.45 359.26 388.78 363.74
  Q 391.75 366.82 392.23 369.58
  A 1.04 0.08 56.9 0 0 392.65 370.34
  Z
  M 388.93 373.47
  Q 388.96 373.90 388.83 374.27
  A 0.18 0.18 0.0 0 1 388.49 374.24
  Q 387.99 371.02 387.97 370.23
  Q 387.91 368.08 386.73 365.52
  Q 385.18 362.17 381.30 363.29
  A 2.49 2.44 -74.6 0 0 380.25 363.90
  Q 378.18 365.91 377.57 369.50
  Q 375.88 379.32 377.43 386.23
  C 378.36 390.37 380.64 395.31 385.41 392.01
  A 1.80 1.77 84.1 0 0 386.04 391.22
  Q 388.39 385.41 388.59 379.85
  A 0.15 0.15 0.0 0 1 388.89 379.82
  C 388.93 380.00 388.87 380.41 388.88 380.69
  C 388.88 378.40 388.88 376.00 388.88 373.47
  Q 388.87 372.51 388.93 373.47
  Z"
/>
<path fill="#ffffff" d="
  M 423.04 386.46
  A 0.48 0.48 0.0 0 0 422.55 385.98
  L 409.22 386.11
  A 0.58 0.58 0.0 0 1 408.64 385.57
  Q 408.50 383.54 409.21 382.55
  Q 414.66 374.96 423.77 362.13
  Q 424.62 360.93 426.45 361.22
  A 0.59 0.59 0.0 0 1 426.95 361.80
  L 427.14 382.20
  A 0.72 0.72 0.0 0 0 427.86 382.91
  L 431.37 382.87
  A 0.67 0.67 0.0 0 1 432.04 383.53
  L 432.06 385.27
  A 0.67 0.67 0.0 0 1 431.40 385.94
  L 427.77 385.97
  A 0.59 0.59 0.0 0 0 427.18 386.57
  L 427.26 394.77
  A 0.33 0.33 0.0 0 1 426.93 395.11
  L 423.62 395.14
  A 0.50 0.50 0.0 0 1 423.12 394.64
  L 423.04 386.46
  Z
  M 411.77 383.03
  L 422.49 383.03
  A 0.56 0.56 0.0 0 0 423.05 382.47
  L 423.05 367.16
  A 0.12 0.12 0.0 0 0 422.84 367.09
  L 411.39 382.26
  A 0.48 0.48 0.0 0 0 411.77 383.03
  Z"
/>
<path fill="#ffffff" d="
  M 227.93 369.09
  Q 228.29 368.72 228.26 367.89
  A 0.96 0.95 -23.9 0 1 228.53 367.20
  C 232.05 363.58 235.63 360.00 240.69 363.12
  Q 244.97 365.76 246.55 371.30
  Q 249.38 381.25 244.36 391.30
  Q 243.56 392.88 242.00 393.97
  Q 235.03 398.85 230.04 392.19
  Q 229.62 391.64 229.05 391.59
  A 0.79 0.77 77.8 0 1 228.45 391.19
  Q 226.12 387.05 225.98 385.20
  Q 225.80 382.79 225.94 373.55
  A 0.45 0.33 62.7 0 1 225.96 373.42
  L 227.22 369.51
  A 1.24 1.14 78.6 0 1 227.51 369.03
  Q 227.60 368.94 227.84 369.10
  A 0.07 0.07 0.0 0 0 227.93 369.09
  Z
  M 240.72 366.18
  C 238.98 363.33 235.71 363.30 233.59 365.81
  Q 231.55 368.24 231.18 371.94
  Q 230.68 377.06 230.96 384.64
  C 231.13 388.82 234.05 397.26 239.48 392.88
  A 2.15 2.06 83.9 0 0 240.06 392.13
  Q 241.68 388.53 241.93 386.29
  Q 242.62 380.17 242.20 372.64
  C 242.10 370.92 241.38 367.28 240.72 366.18
  Z"
/>
<path fill="#ffffff" d="
  M 264.73 371.80
  A 0.36 0.36 0.0 0 1 264.12 371.48
  Q 264.85 367.75 266.81 365.30
  C 270.26 360.95 276.70 361.05 280.54 364.53
  C 285.67 369.18 282.79 375.93 279.17 380.45
  Q 274.30 386.53 269.11 391.39
  A 0.32 0.32 0.0 0 0 269.33 391.94
  Q 272.46 392.02 278.61 392.01
  C 281.32 392.01 282.67 391.62 284.42 389.58
  A 0.40 0.40 0.0 0 1 285.11 389.97
  L 283.24 395.57
  A 0.64 0.63 -80.3 0 1 282.64 396.00
  L 263.43 396.00
  A 0.40 0.40 0.0 0 1 263.03 395.61
  Q 263.00 395.11 263.46 394.72
  Q 270.39 388.68 275.47 382.04
  C 278.23 378.42 281.02 372.07 277.37 368.12
  C 274.59 365.11 270.09 365.40 267.20 368.17
  C 266.18 369.14 265.64 370.89 264.73 371.80
  Z"
/>
<path fill="#ffffff" d="
  M 664.66 386.56
  A 0.36 0.24 85.2 0 0 664.42 386.25
  Q 664.36 386.25 664.32 386.18
  A 0.76 0.37 47.4 0 1 664.25 385.94
  L 663.85 373.88
  A 2.87 2.62 53.4 0 1 663.93 373.13
  C 666.54 362.43 678.14 356.43 683.99 369.79
  Q 685.03 372.16 685.09 374.87
  C 685.28 381.18 685.38 384.53 682.94 389.76
  Q 681.28 393.33 679.01 394.72
  C 675.22 397.05 671.59 396.27 668.71 393.00
  Q 668.70 392.98 666.52 390.79
  Q 665.10 389.37 664.66 386.56
  Z
  M 678.47 391.75
  C 679.14 390.66 679.89 387.03 680.01 385.31
  Q 680.51 377.80 679.88 371.69
  Q 679.66 369.44 678.07 365.84
  A 2.15 2.05 -83.3 0 0 677.50 365.08
  C 672.13 360.65 669.13 369.04 668.92 373.22
  Q 668.56 380.78 669.01 385.90
  Q 669.33 389.60 671.35 392.04
  C 673.44 394.57 676.70 394.58 678.47 391.75
  Z"
/>
<path fill="#ffffff" d="
  M 722.16 389.63
  Q 721.94 391.85 719.92 393.50
  Q 715.13 397.40 708.73 395.36
  A 2.50 2.33 -17.3 0 1 708.17 395.09
  C 706.65 394.16 704.86 393.69 704.04 392.44
  C 701.30 388.26 702.81 384.00 706.67 381.21
  Q 709.35 379.27 709.56 379.12
  A 0.40 0.40 0.0 0 0 709.60 378.49
  Q 709.28 378.21 708.25 377.76
  C 706.09 376.82 702.69 372.51 703.02 369.83
  Q 703.32 367.35 704.01 366.52
  Q 705.25 365.01 706.85 363.75
  C 711.04 360.44 718.15 361.74 721.06 366.20
  Q 722.10 367.77 721.76 369.76
  C 721.08 373.77 717.93 374.63 715.32 376.89
  A 0.46 0.45 -47.4 0 0 715.34 377.60
  Q 717.50 379.19 719.72 381.30
  C 721.43 382.93 723.54 386.76 722.31 389.12
  A 1.54 1.49 62.4 0 0 722.16 389.63
  Z
  M 717.66 372.18
  Q 718.44 369.16 718.04 366.82
  A 1.50 1.49 17.4 0 0 717.59 365.97
  Q 713.89 362.44 709.21 364.97
  Q 706.39 366.50 706.98 369.76
  A 2.27 2.21 -69.7 0 0 707.39 370.68
  Q 709.37 373.29 713.08 375.67
  A 1.05 1.04 -43.6 0 0 714.18 375.69
  Q 716.67 374.21 717.32 372.10
  A 0.16 0.15 -4.7 0 1 717.41 372.00
  Q 717.64 371.91 717.53 372.35
  A 0.15 0.03 -64.3 0 0 717.66 372.18
  Z
  M 718.68 390.23
  Q 719.19 388.08 717.17 385.72
  Q 717.00 385.52 717.06 385.27
  A 1.10 1.10 0.0 0 0 716.67 384.17
  L 712.20 380.58
  A 1.93 1.93 0.0 0 0 709.36 381.06
  Q 706.67 385.32 707.19 390.01
  A 1.90 1.85 25.1 0 0 707.52 390.89
  Q 711.07 395.83 716.39 393.18
  Q 718.19 392.28 718.68 390.23
  Z"
/>
<path fill="#ffffff" d="
  M 516.43 387.13
  Q 516.37 387.13 516.33 387.06
  A 0.75 0.37 47.8 0 1 516.26 386.82
  L 515.95 374.78
  A 2.86 2.62 53.7 0 1 516.03 374.04
  C 518.71 363.38 530.32 357.47 536.07 370.84
  Q 537.09 373.21 537.14 375.91
  C 537.28 382.21 537.36 385.56 534.89 390.76
  Q 533.21 394.31 530.94 395.68
  C 527.14 397.98 523.52 397.18 520.67 393.90
  Q 520.66 393.88 518.50 391.68
  Q 517.09 390.25 516.67 387.44
  A 0.36 0.24 85.6 0 0 516.43 387.13
  Z
  M 530.45 367.18
  C 528.68 364.35 525.41 364.36 523.32 366.90
  Q 521.31 369.35 520.99 373.05
  Q 520.55 378.18 520.93 385.75
  C 521.15 389.93 524.17 398.33 529.54 393.88
  A 2.15 2.06 83.2 0 0 530.11 393.12
  Q 531.69 389.51 531.91 387.26
  Q 532.52 381.14 532.01 373.62
  C 531.89 371.90 531.13 368.27 530.45 367.18
  Z"
/>
<path fill="#ffffff" d="
  M 555.06 389.00
  Q 555.02 389.15 554.98 389.26
  A 0.08 0.08 0.0 0 1 554.83 389.23
  Q 554.76 388.53 554.32 387.97
  A 1.25 1.23 20.2 0 1 554.09 387.48
  Q 553.76 386.09 553.77 382.08
  Q 553.77 376.83 557.33 372.24
  A 0.27 0.26 -59.7 0 1 557.62 372.16
  Q 557.86 372.24 558.00 372.03
  C 561.61 366.53 568.00 362.40 574.71 363.09
  A 0.32 0.32 0.0 0 1 574.74 363.72
  Q 563.23 365.90 559.88 377.26
  A 0.48 0.48 0.0 0 0 560.58 377.81
  C 565.12 375.21 570.51 375.05 573.78 379.76
  Q 574.45 380.73 575.78 384.28
  A 2.76 2.68 -54.4 0 1 575.94 385.36
  Q 575.59 391.78 570.74 395.06
  C 563.71 399.82 558.44 395.67 555.30 388.98
  A 0.13 0.13 0.0 0 0 555.06 389.00
  Z
  M 570.75 385.77
  Q 570.38 383.43 569.89 381.65
  C 569.19 379.10 566.22 377.50 563.50 378.13
  Q 561.54 378.59 559.63 379.78
  A 1.37 1.34 -13.7 0 0 558.99 380.81
  Q 558.36 387.37 560.77 392.04
  A 3.97 3.94 9.3 0 0 561.45 392.98
  Q 565.63 397.23 570.02 392.81
  A 2.60 2.59 69.2 0 0 570.76 391.15
  Q 571.00 387.43 570.75 385.77
  Z"
/>
<ellipse fill="#ffffff" cx="0.00" cy="0.00" transform="translate(401.45,394.00) rotate(-179.9)" rx="2.68" ry="1.99"/>
<ellipse fill="#ffffff" cx="0.00" cy="0.00" transform="translate(255.47,395.00) rotate(-0.3)" rx="2.62" ry="2.01"/>
<ellipse fill="#ffffff" cx="0.00" cy="0.00" transform="translate(693.45,395.00) rotate(-180.1)" rx="2.67" ry="2.00"/>
<ellipse fill="#ffffff" cx="0.00" cy="0.00" transform="translate(546.44,396.00) rotate(-0.4)" rx="2.65" ry="2.00"/>
<circle fill="#ffffff" cx="299.42" cy="429.49" r="2.47"/>
<path fill="#ffffff" d="
  M 409.69 461.50
  L 409.56 461.97
  A 0.04 0.04 0.0 0 1 409.52 462.00
  L 396.35 462.00
  A 0.32 0.32 0.0 0 1 396.03 461.68
  L 396.03 461.36
  A 0.33 0.33 0.0 0 1 396.36 461.03
  Q 400.49 461.13 400.57 457.08
  Q 400.71 449.22 400.62 442.65
  A 0.67 0.67 0.0 0 0 399.95 441.99
  L 396.65 441.99
  A 0.74 0.74 0.0 0 1 395.91 441.25
  L 395.91 440.85
  A 0.83 0.83 0.0 0 1 396.74 440.02
  L 399.93 440.02
  A 0.62 0.62 0.0 0 0 400.53 439.26
  Q 398.92 432.14 405.19 428.40
  Q 411.06 424.90 415.44 429.74
  A 2.68 2.68 0.0 0 1 415.62 433.13
  L 415.53 433.27
  A 1.71 1.71 0.0 0 1 412.75 433.30
  L 410.22 429.88
  A 1.90 1.88 -10.7 0 0 409.20 429.19
  Q 405.51 428.20 404.79 432.00
  Q 404.43 433.91 404.42 439.34
  A 0.67 0.67 0.0 0 0 405.09 440.01
  L 409.85 440.01
  A 0.77 0.77 0.0 0 1 410.62 440.78
  L 410.62 441.16
  A 0.84 0.84 0.0 0 1 409.78 442.00
  L 405.11 442.00
  A 0.63 0.63 0.0 0 0 404.48 442.63
  Q 404.48 453.40 404.52 457.27
  Q 404.56 461.52 409.29 461.04
  A 0.37 0.37 0.0 0 1 409.69 461.50
  Z"
/>
<path fill="#ffffff" d="
  M 538.68 444.57
  Q 538.82 443.91 539.19 443.48
  Q 540.31 442.18 542.22 440.82
  Q 547.73 436.90 552.12 441.11
  A 0.50 0.50 0.0 0 0 552.94 440.91
  Q 552.98 440.80 552.46 440.24
  A 1.22 1.16 -68.1 0 1 552.13 439.41
  L 552.13 431.34
  A 0.66 0.65 -63.0 0 0 552.01 430.96
  Q 551.32 430.00 549.54 430.84
  A 0.38 0.38 0.0 0 1 549.03 430.67
  L 548.79 430.20
  A 0.19 0.19 0.0 0 1 548.89 429.94
  L 555.86 427.02
  A 0.84 0.83 78.3 0 1 557.01 427.78
  Q 557.15 441.30 557.07 456.90
  Q 557.06 458.85 557.72 459.26
  Q 558.69 459.85 560.23 459.17
  A 0.38 0.37 -25.5 0 1 560.72 459.34
  L 560.91 459.71
  A 0.17 0.17 0.0 0 1 560.83 459.94
  L 553.78 462.96
  A 0.85 0.85 0.0 0 1 552.61 462.02
  Q 552.92 460.41 552.86 460.10
  A 0.42 0.42 0.0 0 0 552.14 459.89
  Q 546.08 466.30 539.50 459.84
  A 2.11 1.69 77.8 0 0 539.18 459.58
  Q 537.07 458.21 536.95 455.67
  Q 536.72 450.86 537.89 445.63
  Q 537.97 445.29 538.36 445.05
  A 0.75 0.73 79.3 0 0 538.68 444.57
  Z
  M 541.08 452.10
  Q 541.41 454.55 542.81 456.59
  Q 546.93 462.61 552.33 458.07
  A 1.50 1.48 -19.5 0 0 552.86 456.98
  Q 553.10 448.62 552.80 446.23
  Q 552.25 441.77 547.98 441.01
  C 544.71 440.44 541.80 444.31 541.22 446.98
  Q 540.70 449.35 541.08 452.10
  Z"
/>
<path fill="#ffffff" d="
  M 569.28 430.99
  Q 567.73 432.77 565.68 431.53
  A 2.60 2.12 -57.2 0 1 565.30 428.10
  C 566.39 426.49 569.26 426.86 569.69 428.41
  Q 570.13 430.01 569.28 430.99
  Z"
/>
<circle fill="#ffffff" cx="668.42" cy="429.49" r="2.46"/>
<path fill="#ffffff" d="
  M 738.16 442.79
  C 741.00 438.78 746.47 437.58 750.08 441.09
  A 0.34 0.34 0.0 0 0 750.66 440.88
  Q 751.26 434.37 750.64 432.14
  Q 749.95 429.64 747.69 430.81
  A 0.56 0.55 -26.8 0 1 746.94 430.57
  L 746.81 430.30
  A 0.28 0.28 0.0 0 1 746.95 429.91
  L 753.80 427.04
  A 0.85 0.85 0.0 0 1 754.98 427.82
  L 754.98 457.61
  A 1.80 1.80 0.0 0 0 756.78 459.41
  L 758.47 459.41
  A 0.21 0.20 -58.2 0 1 758.56 459.80
  L 751.87 463.18
  A 0.75 0.75 0.0 0 1 750.78 462.51
  L 750.78 459.78
  A 0.26 0.26 0.0 0 0 750.32 459.62
  Q 745.67 465.25 739.43 461.59
  A 1.69 1.64 83.8 0 1 738.96 461.20
  Q 738.15 460.29 736.48 459.11
  Q 735.74 458.59 736.06 457.89
  A 0.39 0.38 -73.0 0 0 735.78 457.35
  Q 734.96 457.20 734.92 455.74
  Q 734.83 452.09 734.91 448.49
  Q 734.95 446.98 737.76 442.77
  A 0.02 0.02 0.0 0 1 737.79 442.76
  L 738.03 442.83
  A 0.13 0.12 26.2 0 0 738.16 442.79
  Z
  M 739.09 452.15
  Q 739.44 454.60 740.86 456.62
  Q 745.02 462.59 750.37 458.01
  A 1.49 1.47 -20.0 0 0 750.89 456.92
  Q 751.06 448.58 750.74 446.20
  Q 750.15 441.75 745.88 441.03
  C 742.61 440.49 739.74 444.38 739.19 447.05
  Q 738.69 449.41 739.09 452.15
  Z"
/>
<path fill="#ffffff" d="
  M 507.91 448.38
  C 506.18 458.53 494.63 466.79 484.21 461.49
  Q 477.61 458.13 475.58 452.29
  Q 474.24 448.41 475.19 442.80
  Q 476.15 437.20 478.70 433.98
  Q 482.55 429.15 489.89 428.16
  C 501.48 426.62 509.64 438.23 507.91 448.38
  Z
  M 480.79 445.61
  Q 480.81 446.98 480.81 448.37
  C 480.81 453.51 483.41 459.31 488.70 460.66
  C 495.80 462.47 501.20 457.34 502.00 450.46
  Q 502.13 449.35 502.09 445.38
  Q 502.05 441.40 501.89 440.29
  C 500.94 433.44 495.43 428.42 488.37 430.39
  C 483.11 431.85 480.64 437.71 480.75 442.85
  Q 480.78 444.24 480.79 445.61
  Z"
/>
<path fill="#ffffff" d="
  M 188.84 429.40
  L 188.84 429.39
  A 0.39 0.39 0.0 0 1 189.23 429.01
  L 213.20 429.00
  A 0.57 0.57 0.0 0 1 213.77 429.53
  L 214.15 435.39
  A 0.49 0.49 0.0 0 1 213.69 435.91
  L 213.43 435.93
  A 0.23 0.22 80.4 0 1 213.20 435.76
  Q 212.15 431.64 208.62 431.15
  Q 206.70 430.89 199.09 431.04
  A 0.70 0.70 0.0 0 0 198.41 431.74
  L 198.41 443.30
  A 0.68 0.68 0.0 0 0 199.08 443.98
  Q 204.83 444.09 206.15 443.87
  C 208.65 443.45 208.61 441.43 209.15 439.46
  A 0.45 0.45 0.0 0 1 210.04 439.58
  L 210.04 450.60
  A 0.25 0.25 0.0 0 1 209.79 450.85
  L 209.50 450.85
  A 0.41 0.39 -86.7 0 1 209.11 450.40
  Q 209.43 447.55 206.87 446.15
  A 1.11 1.06 58.4 0 0 206.34 446.01
  L 199.09 446.01
  A 0.58 0.58 0.0 0 0 198.51 446.58
  L 198.31 458.19
  A 1.41 1.35 -55.0 0 0 198.39 458.71
  Q 199.33 461.28 202.78 461.02
  A 0.39 0.38 85.5 0 1 203.19 461.38
  L 203.20 461.65
  A 0.32 0.32 0.0 0 1 202.88 462.00
  L 189.17 462.00
  A 0.27 0.27 0.0 0 1 188.90 461.73
  L 188.90 461.40
  A 0.35 0.35 0.0 0 1 189.28 461.05
  Q 191.07 461.15 192.78 460.28
  A 1.15 1.13 83.4 0 0 193.38 459.51
  Q 193.82 457.49 193.85 455.69
  Q 193.96 446.00 193.81 432.70
  A 2.35 2.35 0.0 0 0 192.00 430.45
  L 189.18 429.79
  A 0.46 0.44 -87.5 0 1 188.84 429.40
  Z"
/>
<path fill="#ffffff" d="
  M 455.15 462.26
  A 0.35 0.34 25.1 0 1 454.54 462.48
  L 432.82 436.36
  A 0.35 0.34 -65.1 0 0 432.21 436.59
  L 432.21 458.89
  A 1.09 1.00 -62.2 0 0 432.35 459.42
  Q 433.39 461.22 436.66 461.05
  A 0.37 0.37 0.0 0 1 437.05 461.42
  L 437.05 461.70
  A 0.29 0.28 90.0 0 1 436.77 461.99
  L 425.46 461.99
  A 0.27 0.27 0.0 0 1 425.19 461.72
  L 425.19 461.34
  A 0.27 0.26 -90.0 0 1 425.45 461.07
  Q 429.77 461.02 429.90 458.52
  Q 430.15 453.42 430.12 433.75
  A 1.59 1.57 -65.3 0 0 429.75 432.73
  Q 427.50 430.13 423.71 429.92
  A 0.38 0.37 -89.2 0 1 423.35 429.54
  L 423.35 429.28
  A 0.28 0.28 0.0 0 1 423.63 429.00
  L 432.06 429.00
  A 0.87 0.86 70.3 0 1 432.73 429.32
  L 452.83 453.49
  A 0.29 0.29 0.0 0 0 453.35 453.31
  L 453.29 433.22
  A 3.32 3.31 -74.6 0 0 451.69 430.40
  Q 450.94 429.94 448.79 429.97
  A 0.45 0.45 0.0 0 1 448.34 429.52
  L 448.34 429.26
  A 0.26 0.25 -90.0 0 1 448.59 429.00
  L 459.86 429.00
  A 0.41 0.40 -90.0 0 1 460.26 429.41
  L 460.26 429.68
  A 0.29 0.28 -87.3 0 1 459.95 429.97
  Q 456.88 429.69 455.33 431.69
  A 0.85 0.84 -26.2 0 0 455.15 432.21
  L 455.15 462.26
  Z"
/>
<path fill="#ffffff" d="
  M 281.47 460.42
  Q 280.94 459.55 280.93 458.60
  Q 280.84 452.51 280.89 444.00
  Q 280.89 443.27 281.13 443.07
  Q 281.61 442.67 281.10 442.13
  A 0.47 0.46 67.8 0 0 280.76 441.98
  L 277.89 441.98
  A 0.48 0.48 0.0 0 1 277.65 441.08
  Q 279.45 440.06 279.48 440.04
  Q 280.34 439.28 283.07 436.10
  Q 283.52 435.57 284.23 433.51
  A 0.48 0.48 0.0 0 1 285.16 433.67
  L 285.16 439.42
  A 0.55 0.54 90.0 0 0 285.70 439.97
  L 289.83 439.97
  A 0.80 0.79 -0.0 0 1 290.63 440.76
  L 290.63 441.13
  A 0.86 0.86 0.0 0 1 289.77 441.99
  L 285.66 441.99
  A 0.62 0.61 90.0 0 0 285.05 442.61
  L 285.05 457.96
  A 1.09 1.05 30.0 0 0 285.21 458.52
  Q 286.61 460.66 288.86 459.65
  A 1.52 1.51 4.9 0 0 289.53 459.09
  Q 290.09 458.25 290.57 458.06
  A 0.47 0.47 0.0 0 1 291.17 458.71
  C 289.27 462.62 284.40 465.27 281.47 460.42
  Z"
/>
<path fill="#ffffff" d="
  M 701.42 460.42
  Q 700.90 459.55 700.89 458.61
  Q 700.80 452.52 700.86 444.02
  Q 700.86 443.30 701.10 443.10
  Q 701.58 442.70 701.07 442.16
  A 0.47 0.46 67.9 0 0 700.73 442.01
  L 697.87 442.00
  A 0.48 0.48 0.0 0 1 697.63 441.11
  Q 699.43 440.09 699.46 440.07
  Q 700.32 439.31 703.05 436.14
  Q 703.50 435.61 704.21 433.55
  A 0.48 0.48 0.0 0 1 705.14 433.71
  L 705.13 439.45
  A 0.55 0.54 -89.9 0 0 705.67 440.00
  L 709.79 440.01
  A 0.80 0.79 0.1 0 1 710.59 440.80
  L 710.59 441.17
  A 0.86 0.86 0.0 0 1 709.73 442.03
  L 705.63 442.02
  A 0.62 0.61 -89.9 0 0 705.02 442.64
  L 705.00 457.97
  A 1.09 1.05 30.1 0 0 705.16 458.53
  Q 706.56 460.67 708.81 459.66
  A 1.52 1.51 4.9 0 0 709.48 459.10
  Q 710.04 458.26 710.52 458.08
  A 0.47 0.47 0.0 0 1 711.11 458.73
  C 709.21 462.63 704.35 465.27 701.42 460.42
  Z"
/>
<path fill="#ffffff" d="
  M 224.76 442.18
  C 227.24 440.35 228.92 437.47 232.57 439.85
  A 1.51 1.51 0.0 0 1 232.81 442.18
  L 232.38 442.60
  A 1.94 1.94 0.0 0 1 230.13 442.97
  L 228.24 442.02
  A 1.29 1.29 0.0 0 0 226.74 442.27
  L 224.31 444.69
  A 1.36 1.33 67.9 0 0 223.92 445.64
  Q 223.90 447.77 223.96 457.02
  Q 223.99 460.84 228.03 461.08
  A 0.44 0.44 0.0 0 1 228.45 461.52
  L 228.45 461.78
  A 0.22 0.22 0.0 0 1 228.23 462.00
  L 216.92 462.00
  A 0.39 0.38 82.0 0 1 216.55 461.72
  L 216.48 461.47
  A 0.18 0.18 0.0 0 1 216.60 461.25
  L 219.33 460.46
  A 0.89 0.88 -8.9 0 0 219.97 459.59
  Q 219.76 452.53 219.96 445.30
  Q 220.02 443.33 219.38 442.83
  Q 218.51 442.16 216.74 442.83
  A 0.30 0.29 80.3 0 1 216.35 442.55
  L 216.35 442.22
  A 0.41 0.40 -12.5 0 1 216.59 441.85
  L 223.45 439.00
  A 0.59 0.59 0.0 0 1 224.27 439.55
  L 224.27 441.93
  A 0.31 0.31 0.0 0 0 224.76 442.18
  Z"
/>
<path fill="#ffffff" d="
  M 247.61 459.85
  A 0.43 0.42 -4.2 0 0 247.09 459.40
  Q 246.95 459.43 244.82 461.12
  C 239.20 465.58 233.26 461.44 234.83 454.68
  A 1.89 1.86 75.6 0 1 235.37 453.76
  C 239.23 450.18 242.41 448.99 247.09 447.17
  A 0.77 0.76 71.7 0 0 247.55 446.24
  L 246.41 442.19
  A 0.89 0.87 -85.2 0 0 245.95 441.64
  Q 243.08 440.23 240.87 441.65
  Q 239.70 442.40 239.86 443.38
  Q 240.44 446.73 237.90 446.98
  A 1.90 1.90 0.0 0 1 235.88 445.56
  Q 235.84 445.39 235.75 443.75
  A 1.45 1.43 -31.1 0 1 235.98 442.86
  C 238.96 438.12 246.65 437.80 250.45 441.18
  A 1.93 1.88 -74.3 0 1 251.07 442.32
  Q 252.30 450.40 251.67 456.31
  Q 251.40 458.77 251.66 459.38
  A 0.97 0.96 79.8 0 0 252.48 459.97
  Q 253.70 460.03 254.96 458.70
  A 0.36 0.35 -54.9 0 1 255.37 458.62
  Q 255.62 458.73 255.63 458.93
  Q 255.64 459.08 255.59 459.16
  Q 254.08 461.75 251.08 462.89
  C 249.00 463.70 247.46 461.79 247.61 459.85
  Z
  M 247.63 457.07
  L 247.69 449.72
  A 0.49 0.49 0.0 0 0 247.06 449.25
  Q 242.93 450.46 240.18 452.93
  C 237.48 455.34 239.20 460.39 243.16 459.93
  C 244.53 459.77 246.32 458.36 247.20 457.83
  A 0.89 0.89 0.0 0 0 247.63 457.07
  Z"
/>
<path fill="#ffffff" d="
  M 260.88 451.97
  Q 261.16 453.42 262.73 455.92
  Q 264.89 459.37 269.32 458.97
  Q 273.78 458.57 274.99 453.56
  A 0.34 0.34 0.0 0 1 275.32 453.31
  L 275.65 453.31
  A 0.23 0.23 0.0 0 1 275.88 453.57
  Q 275.12 458.90 271.32 461.46
  C 267.00 464.38 261.93 463.02 259.03 458.92
  Q 253.51 451.10 259.03 442.94
  A 2.67 2.56 -0.8 0 1 259.76 442.22
  Q 262.57 440.38 262.73 440.28
  C 266.49 438.11 272.55 438.53 275.01 442.80
  C 276.02 444.56 274.27 446.40 272.78 446.01
  Q 269.73 445.24 269.86 442.50
  A 1.03 1.03 0.0 0 0 269.21 441.49
  Q 265.14 439.89 262.44 443.17
  A 2.39 2.36 -16.5 0 0 262.01 443.95
  Q 260.98 447.27 261.08 448.65
  Q 261.24 450.93 261.01 451.27
  A 1.00 0.97 56.5 0 0 260.88 451.97
  Z"
/>
<path fill="#ffffff" d="
  M 304.69 462.03
  L 294.26 462.03
  A 0.38 0.38 0.0 0 1 293.88 461.65
  L 293.88 461.27
  A 0.22 0.22 0.0 0 1 294.12 461.05
  Q 295.68 461.14 296.54 460.49
  A 1.17 1.16 71.8 0 0 296.99 459.59
  Q 297.09 449.68 296.93 443.70
  A 1.26 1.22 -14.6 0 0 295.11 442.67
  Q 294.39 443.05 293.93 442.79
  A 0.39 0.39 0.0 0 1 293.95 442.10
  L 300.69 438.69
  A 0.46 0.46 0.0 0 1 301.36 439.10
  L 301.29 458.51
  A 0.81 0.69 40.3 0 0 301.33 458.75
  Q 302.13 461.17 304.75 461.14
  A 0.26 0.26 0.0 0 1 305.02 461.40
  L 305.02 461.70
  A 0.33 0.33 0.0 0 1 304.69 462.03
  Z"
/>
<path fill="#ffffff" d="
  M 308.20 446.85
  C 310.47 440.97 316.91 437.17 322.96 439.88
  C 328.77 442.48 331.46 449.25 329.18 455.13
  C 326.90 461.00 320.46 464.80 314.41 462.09
  C 308.60 459.49 305.91 452.73 308.20 446.85
  Z
  M 312.16 452.14
  C 312.73 455.36 314.56 459.85 317.98 460.80
  Q 321.61 461.82 324.05 458.63
  A 2.24 2.19 68.1 0 0 324.48 457.60
  Q 325.10 452.92 324.58 449.97
  Q 324.07 447.02 321.90 442.83
  A 2.24 2.19 -87.9 0 0 321.15 442.00
  Q 317.77 439.83 314.70 442.01
  C 311.81 444.07 311.60 448.92 312.16 452.14
  Z"
/>
<path fill="#ffffff" d="
  M 339.68 443.15
  C 343.11 440.36 345.86 437.03 350.65 440.30
  Q 351.65 440.98 352.97 444.63
  A 0.69 0.58 39.8 0 1 353.01 444.85
  L 353.14 459.33
  A 1.28 1.26 -65.2 0 0 353.43 460.14
  Q 354.20 461.08 355.89 461.07
  A 0.40 0.40 0.0 0 1 356.29 461.47
  L 356.29 461.74
  A 0.26 0.25 0.0 0 1 356.03 461.99
  L 345.30 461.99
  A 0.29 0.29 0.0 0 1 345.01 461.70
  L 345.01 461.40
  A 0.31 0.30 89.0 0 1 345.30 461.09
  Q 346.83 461.05 347.80 460.54
  A 0.96 0.95 -14.1 0 0 348.31 459.70
  L 348.31 444.97
  A 3.25 3.25 0.0 0 0 343.60 442.07
  L 341.72 443.02
  A 5.09 5.09 0.0 0 0 338.93 447.64
  L 339.13 459.04
  A 1.30 1.27 -64.2 0 0 339.37 459.76
  Q 340.43 461.21 342.86 461.04
  A 0.27 0.27 0.0 0 1 343.15 461.31
  L 343.15 461.62
  A 0.38 0.38 0.0 0 1 342.77 462.00
  L 331.90 462.00
  A 0.18 0.18 0.0 0 1 331.72 461.82
  L 331.72 461.47
  A 0.42 0.42 0.0 0 1 332.11 461.05
  Q 333.62 460.95 334.26 460.64
  A 0.94 0.94 0.0 0 0 334.79 459.81
  Q 335.07 447.97 334.75 443.86
  Q 334.59 441.87 331.88 442.82
  A 0.40 0.39 66.7 0 1 331.40 442.62
  L 331.23 442.29
  A 0.22 0.22 0.0 0 1 331.34 441.99
  L 338.32 439.00
  A 0.62 0.61 78.6 0 1 339.17 439.57
  L 339.17 442.91
  A 0.31 0.31 0.0 0 0 339.68 443.15
  Z"
/>
<path fill="#ffffff" d="
  M 382.05 439.00
  Q 388.35 439.18 391.64 445.55
  A 2.90 2.81 31.1 0 1 391.97 446.78
  L 392.29 454.34
  A 2.91 2.90 57.8 0 1 391.95 455.86
  Q 388.05 463.22 381.36 463.03
  Q 374.67 462.83 371.20 455.27
  A 2.91 2.90 -54.6 0 1 370.94 453.73
  L 371.70 446.20
  A 2.90 2.81 -27.9 0 1 372.09 444.99
  Q 375.74 438.82 382.05 439.00
  Z
  M 375.29 451.91
  C 375.76 455.13 377.46 459.63 380.83 460.67
  Q 384.40 461.78 386.91 458.68
  A 2.22 2.17 69.7 0 0 387.36 457.66
  Q 388.10 453.04 387.67 450.10
  Q 387.24 447.17 385.20 442.95
  A 2.22 2.17 -86.3 0 0 384.48 442.11
  Q 381.19 439.86 378.08 441.94
  C 375.16 443.91 374.82 448.71 375.29 451.91
  Z"
/>
<path fill="#ffffff" d="
  M 572.85 461.32
  L 572.85 461.61
  A 0.33 0.33 0.0 0 1 572.52 461.94
  L 562.14 461.97
  A 0.38 0.38 0.0 0 1 561.76 461.60
  L 561.76 461.22
  A 0.22 0.22 0.0 0 1 562.00 461.00
  Q 563.55 461.08 564.41 460.43
  A 1.16 1.15 71.7 0 0 564.85 459.54
  Q 564.92 449.67 564.75 443.72
  A 1.25 1.21 -14.8 0 0 562.93 442.70
  Q 562.22 443.08 561.76 442.83
  A 0.39 0.39 0.0 0 1 561.78 442.14
  L 568.48 438.73
  A 0.46 0.46 0.0 0 1 569.14 439.13
  L 569.13 458.45
  A 0.81 0.68 40.1 0 0 569.17 458.69
  Q 569.97 461.10 572.58 461.06
  A 0.26 0.26 0.0 0 1 572.85 461.32
  Z"
/>
<path fill="#ffffff" d="
  M 576.72 455.55
  A 0.47 0.47 0.0 0 1 577.64 455.45
  C 578.53 459.54 583.31 462.78 587.21 460.17
  A 1.26 1.25 -13.1 0 0 587.74 459.32
  Q 588.03 457.30 587.80 456.24
  Q 587.50 454.84 585.95 454.06
  Q 581.33 451.74 577.61 449.48
  A 2.06 2.03 -89.6 0 1 576.91 448.76
  C 574.50 444.42 576.73 440.75 581.15 439.32
  Q 583.66 438.51 587.80 439.91
  Q 588.93 440.30 589.47 439.40
  Q 589.57 439.24 589.89 439.24
  A 0.37 0.37 0.0 0 1 590.26 439.61
  L 590.26 446.74
  A 0.14 0.13 90.0 0 1 590.13 446.88
  L 589.78 446.88
  A 0.36 0.35 85.2 0 1 589.43 446.58
  Q 588.70 442.06 584.95 441.17
  Q 580.90 440.22 579.35 443.53
  A 1.09 1.09 0.0 0 0 579.37 444.50
  Q 580.62 446.81 581.61 447.27
  C 585.65 449.11 591.53 451.07 591.97 455.61
  C 592.44 460.54 587.38 463.70 582.96 462.94
  Q 580.90 462.58 578.86 462.07
  A 1.03 1.01 27.5 0 0 577.87 462.37
  Q 577.68 462.59 577.53 462.71
  A 0.50 0.50 0.0 0 1 576.72 462.32
  L 576.72 455.55
  Z"
/>
<path fill="#ffffff" d="
  M 596.70 455.57
  A 0.48 0.48 0.0 0 1 597.64 455.46
  C 598.55 459.46 603.14 462.75 607.05 460.26
  A 1.46 1.43 -7.6 0 0 607.65 459.49
  Q 609.01 455.52 605.32 453.73
  Q 600.81 451.53 598.86 450.25
  A 2.82 2.71 86.4 0 1 598.15 449.60
  C 596.06 446.90 596.28 442.26 599.19 440.28
  C 601.93 438.41 604.64 438.90 607.72 439.84
  A 1.94 1.92 -55.9 0 0 609.50 439.49
  L 609.71 439.31
  A 0.39 0.39 0.0 0 1 610.35 439.60
  L 610.35 446.47
  A 0.45 0.44 -51.3 0 1 609.47 446.57
  Q 608.14 440.57 602.76 441.04
  C 598.22 441.43 598.81 445.79 602.17 447.50
  C 605.51 449.20 611.01 450.69 611.86 455.16
  Q 612.66 459.32 608.78 461.71
  C 605.31 463.85 602.56 462.92 598.83 462.06
  A 1.02 1.01 -62.0 0 0 597.86 462.36
  Q 597.66 462.58 597.52 462.70
  A 0.50 0.50 0.0 0 1 596.70 462.32
  L 596.70 455.57
  Z"
/>
<path fill="#ffffff" d="
  M 626.7303 438.9777
  A 12.04 11.09 -84.9 0 1 636.7061 451.9558
  A 12.04 11.09 -84.9 0 1 624.5897 462.9623
  A 12.04 11.09 -84.9 0 1 614.6139 449.9842
  A 12.04 11.09 -84.9 0 1 626.7303 438.9777
  Z
  M 627.24 460.97
  C 632.10 460.22 632.22 454.84 632.05 450.49
  C 631.88 446.02 629.31 440.27 624.18 441.06
  C 619.05 441.85 618.33 448.11 619.51 452.42
  C 620.66 456.61 622.39 461.72 627.24 460.97
  Z"
/>
<path fill="#ffffff" d="
  M 645.06 443.99
  Q 645.02 444.16 644.73 444.32
  A 1.12 1.10 83.3 0 0 644.18 445.03
  Q 642.58 450.93 645.44 455.51
  C 647.97 459.55 652.39 460.03 656.12 457.48
  A 0.56 0.48 -7.2 0 0 656.30 457.28
  L 658.21 453.44
  A 0.36 0.36 0.0 0 1 658.89 453.66
  C 657.44 462.59 647.85 466.89 641.93 458.78
  Q 641.70 458.47 640.11 455.69
  A 1.88 1.82 -58.5 0 1 639.88 454.65
  Q 640.03 452.95 639.61 451.18
  A 3.29 2.94 41.7 0 1 639.53 450.48
  Q 639.55 446.00 642.46 442.41
  Q 642.69 442.13 643.00 441.99
  A 0.97 0.00 -23.0 0 0 643.87 441.62
  Q 649.61 436.64 656.27 440.82
  C 657.57 441.63 659.21 443.95 657.71 445.33
  Q 656.59 446.36 655.54 445.99
  Q 652.70 445.00 652.71 442.42
  A 0.92 0.91 16.0 0 0 652.27 441.64
  Q 649.23 439.81 646.09 442.48
  Q 645.26 443.19 645.06 443.99
  Z"
/>
<path fill="#ffffff" d="
  M 673.99 461.38
  L 673.99 461.68
  A 0.33 0.33 0.0 0 1 673.66 462.01
  L 663.24 462.03
  A 0.38 0.38 0.0 0 1 662.86 461.65
  L 662.86 461.27
  A 0.22 0.22 0.0 0 1 663.10 461.05
  Q 664.66 461.14 665.52 460.49
  A 1.17 1.16 71.7 0 0 665.97 459.59
  Q 666.05 449.69 665.88 443.72
  A 1.25 1.22 -14.7 0 0 664.06 442.69
  Q 663.34 443.07 662.88 442.81
  A 0.39 0.39 0.0 0 1 662.90 442.12
  L 669.63 438.71
  A 0.46 0.46 0.0 0 1 670.30 439.12
  L 670.26 458.50
  A 0.81 0.68 40.2 0 0 670.30 458.74
  Q 671.10 461.16 673.72 461.12
  A 0.26 0.26 0.0 0 1 673.99 461.38
  Z"
/>
<path fill="#ffffff" d="
  M 693.83 443.92
  L 693.87 443.19
  A 0.05 0.05 0.0 0 1 693.97 443.19
  L 693.71 458.83
  A 1.17 1.17 0.0 0 0 695.62 459.75
  L 697.04 458.57
  A 0.37 0.37 0.0 0 1 697.60 459.02
  Q 696.21 461.78 693.15 462.84
  C 690.74 463.67 689.69 461.69 689.70 459.63
  A 0.40 0.40 0.0 0 0 689.00 459.36
  C 686.33 462.28 681.82 464.76 678.28 461.29
  A 2.20 2.04 -83.6 0 1 677.91 460.79
  Q 675.26 455.61 679.68 451.50
  A 3.58 3.49 10.5 0 1 680.68 450.83
  L 689.09 447.09
  A 0.78 0.78 0.0 0 0 689.52 446.16
  L 688.35 442.11
  A 0.57 0.55 8.2 0 0 688.12 441.81
  C 685.46 440.06 681.07 440.86 681.92 445.10
  A 1.12 1.11 -28.5 0 1 681.62 446.09
  Q 680.40 447.35 679.01 446.86
  Q 676.18 445.86 677.79 442.70
  A 1.23 1.23 0.0 0 1 678.41 442.11
  C 679.61 441.59 680.12 440.22 681.77 439.69
  C 685.58 438.48 693.28 438.49 693.39 443.91
  A 0.22 0.22 0.0 0 0 693.83 443.92
  Z
  M 689.62 450.26
  Q 689.74 449.42 689.55 449.27
  A 0.46 0.45 53.9 0 0 689.14 449.20
  Q 684.84 450.66 682.36 452.60
  C 679.40 454.90 681.10 459.81 684.70 460.04
  Q 685.68 460.10 688.72 458.18
  A 0.90 0.89 72.5 0 0 689.14 457.37
  Q 689.10 456.61 689.14 450.75
  Q 689.15 450.49 689.47 450.42
  A 0.20 0.19 -2.3 0 0 689.62 450.26
  Z"
/>
<path fill="#ffffff" d="
  M 714.64 444.16
  C 717.05 439.60 722.99 437.49 727.55 440.06
  Q 731.80 442.45 732.20 448.38
  A 0.59 0.59 0.0 0 1 731.61 449.01
  L 717.11 449.01
  A 0.70 0.69 -1.9 0 0 716.41 449.75
  C 716.60 452.58 717.68 455.93 720.30 457.61
  C 723.92 459.94 729.89 459.67 731.15 454.65
  A 0.49 0.49 0.0 0 1 731.68 454.29
  L 731.74 454.30
  A 0.46 0.44 -83.1 0 1 732.13 454.81
  C 731.16 461.67 724.21 464.96 718.15 461.68
  Q 716.63 460.85 714.31 458.11
  A 4.40 4.14 14.9 0 1 713.72 457.16
  Q 710.96 450.91 714.01 444.44
  A 0.45 0.39 -4.1 0 1 714.21 444.24
  Q 714.40 444.15 714.60 444.18
  A 0.03 0.03 0.0 0 0 714.64 444.16
  Z
  M 716.88 447.02
  L 726.74 446.98
  A 0.22 0.22 0.0 0 0 726.96 446.76
  L 726.96 446.38
  A 5.34 5.14 89.8 0 0 721.80 441.06
  L 721.78 441.06
  A 5.34 5.14 89.8 0 0 716.66 446.42
  L 716.66 446.80
  A 0.22 0.22 0.0 0 0 716.88 447.02
  Z"
/>
<path fill="#ffffff" d="
  M 464.27 472.31
  A 0.36 0.36 0.0 0 0 464.46 472.98
  L 469.87 472.98
  A 1.62 1.60 18.2 0 0 471.16 472.34
  L 471.68 471.64
  A 0.34 0.33 -13.3 0 1 472.25 471.99
  L 471.05 474.41
  A 1.07 1.05 13.0 0 1 470.10 474.99
  L 461.65 474.99
  A 0.36 0.36 0.0 0 1 461.41 474.36
  Q 465.42 470.78 467.89 467.25
  Q 469.29 465.24 468.93 462.58
  A 2.28 2.26 23.4 0 0 468.54 461.61
  Q 466.72 459.03 463.87 460.46
  A 1.74 1.73 -87.2 0 0 463.17 461.10
  L 462.25 462.57
  A 0.36 0.35 -19.7 0 1 461.61 462.27
  C 463.11 457.93 467.52 456.05 470.51 460.29
  C 473.03 463.85 467.13 470.51 464.27 472.31
  Z"
/>
<path fill="#ffffff" d="
  M 516.81 474.53
  L 516.81 471.52
  A 0.51 0.51 0.0 0 0 516.30 471.01
  L 510.75 471.01
  A 0.50 0.50 0.0 0 1 510.31 470.26
  L 517.20 458.34
  A 1.08 1.08 0.0 0 1 519.22 458.88
  L 519.22 469.42
  A 0.59 0.58 90.0 0 0 519.80 470.01
  L 521.33 470.01
  A 0.34 0.33 0.0 0 1 521.67 470.34
  L 521.67 470.72
  A 0.12 0.11 -6.4 0 1 521.57 470.83
  L 519.60 471.18
  A 0.41 0.40 84.9 0 0 519.27 471.58
  L 519.27 474.43
  A 0.53 0.53 0.0 0 1 518.74 474.96
  L 517.24 474.96
  A 0.43 0.43 0.0 0 1 516.81 474.53
  Z
  M 512.12 469.97
  L 516.34 469.97
  A 0.52 0.51 -90.0 0 0 516.85 469.45
  L 516.85 462.02
  A 0.38 0.37 60.1 0 0 516.15 461.83
  L 511.78 469.40
  A 0.39 0.38 14.8 0 0 512.12 469.97
  Z"
/>
</svg>
