<?xml version="1.0" encoding="UTF-8" standalone="no"?>
<!DOCTYPE svg PUBLIC "-//W3C//DTD SVG 1.1//EN" "http://www.w3.org/Graphics/SVG/1.1/DTD/svg11.dtd">
<svg xmlns="http://www.w3.org/2000/svg" version="1.1" viewBox="0.00 0.00 590.00 564.00">
<path fill="#ffffff" d="
  M 166.01 350.04
  L 170.44 350.04
  A 0.56 0.55 0.0 0 1 171.00 350.59
  L 171.00 355.43
  A 0.54 0.54 0.0 0 1 170.46 355.97
  L 166.05 355.97
  A 0.30 0.30 0.0 0 0 165.75 356.27
  L 165.75 440.69
  A 0.31 0.31 0.0 0 0 166.06 441.00
  L 450.49 441.00
  A 0.50 0.49 -0.0 0 0 450.99 440.51
  Q 451.04 394.14 450.95 362.00
  Q 450.94 357.56 450.00 354.06
  A 2.40 2.38 5.8 0 0 448.76 352.55
  L 448.17 352.26
  A 0.78 0.78 0.0 0 0 447.05 353.03
  Q 447.18 354.46 446.86 355.47
  A 0.81 0.81 0.0 0 1 446.09 356.03
  L 441.79 356.03
  A 0.75 0.75 0.0 0 1 441.04 355.28
  L 441.04 349.99
  A 0.89 0.89 0.0 0 0 440.47 349.16
  Q 417.00 339.66 388.61 324.15
  Q 345.39 300.55 309.73 266.28
  Q 308.70 265.29 308.25 264.78
  Q 307.19 263.60 305.04 261.26
  A 0.15 0.15 0.0 0 0 304.78 261.38
  L 307.70 283.07
  A 2.33 2.32 -7.1 0 1 305.66 285.69
  L 305.39 285.72
  A 2.10 2.10 0.0 0 1 302.91 283.94
  L 299.01 255.01
  A 1.77 1.76 -69.8 0 0 298.57 254.05
  C 269.48 221.24 247.70 182.39 231.82 141.62
  A 0.42 0.41 58.3 0 0 231.16 141.46
  Q 231.15 141.48 230.91 141.76
  A 0.71 0.70 20.5 0 1 230.38 142.00
  L 225.81 142.00
  A 0.82 0.81 0.0 0 1 224.99 141.19
  L 224.99 137.79
  A 0.80 0.79 -0.0 0 1 225.79 137.00
  L 229.27 137.00
  A 0.54 0.54 0.0 0 0 229.75 136.22
  L 228.49 133.69
  A 1.27 1.26 76.7 0 0 227.36 132.99
  L 225.70 132.99
  A 0.71 0.70 -90.0 0 1 225.00 132.28
  L 225.00 129.49
  A 1.51 1.48 75.0 0 1 225.73 128.20
  Q 227.38 127.23 227.74 125.30
  A 0.57 0.56 -73.7 0 1 228.50 124.88
  C 261.46 138.12 293.31 153.51 322.39 172.70
  Q 350.84 191.46 375.67 216.40
  Q 377.06 217.80 377.50 218.39
  A 0.22 0.22 0.0 0 0 377.89 218.22
  L 374.24 196.72
  A 2.09 2.09 0.0 0 1 376.30 194.28
  L 377.14 194.28
  A 1.95 1.94 -4.9 0 1 379.06 195.89
  L 383.98 224.88
  A 2.14 2.09 20.0 0 0 384.49 225.94
  C 416.55 262.35 439.08 305.22 456.08 350.82
  A 4.61 4.22 33.0 0 1 456.34 351.82
  Q 457.13 357.22 457.09 364.78
  Q 456.94 392.98 457.02 440.70
  A 0.30 0.30 0.0 0 0 457.32 441.00
  L 564.98 441.00
  A 0.41 0.41 0.0 0 0 565.32 440.37
  L 558.31 429.85
  A 0.21 0.21 0.0 0 1 558.58 429.54
  L 585.55 442.94
  A 0.49 0.48 -45.2 0 1 585.55 443.81
  L 558.61 457.20
  A 0.30 0.30 0.0 0 1 558.23 456.76
  L 565.52 446.33
  A 0.37 0.37 0.0 0 0 565.21 445.75
  Q 342.63 445.76 164.50 445.75
  C 161.92 445.75 161.00 445.44 161.00 442.58
  Q 161.00 192.71 161.00 24.96
  A 0.25 0.25 0.0 0 0 160.61 24.76
  L 149.97 31.85
  A 0.24 0.24 0.0 0 1 149.62 31.55
  L 163.13 4.34
  A 0.34 0.34 0.0 0 1 163.73 4.34
  L 177.15 31.33
  A 0.38 0.38 0.0 0 1 176.59 31.81
  L 166.31 24.62
  A 0.36 0.36 0.0 0 0 165.75 24.92
  L 165.75 124.33
  A 0.69 0.69 0.0 0 0 166.44 125.02
  L 168.25 125.02
  A 0.75 0.75 0.0 0 1 169.00 125.77
  L 169.00 129.34
  A 0.59 0.59 0.0 0 1 168.41 129.93
  L 166.46 129.93
  A 0.72 0.71 0.0 0 0 165.74 130.64
  L 165.74 349.77
  A 0.27 0.27 0.0 0 0 166.01 350.04
  Z
  M 449.38 347.22
  C 433.60 305.53 412.24 265.60 383.17 231.96
  A 4.99 4.97 79.6 0 0 381.16 230.57
  L 351.22 219.72
  A 2.28 2.28 0.0 0 1 349.87 216.73
  L 349.95 216.50
  A 2.28 2.28 0.0 0 1 352.90 215.05
  L 373.39 222.52
  A 0.20 0.20 0.0 0 0 373.62 222.20
  Q 369.89 217.56 364.54 212.46
  C 327.11 176.84 281.34 151.98 233.70 132.36
  A 0.16 0.15 -89.4 0 0 233.50 132.56
  Q 244.66 161.90 259.26 188.98
  Q 276.29 220.55 299.10 247.19
  A 7.08 7.00 -9.0 0 0 301.86 249.17
  L 331.42 261.07
  A 2.44 2.43 21.6 0 1 332.78 264.21
  L 332.74 264.31
  A 2.33 2.33 0.0 0 1 329.66 265.70
  L 309.34 257.51
  A 0.16 0.16 0.0 0 0 309.15 257.76
  Q 312.20 261.48 316.88 265.98
  C 354.30 302.01 400.53 327.80 449.16 347.43
  A 0.17 0.17 0.0 0 0 449.38 347.22
  Z
  M 165.60 354.00
  Q 165.56 354.30 165.64 354.56
  Q 165.71 354.27 165.60 354.00
  Z"
/>
<path fill="#ffffff" d="
  M 96.47 143.13
  A 0.51 0.51 0.0 0 0 96.83 143.98
  Q 102.93 144.10 107.71 143.85
  Q 109.85 143.73 111.30 141.63
  A 0.48 0.48 0.0 0 1 112.15 142.07
  L 110.19 147.49
  A 0.73 0.73 0.0 0 1 109.50 147.98
  L 90.57 148.00
  A 0.59 0.58 -66.1 0 1 90.18 146.98
  C 96.29 141.42 102.67 135.54 105.63 128.26
  Q 106.53 126.04 105.63 121.92
  A 2.21 2.13 -72.6 0 0 105.17 121.00
  Q 100.29 115.42 94.31 119.98
  A 2.76 2.72 -3.7 0 0 93.62 120.75
  L 91.85 123.74
  A 0.41 0.41 0.0 0 1 91.10 123.46
  C 92.42 116.42 98.05 111.68 105.29 115.03
  Q 111.08 117.71 109.78 125.17
  C 108.69 131.41 101.45 138.04 96.47 143.13
  Z"
/>
<path fill="#ffffff" d="
  M 139.9690 113.9207
  A 17.08 10.70 -89.5 0 1 150.5196 131.0934
  A 17.08 10.70 -89.5 0 1 139.6710 148.0793
  A 17.08 10.70 -89.5 0 1 129.1204 130.9066
  A 17.08 10.70 -89.5 0 1 139.9690 113.9207
  Z
  M 133.81 130.95
  C 133.81 134.85 133.68 146.24 140.11 145.94
  C 146.03 145.66 146.01 135.28 146.01 130.95
  C 146.01 126.62 146.01 116.24 140.10 115.97
  C 133.66 115.67 133.80 127.06 133.81 130.95
  Z"
/>
<rect fill="#ffffff" x="-2.52" y="-2.47" transform="translate(175.48,127.52) rotate(0.2)" width="5.04" height="4.94" rx="0.90"/>
<rect fill="#ffffff" x="-2.99" y="-2.49" transform="translate(185.03,127.52) rotate(-0.4)" width="5.98" height="4.98" rx="0.91"/>
<rect fill="#ffffff" x="190.98" y="125.04" width="6.04" height="4.96" rx="0.88"/>
<rect fill="#ffffff" x="-3.00" y="-2.48" transform="translate(203.00,127.52) rotate(0.1)" width="6.00" height="4.96" rx="0.94"/>
<rect fill="#ffffff" x="-2.49" y="-2.49" transform="translate(212.52,127.52) rotate(0.2)" width="4.98" height="4.98" rx="0.90"/>
<rect fill="#ffffff" x="-2.52" y="-2.52" transform="translate(221.50,127.52) rotate(-0.8)" width="5.04" height="5.04" rx="0.98"/>
<ellipse fill="#ffffff" cx="0.00" cy="0.00" transform="translate(121.46,147.01) rotate(-0.5)" rx="2.68" ry="2.00"/>
<rect fill="#ffffff" x="-2.99" y="-2.99" transform="translate(228.00,149.01) rotate(-0.4)" width="5.98" height="5.98" rx="0.69"/>
<path fill="#ffffff" d="
  M 52.59 154.42
  Q 52.65 154.42 52.70 154.44
  A 0.36 0.11 13.5 0 1 52.92 154.57
  L 66.37 181.48
  A 0.38 0.37 -85.9 0 1 65.82 181.96
  L 55.52 174.76
  A 0.34 0.34 0.0 0 0 54.99 175.04
  L 54.99 234.12
  A 0.60 0.60 0.0 0 1 54.45 234.71
  Q 54.06 234.75 52.64 234.76
  Q 51.22 234.76 50.84 234.72
  A 0.60 0.60 0.0 0 1 50.29 234.12
  L 50.17 175.05
  A 0.34 0.34 0.0 0 0 49.64 174.77
  L 39.35 181.99
  A 0.38 0.37 85.7 0 1 38.80 181.51
  L 52.19 154.57
  A 0.36 0.11 -13.6 0 1 52.41 154.44
  Q 52.47 154.42 52.59 154.42
  Z"
/>
<rect fill="#ffffff" x="-3.00" y="-3.00" transform="translate(228.01,157.99) rotate(0.4)" width="6.00" height="6.00" rx="0.82"/>
<rect fill="#ffffff" x="-3.01" y="-2.49" transform="translate(228.01,167.50) rotate(0.3)" width="6.02" height="4.98" rx="0.77"/>
<rect fill="#ffffff" x="-3.01" y="-2.48" transform="translate(228.01,176.51) rotate(0.2)" width="6.02" height="4.96" rx="0.92"/>
<rect fill="#ffffff" x="-3.01" y="-2.99" transform="translate(228.00,185.99) rotate(0.1)" width="6.02" height="5.98" rx="0.93"/>
<rect fill="#ffffff" x="-3.00" y="-3.00" transform="translate(228.01,195.00) rotate(0.3)" width="6.00" height="6.00" rx="0.82"/>
<rect fill="#ffffff" x="-3.01" y="-2.48" transform="translate(228.00,204.51) rotate(0.2)" width="6.02" height="4.96" rx="0.97"/>
<rect fill="#ffffff" x="-3.01" y="-3.00" transform="translate(228.00,213.99) rotate(0.1)" width="6.02" height="6.00" rx="0.96"/>
<rect fill="#ffffff" x="-3.01" y="-3.01" transform="translate(228.00,223.00) rotate(0.2)" width="6.02" height="6.02" rx="0.85"/>
<rect fill="#ffffff" x="-3.02" y="-2.99" transform="translate(228.00,232.00) rotate(0.3)" width="6.04" height="5.98" rx="0.96"/>
<rect fill="#ffffff" x="-3.02" y="-2.49" transform="translate(228.01,241.50) rotate(0.3)" width="6.04" height="4.98" rx="0.92"/>
<rect fill="#ffffff" x="-3.00" y="-3.00" transform="translate(228.01,251.00) rotate(0.4)" width="6.00" height="6.00" rx="0.79"/>
<path fill="#ffffff" d="
  M 40.19 258.23
  C 44.33 252.82 50.89 252.22 54.17 258.71
  C 56.40 263.12 56.08 265.54 54.75 270.66
  C 53.26 276.38 45.60 280.76 40.62 276.07
  A 0.49 0.49 0.0 0 0 39.80 276.43
  L 39.92 284.95
  A 1.84 1.83 -76.5 0 0 40.90 286.56
  Q 41.75 287.02 43.52 287.11
  A 0.40 0.39 -88.5 0 1 43.89 287.51
  L 43.89 287.78
  A 0.21 0.20 -90.0 0 1 43.69 287.99
  L 32.36 288.00
  A 0.49 0.48 2.2 0 1 31.87 287.48
  L 31.87 287.44
  A 0.43 0.43 0.0 0 1 32.36 287.04
  Q 35.89 287.56 35.89 283.55
  Q 35.90 272.49 35.87 259.20
  A 1.74 1.74 0.0 0 0 33.46 257.60
  L 32.65 257.94
  A 0.53 0.53 0.0 0 1 32.16 257.00
  Q 33.00 256.45 38.93 254.09
  A 0.65 0.65 0.0 0 1 39.82 254.70
  L 39.82 258.11
  A 0.21 0.20 -26.6 0 0 40.19 258.23
  Z
  M 39.95 266.63
  Q 39.99 270.95 40.16 272.56
  A 1.86 1.82 -67.9 0 0 40.56 273.55
  Q 43.12 276.76 46.80 275.92
  A 2.89 2.87 19.6 0 0 47.95 275.38
  C 50.93 273.10 51.76 270.29 51.72 266.52
  C 51.69 262.74 50.81 259.94 47.79 257.72
  A 2.89 2.87 -20.7 0 0 46.63 257.21
  Q 42.93 256.43 40.43 259.69
  A 1.86 1.82 66.8 0 0 40.05 260.69
  Q 39.91 262.30 39.95 266.63
  Z"
/>
<rect fill="#ffffff" x="-3.02" y="-2.99" transform="translate(228.00,260.00) rotate(0.2)" width="6.04" height="5.98" rx="0.89"/>
<rect fill="#ffffff" x="-3.01" y="-3.01" transform="translate(228.00,269.01) rotate(0.2)" width="6.02" height="6.02" rx="0.90"/>
<rect fill="#ffffff" x="-3.01" y="-2.49" transform="translate(228.00,278.49) rotate(0.2)" width="6.02" height="4.98" rx="0.96"/>
<rect fill="#ffffff" x="-3.03" y="-3.00" transform="translate(228.00,288.00) rotate(0.1)" width="6.06" height="6.00" rx="1.02"/>
<rect fill="#ffffff" x="4.96" y="293.00" width="82.02" height="6.00" rx="0.74"/>
<rect fill="#ffffff" x="-3.03" y="-3.00" transform="translate(228.00,297.01) rotate(0.2)" width="6.06" height="6.00" rx="0.92"/>
<rect fill="#ffffff" x="-3.00" y="-2.49" transform="translate(228.01,306.49) rotate(0.2)" width="6.00" height="4.98" rx="0.94"/>
<path fill="#ffffff" d="
  M 10.87 340.45
  L 10.87 312.44
  A 1.94 1.94 0.0 0 0 8.18 310.65
  L 7.54 310.93
  A 0.32 0.32 0.0 0 1 7.12 310.75
  L 7.00 310.46
  A 0.51 0.51 0.0 0 1 7.27 309.79
  L 13.92 307.01
  A 0.73 0.73 0.0 0 1 14.93 307.68
  L 14.93 323.24
  A 0.26 0.25 72.3 0 0 15.33 323.45
  Q 15.61 323.25 16.85 322.15
  C 22.04 317.55 27.31 320.71 29.95 326.13
  A 2.01 1.85 34.1 0 1 30.15 326.98
  L 30.15 334.23
  A 2.52 2.44 59.1 0 1 29.89 335.34
  L 27.68 339.78
  A 2.26 2.23 82.2 0 1 27.17 340.46
  Q 19.77 347.23 11.25 341.19
  A 0.91 0.90 -72.5 0 1 10.87 340.45
  Z
  M 14.91 332.44
  Q 14.85 338.79 14.85 339.00
  A 1.05 1.04 -68.7 0 0 15.17 339.74
  C 17.44 341.98 20.53 342.89 23.21 340.92
  C 26.21 338.71 25.92 336.40 25.96 332.54
  C 26.00 328.69 26.33 326.38 23.37 324.12
  C 20.73 322.10 17.62 322.95 15.31 325.15
  A 1.05 1.04 69.8 0 0 14.98 325.88
  Q 14.97 326.09 14.91 332.44
  Z"
/>
<rect fill="#ffffff" x="-3.02" y="-2.49" transform="translate(228.01,315.50) rotate(0.2)" width="6.04" height="4.98" rx="0.84"/>
<path fill="#ffffff" d="
  M 35.48 323.36
  Q 38.66 319.17 44.92 320.14
  Q 48.86 320.75 50.11 323.11
  A 2.06 2.04 -60.7 0 1 50.36 324.01
  L 50.99 340.43
  A 0.51 0.49 2.0 0 0 51.45 340.91
  Q 52.81 341.02 53.88 339.70
  A 0.42 0.41 -49.2 0 1 54.48 339.65
  L 54.54 339.70
  A 0.53 0.53 0.0 0 1 54.58 340.44
  C 52.49 342.82 47.32 347.06 46.59 340.76
  A 0.36 0.36 0.0 0 0 46.02 340.51
  Q 44.32 341.77 43.43 342.40
  Q 37.49 346.58 34.03 340.43
  A 1.55 1.47 -61.0 0 1 33.84 339.69
  L 33.88 336.13
  A 0.88 0.83 63.6 0 1 34.01 335.71
  C 36.56 331.62 41.69 329.78 46.08 328.18
  A 0.87 0.87 0.0 0 0 46.57 326.99
  Q 45.90 325.57 45.91 324.13
  A 1.27 1.26 -63.9 0 0 45.65 323.36
  C 44.36 321.70 40.75 321.33 39.32 323.19
  C 38.50 324.25 39.14 325.24 39.03 326.26
  A 1.55 1.52 -20.3 0 1 38.62 327.13
  Q 37.51 328.28 36.07 327.92
  A 1.23 1.23 0.0 0 1 35.22 327.12
  Q 34.45 324.71 35.48 323.36
  Z
  M 46.64 338.15
  L 46.64 330.73
  A 0.49 0.48 81.6 0 0 46.02 330.26
  C 42.57 331.30 37.17 333.57 38.23 338.10
  Q 38.67 339.99 40.20 340.70
  C 42.25 341.64 44.24 340.16 46.29 338.81
  A 0.80 0.77 73.8 0 0 46.64 338.15
  Z"
/>
<path fill="#ffffff" d="
  M 62.85 323.22
  C 65.05 321.09 66.81 318.98 70.17 320.56
  A 1.70 1.70 0.0 0 1 70.97 322.85
  L 70.81 323.17
  A 1.65 1.64 21.8 0 1 68.88 323.99
  L 65.80 323.06
  A 1.23 1.22 -59.1 0 0 64.58 323.37
  L 62.28 325.67
  A 1.30 1.26 67.6 0 0 61.91 326.60
  Q 61.98 333.11 61.90 338.27
  C 61.86 341.13 63.88 341.72 66.20 342.25
  A 0.38 0.37 -38.3 0 1 66.11 342.99
  L 54.97 343.00
  A 0.47 0.46 2.2 0 1 54.50 342.50
  L 54.50 342.48
  A 0.46 0.45 87.8 0 1 54.89 342.05
  Q 57.29 341.76 57.87 340.99
  A 0.33 0.31 -31.2 0 0 57.92 340.82
  L 57.92 325.13
  A 1.51 1.51 0.0 0 0 56.41 323.62
  L 54.70 323.62
  A 0.39 0.38 33.6 0 1 54.55 322.88
  L 61.50 319.98
  A 0.59 0.59 0.0 0 1 62.32 320.53
  L 62.32 323.00
  A 0.31 0.31 0.0 0 0 62.85 323.22
  Z"
/>
<rect fill="#ffffff" x="-3.00" y="-3.00" transform="translate(228.00,325.02) rotate(0.4)" width="6.00" height="6.00" rx="0.89"/>
<rect fill="#ffffff" x="-3.02" y="-3.00" transform="translate(227.99,333.98) rotate(0.3)" width="6.04" height="6.00" rx="1.03"/>
<path fill="#ffffff" d="
  M 110.37 374.28
  L 110.37 374.66
  A 0.34 0.33 90.0 0 1 110.04 375.00
  L 98.04 375.00
  A 0.36 0.36 0.0 0 1 97.68 374.64
  L 97.68 374.26
  A 0.15 0.14 -2.2 0 1 97.82 374.12
  C 100.82 373.92 101.90 373.87 101.91 370.34
  Q 101.96 354.41 101.83 345.95
  A 1.63 1.62 -85.3 0 0 100.50 344.37
  Q 99.25 344.14 97.59 344.84
  A 0.38 0.37 66.5 0 1 97.10 344.64
  L 96.99 344.37
  A 0.33 0.32 -21.6 0 1 97.18 343.94
  L 105.47 340.96
  A 0.42 0.41 -9.8 0 1 106.03 341.35
  Q 105.92 355.07 106.00 370.32
  C 106.02 373.70 107.27 374.17 110.14 374.05
  A 0.23 0.22 88.8 0 1 110.37 374.28
  Z"
/>
<path fill="#ffffff" d="
  M 151.82 350.67
  Q 152.54 357.02 151.81 366.00
  A 2.33 2.31 60.3 0 1 151.57 366.89
  C 148.89 372.38 143.25 377.73 137.11 373.47
  A 0.13 0.03 51.0 0 1 137.06 373.43
  L 134.08 370.28
  A 1.96 1.76 -82.6 0 1 133.75 369.80
  Q 128.59 358.91 133.21 347.73
  C 134.98 343.44 140.25 339.16 145.00 341.74
  Q 149.91 344.40 151.26 350.00
  Q 151.31 350.20 151.56 350.31
  A 0.46 0.43 -82.2 0 1 151.82 350.67
  Z
  M 135.79 357.96
  C 135.78 361.85 135.62 373.23 142.05 372.94
  C 147.96 372.67 147.97 362.31 147.97 357.98
  C 147.98 353.66 148.01 343.29 142.11 343.01
  C 135.68 342.69 135.79 354.07 135.79 357.96
  Z"
/>
<rect fill="#ffffff" x="-3.03" y="-2.50" transform="translate(228.00,343.50) rotate(0.4)" width="6.06" height="5.00" rx="0.96"/>
<rect fill="#ffffff" x="-3.01" y="-3.01" transform="translate(177.99,353.02) rotate(0.4)" width="6.02" height="6.02" rx="0.80"/>
<rect fill="#ffffff" x="-2.99" y="-2.99" transform="translate(186.99,353.03) rotate(0.1)" width="5.98" height="5.98" rx="0.87"/>
<rect fill="#ffffff" x="-3.01" y="-3.01" transform="translate(196.01,353.04) rotate(-0.4)" width="6.02" height="6.02" rx="0.84"/>
<rect fill="#ffffff" x="-2.49" y="-3.01" transform="translate(205.49,353.04) rotate(0.5)" width="4.98" height="6.02" rx="0.88"/>
<rect fill="#ffffff" x="-2.50" y="-3.01" transform="translate(214.51,353.04) rotate(-0.1)" width="5.00" height="6.02" rx="0.95"/>
<path fill="#ffffff" d="
  M 235.18 350.09
  A 0.86 0.86 0.0 0 1 236.04 350.95
  L 236.02 354.62
  A 1.15 1.15 0.0 0 1 234.87 355.76
  L 222.09 355.70
  A 1.15 1.15 0.0 0 1 220.94 354.54
  L 220.96 350.87
  A 0.86 0.86 0.0 0 1 221.82 350.02
  L 235.18 350.09
  Z"
/>
<rect fill="#ffffff" x="-3.01" y="-3.01" transform="translate(242.00,353.03) rotate(0.4)" width="6.02" height="6.02" rx="0.87"/>
<rect fill="#ffffff" x="-2.97" y="-2.99" transform="translate(250.99,353.04) rotate(-0.1)" width="5.94" height="5.98" rx="0.87"/>
<rect fill="#ffffff" x="-2.50" y="-3.01" transform="translate(260.52,353.05) rotate(-0.1)" width="5.00" height="6.02" rx="0.92"/>
<rect fill="#ffffff" x="-2.50" y="-3.02" transform="translate(269.50,353.04) rotate(0.6)" width="5.00" height="6.04" rx="0.90"/>
<rect fill="#ffffff" x="-2.99" y="-2.99" transform="translate(278.99,353.04) rotate(0.2)" width="5.98" height="5.98" rx="0.88"/>
<rect fill="#ffffff" x="-3.01" y="-3.01" transform="translate(288.00,353.04) rotate(-0.4)" width="6.02" height="6.02" rx="0.86"/>
<rect fill="#ffffff" x="-3.00" y="-3.00" transform="translate(297.00,353.04) rotate(0.2)" width="6.00" height="6.00" rx="0.88"/>
<rect fill="#ffffff" x="-3.01" y="-3.01" transform="translate(306.01,353.03) rotate(0.4)" width="6.02" height="6.02" rx="0.88"/>
<rect fill="#ffffff" x="-2.49" y="-3.01" transform="translate(315.48,353.04) rotate(0.4)" width="4.98" height="6.02" rx="0.90"/>
<rect fill="#ffffff" x="-2.50" y="-3.02" transform="translate(324.52,353.04) rotate(-0.1)" width="5.00" height="6.04" rx="0.91"/>
<rect fill="#ffffff" x="-3.01" y="-3.01" transform="translate(334.00,353.03) rotate(-0.5)" width="6.02" height="6.02" rx="0.86"/>
<rect fill="#ffffff" x="-2.99" y="-2.99" transform="translate(342.99,353.04) rotate(0.1)" width="5.98" height="5.98" rx="0.88"/>
<rect fill="#ffffff" x="-3.01" y="-3.01" transform="translate(352.01,353.04) rotate(-0.4)" width="6.02" height="6.02" rx="0.86"/>
<rect fill="#ffffff" x="-2.50" y="-3.02" transform="translate(361.49,353.05) rotate(0.4)" width="5.00" height="6.04" rx="0.90"/>
<rect fill="#ffffff" x="368.00" y="350.02" width="5.00" height="6.04" rx="0.95"/>
<rect fill="#ffffff" x="-2.49" y="-3.00" transform="translate(379.48,353.03) rotate(0.4)" width="4.98" height="6.00" rx="0.86"/>
<rect fill="#ffffff" x="386.02" y="350.03" width="5.98" height="6.00" rx="0.85"/>
<rect fill="#ffffff" x="-3.00" y="-3.00" transform="translate(398.01,353.03) rotate(-0.5)" width="6.00" height="6.00" rx="0.80"/>
<rect fill="#ffffff" x="-2.99" y="-2.99" transform="translate(406.99,353.03) rotate(0.2)" width="5.98" height="5.98" rx="0.85"/>
<rect fill="#ffffff" x="-2.50" y="-3.02" transform="translate(416.51,353.03) rotate(-0.1)" width="5.00" height="6.04" rx="0.87"/>
<rect fill="#ffffff" x="-2.50" y="-3.02" transform="translate(425.49,353.03) rotate(0.5)" width="5.00" height="6.04" rx="0.81"/>
<rect fill="#ffffff" x="-3.00" y="-3.01" transform="translate(435.00,353.01) rotate(0.4)" width="6.00" height="6.02" rx="0.80"/>
<rect fill="#ffffff" x="-3.02" y="-3.01" transform="translate(227.99,361.99) rotate(0.1)" width="6.04" height="6.02" rx="1.05"/>
<rect fill="#ffffff" x="-3.01" y="-3.01" transform="translate(228.01,371.00) rotate(0.3)" width="6.02" height="6.02" rx="0.89"/>
<ellipse fill="#ffffff" cx="0.00" cy="0.00" transform="translate(122.44,374.01) rotate(-0.1)" rx="2.68" ry="2.01"/>
<rect fill="#ffffff" x="-3.02" y="-2.48" transform="translate(228.00,380.51) rotate(0.3)" width="6.04" height="4.96" rx="1.00"/>
<rect fill="#ffffff" x="-3.02" y="-3.00" transform="translate(228.00,390.00) rotate(0.1)" width="6.04" height="6.00" rx="0.99"/>
<rect fill="#ffffff" x="-3.01" y="-3.01" transform="translate(228.00,399.00) rotate(0.2)" width="6.02" height="6.02" rx="0.85"/>
<rect fill="#ffffff" x="-3.02" y="-2.99" transform="translate(228.00,408.00) rotate(0.3)" width="6.04" height="5.98" rx="0.96"/>
<rect fill="#ffffff" x="-3.02" y="-2.49" transform="translate(228.01,417.50) rotate(0.3)" width="6.04" height="4.98" rx="0.91"/>
<rect fill="#ffffff" x="-3.00" y="-3.00" transform="translate(228.00,427.01) rotate(-0.4)" width="6.00" height="6.00" rx="0.74"/>
<rect fill="#ffffff" x="-3.00" y="-3.00" transform="translate(228.00,436.00) rotate(0.3)" width="6.00" height="6.00" rx="0.74"/>
<path fill="#ffffff" d="
  M 83.08 473.53
  Q 83.08 474.55 83.08 476.50
  C 83.05 484.50 85.01 491.18 91.85 495.97
  A 0.41 0.40 -58.0 0 1 91.97 496.51
  L 91.96 496.53
  A 0.49 0.48 -59.0 0 1 91.31 496.70
  Q 83.80 492.46 80.69 485.07
  Q 78.41 479.62 78.38 473.55
  Q 78.35 467.48 80.58 462.01
  Q 83.60 454.58 91.07 450.27
  A 0.49 0.48 58.4 0 1 91.72 450.43
  L 91.73 450.45
  A 0.41 0.40 57.4 0 1 91.62 450.99
  C 84.83 455.85 82.94 462.55 83.05 470.55
  Q 83.07 472.50 83.08 473.53
  Z"
/>
<path fill="#ffffff" d="
  M 105.9591 451.9009
  A 17.10 10.68 -89.4 0 1 116.4594 469.1118
  A 17.10 10.68 -89.4 0 1 105.6009 486.0991
  A 17.10 10.68 -89.4 0 1 95.1006 468.8882
  A 17.10 10.68 -89.4 0 1 105.9591 451.9009
  Z
  M 99.84 468.93
  C 99.83 472.82 99.68 484.22 106.12 483.93
  C 112.03 483.66 112.04 473.28 112.05 468.95
  C 112.06 464.61 112.08 454.23 106.16 453.94
  C 99.72 453.63 99.84 465.03 99.84 468.93
  Z"
/>
<path fill="#ffffff" d="
  M 143.8496 451.9201
  A 17.06 10.79 -89.8 0 1 154.5799 469.0177
  A 17.06 10.79 -89.8 0 1 143.7304 486.0399
  A 17.06 10.79 -89.8 0 1 133.0001 468.9423
  A 17.06 10.79 -89.8 0 1 143.8496 451.9201
  Z
  M 137.79 469.01
  C 137.78 472.88 137.62 484.22 144.03 483.93
  C 149.91 483.67 149.93 473.35 149.94 469.04
  C 149.95 464.72 149.98 454.40 144.09 454.11
  C 137.69 453.80 137.80 465.13 137.79 469.01
  Z"
/>
<path fill="#ffffff" d="
  M 426.11 482.61
  A 0.62 0.62 0.0 0 0 425.49 481.99
  L 412.41 481.97
  A 0.57 0.57 0.0 0 1 411.84 481.36
  L 411.96 479.56
  A 1.34 1.32 -26.0 0 1 412.21 478.85
  L 427.20 457.51
  A 1.06 1.04 15.7 0 1 428.00 457.07
  L 429.40 456.98
  A 0.47 0.47 0.0 0 1 429.90 457.45
  L 430.01 478.30
  A 0.67 0.66 0.6 0 0 430.67 478.96
  L 434.16 479.01
  A 0.65 0.65 0.0 0 1 434.80 479.65
  L 434.84 481.31
  A 0.65 0.65 0.0 0 1 434.20 481.96
  L 430.60 482.03
  A 0.58 0.58 0.0 0 0 430.04 482.61
  L 430.07 490.67
  A 0.31 0.30 0.1 0 1 429.76 490.97
  L 426.38 490.96
  A 0.29 0.28 0.1 0 1 426.09 490.68
  L 426.11 482.61
  Z
  M 425.49 463.00
  L 414.60 478.56
  A 0.28 0.28 0.0 0 0 414.82 479.00
  L 425.39 479.00
  A 0.61 0.61 0.0 0 0 426.01 478.39
  L 426.01 463.17
  A 0.29 0.29 0.0 0 0 425.49 463.00
  Z"
/>
<path fill="#ffffff" d="
  M 436.96 481.62
  L 436.96 479.44
  A 0.40 0.40 0.0 0 1 437.03 479.21
  L 452.45 457.16
  A 0.40 0.40 0.0 0 1 452.78 456.99
  L 454.61 456.99
  A 0.40 0.40 0.0 0 1 455.01 457.39
  L 455.01 478.58
  A 0.40 0.40 0.0 0 0 455.41 478.98
  L 459.50 478.98
  A 0.40 0.40 0.0 0 1 459.90 479.38
  L 459.90 481.60
  A 0.40 0.40 0.0 0 1 459.50 482.00
  L 455.56 482.00
  A 0.40 0.40 0.0 0 0 455.16 482.40
  L 455.16 490.61
  A 0.40 0.40 0.0 0 1 454.76 491.01
  L 451.59 491.01
  A 0.40 0.40 0.0 0 1 451.19 490.61
  L 451.19 482.42
  A 0.40 0.40 0.0 0 0 450.79 482.02
  L 437.36 482.02
  A 0.40 0.40 0.0 0 1 436.96 481.62
  Z
  M 450.44 463.07
  L 439.59 478.58
  A 0.28 0.27 -72.1 0 0 439.81 479.02
  L 450.35 479.02
  A 0.61 0.61 0.0 0 0 450.96 478.41
  L 450.96 463.24
  A 0.29 0.28 62.7 0 0 450.44 463.07
  Z"
/>
<path fill="#ffffff" d="
  M 483.49 473.53
  Q 480.13 470.81 479.15 469.25
  Q 476.91 465.69 478.52 461.00
  A 2.43 2.33 78.6 0 1 479.13 460.04
  C 483.51 455.81 491.17 455.77 494.84 460.86
  Q 496.32 462.89 495.86 464.71
  Q 495.40 466.57 494.10 468.16
  Q 492.93 469.60 489.33 471.82
  A 0.47 0.47 0.0 0 0 489.31 472.61
  C 491.74 474.29 494.88 476.86 496.09 479.87
  A 0.89 0.75 39.9 0 1 496.14 480.15
  L 496.14 484.72
  A 2.32 2.22 59.0 0 1 495.92 485.70
  Q 494.05 489.57 489.90 490.60
  Q 482.64 492.42 478.45 486.94
  A 2.97 2.95 -71.4 0 1 477.97 485.97
  C 476.40 480.44 478.90 477.29 483.46 474.18
  A 0.41 0.40 -42.7 0 0 483.49 473.53
  Z
  M 492.24 464.64
  Q 492.02 463.93 492.11 463.12
  A 3.54 3.14 18.1 0 0 490.19 459.83
  Q 485.72 457.53 481.88 461.06
  A 2.02 1.96 -13.2 0 0 481.31 461.95
  C 480.05 465.94 483.64 468.39 487.06 470.67
  A 0.91 0.90 47.1 0 0 488.02 470.71
  Q 491.66 468.68 492.28 465.61
  A 2.02 2.02 0.0 0 0 492.24 464.64
  Z
  M 488.67 488.83
  C 494.24 487.87 494.44 482.36 490.62 479.11
  Q 488.31 477.14 485.51 475.23
  A 0.82 0.82 0.0 0 0 484.53 475.26
  Q 480.16 478.71 481.00 484.25
  A 3.58 3.52 -61.6 0 0 481.27 485.19
  Q 483.29 489.76 488.67 488.83
  Z"
/>
<path fill="#ffffff" d="
  M 188.82 493.99
  Q 194.92 494.11 199.71 493.86
  Q 201.85 493.75 203.30 491.65
  A 0.48 0.48 0.0 0 1 204.15 492.09
  L 202.18 497.51
  A 0.73 0.73 0.0 0 1 201.49 498.00
  L 182.56 498.00
  A 0.59 0.58 -66.1 0 1 182.17 496.98
  C 188.28 491.42 194.67 485.55 197.64 478.27
  Q 198.54 476.05 197.64 471.92
  A 2.21 2.13 -72.6 0 0 197.18 471.00
  Q 192.30 465.42 186.32 469.97
  A 2.76 2.72 -3.6 0 0 185.63 470.74
  L 183.85 473.73
  A 0.41 0.41 0.0 0 1 183.10 473.45
  C 184.43 466.41 190.07 461.67 197.31 465.03
  Q 203.10 467.72 201.79 475.18
  C 200.70 481.42 193.45 488.05 188.46 493.13
  A 0.51 0.51 0.0 0 0 188.82 493.99
  Z"
/>
<path fill="#ffffff" d="
  M 214.45 493.12
  A 0.51 0.51 0.0 0 0 214.81 493.98
  Q 220.91 494.12 225.69 493.88
  Q 227.83 493.78 229.29 491.68
  A 0.48 0.48 0.0 0 1 230.14 492.13
  L 228.15 497.54
  A 0.73 0.73 0.0 0 1 227.46 498.03
  L 208.54 497.97
  A 0.59 0.58 -65.9 0 1 208.15 496.95
  C 214.28 491.41 220.68 485.56 223.67 478.29
  Q 224.58 476.08 223.69 471.95
  A 2.21 2.13 -72.4 0 0 223.23 471.02
  Q 218.37 465.43 212.38 469.96
  A 2.76 2.72 -3.4 0 0 211.69 470.73
  L 209.90 473.71
  A 0.41 0.41 0.0 0 1 209.15 473.43
  C 210.50 466.40 216.15 461.68 223.38 465.06
  Q 229.16 467.76 227.83 475.22
  C 226.72 481.45 219.45 488.06 214.45 493.12
  Z"
/>
<path fill="#ffffff" d="
  M 260.10 489.64
  A 0.62 0.62 0.0 0 0 259.48 489.02
  L 246.39 488.99
  A 0.57 0.57 0.0 0 1 245.82 488.38
  L 245.94 486.57
  A 1.34 1.32 -25.9 0 1 246.19 485.86
  L 261.22 464.52
  A 1.06 1.04 15.7 0 1 262.02 464.09
  L 263.41 464.00
  A 0.47 0.47 0.0 0 1 263.91 464.47
  L 264.01 485.33
  A 0.67 0.66 0.6 0 0 264.66 485.99
  L 268.16 486.04
  A 0.65 0.65 0.0 0 1 268.79 486.68
  L 268.84 488.34
  A 0.65 0.65 0.0 0 1 268.20 489.00
  L 264.59 489.07
  A 0.58 0.58 0.0 0 0 264.03 489.64
  L 264.06 497.71
  A 0.31 0.30 0.2 0 1 263.75 498.01
  L 260.36 497.99
  A 0.29 0.28 0.2 0 1 260.07 497.71
  L 260.10 489.64
  Z
  M 259.42 470.03
  L 248.60 485.53
  A 0.28 0.27 -72.2 0 0 248.82 485.97
  L 259.35 485.96
  A 0.61 0.61 0.0 0 0 259.95 485.35
  L 259.94 470.20
  A 0.29 0.28 62.6 0 0 259.42 470.03
  Z"
/>
<path fill="#ffffff" d="
  M 121.39 486.34
  A 1.65 1.49 -49.6 0 1 121.32 484.03
  C 122.50 482.73 124.44 482.66 125.93 483.59
  Q 128.62 485.27 127.99 489.08
  A 3.73 3.58 -27.1 0 1 127.59 490.24
  Q 125.66 493.65 121.19 494.83
  A 0.45 0.45 0.0 0 1 120.64 494.50
  L 120.62 494.41
  A 0.46 0.45 -15.7 0 1 120.93 493.87
  Q 125.59 492.39 126.23 487.48
  A 0.84 0.84 0.0 0 0 125.06 486.61
  Q 122.96 487.54 121.39 486.34
  Z"
/>
<ellipse fill="#ffffff" cx="0.00" cy="0.00" transform="translate(467.47,490.00) rotate(-0.3)" rx="2.64" ry="2.00"/>
<ellipse fill="#ffffff" cx="0.00" cy="0.00" transform="translate(238.42,497.00) rotate(-179.8)" rx="2.70" ry="2.00"/>
<path fill="#ffffff" d="
  M 334.67 556.73
  A 0.28 0.28 0.0 0 1 334.49 556.38
  L 345.43 520.80
  A 0.43 0.24 17.1 0 1 345.91 520.70
  L 347.75 521.27
  A 0.43 0.24 17.1 0 1 348.09 521.62
  L 337.14 557.20
  A 0.28 0.28 0.0 0 1 336.79 557.38
  L 334.67 556.73
  Z"
/>
<path fill="#ffffff" d="
  M 307.68 526.65
  L 316.88 548.66
  A 0.41 0.41 0.0 0 0 317.64 548.67
  Q 321.23 540.11 324.91 530.85
  Q 325.88 528.40 326.54 525.37
  A 1.23 1.23 0.0 0 0 325.80 523.97
  L 323.04 522.87
  A 0.45 0.45 0.0 0 1 323.20 522.00
  L 332.83 522.00
  A 0.44 0.43 -55.3 0 1 332.98 522.84
  Q 331.01 523.60 329.11 525.42
  A 0.67 0.65 -13.0 0 0 328.96 525.65
  L 316.62 556.51
  A 0.69 0.69 0.0 0 1 315.38 556.61
  L 314.35 554.89
  A 2.60 2.40 26.0 0 1 314.09 554.22
  Q 313.45 551.08 312.21 549.22
  A 3.46 3.44 -69.6 0 1 311.80 548.32
  Q 310.91 545.20 309.53 543.68
  A 1.28 1.28 0.0 0 1 309.18 542.80
  Q 309.18 541.68 308.57 540.38
  Q 305.61 534.09 303.51 528.60
  C 302.25 525.34 300.98 523.49 297.74 522.81
  A 0.41 0.41 0.0 0 1 297.83 522.00
  L 311.01 522.00
  A 0.41 0.40 38.6 0 1 311.10 522.80
  Q 309.00 523.27 307.68 524.31
  A 1.46 1.44 80.9 0 0 307.21 524.97
  Q 306.86 526.02 307.55 526.49
  A 0.35 0.35 0.0 0 1 307.68 526.65
  Z"
/>
<path fill="#ffffff" d="
  M 377.41 546.31
  A 0.32 0.32 0.0 0 1 377.99 546.57
  L 375.32 555.46
  A 0.79 0.78 8.5 0 1 374.57 556.01
  L 349.42 556.01
  A 0.41 0.41 0.0 0 1 349.01 555.60
  L 349.01 555.32
  A 0.30 0.30 0.0 0 1 349.33 555.02
  Q 353.71 555.32 353.70 552.08
  Q 353.62 532.71 353.81 526.33
  C 353.90 523.21 351.72 522.95 349.32 522.89
  A 0.27 0.26 1.1 0 1 349.06 522.63
  L 349.06 522.29
  A 0.29 0.29 0.0 0 1 349.35 522.00
  L 364.12 522.00
  A 0.27 0.27 0.0 0 1 364.39 522.24
  L 364.42 522.51
  A 0.36 0.35 -6.3 0 1 364.12 522.88
  C 362.17 523.20 359.33 522.90 358.98 525.25
  Q 358.88 525.87 358.88 529.68
  Q 358.85 547.59 358.75 551.84
  A 2.03 2.03 0.0 0 0 360.67 553.91
  Q 365.91 554.20 369.70 553.86
  C 374.46 553.43 375.48 549.53 377.41 546.31
  Z"
/>
<path fill="#ffffff" d="
  M 403.01 535.87
  Q 403.01 534.46 403.05 534.08
  A 0.60 0.59 -87.2 0 1 403.64 533.54
  L 462.32 533.51
  A 0.34 0.33 -17.4 0 0 462.60 532.99
  L 455.44 522.76
  A 0.38 0.37 -4.2 0 1 455.92 522.21
  L 482.65 535.56
  A 0.36 0.11 76.4 0 1 482.78 535.78
  Q 482.80 535.83 482.80 535.89
  Q 482.80 536.01 482.78 536.06
  A 0.36 0.11 -76.4 0 1 482.65 536.28
  L 455.90 549.59
  A 0.38 0.37 4.2 0 1 455.42 549.05
  L 462.59 538.83
  A 0.34 0.33 17.4 0 0 462.31 538.30
  L 403.63 538.20
  A 0.60 0.59 87.2 0 1 403.05 537.66
  Q 403.01 537.28 403.01 535.87
  Z"
/>
</svg>
