<?xml version="1.0" encoding="UTF-8" standalone="no"?>
<!DOCTYPE svg PUBLIC "-//W3C//DTD SVG 1.1//EN" "http://www.w3.org/Graphics/SVG/1.1/DTD/svg11.dtd">
<svg xmlns="http://www.w3.org/2000/svg" version="1.1" viewBox="0.00 0.00 324.00 172.00">
<path fill="#ffffff" d="
  M 157.91 43.96
  Q 158.10 43.96 158.11 43.96
  Q 198.36 24.56 226.08 11.12
  Q 226.50 10.92 229.22 11.20
  A 1.50 1.37 57.9 0 1 229.76 11.35
  L 298.92 44.75
  A 2.87 2.86 12.9 0 1 300.53 47.31
  Q 300.54 50.07 300.54 83.54
  Q 300.54 117.01 300.53 119.77
  A 2.87 2.86 -12.9 0 1 298.92 122.33
  L 229.76 155.74
  A 1.50 1.37 -57.9 0 1 229.22 155.89
  Q 226.50 156.17 226.08 155.97
  Q 198.36 142.53 158.11 123.14
  Q 158.10 123.13 157.92 123.13
  Q 157.73 123.13 157.72 123.14
  Q 117.47 142.53 89.75 155.97
  Q 89.33 156.17 86.61 155.89
  A 1.50 1.37 57.9 0 1 86.07 155.74
  L 16.91 122.34
  A 2.87 2.86 12.9 0 1 15.30 119.78
  Q 15.29 117.02 15.29 83.55
  Q 15.29 50.08 15.30 47.32
  A 2.87 2.86 -12.9 0 1 16.91 44.76
  L 86.07 11.36
  A 1.50 1.37 -57.9 0 1 86.61 11.21
  Q 89.33 10.93 89.75 11.13
  Q 117.47 24.57 157.71 43.96
  Q 157.73 43.96 157.91 43.96
  Z
  M 21.71 83.53
  Q 21.70 111.81 21.71 117.19
  A 0.69 0.66 13.7 0 0 22.10 117.80
  Q 52.10 132.34 87.96 149.64
  Q 87.98 149.65 88.13 149.65
  Q 88.27 149.65 88.30 149.64
  Q 124.17 132.36 154.18 117.84
  A 0.69 0.66 -13.7 0 0 154.57 117.23
  Q 154.58 111.85 154.59 83.57
  Q 154.60 55.29 154.59 49.91
  A 0.69 0.66 13.7 0 0 154.20 49.30
  Q 124.20 34.76 88.35 17.46
  Q 88.32 17.45 88.17 17.45
  Q 88.03 17.45 88.00 17.46
  Q 52.13 34.74 22.12 49.26
  A 0.69 0.66 -13.7 0 0 21.74 49.87
  Q 21.72 55.25 21.71 83.53
  Z
  M 161.27 83.57
  Q 161.28 111.86 161.29 117.25
  A 0.69 0.66 13.7 0 0 161.68 117.86
  Q 191.70 132.39 227.58 149.67
  Q 227.61 149.69 227.75 149.69
  Q 227.90 149.69 227.93 149.67
  Q 263.80 132.37 293.81 117.83
  A 0.69 0.66 -13.7 0 0 294.20 117.22
  Q 294.21 111.84 294.21 83.54
  Q 294.20 55.25 294.19 49.87
  A 0.69 0.66 13.7 0 0 293.80 49.26
  Q 263.78 34.73 227.90 17.44
  Q 227.87 17.43 227.73 17.43
  Q 227.58 17.43 227.55 17.44
  Q 191.68 34.74 161.67 49.28
  A 0.69 0.66 -13.7 0 0 161.28 49.89
  Q 161.27 55.28 161.27 83.57
  Z"
/>
<rect fill="#ffffff" x="-35.37" y="-3.14" transform="translate(253.92,41.95) rotate(24.2)" width="70.74" height="6.28" rx="0.54"/>
<rect fill="#ffffff" x="-35.38" y="-3.14" transform="translate(255.50,125.15) rotate(-24.2)" width="70.76" height="6.28" rx="0.62"/>
</svg>
