<?xml version="1.0" encoding="UTF-8" standalone="no"?>
<!DOCTYPE svg PUBLIC "-//W3C//DTD SVG 1.1//EN" "http://www.w3.org/Graphics/SVG/1.1/DTD/svg11.dtd">
<svg xmlns="http://www.w3.org/2000/svg" version="1.1" viewBox="0.00 0.00 528.00 226.00">
<rect fill="#ffffff" x="201.58" y="30.00" width="34.88" height="3.00" rx="0.46"/>
<path fill="#ffffff" d="
  M 322.56 46.94
  Q 322.60 46.91 322.62 46.88
  A 0.17 0.01 -57.9 0 0 322.68 46.75
  Q 322.72 45.37 322.73 31.56
  A 0.59 0.59 0.0 0 1 323.17 30.99
  Q 323.60 30.87 324.14 30.87
  Q 324.68 30.87 325.11 30.99
  A 0.59 0.59 0.0 0 1 325.54 31.56
  Q 325.53 45.38 325.56 46.75
  A 0.17 0.01 58.0 0 0 325.62 46.88
  Q 325.64 46.91 325.68 46.95
  Q 325.70 46.97 325.73 46.99
  A 0.17 0.01 32.1 0 0 325.86 47.05
  Q 327.24 47.09 341.05 47.10
  A 0.59 0.59 0.0 0 1 341.62 47.54
  Q 341.74 47.97 341.74 48.51
  Q 341.74 49.05 341.61 49.48
  A 0.59 0.59 0.0 0 1 341.05 49.91
  Q 327.23 49.90 325.85 49.93
  A 0.17 0.01 -32.0 0 0 325.73 49.99
  Q 325.70 50.01 325.66 50.05
  Q 325.64 50.07 325.62 50.10
  A 0.17 0.01 -57.9 0 0 325.55 50.23
  Q 325.52 51.61 325.51 65.42
  A 0.59 0.59 0.0 0 1 325.07 65.99
  Q 324.64 66.11 324.10 66.11
  Q 323.56 66.11 323.13 65.98
  A 0.59 0.59 0.0 0 1 322.69 65.42
  Q 322.71 51.60 322.68 50.22
  A 0.17 0.01 58.0 0 0 322.62 50.10
  Q 322.60 50.07 322.56 50.03
  Q 322.54 50.01 322.51 49.99
  A 0.17 0.01 32.1 0 0 322.38 49.92
  Q 321.00 49.89 307.19 49.88
  A 0.59 0.59 0.0 0 1 306.62 49.44
  Q 306.50 49.01 306.50 48.47
  Q 306.50 47.93 306.62 47.50
  A 0.59 0.59 0.0 0 1 307.19 47.06
  Q 321.01 47.08 322.38 47.05
  A 0.17 0.01 -32.0 0 0 322.51 46.99
  Q 322.54 46.97 322.56 46.94
  Z"
/>
<path fill="#ffffff" d="
  M 153.16 31.85
  Q 153.70 31.85 154.14 31.97
  A 0.59 0.59 0.0 0 1 154.57 32.54
  Q 154.56 46.38 154.59 47.76
  A 0.17 0.01 58.0 0 0 154.65 47.89
  Q 154.67 47.92 154.71 47.95
  Q 154.74 47.98 154.76 48.00
  A 0.17 0.01 32.1 0 0 154.89 48.06
  Q 156.27 48.09 170.11 48.10
  A 0.59 0.59 0.0 0 1 170.68 48.54
  Q 170.80 48.97 170.80 49.51
  Q 170.80 50.06 170.68 50.49
  A 0.59 0.59 0.0 0 1 170.11 50.92
  Q 156.27 50.91 154.89 50.94
  A 0.17 0.01 -32.0 0 0 154.76 51.01
  Q 154.73 51.02 154.70 51.06
  Q 154.67 51.09 154.65 51.11
  A 0.17 0.01 -57.9 0 0 154.59 51.24
  Q 154.55 52.62 154.54 66.46
  A 0.59 0.59 0.0 0 1 154.11 67.03
  Q 153.68 67.15 153.14 67.15
  Q 152.59 67.15 152.16 67.03
  A 0.59 0.59 0.0 0 1 151.73 66.46
  Q 151.74 52.62 151.71 51.24
  A 0.17 0.01 58.0 0 0 151.64 51.11
  Q 151.63 51.08 151.59 51.05
  Q 151.56 51.02 151.53 51.00
  A 0.17 0.01 32.1 0 0 151.41 50.94
  Q 150.03 50.91 136.19 50.90
  A 0.59 0.59 0.0 0 1 135.62 50.46
  Q 135.50 50.03 135.50 49.49
  Q 135.50 48.94 135.62 48.51
  A 0.59 0.59 0.0 0 1 136.19 48.08
  Q 150.03 48.09 151.41 48.06
  A 0.17 0.01 -32.0 0 0 151.54 47.99
  Q 151.56 47.98 151.59 47.95
  Q 151.63 47.91 151.65 47.89
  A 0.17 0.01 -57.9 0 0 151.71 47.76
  Q 151.74 46.38 151.75 32.54
  A 0.59 0.59 0.0 0 1 152.19 31.97
  Q 152.62 31.85 153.16 31.85
  Z"
/>
<path fill="#ffffff" d="
  M 453.4171 31.8874
  A 23.63 22.00 -87.8 0 1 474.4938 56.3445
  A 23.63 22.00 -87.8 0 1 451.6029 79.1126
  A 23.63 22.00 -87.8 0 1 430.5262 54.6555
  A 23.63 22.00 -87.8 0 1 453.4171 31.8874
  Z
  M 466.93 55.18
  C 466.82 49.69 466.38 45.29 463.70 40.59
  C 461.24 36.26 457.09 33.84 452.03 33.93
  C 446.97 34.03 442.91 36.60 440.61 41.02
  C 438.11 45.81 437.83 50.23 437.93 55.72
  C 438.04 61.20 438.48 65.61 441.16 70.30
  C 443.62 74.63 447.77 77.05 452.83 76.96
  C 457.89 76.86 461.95 74.29 464.25 69.87
  C 466.75 65.08 467.03 60.66 466.93 55.18
  Z"
/>
<path fill="#ffffff" d="
  M 153.58 83.67
  Q 153.64 83.67 153.65 83.67
  A 0.16 0.00 -1.4 0 1 153.80 83.67
  Q 179.78 70.76 219.52 50.81
  Q 220.79 50.17 223.15 50.51
  A 3.22 3.09 61.0 0 1 224.09 50.80
  L 293.00 85.25
  A 0.23 0.22 -63.4 0 1 293.10 85.56
  L 290.42 90.94
  A 0.25 0.25 0.0 0 1 290.09 91.05
  L 222.26 57.15
  A 0.97 0.95 -44.3 0 0 221.39 57.15
  L 153.85 90.94
  A 0.23 0.01 -3.3 0 1 153.67 90.96
  Q 153.63 90.96 153.58 90.96
  Q 153.53 90.96 153.50 90.96
  A 0.23 0.01 3.3 0 1 153.31 90.94
  L 85.76 57.17
  A 0.97 0.95 44.3 0 0 84.89 57.17
  L 17.07 91.09
  A 0.25 0.25 0.0 0 1 16.74 90.98
  L 14.06 85.60
  A 0.23 0.22 63.4 0 1 14.16 85.29
  L 83.06 50.82
  A 3.22 3.09 -61.1 0 1 84.00 50.53
  Q 86.36 50.19 87.63 50.83
  Q 127.38 70.77 153.36 83.67
  A 0.16 0.00 1.4 0 1 153.51 83.67
  Q 153.52 83.67 153.58 83.67
  Z"
/>
<rect fill="#ffffff" x="-39.20" y="-3.25" transform="translate(386.75,78.39) rotate(-26.5)" width="78.40" height="6.50" rx="0.52"/>
<rect fill="#ffffff" x="-39.19" y="-3.25" transform="translate(55.88,83.68) rotate(-26.6)" width="78.38" height="6.50" rx="0.55"/>
<rect fill="#ffffff" x="-39.19" y="-3.25" transform="translate(392.90,91.48) rotate(-26.4)" width="78.38" height="6.50" rx="0.52"/>
<path fill="#ffffff" d="
  M 326.80 108.05
  Q 326.80 107.57 325.91 106.55
  C 323.22 103.42 320.48 100.34 318.20 96.91
  Q 317.02 95.14 315.21 93.57
  Q 313.82 92.37 311.39 88.95
  A 0.29 0.29 0.0 0 0 310.86 89.12
  L 310.86 119.82
  A 2.73 2.73 0.0 0 0 313.08 122.50
  L 317.29 123.29
  A 0.09 0.08 13.2 0 1 317.36 123.39
  L 317.31 123.68
  A 0.39 0.38 5.4 0 1 316.93 123.99
  L 301.77 123.99
  A 0.28 0.27 90.0 0 1 301.50 123.71
  L 301.50 123.43
  A 0.34 0.33 -90.0 0 1 301.83 123.09
  Q 304.74 123.07 306.73 122.02
  A 1.69 1.67 -8.8 0 0 307.60 120.85
  Q 308.09 118.24 308.08 115.25
  Q 308.00 93.89 308.12 85.85
  A 1.99 1.92 -61.0 0 0 307.86 84.87
  Q 305.17 80.32 299.57 79.89
  A 0.33 0.33 0.0 0 1 299.27 79.56
  L 299.27 79.23
  A 0.23 0.22 -90.0 0 1 299.49 79.00
  L 310.65 79.00
  A 1.00 0.99 70.7 0 1 311.43 79.38
  L 338.19 112.35
  A 0.36 0.36 0.0 0 0 338.83 112.12
  Q 338.67 98.43 339.02 84.48
  C 339.11 80.77 336.08 79.81 332.88 79.97
  A 0.38 0.38 0.0 0 1 332.48 79.59
  L 332.48 79.32
  A 0.32 0.32 0.0 0 1 332.80 79.00
  L 347.81 79.00
  A 0.37 0.37 0.0 0 1 348.15 79.51
  L 347.96 79.99
  A 0.08 0.07 14.9 0 1 347.88 80.03
  Q 341.69 79.28 341.73 84.99
  Q 341.85 106.86 341.70 124.10
  A 0.59 0.58 -65.1 0 1 340.67 124.48
  Q 332.34 114.72 327.85 108.91
  Q 327.52 108.50 327.18 108.46
  A 0.41 0.41 0.0 0 1 326.80 108.05
  Z"
/>
<rect fill="#ffffff" x="-39.14" y="-3.24" transform="translate(389.79,142.39) rotate(26.6)" width="78.28" height="6.48" rx="0.47"/>
<path fill="#ffffff" d="
  M 450.2955 152.8959
  A 23.62 22.05 -87.9 0 1 471.4652 177.3080
  A 23.62 22.05 -87.9 0 1 448.5645 200.1041
  A 23.62 22.05 -87.9 0 1 427.3948 175.6920
  A 23.62 22.05 -87.9 0 1 450.2955 152.8959
  Z
  M 435.05 176.65
  C 435.12 182.13 435.54 186.54 438.19 191.24
  C 440.62 195.58 444.75 198.03 449.81 197.96
  C 454.87 197.90 458.93 195.35 461.26 190.95
  C 463.78 186.18 464.09 181.76 464.02 176.28
  C 463.95 170.81 463.53 166.40 460.89 161.70
  C 458.45 157.36 454.32 154.91 449.26 154.97
  C 444.21 155.04 440.14 157.59 437.81 161.99
  C 435.29 166.76 434.98 171.18 435.05 176.65
  Z"
/>
<rect fill="#ffffff" x="473.67" y="156.00" width="22.04" height="3.00" rx="0.62"/>
</svg>
