<?xml version="1.0" encoding="UTF-8" standalone="no"?>
<!DOCTYPE svg PUBLIC "-//W3C//DTD SVG 1.1//EN" "http://www.w3.org/Graphics/SVG/1.1/DTD/svg11.dtd">
<svg xmlns="http://www.w3.org/2000/svg" version="1.1" viewBox="0.00 0.00 588.00 550.00">
<path fill="#ffffff" d="
  M 561.04 438.82
  L 554.28 428.67
  A 0.32 0.31 86.2 0 1 554.68 428.21
  L 581.27 441.50
  A 0.41 0.41 0.0 0 1 581.27 442.24
  L 554.57 455.59
  A 0.24 0.23 -86.6 0 1 554.27 455.25
  L 561.24 444.71
  A 0.30 0.30 0.0 0 0 560.99 444.24
  L 160.78 444.24
  A 1.78 1.78 0.0 0 1 159.00 442.46
  L 159.00 28.83
  A 0.27 0.26 73.7 0 0 158.59 28.60
  L 148.01 35.65
  A 0.28 0.28 0.0 0 1 147.60 35.29
  L 160.95 8.60
  A 0.41 0.41 0.0 0 1 161.68 8.60
  L 174.99 35.22
  A 0.30 0.30 0.0 0 1 174.56 35.61
  L 164.06 28.66
  A 0.19 0.19 0.0 0 0 163.76 28.82
  L 163.76 130.84
  A 2.99 2.95 34.3 0 0 163.98 131.96
  Q 165.73 136.36 164.14 139.49
  Q 163.75 140.26 163.75 141.35
  Q 163.74 240.12 163.76 321.17
  A 0.84 0.84 0.0 0 0 164.60 322.01
  L 164.97 322.01
  A 0.94 0.93 -90.0 0 1 165.90 322.95
  L 165.90 326.22
  A 0.75 0.75 0.0 0 1 165.15 326.97
  L 164.45 326.97
  A 0.70 0.70 0.0 0 0 163.75 327.67
  L 163.75 438.89
  A 0.61 0.61 0.0 0 0 164.36 439.50
  L 199.23 439.50
  A 0.82 0.82 0.0 0 0 200.05 438.68
  L 200.05 437.88
  A 0.83 0.82 -90.0 0 1 200.87 437.05
  L 205.14 437.05
  A 0.81 0.81 0.0 0 1 205.95 437.86
  L 205.95 438.67
  A 0.84 0.84 0.0 0 0 206.79 439.51
  L 481.00 439.51
  A 1.13 1.08 35.0 0 0 481.33 439.46
  C 484.42 438.49 487.02 439.50 489.82 439.50
  Q 535.27 439.53 560.68 439.50
  A 0.44 0.44 0.0 0 0 561.04 438.82
  Z"
/>
<path fill="#ffffff" d="
  M 94.44 145.27
  A 0.40 0.40 0.0 0 0 94.72 145.94
  Q 101.45 146.21 105.81 145.76
  Q 107.74 145.56 108.94 143.66
  A 0.30 0.30 0.0 0 1 109.50 143.84
  Q 109.36 145.56 108.39 146.82
  A 0.95 0.93 -32.0 0 0 108.21 147.55
  Q 108.65 150.06 105.66 150.04
  Q 92.50 149.98 88.72 149.97
  A 0.62 0.61 24.7 0 1 88.32 148.90
  C 93.39 144.54 105.42 133.33 103.80 126.17
  Q 102.81 121.80 98.56 121.14
  Q 92.29 120.20 90.01 126.53
  A 0.50 0.48 -73.5 0 1 89.44 126.85
  L 89.35 126.83
  A 0.50 0.49 -76.6 0 1 88.98 126.23
  C 90.17 121.66 92.26 117.75 97.05 117.13
  C 101.98 116.49 108.37 119.65 107.73 125.47
  C 106.91 132.93 100.87 138.41 94.44 145.27
  Z"
/>
<path fill="#ffffff" d="
  M 137.6767 116.9202
  A 16.55 10.60 -89.7 0 1 148.1899 133.5255
  A 16.55 10.60 -89.7 0 1 137.5033 150.0198
  A 16.55 10.60 -89.7 0 1 126.9901 133.4145
  A 16.55 10.60 -89.7 0 1 137.6767 116.9202
  Z
  M 137.51 148.01
  Q 140.30 148.02 141.96 144.56
  Q 142.96 142.49 142.99 138.75
  Q 143.04 132.48 143.06 131.13
  A 3.64 3.39 52.4 0 1 143.12 130.48
  Q 144.07 125.13 141.02 120.93
  Q 139.60 118.98 137.58 118.97
  Q 135.56 118.97 134.13 120.91
  Q 131.06 125.10 131.98 130.45
  A 3.64 3.39 -52.1 0 1 132.04 131.10
  Q 132.06 132.45 132.07 138.72
  Q 132.09 142.46 133.07 144.54
  Q 134.72 148.01 137.51 148.01
  Z"
/>
<rect fill="#ffffff" x="-3.02" y="-2.99" transform="translate(170.98,136.01) rotate(0.5)" width="6.04" height="5.98" rx="0.89"/>
<rect fill="#ffffff" x="-3.01" y="-2.97" transform="translate(180.00,136.01) rotate(0.4)" width="6.02" height="5.94" rx="0.87"/>
<rect fill="#ffffff" x="-3.00" y="-2.98" transform="translate(189.01,136.01) rotate(0.3)" width="6.00" height="5.96" rx="0.89"/>
<path fill="#ffffff" d="
  M 289.63 242.63
  Q 288.32 241.36 278.18 232.42
  C 250.21 207.76 226.79 178.37 206.78 147.16
  A 2.57 2.56 73.4 0 0 204.63 145.99
  L 200.86 145.99
  A 0.86 0.86 0.0 0 1 200.00 145.13
  L 200.00 141.08
  A 1.22 1.22 0.0 0 1 200.67 139.99
  Q 201.51 139.56 201.72 139.28
  A 0.20 0.20 0.0 0 0 201.56 138.96
  L 195.88 138.96
  A 0.87 0.87 0.0 0 1 195.01 138.09
  L 195.01 133.88
  A 1.01 1.01 0.0 0 1 196.15 132.88
  L 205.44 134.13
  A 0.51 0.50 -86.7 0 1 205.87 134.62
  C 205.90 135.89 205.97 136.70 206.73 137.94
  C 230.10 175.73 258.39 210.74 292.94 238.35
  A 0.21 0.21 0.0 0 0 293.27 238.12
  L 287.23 217.97
  A 2.29 2.29 0.0 0 1 288.84 215.10
  L 289.02 215.05
  A 2.26 2.26 0.0 0 1 291.86 216.55
  L 299.84 243.08
  A 3.12 2.97 20.4 0 0 300.26 243.94
  Q 300.78 244.67 302.98 246.28
  Q 336.75 270.97 375.80 287.20
  C 411.27 301.94 448.22 312.03 486.30 320.02
  A 2.17 2.16 -84.1 0 1 488.02 322.14
  L 488.02 324.79
  A 1.21 1.21 0.0 0 1 486.81 326.00
  L 478.91 326.00
  A 1.03 1.03 0.0 0 1 477.90 324.78
  Q 478.30 322.68 474.78 322.48
  A 0.72 0.71 -88.1 0 0 474.02 323.20
  L 474.02 325.08
  A 0.94 0.93 90.0 0 1 473.09 326.02
  L 469.74 326.02
  A 0.77 0.76 90.0 0 1 468.98 325.25
  L 468.98 322.01
  A 1.04 1.04 0.0 0 0 468.16 320.99
  C 436.48 313.91 405.93 304.85 376.52 292.83
  Q 336.57 276.51 301.52 251.34
  A 6.32 6.17 -20.2 0 0 299.29 250.34
  L 267.19 243.06
  A 2.26 2.25 12.8 0 1 265.48 240.36
  L 265.58 239.94
  A 2.18 2.18 0.0 0 1 268.19 238.29
  L 289.38 243.10
  A 0.28 0.28 0.0 0 0 289.63 242.63
  Z
  M 202.25 136.35
  Q 202.11 136.12 201.63 136.19
  Q 201.13 136.27 201.26 136.63
  Q 201.41 137.04 201.67 137.08
  A 0.53 0.48 -9.3 0 0 202.25 136.35
  Z"
/>
<ellipse fill="#ffffff" cx="0.00" cy="0.00" transform="translate(119.33,148.98) rotate(-179.2)" rx="2.58" ry="2.00"/>
<rect fill="#ffffff" x="-3.00" y="-3.00" transform="translate(203.02,152.01) rotate(-0.5)" width="6.00" height="6.00" rx="0.95"/>
<rect fill="#ffffff" x="-3.01" y="-2.99" transform="translate(203.01,161.01) rotate(0.2)" width="6.02" height="5.98" rx="0.95"/>
<rect fill="#ffffff" x="-3.00" y="-2.98" transform="translate(203.01,170.00) rotate(0.5)" width="6.00" height="5.96" rx="0.89"/>
<rect fill="#ffffff" x="-3.02" y="-2.49" transform="translate(203.02,179.51) rotate(0.2)" width="6.04" height="4.98" rx="0.96"/>
<rect fill="#ffffff" x="-3.02" y="-2.46" transform="translate(203.01,188.52) rotate(-0.2)" width="6.04" height="4.92" rx="0.99"/>
<rect fill="#ffffff" x="-3.02" y="-2.48" transform="translate(203.02,197.51) rotate(-0.2)" width="6.04" height="4.96" rx="0.99"/>
<path fill="#ffffff" d="
  M 58.91 198.91
  Q 59.14 198.91 59.21 199.06
  Q 66.62 213.65 72.56 225.81
  A 0.26 0.26 0.0 0 1 72.18 226.15
  L 61.75 219.24
  A 0.30 0.30 0.0 0 0 61.29 219.49
  L 61.24 277.75
  A 0.70 0.70 0.0 0 1 60.67 278.44
  Q 60.61 278.45 58.86 278.45
  Q 57.12 278.45 57.06 278.44
  A 0.70 0.70 0.0 0 1 56.49 277.75
  L 56.52 219.49
  A 0.30 0.30 0.0 0 0 56.06 219.24
  L 45.62 226.13
  A 0.26 0.26 0.0 0 1 45.24 225.79
  Q 51.20 213.64 58.63 199.06
  Q 58.71 198.91 58.91 198.91
  Z"
/>
<rect fill="#ffffff" x="-3.00" y="-2.97" transform="translate(203.02,207.01) rotate(0.2)" width="6.00" height="5.94" rx="0.95"/>
<rect fill="#ffffff" x="-2.99" y="-2.99" transform="translate(203.02,216.01) rotate(-0.5)" width="5.98" height="5.98" rx="0.89"/>
<rect fill="#ffffff" x="-3.01" y="-2.98" transform="translate(203.02,225.01) rotate(0.1)" width="6.02" height="5.96" rx="0.95"/>
<rect fill="#ffffff" x="-3.01" y="-2.98" transform="translate(203.01,233.99) rotate(0.4)" width="6.02" height="5.96" rx="0.91"/>
<rect fill="#ffffff" x="200.00" y="241.03" width="6.04" height="4.96" rx="0.99"/>
<rect fill="#ffffff" x="-3.02" y="-2.46" transform="translate(203.02,252.53) rotate(-0.1)" width="6.04" height="4.92" rx="1.01"/>
<rect fill="#ffffff" x="-3.03" y="-2.48" transform="translate(203.02,261.51) rotate(-0.2)" width="6.06" height="4.96" rx="1.00"/>
<rect fill="#ffffff" x="-3.00" y="-2.97" transform="translate(203.02,271.01) rotate(0.1)" width="6.00" height="5.94" rx="0.95"/>
<rect fill="#ffffff" x="-2.99" y="-2.99" transform="translate(203.02,280.01) rotate(-0.5)" width="5.98" height="5.98" rx="0.89"/>
<rect fill="#ffffff" x="-3.00" y="-2.98" transform="translate(203.02,289.01) rotate(0.2)" width="6.00" height="5.96" rx="0.94"/>
<rect fill="#ffffff" x="-3.00" y="-2.97" transform="translate(203.01,297.99) rotate(0.4)" width="6.00" height="5.94" rx="0.89"/>
<path fill="#ffffff" d="
  M 47.49 319.05
  A 0.39 0.39 0.0 0 0 46.82 319.33
  L 46.82 327.82
  A 1.88 1.86 -73.7 0 0 47.67 329.39
  Q 48.95 330.22 50.50 330.12
  A 0.25 0.25 0.0 0 1 50.76 330.43
  L 50.70 330.68
  A 0.41 0.40 -83.7 0 1 50.31 331.00
  L 39.13 331.00
  A 0.30 0.30 0.0 0 1 38.83 330.70
  L 38.83 330.38
  A 0.31 0.30 -0.0 0 1 39.14 330.08
  Q 40.78 330.09 42.07 329.32
  A 1.04 1.04 0.0 0 0 42.58 328.46
  Q 43.06 308.50 42.81 302.78
  Q 42.69 299.95 39.65 300.85
  A 0.51 0.50 69.9 0 1 39.04 300.56
  L 38.92 300.28
  A 0.26 0.26 0.0 0 1 39.06 299.94
  L 46.03 297.02
  A 0.63 0.63 0.0 0 1 46.90 297.60
  L 46.90 300.44
  A 0.42 0.41 61.5 0 0 47.66 300.67
  Q 48.60 299.19 50.25 298.19
  C 56.20 294.60 61.54 300.06 61.91 306.10
  Q 62.22 311.18 60.89 314.61
  C 58.86 319.79 52.12 323.61 47.49 319.05
  Z
  M 46.98 309.55
  Q 46.95 314.51 47.05 315.54
  A 1.68 1.66 24.5 0 0 47.36 316.36
  C 48.95 318.46 51.38 319.97 53.92 318.66
  C 57.68 316.72 58.05 313.48 58.07 309.60
  C 58.08 305.72 57.74 302.48 54.00 300.51
  C 51.47 299.18 49.03 300.66 47.42 302.75
  A 1.68 1.66 -24.0 0 0 47.10 303.57
  Q 47.00 304.59 46.98 309.55
  Z"
/>
<path fill="#ffffff" d="
  M 96.51 336.68
  L 96.51 336.28
  A 0.29 0.28 0.0 0 1 96.80 336.00
  Q 100.81 336.07 100.84 333.69
  Q 101.03 317.26 100.83 308.32
  A 2.07 2.05 7.8 0 0 99.35 306.39
  Q 98.34 306.10 96.58 306.79
  A 0.43 0.41 68.1 0 1 96.04 306.55
  L 95.93 306.30
  A 0.13 0.12 -23.5 0 1 96.00 306.14
  L 103.51 302.99
  A 1.02 1.02 0.0 0 1 104.92 303.93
  L 104.92 334.43
  A 0.99 0.98 -73.8 0 0 105.37 335.26
  Q 106.65 336.08 108.53 336.09
  A 0.38 0.38 0.0 0 1 108.91 336.47
  L 108.91 336.76
  A 0.23 0.23 0.0 0 1 108.68 336.99
  L 96.82 336.99
  A 0.31 0.31 0.0 0 1 96.51 336.68
  Z"
/>
<path fill="#ffffff" d="
  M 139.6893 302.9502
  A 17.06 10.61 -89.7 0 1 150.2099 320.0656
  A 17.06 10.61 -89.7 0 1 139.5107 337.0698
  A 17.06 10.61 -89.7 0 1 128.9901 319.9544
  A 17.06 10.61 -89.7 0 1 139.6893 302.9502
  Z
  M 133.64 319.94
  C 133.63 325.22 133.79 334.96 139.63 334.97
  C 145.48 334.98 145.67 325.24 145.67 319.96
  C 145.68 314.68 145.52 304.94 139.68 304.93
  C 133.84 304.93 133.65 314.67 133.64 319.94
  Z"
/>
<rect fill="#ffffff" x="-3.01" y="-2.48" transform="translate(203.02,307.51) rotate(0.4)" width="6.02" height="4.96" rx="0.96"/>
<rect fill="#ffffff" x="-3.01" y="-2.47" transform="translate(203.01,316.52) rotate(0.3)" width="6.02" height="4.94" rx="0.97"/>
<rect fill="#ffffff" x="-2.98" y="-2.49" transform="translate(207.00,323.52) rotate(-0.2)" width="5.96" height="4.98" rx="0.84"/>
<rect fill="#ffffff" x="-3.01" y="-2.47" transform="translate(216.00,323.51) rotate(0.1)" width="6.02" height="4.94" rx="0.84"/>
<rect fill="#ffffff" x="-2.97" y="-2.48" transform="translate(225.02,323.52) rotate(0.1)" width="5.94" height="4.96" rx="0.85"/>
<rect fill="#ffffff" x="-2.47" y="-2.47" transform="translate(234.51,323.51) rotate(0.4)" width="4.94" height="4.94" rx="0.82"/>
<rect fill="#ffffff" x="-2.51" y="-2.47" transform="translate(243.48,323.51) rotate(0.6)" width="5.02" height="4.94" rx="0.85"/>
<rect fill="#ffffff" x="-2.48" y="-2.48" transform="translate(252.52,323.52) rotate(0.3)" width="4.96" height="4.96" rx="0.84"/>
<rect fill="#ffffff" x="-2.50" y="-2.47" transform="translate(261.49,323.52) rotate(0.5)" width="5.00" height="4.94" rx="0.83"/>
<rect fill="#ffffff" x="-2.98" y="-2.46" transform="translate(271.00,323.51) rotate(0.1)" width="5.96" height="4.92" rx="0.84"/>
<rect fill="#ffffff" x="-3.00" y="-2.47" transform="translate(280.00,323.51) rotate(0.2)" width="6.00" height="4.94" rx="0.83"/>
<rect fill="#ffffff" x="-2.98" y="-2.49" transform="translate(289.02,323.53) rotate(-0.3)" width="5.96" height="4.98" rx="0.86"/>
<rect fill="#ffffff" x="-2.99" y="-2.48" transform="translate(298.00,323.51) rotate(0.1)" width="5.98" height="4.96" rx="0.82"/>
<rect fill="#ffffff" x="-2.51" y="-2.47" transform="translate(307.48,323.52) rotate(0.6)" width="5.02" height="4.94" rx="0.86"/>
<rect fill="#ffffff" x="-2.48" y="-2.48" transform="translate(316.52,323.52) rotate(0.3)" width="4.96" height="4.96" rx="0.84"/>
<rect fill="#ffffff" x="-2.50" y="-2.47" transform="translate(325.49,323.52) rotate(0.5)" width="5.00" height="4.94" rx="0.83"/>
<rect fill="#ffffff" x="-2.48" y="-2.46" transform="translate(334.51,323.51) rotate(0.4)" width="4.96" height="4.92" rx="0.83"/>
<rect fill="#ffffff" x="340.98" y="321.06" width="6.02" height="4.92" rx="0.79"/>
<rect fill="#ffffff" x="-2.98" y="-2.49" transform="translate(353.02,323.52) rotate(-0.3)" width="5.96" height="4.98" rx="0.86"/>
<rect fill="#ffffff" x="-2.99" y="-2.48" transform="translate(362.00,323.52) rotate(0.1)" width="5.98" height="4.96" rx="0.82"/>
<rect fill="#ffffff" x="-2.98" y="-2.47" transform="translate(371.00,323.51) rotate(0.1)" width="5.96" height="4.94" rx="0.86"/>
<rect fill="#ffffff" x="-2.48" y="-2.48" transform="translate(380.52,323.51) rotate(0.3)" width="4.96" height="4.96" rx="0.84"/>
<rect fill="#ffffff" x="-2.49" y="-2.48" transform="translate(389.49,323.51) rotate(0.5)" width="4.98" height="4.96" rx="0.80"/>
<rect fill="#ffffff" x="-2.48" y="-2.47" transform="translate(398.51,323.51) rotate(0.4)" width="4.96" height="4.94" rx="0.81"/>
<rect fill="#ffffff" x="-2.50" y="-2.47" transform="translate(407.49,323.51) rotate(0.5)" width="5.00" height="4.94" rx="0.81"/>
<rect fill="#ffffff" x="-2.98" y="-2.49" transform="translate(417.02,323.52) rotate(0.1)" width="5.96" height="4.98" rx="0.86"/>
<rect fill="#ffffff" x="-3.00" y="-2.48" transform="translate(426.00,323.52) rotate(0.1)" width="6.00" height="4.96" rx="0.84"/>
<rect fill="#ffffff" x="-3.00" y="-2.49" transform="translate(435.00,323.51) rotate(0.1)" width="6.00" height="4.98" rx="0.90"/>
<rect fill="#ffffff" x="-3.01" y="-2.50" transform="translate(444.00,323.51) rotate(0.3)" width="6.02" height="5.00" rx="0.82"/>
<rect fill="#ffffff" x="-2.50" y="-2.50" transform="translate(453.50,323.51) rotate(-0.6)" width="5.00" height="5.00" rx="0.76"/>
<rect fill="#ffffff" x="-2.51" y="-2.51" transform="translate(462.50,323.50) rotate(0.5)" width="5.02" height="5.02" rx="0.76"/>
<rect fill="#ffffff" x="-3.01" y="-2.48" transform="translate(171.99,324.50) rotate(-0.4)" width="6.02" height="4.96" rx="0.82"/>
<rect fill="#ffffff" x="-2.49" y="-2.48" transform="translate(181.50,324.51) rotate(0.5)" width="4.98" height="4.96" rx="0.90"/>
<rect fill="#ffffff" x="-2.48" y="-2.48" transform="translate(190.51,324.50) rotate(0.4)" width="4.96" height="4.96" rx="0.92"/>
<path fill="#ffffff" d="
  M 197.80 322.04
  L 201.25 322.04
  A 0.78 0.78 0.0 0 1 202.03 322.82
  L 202.03 326.29
  A 0.78 0.78 0.0 0 0 202.81 327.07
  L 205.21 327.07
  A 0.78 0.78 0.0 0 1 205.99 327.85
  L 205.99 332.17
  A 0.78 0.78 0.0 0 1 205.21 332.95
  L 200.76 332.95
  A 0.78 0.78 0.0 0 1 199.98 332.17
  L 199.98 327.70
  A 0.78 0.78 0.0 0 0 199.20 326.92
  L 197.80 326.92
  A 0.78 0.78 0.0 0 1 197.02 326.14
  L 197.02 322.82
  A 0.78 0.78 0.0 0 1 197.80 322.04
  Z"
/>
<rect fill="#ffffff" x="-2.50" y="-2.99" transform="translate(484.52,331.99) rotate(0.3)" width="5.00" height="5.98" rx="0.96"/>
<ellipse fill="#ffffff" cx="0.00" cy="0.00" transform="translate(121.32,335.98) rotate(-178.6)" rx="2.58" ry="2.00"/>
<rect fill="#ffffff" x="12.00" y="336.00" width="80.98" height="6.00" rx="0.65"/>
<rect fill="#ffffff" x="-3.00" y="-2.99" transform="translate(203.02,339.00) rotate(0.3)" width="6.00" height="5.98" rx="0.94"/>
<rect fill="#ffffff" x="-2.50" y="-2.99" transform="translate(484.51,341.01) rotate(0.1)" width="5.00" height="5.98" rx="0.91"/>
<rect fill="#ffffff" x="-3.01" y="-2.45" transform="translate(203.02,348.53) rotate(-0.1)" width="6.02" height="4.90" rx="1.01"/>
<rect fill="#ffffff" x="-2.49" y="-2.99" transform="translate(484.52,349.98) rotate(0.5)" width="4.98" height="5.98" rx="0.95"/>
<path fill="#ffffff" d="
  M 20.64 366.48
  A 0.28 0.28 0.0 0 0 21.10 366.79
  C 24.73 363.11 28.62 361.11 33.02 365.31
  Q 33.40 365.67 35.62 369.73
  A 2.27 2.23 -60.2 0 1 35.89 370.76
  C 35.94 375.85 36.51 378.88 33.47 382.46
  Q 26.88 390.23 17.99 384.76
  A 2.31 2.29 15.7 0 1 16.89 382.82
  Q 16.86 379.07 16.88 357.93
  Q 16.88 357.05 16.51 356.03
  Q 15.76 353.93 13.74 354.78
  A 0.46 0.46 0.0 0 1 13.13 354.53
  L 13.02 354.29
  A 0.37 0.37 0.0 0 1 13.22 353.81
  L 19.88 351.01
  A 0.78 0.77 78.5 0 1 20.95 351.72
  L 21.13 365.00
  A 1.59 1.58 -34.5 0 1 21.02 365.58
  L 20.64 366.48
  Z
  M 21.08 375.44
  Q 21.03 380.76 21.06 382.03
  A 1.41 1.39 -69.0 0 0 21.49 383.01
  Q 25.04 386.42 28.41 384.13
  C 31.53 382.01 32.09 379.33 32.12 375.55
  C 32.16 371.76 31.65 369.07 28.58 366.90
  Q 25.25 364.54 21.64 367.88
  A 1.41 1.39 70.1 0 0 21.18 368.85
  Q 21.13 370.12 21.08 375.44
  Z"
/>
<rect fill="#ffffff" x="-3.02" y="-2.48" transform="translate(203.02,357.51) rotate(0.4)" width="6.04" height="4.96" rx="0.98"/>
<rect fill="#ffffff" x="-2.50" y="-2.50" transform="translate(484.52,359.50) rotate(0.2)" width="5.00" height="5.00" rx="0.92"/>
<path fill="#ffffff" d="
  M 53.17 383.63
  A 0.28 0.28 0.0 0 0 52.72 383.42
  C 49.45 386.12 45.24 389.40 41.81 384.68
  A 2.56 2.55 -70.1 0 1 41.40 383.80
  Q 39.75 377.49 45.44 374.45
  Q 49.56 372.25 52.47 371.27
  A 0.72 0.72 0.0 0 0 52.95 370.54
  L 52.64 366.77
  A 0.85 0.83 16.9 0 0 52.31 366.17
  Q 49.47 363.93 46.63 365.82
  A 1.14 1.13 75.9 0 0 46.13 366.66
  C 45.95 368.88 46.22 370.86 43.80 371.01
  A 1.82 1.73 -4.0 0 1 41.89 369.43
  C 41.22 361.11 57.33 360.77 57.16 368.25
  Q 56.97 376.88 57.25 382.60
  A 1.43 1.14 86.4 0 0 58.49 383.97
  Q 59.62 383.88 60.61 382.52
  A 0.35 0.35 0.0 0 1 61.05 382.41
  L 61.40 382.59
  A 0.20 0.19 -62.2 0 1 61.48 382.86
  Q 59.79 385.65 57.05 386.79
  C 54.69 387.77 53.19 386.00 53.17 383.63
  Z
  M 52.93 373.41
  A 0.10 0.10 0.0 0 0 52.81 373.31
  C 48.73 374.14 42.27 377.80 46.22 383.01
  C 47.83 385.13 50.83 383.45 52.41 382.03
  A 0.83 0.79 71.0 0 0 52.68 381.44
  L 52.93 373.41
  Z"
/>
<path fill="#ffffff" d="
  M 69.51 366.38
  C 71.60 364.40 74.39 361.25 77.24 364.02
  A 1.75 1.69 -25.8 0 1 76.17 366.93
  Q 74.91 367.09 73.12 366.11
  A 1.29 1.29 0.0 0 0 71.55 366.36
  L 69.50 368.57
  A 1.43 1.42 66.5 0 0 69.12 369.54
  L 69.17 381.94
  A 3.12 3.10 -60.4 0 0 69.60 383.52
  Q 70.32 384.76 72.97 385.16
  A 0.37 0.37 0.0 0 1 73.28 385.54
  Q 73.26 385.78 73.10 385.94
  A 0.17 0.17 0.0 0 1 72.98 385.99
  L 62.19 386.01
  A 0.51 0.51 0.0 0 1 61.68 385.48
  L 61.68 385.43
  A 0.43 0.43 0.0 0 1 62.13 385.01
  Q 65.22 385.16 65.14 381.55
  Q 65.00 375.14 65.37 370.13
  C 65.59 367.13 64.19 366.32 61.49 366.74
  A 0.38 0.38 0.0 0 1 61.28 366.01
  L 68.41 363.02
  A 0.66 0.66 0.0 0 1 69.32 363.72
  L 69.00 366.11
  A 0.31 0.30 72.5 0 0 69.51 366.38
  Z"
/>
<rect fill="#ffffff" x="-3.01" y="-2.47" transform="translate(203.02,366.51) rotate(0.2)" width="6.02" height="4.94" rx="0.97"/>
<rect fill="#ffffff" x="-2.50" y="-2.46" transform="translate(484.51,368.50) rotate(-0.5)" width="5.00" height="4.92" rx="0.97"/>
<rect fill="#ffffff" x="-3.00" y="-3.00" transform="translate(203.02,376.00) rotate(0.5)" width="6.00" height="6.00" rx="0.96"/>
<rect fill="#ffffff" x="-2.50" y="-2.49" transform="translate(484.51,377.50) rotate(0.4)" width="5.00" height="4.98" rx="0.92"/>
<rect fill="#ffffff" x="-3.01" y="-2.98" transform="translate(203.02,385.01) rotate(0.1)" width="6.02" height="5.96" rx="0.95"/>
<rect fill="#ffffff" x="-2.49" y="-2.99" transform="translate(484.51,387.01) rotate(0.3)" width="4.98" height="5.98" rx="0.87"/>
<rect fill="#ffffff" x="-2.99" y="-2.99" transform="translate(203.02,394.00) rotate(-0.5)" width="5.98" height="5.98" rx="0.89"/>
<rect fill="#ffffff" x="-2.49" y="-2.98" transform="translate(484.52,395.99) rotate(0.4)" width="4.98" height="5.96" rx="0.91"/>
<rect fill="#ffffff" x="-3.01" y="-2.99" transform="translate(203.01,403.01) rotate(0.2)" width="6.02" height="5.98" rx="0.95"/>
<rect fill="#ffffff" x="-2.50" y="-3.00" transform="translate(484.51,405.01) rotate(0.1)" width="5.00" height="6.00" rx="0.92"/>
<rect fill="#ffffff" x="-3.02" y="-2.46" transform="translate(203.02,412.53) rotate(0.5)" width="6.04" height="4.92" rx="1.02"/>
<rect fill="#ffffff" x="-2.49" y="-3.00" transform="translate(484.52,413.98) rotate(0.4)" width="4.98" height="6.00" rx="0.96"/>
<rect fill="#ffffff" x="-3.03" y="-2.48" transform="translate(203.02,421.51) rotate(-0.3)" width="6.06" height="4.96" rx="1.01"/>
<rect fill="#ffffff" x="-2.50" y="-2.50" transform="translate(484.52,423.51) rotate(0.3)" width="5.00" height="5.00" rx="0.92"/>
<rect fill="#ffffff" x="-3.01" y="-2.48" transform="translate(203.02,430.51) rotate(0.3)" width="6.02" height="4.96" rx="0.99"/>
<rect fill="#ffffff" x="-2.48" y="-2.48" transform="translate(484.51,432.51) rotate(0.5)" width="4.96" height="4.96" rx="0.86"/>
<path fill="#ffffff" d="
  M 80.90 471.98
  C 80.91 480.57 81.91 488.76 89.41 493.92
  A 0.49 0.49 0.0 0 1 89.54 494.60
  L 89.53 494.62
  A 0.45 0.44 32.1 0 1 88.94 494.75
  Q 78.88 488.90 76.58 477.28
  Q 75.91 473.90 75.91 471.99
  Q 75.90 470.08 76.56 466.70
  Q 78.83 455.07 88.87 449.19
  A 0.45 0.44 -32.3 0 1 89.46 449.32
  L 89.47 449.34
  A 0.49 0.49 0.0 0 1 89.35 450.02
  C 81.86 455.21 80.89 463.40 80.90 471.98
  Z"
/>
<path fill="#ffffff" d="
  M 167.72 464.96
  Q 168.24 470.91 167.78 477.08
  A 1.30 0.64 -52.9 0 1 167.74 477.29
  L 166.14 482.99
  A 2.22 2.09 71.9 0 1 165.83 483.65
  Q 165.78 483.73 164.21 486.74
  Q 161.56 491.83 155.69 494.72
  A 0.39 0.39 0.0 0 1 155.19 494.56
  L 155.19 494.55
  A 0.42 0.41 59.3 0 1 155.33 493.99
  Q 162.25 489.60 163.45 481.01
  Q 165.10 469.13 162.78 460.16
  Q 161.22 454.13 155.28 450.11
  A 0.48 0.47 -58.8 0 1 155.13 449.48
  L 155.15 449.45
  A 0.42 0.42 0.0 0 1 155.71 449.30
  Q 165.00 454.32 167.33 464.68
  A 0.29 0.15 78.4 0 0 167.52 464.92
  Q 167.57 464.92 167.60 464.88
  A 0.09 0.07 69.3 0 1 167.72 464.96
  Z"
/>
<path fill="#ffffff" d="
  M 103.7427 450.8812
  A 16.59 10.57 -89.3 0 1 114.1092 467.5991
  A 16.59 10.57 -89.3 0 1 103.3373 484.0588
  A 16.59 10.57 -89.3 0 1 92.9708 467.3409
  A 16.59 10.57 -89.3 0 1 103.7427 450.8812
  Z
  M 97.96 467.50
  C 97.94 470.82 97.86 484.21 104.52 481.79
  Q 108.21 480.44 108.78 475.99
  Q 108.87 475.29 108.92 467.53
  C 108.94 464.21 109.02 450.82 102.35 453.24
  Q 98.67 454.59 98.10 459.04
  Q 98.01 459.74 97.96 467.50
  Z"
/>
<path fill="#ffffff" d="
  M 140.6668 450.9202
  A 16.57 10.57 -89.7 0 1 151.1499 467.5453
  A 16.57 10.57 -89.7 0 1 140.4932 484.0598
  A 16.57 10.57 -89.7 0 1 130.0101 467.4347
  A 16.57 10.57 -89.7 0 1 140.6668 450.9202
  Z
  M 134.98 467.49
  C 135.01 472.13 134.44 482.01 140.63 481.97
  C 146.81 481.93 146.13 472.06 146.10 467.43
  C 146.08 462.79 146.64 452.91 140.46 452.95
  C 134.27 452.98 134.95 462.85 134.98 467.49
  Z"
/>
<path fill="#ffffff" d="
  M 457.81 488.45
  A 0.55 0.55 0.0 0 1 457.26 489.00
  L 454.19 489.00
  A 0.44 0.44 0.0 0 1 453.75 488.56
  L 453.75 480.60
  A 0.61 0.61 0.0 0 0 453.14 480.00
  L 440.33 480.01
  A 0.50 0.49 -1.2 0 1 439.83 479.54
  Q 439.73 477.66 440.35 476.74
  Q 442.13 474.10 454.74 456.58
  A 1.34 1.31 -71.7 0 1 455.80 456.03
  L 457.19 456.03
  A 0.72 0.71 90.0 0 1 457.90 456.75
  L 457.92 476.56
  A 0.46 0.45 90.0 0 0 458.37 477.02
  L 461.86 477.01
  A 0.44 0.44 0.0 0 1 462.30 477.45
  L 462.30 479.48
  A 0.54 0.53 90.0 0 1 461.77 480.02
  L 458.24 480.02
  A 0.44 0.44 0.0 0 0 457.80 480.46
  L 457.81 488.45
  Z
  M 442.71 476.97
  L 453.15 476.98
  A 0.57 0.57 0.0 0 0 453.72 476.42
  L 453.73 461.82
  A 0.27 0.27 0.0 0 0 453.24 461.67
  L 442.48 476.52
  A 0.29 0.29 0.0 0 0 442.71 476.97
  Z"
/>
<path fill="#ffffff" d="
  M 482.90 488.45
  A 0.55 0.55 0.0 0 1 482.35 489.00
  L 479.28 489.00
  A 0.44 0.44 0.0 0 1 478.84 488.56
  L 478.84 480.59
  A 0.61 0.61 0.0 0 0 478.23 479.98
  L 465.40 479.98
  A 0.50 0.49 -1.2 0 1 464.90 479.51
  Q 464.81 477.63 465.43 476.71
  Q 467.21 474.07 479.85 456.53
  A 1.34 1.31 -71.7 0 1 480.92 455.98
  L 482.31 455.98
  A 0.72 0.71 -90.0 0 1 483.02 456.70
  L 483.02 476.54
  A 0.46 0.45 -90.0 0 0 483.47 477.00
  L 486.97 477.00
  A 0.44 0.44 0.0 0 1 487.41 477.44
  L 487.41 479.47
  A 0.54 0.53 90.0 0 1 486.88 480.01
  L 483.34 480.01
  A 0.44 0.44 0.0 0 0 482.90 480.45
  L 482.90 488.45
  Z
  M 467.81 476.99
  L 478.31 476.99
  A 0.57 0.57 0.0 0 0 478.88 476.42
  L 478.88 461.74
  A 0.28 0.28 0.0 0 0 478.38 461.58
  L 467.57 476.53
  A 0.29 0.29 0.0 0 0 467.81 476.99
  Z"
/>
<path fill="#ffffff" d="
  M 506.97 485.93
  C 503.14 480.07 506.46 476.43 511.08 472.77
  A 0.46 0.45 44.9 0 0 511.07 472.06
  Q 508.87 470.33 506.73 467.08
  Q 504.99 464.45 506.02 461.54
  C 508.47 454.61 518.83 454.03 522.62 460.05
  A 1.94 1.87 29.4 0 1 522.91 461.02
  C 522.94 462.87 523.34 464.97 522.08 466.46
  Q 519.78 469.19 516.95 470.40
  A 0.49 0.49 0.0 0 0 516.90 471.28
  C 520.28 473.22 524.62 477.19 523.99 481.55
  Q 523.12 487.63 516.62 488.83
  Q 511.40 489.80 507.50 486.53
  A 2.70 2.69 -86.5 0 1 506.97 485.93
  Z
  M 519.56 465.60
  Q 520.45 462.10 519.37 460.34
  C 517.30 456.93 512.12 457.39 509.60 460.20
  A 2.10 2.04 70.8 0 0 509.08 461.31
  C 508.52 465.27 511.67 467.17 514.97 469.57
  A 0.78 0.78 0.0 0 0 515.92 469.54
  Q 519.26 466.80 519.56 465.60
  Z
  M 520.24 480.16
  Q 517.80 476.67 513.06 473.64
  A 0.57 0.56 -46.5 0 0 512.41 473.66
  C 509.03 476.26 507.05 482.05 510.43 485.29
  C 513.35 488.07 519.04 487.57 520.61 483.60
  Q 521.35 481.75 520.24 480.16
  Z"
/>
<path fill="#ffffff" d="
  M 186.44 491.28
  A 0.40 0.40 0.0 0 0 186.71 491.95
  Q 193.44 492.21 197.80 491.76
  Q 199.73 491.56 200.93 489.66
  A 0.30 0.30 0.0 0 1 201.49 489.84
  Q 201.35 491.56 200.39 492.82
  A 0.95 0.93 -32.1 0 0 200.21 493.55
  Q 200.65 496.06 197.66 496.04
  Q 184.50 495.99 180.72 495.99
  A 0.62 0.61 24.7 0 1 180.32 494.91
  C 185.39 490.56 197.41 479.33 195.77 472.17
  Q 194.78 467.81 190.53 467.16
  Q 184.27 466.22 181.99 472.56
  A 0.50 0.48 -73.5 0 1 181.43 472.88
  L 181.34 472.86
  A 0.50 0.49 -76.7 0 1 180.96 472.25
  C 182.15 467.68 184.23 463.77 189.02 463.14
  C 193.95 462.50 200.34 465.66 199.70 471.47
  C 198.90 478.94 192.86 484.41 186.44 491.28
  Z"
/>
<path fill="#ffffff" d="
  M 212.68 491.94
  Q 219.41 492.22 223.77 491.78
  Q 225.70 491.59 226.90 489.69
  A 0.30 0.30 0.0 0 1 227.46 489.87
  Q 227.32 491.59 226.35 492.85
  A 0.95 0.93 -31.9 0 0 226.17 493.58
  Q 226.60 496.09 223.61 496.06
  Q 210.46 495.97 206.68 495.96
  A 0.62 0.61 24.9 0 1 206.28 494.88
  C 211.36 490.54 223.41 479.35 221.80 472.19
  Q 220.82 467.82 216.57 467.16
  Q 210.31 466.20 208.02 472.53
  A 0.50 0.48 -73.4 0 1 207.45 472.85
  L 207.36 472.83
  A 0.50 0.49 -76.5 0 1 206.99 472.22
  C 208.19 467.66 210.28 463.75 215.07 463.14
  C 220.00 462.51 226.38 465.69 225.73 471.50
  C 224.90 478.96 218.85 484.42 212.41 491.27
  A 0.40 0.40 0.0 0 0 212.68 491.94
  Z"
/>
<path fill="#ffffff" d="
  M 261.91 495.46
  A 0.55 0.55 0.0 0 1 261.36 496.01
  L 258.29 496.02
  A 0.44 0.44 0.0 0 1 257.85 495.58
  L 257.83 487.61
  A 0.61 0.61 0.0 0 0 257.22 487.00
  L 244.39 487.03
  A 0.50 0.49 -1.3 0 1 243.88 486.56
  Q 243.79 484.68 244.41 483.76
  Q 246.18 481.12 258.77 463.54
  A 1.34 1.31 -71.8 0 1 259.84 462.99
  L 261.23 462.99
  A 0.72 0.71 89.9 0 1 261.95 463.71
  L 262.00 483.55
  A 0.46 0.45 89.9 0 0 262.45 484.00
  L 265.95 484.00
  A 0.44 0.44 0.0 0 1 266.39 484.43
  L 266.39 486.46
  A 0.54 0.53 89.9 0 1 265.87 487.01
  L 262.33 487.01
  A 0.44 0.44 0.0 0 0 261.89 487.46
  L 261.91 495.46
  Z
  M 246.79 484.00
  L 257.27 483.99
  A 0.57 0.57 0.0 0 0 257.84 483.42
  L 257.82 468.77
  A 0.28 0.28 0.0 0 0 257.32 468.61
  L 246.55 483.54
  A 0.29 0.29 0.0 0 0 246.79 484.00
  Z"
/>
<path fill="#ffffff" d="
  M 118.83 491.88
  Q 123.81 490.11 124.11 485.25
  A 0.69 0.69 0.0 0 0 123.24 484.54
  C 121.69 484.96 119.91 485.52 119.08 483.96
  C 117.99 481.94 120.85 480.65 122.46 481.11
  Q 126.10 482.13 125.91 486.25
  A 3.43 3.41 -34.2 0 1 125.71 487.28
  Q 124.22 491.52 119.13 492.82
  A 0.29 0.28 67.1 0 1 118.82 492.69
  L 118.64 492.43
  A 0.37 0.37 0.0 0 1 118.83 491.88
  Z"
/>
<ellipse fill="#ffffff" cx="0.00" cy="0.00" transform="translate(496.27,487.99) rotate(-179.6)" rx="2.68" ry="1.98"/>
<ellipse fill="#ffffff" cx="0.00" cy="0.00" transform="translate(236.26,494.99) rotate(-179.7)" rx="2.68" ry="1.98"/>
<path fill="#ffffff" d="
  M 392.51 523.25
  Q 389.55 532.70 387.42 540.32
  A 0.83 0.83 0.0 0 1 386.77 540.91
  Q 385.74 541.09 384.93 540.91
  A 0.59 0.58 14.7 0 1 384.50 540.18
  Q 387.28 530.68 389.79 522.67
  Q 392.76 513.22 394.89 505.60
  A 0.83 0.83 0.0 0 1 395.54 505.01
  Q 396.57 504.83 397.38 505.01
  A 0.59 0.58 14.7 0 1 397.82 505.74
  Q 395.03 515.24 392.51 523.25
  Z"
/>
<path fill="#ffffff" d="
  M 453.24 519.37
  Q 453.24 517.63 453.25 517.57
  A 0.70 0.70 0.0 0 1 453.94 517.00
  L 512.04 516.97
  A 0.30 0.30 0.0 0 0 512.29 516.51
  L 505.41 506.11
  A 0.26 0.26 0.0 0 1 505.75 505.73
  Q 517.87 511.66 532.41 519.05
  Q 532.57 519.13 532.57 519.33
  Q 532.57 519.56 532.41 519.64
  Q 517.87 527.04 505.75 532.97
  A 0.26 0.26 0.0 0 1 505.41 532.60
  L 512.29 522.19
  A 0.30 0.30 0.0 0 0 512.04 521.73
  L 453.94 521.74
  A 0.70 0.70 0.0 0 1 453.25 521.17
  Q 453.24 521.11 453.24 519.37
  Z"
/>
<path fill="#ffffff" d="
  M 367.73 533.15
  A 0.16 0.16 0.0 0 0 368.03 533.14
  Q 373.84 518.43 376.54 511.54
  Q 377.22 509.81 376.53 508.35
  A 1.17 1.13 -1.0 0 0 375.92 507.78
  L 373.59 506.84
  A 0.44 0.44 0.0 0 1 373.75 506.00
  L 383.16 506.00
  A 0.45 0.45 0.0 0 1 383.31 506.87
  Q 381.13 507.64 379.76 509.19
  A 1.97 1.80 79.2 0 0 379.44 509.71
  L 367.12 540.55
  A 0.67 0.66 -45.8 0 1 365.89 540.57
  L 352.98 509.79
  A 4.22 4.22 0.0 0 0 350.66 507.50
  L 348.75 506.74
  A 0.38 0.38 0.0 0 1 348.89 506.01
  L 361.67 506.01
  A 0.34 0.34 0.0 0 1 361.80 506.66
  L 359.64 507.56
  A 2.44 2.44 0.0 0 0 358.34 510.76
  L 367.73 533.15
  Z"
/>
<path fill="#ffffff" d="
  M 400.33 539.08
  C 402.47 539.07 404.86 538.51 404.87 536.12
  Q 404.97 519.04 404.97 511.82
  C 404.98 508.14 403.87 506.76 400.36 506.97
  A 0.30 0.29 -1.0 0 1 400.05 506.68
  L 400.05 506.15
  A 0.15 0.14 -0.0 0 1 400.20 506.01
  L 414.81 506.01
  A 0.31 0.31 0.0 0 1 415.12 506.32
  L 415.12 506.62
  A 0.28 0.27 -1.1 0 1 414.85 506.89
  C 412.72 506.91 409.93 507.03 409.50 509.79
  Q 408.99 513.01 409.23 522.25
  Q 409.45 530.56 409.46 536.05
  A 1.83 1.83 0.0 0 0 411.20 537.88
  Q 415.21 538.11 419.02 537.98
  C 424.07 537.80 426.08 534.77 427.48 530.37
  A 0.37 0.36 17.4 0 1 427.93 530.14
  L 428.26 530.24
  A 0.22 0.22 0.0 0 1 428.41 530.51
  L 425.82 539.40
  A 0.86 0.84 8.2 0 1 425.00 540.00
  L 400.30 540.00
  A 0.28 0.28 0.0 0 1 400.02 539.72
  L 400.02 539.40
  A 0.32 0.32 0.0 0 1 400.33 539.08
  Z"
/>
</svg>
