<?xml version="1.0" encoding="UTF-8" standalone="no"?>
<!DOCTYPE svg PUBLIC "-//W3C//DTD SVG 1.1//EN" "http://www.w3.org/Graphics/SVG/1.1/DTD/svg11.dtd">
<svg xmlns="http://www.w3.org/2000/svg" version="1.1" viewBox="0.00 0.00 324.00 176.00">
<path fill="#ffffff" d="
  M 157.55 40.37
  Q 157.90 40.37 158.04 40.30
  Q 191.84 23.15 224.82 6.31
  A 5.65 5.65 0.0 0 1 229.94 6.31
  L 298.62 41.25
  A 3.06 3.04 12.4 0 1 300.28 43.83
  Q 300.30 44.21 300.30 82.16
  Q 300.30 120.12 300.28 120.50
  A 3.06 3.04 -12.4 0 1 298.62 123.08
  L 229.94 158.02
  A 5.65 5.65 0.0 0 1 224.82 158.02
  Q 191.84 141.18 158.04 124.03
  Q 157.90 123.96 157.55 123.96
  Q 157.20 123.96 157.06 124.03
  Q 123.26 141.18 90.28 158.02
  A 5.65 5.65 0.0 0 1 85.16 158.02
  L 16.48 123.08
  A 3.06 3.04 12.4 0 1 14.82 120.50
  Q 14.80 120.12 14.80 82.16
  Q 14.80 44.21 14.82 43.82
  A 3.06 3.04 -12.4 0 1 16.48 41.25
  L 85.16 6.31
  A 5.65 5.65 0.0 0 1 90.28 6.31
  Q 123.26 23.15 157.06 40.30
  Q 157.20 40.37 157.55 40.37
  Z
  M 21.24 82.17
  Q 21.24 110.26 21.29 117.67
  A 0.83 0.83 0.0 0 0 21.74 118.40
  Q 52.12 133.86 87.53 151.84
  Q 87.54 151.85 87.71 151.85
  Q 87.85 151.85 87.87 151.84
  Q 123.28 133.86 153.66 118.40
  A 0.83 0.83 0.0 0 0 154.11 117.67
  Q 154.16 110.26 154.15 82.17
  Q 154.15 54.07 154.11 46.67
  A 0.83 0.83 0.0 0 0 153.66 45.93
  Q 123.28 30.47 87.86 12.49
  Q 87.85 12.48 87.69 12.48
  Q 87.54 12.48 87.53 12.49
  Q 52.12 30.47 21.74 45.93
  A 0.83 0.83 0.0 0 0 21.29 46.67
  Q 21.24 54.08 21.24 82.17
  Z
  M 293.95 82.21
  Q 293.97 54.12 293.93 46.70
  A 0.83 0.83 0.0 0 0 293.47 45.97
  Q 263.10 30.48 227.69 12.47
  Q 227.68 12.47 227.51 12.47
  Q 227.37 12.47 227.36 12.47
  Q 191.92 30.43 161.52 45.88
  A 0.83 0.83 0.0 0 0 161.07 46.61
  Q 161.02 54.02 161.00 82.12
  Q 160.98 110.22 161.02 117.63
  A 0.83 0.83 0.0 0 0 161.47 118.36
  Q 191.85 133.85 227.25 151.86
  Q 227.27 151.87 227.43 151.87
  Q 227.58 151.87 227.59 151.86
  Q 263.02 133.90 293.42 118.46
  A 0.83 0.83 0.0 0 0 293.88 117.72
  Q 293.93 110.31 293.95 82.21
  Z"
/>
<rect fill="#ffffff" x="141.00" y="49.97" width="7.00" height="65.00" rx="0.49"/>
<rect fill="#ffffff" x="-35.72" y="-3.28" transform="translate(59.72,122.77) rotate(25.3)" width="71.44" height="6.56" rx="0.52"/>
</svg>
