<?xml version="1.0" encoding="UTF-8" standalone="no"?>
<!DOCTYPE svg PUBLIC "-//W3C//DTD SVG 1.1//EN" "http://www.w3.org/Graphics/SVG/1.1/DTD/svg11.dtd">
<svg xmlns="http://www.w3.org/2000/svg" version="1.1" viewBox="0.00 0.00 881.00 410.00">
<path fill="#ffffff" d="
  M 150.19 23.07
  A 0.19 0.19 0.0 0 0 150.22 23.43
  C 158.66 25.23 159.49 35.44 152.33 39.38
  C 150.60 40.34 147.63 41.01 145.73 41.01
  Q 136.42 41.03 127.21 40.98
  A 0.41 0.40 -90.0 0 1 126.81 40.57
  L 126.81 40.31
  A 0.21 0.20 -5.1 0 1 126.98 40.11
  L 129.59 39.74
  A 2.66 2.65 86.0 0 0 131.87 37.11
  L 131.87 10.91
  A 2.66 2.65 6.6 0 0 129.82 8.33
  L 126.94 7.66
  A 0.07 0.07 0.0 0 1 126.88 7.59
  L 126.88 7.31
  A 0.30 0.30 0.0 0 1 127.17 7.01
  Q 143.50 6.91 145.42 7.11
  C 151.16 7.68 156.95 11.06 155.22 17.70
  Q 154.21 21.55 150.19 23.07
  Z
  M 136.08 10.88
  L 136.04 20.22
  A 1.76 1.76 0.0 0 0 137.79 21.99
  L 143.06 22.02
  A 6.99 5.36 0.3 0 0 150.07 16.70
  L 150.09 14.56
  A 6.99 5.36 0.3 0 0 143.12 9.16
  L 137.85 9.13
  A 1.76 1.76 0.0 0 0 136.08 10.88
  Z
  M 136.86 38.44
  C 143.17 39.65 150.36 39.52 151.83 32.22
  A 2.68 2.57 -46.2 0 0 151.83 31.11
  C 150.35 24.01 143.27 23.62 137.08 24.09
  A 1.06 1.05 -2.4 0 0 136.11 25.14
  L 136.11 37.54
  A 0.92 0.91 5.3 0 0 136.86 38.44
  Z"
/>
<path fill="#ffffff" d="
  M 350.15 24.05
  A 0.19 0.19 0.0 0 0 350.18 24.41
  C 358.61 26.19 359.45 36.39 352.31 40.33
  C 350.58 41.29 347.62 41.97 345.72 41.97
  Q 336.42 42.00 327.22 41.97
  A 0.41 0.40 89.9 0 1 326.82 41.56
  L 326.82 41.30
  A 0.21 0.20 -5.2 0 1 326.99 41.10
  L 329.60 40.73
  A 2.65 2.64 85.9 0 0 331.87 38.10
  L 331.83 11.93
  A 2.65 2.64 6.5 0 0 329.78 9.36
  L 326.90 8.69
  A 0.07 0.07 0.0 0 1 326.84 8.62
  L 326.84 8.35
  A 0.30 0.30 0.0 0 1 327.13 8.05
  Q 343.44 7.92 345.36 8.12
  C 351.09 8.68 356.88 12.04 355.16 18.68
  Q 354.16 22.52 350.15 24.05
  Z
  M 335.99 11.67
  L 335.93 21.43
  A 1.55 1.55 0.0 0 0 337.47 22.99
  L 342.88 23.03
  A 7.24 5.36 0.4 0 0 350.15 17.72
  L 350.17 15.58
  A 7.24 5.36 0.4 0 0 342.96 10.17
  L 337.56 10.13
  A 1.55 1.55 0.0 0 0 335.99 11.67
  Z
  M 336.09 26.72
  L 336.03 38.28
  A 1.68 1.68 0.0 0 0 337.70 39.97
  L 342.59 39.99
  A 9.21 7.38 0.3 0 0 351.84 32.66
  L 351.84 32.50
  A 9.21 7.38 0.3 0 0 342.67 25.07
  L 337.78 25.05
  A 1.68 1.68 0.0 0 0 336.09 26.72
  Z"
/>
<path fill="#ffffff" d="
  M 555.18 25.07
  A 0.19 0.19 0.0 0 0 555.21 25.43
  C 563.65 27.23 564.49 37.43 557.33 41.38
  C 555.60 42.34 552.63 43.01 550.73 43.01
  Q 541.42 43.03 532.22 42.99
  A 0.41 0.40 90.0 0 1 531.82 42.58
  L 531.82 42.32
  A 0.21 0.20 -5.1 0 1 531.99 42.12
  L 534.60 41.75
  A 2.66 2.65 86.0 0 0 536.87 39.11
  L 536.86 12.92
  A 2.65 2.65 0.0 0 0 534.81 10.34
  L 531.93 9.67
  A 0.07 0.07 0.0 0 1 531.87 9.60
  L 531.87 9.32
  A 0.30 0.30 0.0 0 1 532.16 9.02
  Q 548.49 8.92 550.41 9.12
  C 556.15 9.68 561.94 13.06 560.21 19.70
  Q 559.20 23.55 555.18 25.07
  Z
  M 542.03 11.79
  L 541.71 23.12
  A 0.85 0.85 0.0 0 0 542.54 24.00
  L 546.78 24.12
  A 8.77 6.38 1.6 0 0 555.72 17.98
  L 555.73 17.70
  A 8.77 6.38 1.6 0 0 547.14 11.08
  L 542.90 10.96
  A 0.85 0.85 0.0 0 0 542.03 11.79
  Z
  M 542.10 40.45
  C 547.27 41.58 553.66 41.59 556.25 36.23
  Q 557.29 34.09 556.59 32.13
  C 554.36 25.82 548.12 25.74 542.18 26.07
  A 0.38 0.38 0.0 0 0 541.82 26.45
  L 541.82 40.11
  A 0.35 0.35 0.0 0 0 542.10 40.45
  Z"
/>
<path fill="#ffffff" d="
  M 725.16 28.04
  A 0.19 0.19 0.0 0 0 725.19 28.39
  C 733.63 30.17 734.49 40.37 727.34 44.32
  C 725.62 45.29 722.65 45.96 720.76 45.97
  Q 711.46 46.01 702.26 45.99
  A 0.41 0.40 89.8 0 1 701.86 45.58
  L 701.85 45.32
  A 0.21 0.20 -5.2 0 1 702.02 45.12
  L 704.63 44.75
  A 2.65 2.65 0.0 0 0 706.90 42.11
  L 706.83 15.94
  A 2.65 2.65 0.0 0 0 704.77 13.37
  L 701.89 12.71
  A 0.07 0.07 0.0 0 1 701.83 12.64
  L 701.83 12.36
  A 0.30 0.30 0.0 0 1 702.12 12.06
  Q 718.43 11.91 720.35 12.11
  C 726.08 12.66 731.88 16.02 730.17 22.66
  Q 729.17 26.51 725.16 28.04
  Z
  M 711.03 15.62
  L 710.87 25.38
  A 1.53 1.53 0.0 0 0 712.38 26.93
  L 718.02 27.02
  A 6.97 5.10 0.9 0 0 725.07 22.03
  L 725.11 19.41
  A 6.97 5.10 0.9 0 0 718.22 14.20
  L 712.58 14.11
  A 1.53 1.53 0.0 0 0 711.03 15.62
  Z
  M 711.88 43.49
  C 718.21 44.66 725.42 44.49 726.85 37.16
  A 2.69 2.58 -46.5 0 0 726.85 36.05
  C 725.32 28.94 718.22 28.59 712.02 29.10
  A 1.06 1.06 0.0 0 0 711.05 30.16
  L 711.12 42.59
  A 0.92 0.92 0.0 0 0 711.88 43.49
  Z"
/>
<path fill="#ffffff" d="
  M 167.31 21.11
  A 0.33 0.33 0.0 0 0 167.91 21.31
  Q 171.26 16.88 175.02 18.38
  A 1.82 1.82 0.0 0 1 176.03 20.78
  L 175.99 20.87
  A 1.94 1.93 20.8 0 1 173.59 21.94
  L 171.03 21.06
  A 1.11 1.09 -55.7 0 0 169.96 21.27
  L 167.42 23.42
  A 1.20 1.18 -19.3 0 0 167.00 24.28
  Q 166.93 26.51 166.97 35.55
  C 166.98 38.68 168.24 39.98 171.18 40.10
  A 0.30 0.29 -89.0 0 1 171.46 40.40
  L 171.46 40.72
  A 0.28 0.28 0.0 0 1 171.18 41.00
  L 159.90 41.00
  A 0.38 0.38 0.0 0 1 159.52 40.62
  L 159.52 40.35
  A 0.25 0.25 0.0 0 1 159.75 40.10
  Q 161.33 39.98 162.39 39.39
  A 1.01 0.98 -15.3 0 0 162.90 38.53
  L 162.90 22.94
  A 1.33 1.33 0.0 0 0 161.57 21.61
  L 159.78 21.61
  A 0.40 0.40 0.0 0 1 159.62 20.84
  L 166.48 17.98
  A 0.60 0.60 0.0 0 1 167.31 18.53
  L 167.31 21.11
  Z"
/>
<path fill="#ffffff" d="
  M 76.87 324.02
  A 0.87 0.86 0.0 0 1 76.00 323.16
  L 76.00 259.31
  A 0.91 0.90 -76.7 0 0 75.50 258.50
  Q 51.21 246.42 15.44 228.31
  C 13.48 227.32 12.75 226.56 12.75 224.18
  Q 12.78 191.26 12.75 144.01
  A 3.39 3.36 -13.5 0 1 14.61 141.00
  L 76.93 109.68
  A 1.02 1.01 -13.2 0 0 77.50 108.77
  L 77.50 59.81
  A 3.91 3.91 0.0 0 1 78.88 56.83
  L 124.15 18.32
  A 0.23 0.23 0.0 0 1 124.48 18.35
  L 127.34 21.70
  A 0.31 0.30 -40.4 0 1 127.30 22.13
  L 82.90 59.90
  A 1.14 1.12 -20.4 0 0 82.50 60.76
  L 82.50 109.23
  A 0.86 0.84 -77.4 0 0 82.98 110.00
  Q 123.75 130.28 144.79 141.01
  C 146.28 141.77 146.77 143.20 146.77 144.94
  Q 146.71 191.77 146.79 223.53
  Q 146.80 226.95 144.30 228.22
  Q 113.97 243.51 82.51 259.26
  A 0.91 0.91 0.0 0 0 82.00 260.08
  L 82.00 323.13
  A 0.89 0.89 0.0 0 1 81.11 324.02
  L 76.87 324.02
  Z
  M 17.52 184.46
  Q 17.51 219.39 17.52 223.42
  A 0.76 0.75 13.4 0 0 17.94 224.09
  Q 45.64 238.04 79.47 254.98
  Q 79.52 255.00 79.73 255.00
  Q 79.95 255.00 79.99 254.98
  Q 113.84 238.05 141.54 224.12
  A 0.76 0.75 -13.4 0 0 141.96 223.45
  Q 141.97 219.42 141.98 184.49
  Q 141.99 149.57 141.98 145.54
  A 0.76 0.75 13.4 0 0 141.56 144.86
  Q 113.86 130.92 80.02 113.98
  Q 79.98 113.96 79.77 113.96
  Q 79.55 113.96 79.51 113.98
  Q 45.66 130.90 17.96 144.83
  A 0.76 0.75 -13.4 0 0 17.54 145.51
  Q 17.53 149.54 17.52 184.46
  Z"
/>
<path fill="#ffffff" d="
  M 368.26 22.13
  A 0.33 0.33 0.0 0 0 368.86 22.33
  Q 372.20 17.91 375.96 19.40
  A 1.82 1.82 0.0 0 1 376.97 21.80
  L 376.93 21.89
  A 1.94 1.93 20.8 0 1 374.53 22.96
  L 371.98 22.08
  A 1.11 1.09 -55.7 0 0 370.91 22.29
  L 368.37 24.44
  A 1.19 1.18 -19.3 0 0 367.96 25.29
  Q 367.89 27.52 367.93 36.54
  C 367.94 39.67 369.20 40.97 372.14 41.08
  A 0.30 0.29 -89.0 0 1 372.42 41.38
  L 372.42 41.70
  A 0.28 0.28 0.0 0 1 372.14 41.98
  L 360.88 41.99
  A 0.38 0.38 0.0 0 1 360.50 41.61
  L 360.50 41.34
  A 0.25 0.25 0.0 0 1 360.73 41.09
  Q 362.30 40.97 363.36 40.38
  A 1.01 0.98 -15.3 0 0 363.87 39.52
  L 363.86 23.96
  A 1.33 1.33 0.0 0 0 362.53 22.63
  L 360.75 22.63
  A 0.40 0.40 0.0 0 1 360.59 21.86
  L 367.43 19.01
  A 0.60 0.60 0.0 0 1 368.26 19.56
  L 368.26 22.13
  Z"
/>
<path fill="#ffffff" d="
  M 324.79 19.71
  A 0.23 0.23 0.0 0 1 325.11 19.74
  L 327.99 23.12
  A 0.29 0.28 -40.7 0 1 327.95 23.52
  L 283.48 61.34
  A 1.39 1.37 70.1 0 0 283.00 62.39
  L 283.00 111.76
  A 0.66 0.66 0.0 0 0 283.37 112.35
  L 343.98 142.82
  A 3.68 3.67 13.4 0 1 346.00 146.10
  L 346.00 226.57
  A 3.68 3.68 0.0 0 1 343.97 229.86
  L 282.30 260.85
  A 0.51 0.50 76.6 0 0 282.03 261.30
  L 282.03 324.02
  A 0.99 0.99 0.0 0 1 281.04 325.01
  L 277.96 325.01
  A 0.94 0.94 0.0 0 1 277.02 324.07
  L 277.02 262.03
  A 0.91 0.90 -76.7 0 0 276.52 261.22
  L 214.12 229.85
  A 3.85 3.83 -76.8 0 1 212.00 226.41
  L 212.00 146.16
  A 3.77 3.76 76.7 0 1 214.08 142.79
  L 277.77 110.78
  A 0.87 0.87 0.0 0 0 278.25 110.00
  L 278.25 61.05
  A 3.78 3.77 69.9 0 1 279.58 58.17
  L 324.79 19.71
  Z
  M 216.78 186.33
  Q 216.79 221.25 216.80 225.28
  A 0.76 0.75 13.4 0 0 217.22 225.96
  Q 244.92 239.89 278.76 256.81
  Q 278.80 256.83 279.02 256.83
  Q 279.23 256.83 279.28 256.81
  Q 313.11 239.87 340.81 225.93
  A 0.76 0.75 -13.4 0 0 341.23 225.26
  Q 341.24 221.23 341.23 186.31
  Q 341.22 151.39 341.21 147.36
  A 0.76 0.75 13.4 0 0 340.79 146.68
  Q 313.09 132.75 279.25 115.83
  Q 279.21 115.80 279.00 115.80
  Q 278.78 115.80 278.74 115.83
  Q 244.90 132.76 217.21 146.70
  A 0.76 0.75 -13.4 0 0 216.79 147.38
  Q 216.77 151.41 216.78 186.33
  Z"
/>
<path fill="#ffffff" d="
  M 573.26 23.12
  A 0.33 0.33 0.0 0 0 573.86 23.32
  Q 577.20 18.90 580.96 20.39
  A 1.82 1.82 0.0 0 1 581.97 22.79
  L 581.93 22.88
  A 1.94 1.93 20.8 0 1 579.53 23.95
  L 576.97 23.07
  A 1.11 1.09 -55.7 0 0 575.90 23.28
  L 573.37 25.43
  A 1.20 1.18 -19.3 0 0 572.95 26.29
  Q 572.88 28.52 572.92 37.54
  C 572.93 40.67 574.19 41.97 577.13 42.09
  A 0.30 0.29 -89.0 0 1 577.41 42.39
  L 577.41 42.71
  A 0.28 0.28 0.0 0 1 577.13 42.99
  L 565.86 42.99
  A 0.38 0.38 0.0 0 1 565.48 42.61
  L 565.48 42.34
  A 0.25 0.25 0.0 0 1 565.71 42.09
  Q 567.29 41.97 568.35 41.38
  A 1.01 0.98 -15.3 0 0 568.86 40.52
  L 568.85 24.95
  A 1.33 1.33 0.0 0 0 567.53 23.63
  L 565.74 23.63
  A 0.40 0.40 0.0 0 1 565.58 22.86
  L 572.43 20.00
  A 0.60 0.60 0.0 0 1 573.26 20.55
  L 573.26 23.12
  Z"
/>
<path fill="#ffffff" d="
  M 529.10 21.10
  A 0.28 0.27 50.1 0 1 529.49 21.14
  L 532.31 24.44
  A 0.33 0.33 0.0 0 1 532.27 24.90
  L 487.75 62.77
  A 1.44 1.44 0.0 0 0 487.25 63.86
  L 487.25 113.15
  A 0.91 0.90 -76.7 0 0 487.75 113.96
  L 551.23 145.87
  A 3.21 3.21 0.0 0 1 553.00 148.74
  L 553.00 229.98
  A 3.07 3.07 0.0 0 1 551.31 232.72
  L 487.47 264.80
  A 0.87 0.86 76.5 0 0 487.00 265.57
  L 487.00 325.72
  A 0.27 0.27 0.0 0 1 486.73 325.99
  L 481.26 325.99
  A 0.26 0.26 0.0 0 1 481.00 325.73
  L 481.00 263.39
  A 0.89 0.87 -77.1 0 0 480.52 262.60
  Q 443.62 244.26 421.18 232.86
  Q 419.66 232.09 419.04 230.18
  A 1.39 1.23 41.4 0 1 419.00 229.86
  Q 419.04 178.10 418.89 154.25
  Q 418.88 152.20 419.13 148.41
  Q 419.25 146.75 421.41 145.65
  Q 439.68 136.35 482.05 115.24
  A 0.87 0.86 76.5 0 0 482.52 114.47
  Q 482.50 96.65 482.50 63.51
  C 482.50 61.39 482.70 60.56 484.40 59.12
  Q 503.92 42.53 529.10 21.10
  Z
  M 423.92 189.29
  Q 423.93 224.20 423.94 228.23
  A 0.76 0.75 13.4 0 0 424.36 228.90
  Q 452.04 242.83 485.87 259.75
  Q 485.91 259.77 486.12 259.77
  Q 486.34 259.77 486.38 259.75
  Q 520.20 242.82 547.89 228.89
  A 0.76 0.75 -13.4 0 0 548.31 228.22
  Q 548.32 224.19 548.32 189.29
  Q 548.31 154.38 548.30 150.35
  A 0.76 0.75 13.4 0 0 547.88 149.68
  Q 520.20 135.75 486.37 118.83
  Q 486.33 118.81 486.12 118.81
  Q 485.90 118.81 485.86 118.83
  Q 452.03 135.76 424.35 149.69
  A 0.76 0.75 -13.4 0 0 423.93 150.36
  Q 423.92 154.39 423.92 189.29
  Z"
/>
<path fill="#ffffff" d="
  M 743.24 26.13
  A 0.33 0.33 0.0 0 0 743.84 26.33
  Q 747.18 21.90 750.94 23.39
  A 1.82 1.82 0.0 0 1 751.95 25.79
  L 751.91 25.88
  A 1.94 1.93 20.7 0 1 749.52 26.95
  L 746.96 26.07
  A 1.11 1.09 -55.7 0 0 745.89 26.28
  L 743.36 28.43
  A 1.19 1.18 -19.4 0 0 742.94 29.29
  Q 742.87 31.52 742.92 40.55
  C 742.93 43.67 744.19 44.97 747.13 45.08
  A 0.30 0.29 -89.1 0 1 747.41 45.38
  L 747.41 45.70
  A 0.28 0.28 0.0 0 1 747.13 45.98
  L 735.87 46.00
  A 0.38 0.38 0.0 0 1 735.49 45.62
  L 735.49 45.35
  A 0.25 0.25 0.0 0 1 735.72 45.10
  Q 737.29 44.98 738.35 44.39
  A 1.01 0.98 -15.3 0 0 738.86 43.53
  L 738.84 27.96
  A 1.33 1.33 0.0 0 0 737.51 26.63
  L 735.73 26.64
  A 0.40 0.40 0.0 0 1 735.57 25.87
  L 742.41 23.00
  A 0.60 0.60 0.0 0 1 743.24 23.55
  L 743.24 26.13
  Z"
/>
<path fill="#ffffff" d="
  M 702.54 27.02
  A 0.26 0.26 0.0 0 1 702.51 27.39
  L 657.90 65.34
  A 1.14 1.12 -20.4 0 0 657.50 66.20
  L 657.50 114.46
  A 0.89 0.87 -77.1 0 0 657.98 115.25
  Q 690.04 131.48 720.93 146.81
  C 723.00 147.84 723.54 149.09 723.52 151.41
  Q 723.48 154.49 723.50 231.01
  A 3.54 3.53 76.6 0 1 721.56 234.17
  L 658.47 265.87
  A 4.34 4.34 0.0 0 1 654.57 265.87
  L 591.55 234.19
  A 3.73 3.72 -76.7 0 1 589.50 230.86
  L 589.50 150.55
  A 3.82 3.82 0.0 0 1 591.60 147.14
  L 652.36 116.61
  A 0.72 0.71 -13.5 0 0 652.76 115.97
  L 652.76 65.04
  A 3.98 3.95 -20.4 0 1 654.15 62.03
  L 699.34 23.60
  A 0.23 0.23 0.0 0 1 699.66 23.62
  L 702.54 27.02
  Z
  M 594.28 190.70
  Q 594.29 225.62 594.30 229.65
  A 0.76 0.75 13.4 0 0 594.72 230.33
  Q 622.42 244.26 656.27 261.19
  Q 656.31 261.21 656.52 261.21
  Q 656.74 261.21 656.78 261.19
  Q 690.62 244.25 718.31 230.30
  A 0.76 0.75 -13.4 0 0 718.73 229.63
  Q 718.74 225.60 718.74 190.67
  Q 718.73 155.75 718.72 151.72
  A 0.76 0.75 13.4 0 0 718.29 151.05
  Q 690.59 137.12 656.75 120.19
  Q 656.71 120.17 656.50 120.17
  Q 656.28 120.17 656.23 120.19
  Q 622.40 137.13 594.70 151.07
  A 0.76 0.75 -13.4 0 0 594.28 151.75
  Q 594.27 155.78 594.28 190.70
  Z"
/>
<rect fill="#ffffff" x="-34.80" y="-2.46" transform="translate(104.70,140.51) rotate(27.5)" width="69.60" height="4.92" rx="0.49"/>
<rect fill="#ffffff" x="-34.83" y="-2.46" transform="translate(305.36,144.87) rotate(27.4)" width="69.66" height="4.92" rx="0.51"/>
<rect fill="#ffffff" x="-34.82" y="-2.46" transform="translate(512.00,145.10) rotate(27.5)" width="69.64" height="4.92" rx="0.54"/>
<rect fill="#ffffff" x="-34.81" y="-2.46" transform="translate(683.37,147.65) rotate(27.5)" width="69.62" height="4.92" rx="0.46"/>
<rect fill="#ffffff" x="23.00" y="151.00" width="6.00" height="67.00" rx="0.42"/>
<rect fill="#ffffff" x="224.00" y="156.00" width="6.00" height="66.00" rx="0.50"/>
<rect fill="#ffffff" x="602.00" y="158.99" width="6.00" height="66.00" rx="0.38"/>
<rect fill="#ffffff" x="433.00" y="160.03" width="6.00" height="66.00" rx="0.59"/>
<rect fill="#ffffff" x="-34.84" y="-2.47" transform="translate(105.62,229.16) rotate(-27.5)" width="69.68" height="4.94" rx="0.64"/>
<rect fill="#ffffff" x="-34.80" y="-2.47" transform="translate(306.31,233.51) rotate(-27.4)" width="69.60" height="4.94" rx="0.52"/>
<rect fill="#ffffff" x="-34.80" y="-2.47" transform="translate(512.89,236.28) rotate(-27.5)" width="69.60" height="4.94" rx="0.55"/>
<rect fill="#ffffff" x="-34.81" y="-2.47" transform="translate(684.24,236.28) rotate(-27.4)" width="69.62" height="4.94" rx="0.48"/>
<rect fill="#ffffff" x="-34.81" y="-2.46" transform="translate(755.29,247.55) rotate(27.4)" width="69.62" height="4.92" rx="0.56"/>
<path fill="#ffffff" d="
  M 858.12 265.06
  Q 858.12 266.19 857.88 269.04
  A 0.03 0.03 0.0 0 1 857.82 269.04
  L 857.82 268.77
  A 0.06 0.06 0.0 0 0 857.70 268.76
  Q 857.01 271.74 855.05 275.00
  C 850.80 282.09 842.44 285.05 834.82 281.61
  C 828.29 278.67 825.02 272.01 825.05 264.94
  C 825.07 257.87 828.39 251.23 834.94 248.33
  C 842.58 244.95 850.92 247.97 855.12 255.09
  Q 857.06 258.37 857.73 261.35
  A 0.06 0.06 0.0 0 0 857.85 261.34
  L 857.85 261.07
  A 0.03 0.03 0.0 0 1 857.91 261.07
  Q 858.13 263.93 858.12 265.06
  Z
  M 830.24 265.16
  C 830.35 271.90 832.97 281.53 841.75 281.00
  C 847.58 280.66 851.35 276.12 852.02 270.48
  Q 852.17 269.26 852.09 264.80
  Q 852.01 260.33 851.83 259.12
  C 850.96 253.51 847.04 249.10 841.20 248.95
  C 832.41 248.73 830.12 258.44 830.24 265.16
  Z"
/>
<path fill="#ffffff" d="
  M 816.14 273.24
  L 816.08 251.01
  A 1.17 1.17 0.0 0 0 815.67 250.13
  Q 814.22 248.85 811.76 248.94
  A 0.44 0.44 0.0 0 1 811.31 248.50
  L 811.31 248.21
  A 0.21 0.20 89.8 0 1 811.51 248.00
  L 822.74 247.97
  A 0.45 0.45 0.0 0 1 823.19 248.42
  L 823.19 248.68
  A 0.06 0.06 0.0 0 1 823.14 248.74
  L 820.09 249.28
  A 2.25 2.24 85.0 0 0 818.23 251.50
  L 818.32 282.10
  A 0.48 0.48 0.0 0 1 817.46 282.40
  L 795.78 255.43
  A 0.34 0.34 0.0 0 0 795.18 255.64
  Q 795.15 268.43 795.22 277.95
  C 795.24 280.77 797.41 281.03 799.75 281.04
  A 0.37 0.37 0.0 0 1 800.12 281.41
  L 800.13 281.71
  A 0.24 0.24 0.0 0 1 799.89 281.95
  L 788.48 281.98
  A 0.28 0.28 0.0 0 1 788.20 281.70
  L 788.20 281.38
  A 0.42 0.41 3.5 0 1 788.66 280.97
  Q 793.13 281.52 793.14 276.76
  Q 793.17 261.97 793.09 252.83
  A 1.91 1.90 -66.4 0 0 792.61 251.60
  Q 790.50 249.25 786.65 248.89
  A 0.32 0.32 0.0 0 1 786.36 248.57
  L 786.36 248.29
  A 0.26 0.25 -0.2 0 1 786.61 248.04
  L 795.10 248.02
  A 1.03 1.03 0.0 0 1 795.90 248.40
  L 815.92 273.31
  A 0.12 0.12 0.0 0 0 816.14 273.24
  Z"
/>
<path fill="#ffffff" d="
  M 863.49 286.46
  A 0.31 0.31 0.0 0 0 863.71 286.98
  L 870.74 286.97
  A 2.61 2.58 -65.0 0 0 872.41 286.35
  L 873.19 285.68
  A 0.27 0.27 0.0 0 1 873.62 285.95
  Q 873.21 287.67 872.66 288.50
  A 1.08 1.08 0.0 0 1 871.76 288.98
  L 860.68 289.00
  A 0.41 0.40 23.3 0 1 860.40 288.30
  C 863.83 285.05 872.99 276.93 869.32 271.67
  C 867.07 268.48 862.76 269.91 861.51 273.47
  A 0.34 0.33 -73.4 0 1 861.11 273.69
  L 861.00 273.67
  A 0.39 0.39 0.0 0 1 860.72 273.19
  C 862.57 266.52 870.86 265.99 872.78 272.75
  Q 872.96 273.38 872.03 276.03
  C 870.78 279.58 866.44 283.67 863.49 286.46
  Z"
/>
<path fill="#ffffff" d="
  M 80.3840 328.9119
  A 18.11 16.46 -86.6 0 1 95.7410 347.9662
  A 18.11 16.46 -86.6 0 1 78.2360 365.0681
  A 18.11 16.46 -86.6 0 1 62.8790 346.0138
  A 18.11 16.46 -86.6 0 1 80.3840 328.9119
  Z
  M 68.31 347.17
  C 68.41 353.90 71.02 363.53 79.78 363.02
  C 85.61 362.68 89.38 358.15 90.07 352.52
  Q 90.21 351.30 90.14 346.84
  Q 90.07 342.37 89.89 341.16
  C 89.03 335.55 85.12 331.14 79.29 330.99
  C 70.51 330.75 68.20 340.45 68.31 347.17
  Z"
/>
<path fill="#ffffff" d="
  M 129.02 346.99
  Q 129.02 358.62 129.05 360.25
  C 129.09 362.78 131.77 362.98 133.58 363.15
  A 0.40 0.40 0.0 0 1 133.60 363.95
  Q 133.14 364.01 119.80 363.99
  A 0.41 0.41 0.0 0 1 119.39 363.58
  L 119.39 363.33
  A 0.26 0.26 0.0 0 1 119.64 363.07
  C 122.97 362.96 124.26 362.42 124.01 358.75
  Q 123.65 353.61 124.31 348.39
  A 0.35 0.34 -86.3 0 0 123.97 348.00
  L 109.20 348.00
  A 1.04 1.03 -89.7 0 0 108.17 349.03
  L 108.06 359.79
  A 1.46 1.30 -57.5 0 0 108.13 360.23
  Q 109.28 363.33 113.00 363.05
  A 0.36 0.36 0.0 0 1 113.39 363.41
  L 113.39 363.67
  A 0.33 0.33 0.0 0 1 113.06 364.00
  L 99.13 364.00
  A 0.29 0.29 0.0 0 1 98.84 363.71
  L 98.84 363.41
  A 0.32 0.32 0.0 0 1 99.15 363.09
  C 101.51 363.00 103.96 362.56 103.95 359.76
  Q 103.95 358.43 103.95 347.01
  Q 103.94 335.58 103.94 334.26
  C 103.94 331.45 101.49 331.02 99.13 330.93
  A 0.32 0.32 0.0 0 1 98.82 330.61
  L 98.82 330.31
  A 0.29 0.29 0.0 0 1 99.11 330.02
  L 113.04 330.00
  A 0.33 0.33 0.0 0 1 113.37 330.33
  L 113.37 330.59
  A 0.36 0.36 0.0 0 1 112.98 330.95
  Q 109.26 330.68 108.11 333.78
  A 1.46 1.30 57.4 0 0 108.05 334.22
  L 108.17 344.98
  A 1.04 1.03 89.7 0 0 109.20 346.01
  L 123.97 345.99
  A 0.35 0.34 86.3 0 0 124.31 345.60
  Q 123.64 340.38 124.00 335.24
  C 124.24 331.57 122.95 331.03 119.62 330.93
  A 0.26 0.26 0.0 0 1 119.37 330.67
  L 119.37 330.42
  A 0.41 0.41 0.0 0 1 119.78 330.01
  Q 133.12 329.97 133.58 330.03
  A 0.40 0.40 0.0 0 1 133.56 330.83
  C 131.75 331.00 129.07 331.20 129.03 333.74
  Q 129.01 335.36 129.02 346.99
  Z"
/>
<path fill="#ffffff" d="
  M 289.90 356.37
  A 0.21 0.21 0.0 0 0 290.27 356.24
  L 290.27 334.88
  A 2.59 2.59 0.0 0 0 288.27 332.36
  L 285.60 331.74
  A 0.38 0.37 51.3 0 1 285.68 331.00
  L 312.07 331.00
  A 0.36 0.36 0.0 0 1 312.40 331.52
  L 312.20 331.94
  A 0.10 0.10 0.0 0 1 312.12 331.98
  Q 307.49 331.53 307.45 335.73
  Q 307.36 343.04 307.41 346.48
  A 0.53 0.53 0.0 0 0 307.94 347.00
  L 322.41 347.00
  A 0.58 0.58 0.0 0 0 322.99 346.42
  L 322.99 334.18
  A 1.77 1.76 6.6 0 0 321.62 332.46
  L 318.46 331.73
  A 0.37 0.36 51.4 0 1 318.54 331.01
  L 332.55 331.01
  A 0.39 0.39 0.0 0 1 332.93 331.49
  L 332.85 331.85
  A 0.16 0.15 7.2 0 1 332.70 331.96
  Q 329.84 331.82 328.39 333.18
  A 1.36 1.34 -22.5 0 0 327.97 334.18
  Q 328.01 358.95 328.07 361.50
  C 328.14 364.07 330.95 363.76 332.67 364.18
  A 0.41 0.41 0.0 0 1 332.57 364.99
  L 318.65 364.99
  A 0.31 0.30 0.0 0 1 318.34 364.69
  L 318.34 364.36
  A 0.32 0.32 0.0 0 1 318.69 364.04
  Q 321.23 364.21 322.56 362.89
  A 0.87 0.86 -22.5 0 0 322.80 362.32
  L 323.09 349.58
  A 0.57 0.56 -89.5 0 0 322.53 349.00
  L 308.18 349.00
  A 0.67 0.67 0.0 0 0 307.51 349.62
  Q 307.36 351.86 307.31 359.74
  Q 307.28 364.28 311.96 364.05
  A 0.43 0.42 -1.3 0 1 312.41 364.47
  L 312.41 364.73
  A 0.27 0.27 0.0 0 1 312.14 365.00
  L 298.21 365.00
  A 0.40 0.40 0.0 0 1 297.81 364.60
  L 297.81 364.27
  A 0.32 0.31 4.0 0 1 298.17 363.96
  Q 302.99 364.74 303.00 359.58
  Q 303.04 344.66 302.89 334.92
  A 2.68 2.66 -81.2 0 0 301.08 332.43
  Q 297.51 331.24 293.87 332.46
  A 2.13 2.13 0.0 0 0 292.41 334.47
  Q 292.28 348.04 291.86 362.50
  Q 291.83 363.48 292.24 364.87
  A 0.48 0.48 0.0 0 1 291.40 365.31
  L 269.86 338.35
  A 0.37 0.37 0.0 0 0 269.21 338.58
  L 269.21 361.67
  A 1.42 1.20 40.3 0 0 269.28 362.09
  Q 270.09 364.28 273.65 364.03
  A 0.44 0.44 0.0 0 1 274.12 364.47
  L 274.12 364.77
  A 0.22 0.22 0.0 0 1 273.90 364.99
  L 262.53 364.99
  A 0.37 0.36 0.0 0 1 262.16 364.63
  L 262.16 364.30
  A 0.27 0.27 0.0 0 1 262.45 364.03
  Q 265.47 364.27 266.82 362.32
  A 1.43 1.42 -28.4 0 0 267.06 361.53
  L 267.06 335.50
  A 1.32 1.30 23.5 0 0 266.70 334.60
  Q 264.36 332.14 260.52 331.87
  A 0.27 0.27 0.0 0 1 260.27 331.54
  L 260.33 331.28
  A 0.36 0.36 0.0 0 1 260.68 331.01
  L 268.77 331.01
  A 1.80 1.80 0.0 0 1 270.18 331.69
  L 289.90 356.37
  Z"
/>
<path fill="#ffffff" d="
  M 521.2494 330.8549
  A 18.14 16.33 -87.0 0 1 536.6076 349.8246
  A 18.14 16.33 -87.0 0 1 519.3506 367.0851
  A 18.14 16.33 -87.0 0 1 503.9924 348.1154
  A 18.14 16.33 -87.0 0 1 521.2494 330.8549
  Z
  M 509.22 349.16
  C 509.33 355.92 511.95 365.56 520.75 365.04
  C 526.59 364.70 530.37 360.15 531.05 354.50
  Q 531.20 353.28 531.12 348.80
  Q 531.05 344.33 530.86 343.11
  C 529.99 337.49 526.06 333.06 520.21 332.92
  C 511.41 332.69 509.11 342.42 509.22 349.16
  Z"
/>
<path fill="#ffffff" d="
  M 495.17 357.34
  L 495.17 335.05
  A 1.17 1.17 0.0 0 0 494.76 334.16
  Q 493.31 332.88 490.85 332.96
  A 0.44 0.44 0.0 0 1 490.40 332.52
  L 490.40 332.23
  A 0.21 0.20 -90.0 0 1 490.60 332.02
  L 501.86 332.02
  A 0.45 0.45 0.0 0 1 502.31 332.47
  L 502.31 332.73
  A 0.06 0.06 0.0 0 1 502.26 332.79
  L 499.20 333.33
  A 2.25 2.25 0.0 0 0 497.33 335.55
  L 497.33 366.22
  A 0.48 0.48 0.0 0 1 496.47 366.52
  L 474.81 339.42
  A 0.34 0.34 0.0 0 0 474.21 339.63
  Q 474.14 352.45 474.18 362.00
  C 474.19 364.83 476.37 365.09 478.72 365.11
  A 0.37 0.37 0.0 0 1 479.09 365.48
  L 479.09 365.78
  A 0.24 0.24 0.0 0 1 478.85 366.02
  L 467.41 366.02
  A 0.28 0.28 0.0 0 1 467.13 365.74
  L 467.13 365.42
  A 0.42 0.41 3.7 0 1 467.60 365.01
  Q 472.08 365.57 472.10 360.80
  Q 472.17 345.97 472.12 336.81
  A 1.91 1.91 0.0 0 0 471.64 335.57
  Q 469.53 333.21 465.67 332.84
  A 0.32 0.32 0.0 0 1 465.38 332.52
  L 465.38 332.24
  A 0.26 0.25 -0.0 0 1 465.64 331.99
  L 474.15 331.99
  A 1.03 1.03 0.0 0 1 474.95 332.37
  L 494.95 357.41
  A 0.12 0.12 0.0 0 0 495.17 357.34
  Z"
/>
<path fill="#ffffff" d="
  M 337.50 369.46
  A 0.31 0.31 0.0 0 0 337.71 369.99
  L 344.74 369.98
  A 2.61 2.58 -65.0 0 0 346.42 369.36
  L 347.20 368.69
  A 0.27 0.27 0.0 0 1 347.63 368.96
  Q 347.21 370.67 346.66 371.50
  A 1.08 1.08 0.0 0 1 345.76 371.98
  L 334.69 372.00
  A 0.41 0.40 23.3 0 1 334.41 371.30
  C 337.84 368.05 347.00 359.94 343.33 354.68
  C 341.09 351.49 336.77 352.92 335.52 356.48
  A 0.34 0.33 -73.3 0 1 335.12 356.70
  L 335.01 356.68
  A 0.39 0.39 0.0 0 1 334.73 356.20
  C 336.58 349.52 344.87 349.00 346.79 355.75
  Q 346.97 356.38 346.04 359.04
  C 344.78 362.59 340.44 366.68 337.50 369.46
  Z"
/>
<path fill="#ffffff" d="
  M 542.49 370.46
  A 0.31 0.31 0.0 0 0 542.70 370.99
  L 549.74 370.99
  A 2.61 2.58 -64.9 0 0 551.42 370.37
  L 552.20 369.70
  A 0.27 0.27 0.0 0 1 552.63 369.97
  Q 552.21 371.69 551.66 372.52
  A 1.08 1.08 0.0 0 1 550.76 373.00
  L 539.67 373.00
  A 0.41 0.40 23.4 0 1 539.39 372.30
  C 542.83 369.05 552.01 360.94 548.34 355.67
  C 546.10 352.47 541.78 353.90 540.52 357.46
  A 0.34 0.33 -73.3 0 1 540.12 357.68
  L 540.01 357.66
  A 0.39 0.39 0.0 0 1 539.73 357.18
  C 541.59 350.50 549.89 349.98 551.81 356.75
  Q 551.99 357.38 551.05 360.04
  C 549.79 363.59 545.44 367.68 542.49 370.46
  Z"
/>
<path fill="#ffffff" d="
  M 669.18 398.71
  C 665.71 403.08 660.53 403.05 656.86 399.16
  C 651.27 393.24 653.72 382.22 661.00 378.77
  Q 665.75 376.52 669.24 380.21
  A 0.29 0.29 0.0 0 0 669.74 380.02
  Q 669.99 375.66 669.63 370.64
  Q 669.51 368.86 668.06 368.50
  Q 667.70 368.40 666.38 368.95
  A 0.33 0.33 0.0 0 1 665.92 368.65
  L 665.92 368.21
  A 0.44 0.44 0.0 0 1 666.20 367.80
  L 672.87 365.01
  A 0.78 0.77 78.7 0 1 673.94 365.73
  L 673.94 396.89
  A 1.48 1.47 90.0 0 0 675.41 398.37
  L 677.52 398.37
  A 0.36 0.36 0.0 0 1 677.66 399.07
  L 670.77 401.94
  A 0.80 0.80 0.0 0 1 669.67 401.04
  Q 669.98 399.49 669.87 398.88
  A 0.39 0.39 0.0 0 0 669.18 398.71
  Z
  M 669.87 395.87
  L 669.94 385.26
  A 1.21 1.09 -57.9 0 0 669.87 384.86
  C 668.58 381.21 665.36 378.27 661.65 380.94
  C 658.21 383.42 657.97 387.79 658.48 391.75
  Q 659.05 396.08 662.51 398.24
  C 665.14 399.88 667.25 398.85 669.46 396.80
  A 1.26 1.24 69.3 0 0 669.87 395.87
  Z"
/>
<path fill="#ffffff" d="
  M 302.57 400.00
  Q 302.35 400.46 302.36 400.80
  A 0.81 0.79 65.6 0 1 302.14 401.40
  Q 294.74 409.52 285.61 403.41
  A 1.70 1.68 -73.3 0 1 284.86 402.00
  Q 284.97 385.47 284.95 375.85
  C 284.95 373.68 284.22 371.74 281.70 372.82
  A 0.52 0.52 0.0 0 1 281.02 372.54
  L 280.91 372.28
  A 0.32 0.31 67.4 0 1 281.08 371.86
  L 287.85 369.04
  A 0.91 0.91 0.0 0 1 289.11 369.88
  L 289.11 385.17
  A 0.23 0.23 0.0 0 0 289.50 385.33
  Q 296.65 378.41 302.45 385.61
  Q 304.37 388.00 304.76 390.21
  Q 305.61 394.96 303.83 399.34
  A 0.87 0.87 0.0 0 1 303.47 399.76
  Q 303.19 399.93 303.00 399.84
  A 0.33 0.33 0.0 0 0 302.57 400.00
  Z
  M 298.79 401.13
  Q 299.94 400.21 300.01 398.47
  Q 300.11 395.95 299.96 389.97
  A 2.47 2.41 32.0 0 0 299.71 388.94
  C 297.65 384.69 292.92 383.57 289.43 387.20
  A 1.29 1.23 68.1 0 0 289.08 388.08
  L 289.08 401.27
  A 1.17 1.17 0.0 0 0 289.49 402.16
  C 291.94 404.20 296.44 405.07 298.20 401.83
  A 2.26 2.20 -5.6 0 1 298.79 401.13
  Z"
/>
<path fill="#ffffff" d="
  M 500.85 392.68
  C 499.93 399.73 492.95 404.89 486.46 400.33
  A 2.61 2.17 2.8 0 1 486.10 400.00
  L 483.20 396.51
  A 1.22 1.09 21.7 0 1 482.97 396.05
  Q 481.54 390.38 482.22 387.30
  Q 484.20 378.30 492.90 378.01
  Q 497.14 377.87 499.85 382.07
  A 2.08 1.99 27.0 0 1 500.15 382.93
  Q 500.30 384.45 499.76 385.20
  A 2.06 2.06 0.0 0 1 496.45 385.27
  Q 495.92 384.58 495.50 382.66
  A 2.30 2.21 -68.8 0 0 495.17 381.87
  C 492.65 378.00 487.84 380.48 486.32 383.92
  A 2.29 2.19 -33.7 0 0 486.13 384.77
  C 486.04 389.63 485.57 391.84 488.19 395.56
  Q 489.68 397.69 492.45 397.99
  Q 498.28 398.61 500.18 392.53
  A 0.34 0.34 0.0 0 1 500.85 392.68
  Z"
/>
<path fill="#ffffff" d="
  M 106.25 384.56
  Q 106.11 394.15 106.25 399.08
  A 1.90 1.69 87.0 0 0 108.08 400.93
  Q 108.82 400.87 110.04 399.67
  A 0.38 0.38 0.0 0 1 110.62 400.15
  Q 108.78 403.05 105.87 403.95
  A 1.98 1.93 -47.8 0 1 104.88 404.01
  Q 102.70 403.59 102.64 400.64
  A 0.32 0.32 0.0 0 0 102.11 400.41
  C 99.65 402.71 95.47 405.59 92.09 402.96
  Q 90.40 401.65 89.99 398.93
  Q 89.33 394.45 93.89 391.86
  Q 96.84 390.19 101.87 388.28
  A 1.55 1.54 -11.8 0 0 102.86 386.77
  C 102.61 380.66 94.00 380.15 94.95 386.04
  A 1.22 1.22 0.0 0 1 94.67 387.03
  Q 93.63 388.20 92.46 387.97
  A 2.29 2.03 -81.8 0 1 90.85 385.52
  C 91.55 379.28 100.27 379.07 104.37 381.32
  A 3.62 3.62 0.0 0 1 106.25 384.56
  Z
  M 101.84 390.23
  Q 96.52 392.35 95.24 393.85
  Q 92.86 396.64 95.01 399.72
  C 96.84 402.36 99.88 400.42 102.20 398.92
  A 0.99 0.98 -16.2 0 0 102.66 398.09
  L 102.66 390.79
  A 0.60 0.60 0.0 0 0 101.84 390.23
  Z"
/>
</svg>
