<?xml version="1.0" encoding="UTF-8" standalone="no"?>
<!DOCTYPE svg PUBLIC "-//W3C//DTD SVG 1.1//EN" "http://www.w3.org/Graphics/SVG/1.1/DTD/svg11.dtd">
<svg xmlns="http://www.w3.org/2000/svg" version="1.1" viewBox="0.00 0.00 536.00 232.00">
<path fill="#ffffff" d="
  M 221.58 25.94
  Q 221.64 25.88 221.64 25.81
  Q 221.77 17.81 221.82 10.57
  A 0.66 0.65 -6.9 0 1 222.32 9.94
  Q 222.72 9.84 223.16 9.84
  Q 223.61 9.84 224.01 9.94
  A 0.66 0.65 7.1 0 1 224.51 10.57
  Q 224.54 17.82 224.64 25.82
  Q 224.64 25.88 224.69 25.94
  Q 224.74 25.99 224.81 25.99
  Q 232.81 26.12 240.05 26.17
  A 0.66 0.65 83.1 0 1 240.68 26.67
  Q 240.78 27.07 240.78 27.52
  Q 240.78 27.96 240.68 28.36
  A 0.66 0.65 -82.9 0 1 240.05 28.86
  Q 232.80 28.89 224.80 28.99
  Q 224.74 28.99 224.68 29.05
  Q 224.63 29.09 224.63 29.16
  Q 224.50 37.16 224.45 44.40
  A 0.66 0.65 -6.9 0 1 223.95 45.04
  Q 223.55 45.13 223.10 45.13
  Q 222.66 45.13 222.26 45.03
  A 0.66 0.65 7.1 0 1 221.75 44.40
  Q 221.73 37.15 221.63 29.15
  Q 221.63 29.09 221.57 29.03
  Q 221.53 28.98 221.46 28.98
  Q 213.46 28.85 206.22 28.80
  A 0.66 0.65 83.1 0 1 205.58 28.30
  Q 205.49 27.90 205.49 27.46
  Q 205.49 27.01 205.59 26.61
  A 0.66 0.65 -82.9 0 1 206.22 26.11
  Q 213.47 26.08 221.46 25.98
  Q 221.53 25.98 221.58 25.94
  Z"
/>
<path fill="#ffffff" d="
  M 327.14 39.86
  Q 327.59 39.86 327.99 39.95
  A 0.66 0.65 7.1 0 1 328.49 40.59
  Q 328.52 47.83 328.63 55.83
  Q 328.63 55.89 328.68 55.95
  Q 328.73 56.00 328.80 56.00
  Q 336.80 56.12 344.04 56.17
  A 0.66 0.65 83.0 0 1 344.67 56.67
  Q 344.77 57.07 344.77 57.51
  Q 344.76 57.96 344.67 58.36
  A 0.66 0.65 -82.9 0 1 344.03 58.86
  Q 336.79 58.89 328.80 58.99
  Q 328.73 59.00 328.67 59.05
  Q 328.62 59.10 328.62 59.17
  Q 328.50 67.17 328.46 74.40
  A 0.66 0.65 -7.0 0 1 327.95 75.04
  Q 327.55 75.14 327.11 75.13
  Q 326.66 75.13 326.26 75.04
  A 0.66 0.65 7.1 0 1 325.76 74.40
  Q 325.73 67.16 325.63 59.17
  Q 325.63 59.10 325.57 59.04
  Q 325.52 58.99 325.45 58.99
  Q 317.46 58.87 310.22 58.83
  A 0.66 0.65 83.0 0 1 309.58 58.32
  Q 309.49 57.92 309.49 57.48
  Q 309.49 57.03 309.59 56.63
  A 0.66 0.65 -82.9 0 1 310.22 56.13
  Q 317.46 56.10 325.46 56.00
  Q 325.52 56.00 325.57 55.95
  Q 325.63 55.89 325.63 55.82
  Q 325.75 47.83 325.80 40.59
  A 0.66 0.65 -7.0 0 1 326.30 39.95
  Q 326.70 39.86 327.14 39.86
  Z"
/>
<path fill="#ffffff" d="
  M 456.06 41.01
  C 466.61 41.28 474.75 48.89 476.97 59.05
  Q 477.25 60.33 477.13 65.07
  Q 477.00 69.82 476.66 71.08
  C 473.93 81.12 465.41 88.30 454.86 88.03
  C 444.31 87.76 436.17 80.15 433.95 69.99
  Q 433.67 68.71 433.79 63.96
  Q 433.92 59.22 434.26 57.95
  C 436.99 47.92 445.51 40.74 456.06 41.01
  Z
  M 455.76 85.97
  C 462.79 85.89 467.78 80.66 469.08 73.90
  Q 469.08 73.88 469.08 73.87
  Q 469.07 73.99 469.06 74.12
  A 0.01 0.01 0.0 0 0 469.07 74.13
  Q 469.08 74.11 469.10 74.09
  A 0.41 0.10 -51.5 0 0 469.17 73.92
  C 471.30 63.38 470.63 42.82 455.28 42.99
  C 439.93 43.16 439.71 63.73 442.07 74.23
  A 0.41 0.10 50.3 0 0 442.15 74.39
  Q 442.17 74.41 442.18 74.43
  A 0.01 0.01 0.0 0 0 442.19 74.42
  Q 442.18 74.29 442.17 74.17
  Q 442.17 74.18 442.17 74.20
  C 443.61 80.93 448.72 86.04 455.76 85.97
  Z"
/>
<path fill="#ffffff" d="
  M 156.88 92.39
  Q 157.24 92.39 157.27 92.37
  Q 188.42 77.04 222.66 59.91
  Q 225.02 58.73 227.56 59.96
  Q 235.13 63.62 296.38 94.06
  A 0.19 0.18 -64.2 0 1 296.46 94.31
  L 293.79 99.69
  A 0.25 0.25 0.0 0 1 293.45 99.81
  L 225.61 66.16
  A 0.97 0.95 -44.3 0 0 224.74 66.16
  Q 188.77 83.90 156.90 99.87
  Q 156.89 99.87 156.88 99.87
  Q 156.87 99.87 156.87 99.87
  Q 124.99 83.90 89.02 66.17
  A 0.97 0.95 44.3 0 0 88.15 66.17
  L 20.31 99.83
  A 0.25 0.25 0.0 0 1 19.97 99.71
  L 17.30 94.33
  A 0.19 0.18 64.1 0 1 17.38 94.08
  Q 78.63 63.63 86.20 59.97
  Q 88.74 58.74 91.10 59.92
  Q 125.34 77.04 156.49 92.37
  Q 156.52 92.39 156.88 92.39
  Z"
/>
<rect fill="#ffffff" x="-39.14" y="-3.23" transform="translate(390.06,87.27) rotate(-26.4)" width="78.28" height="6.46" rx="0.52"/>
<rect fill="#ffffff" x="-39.14" y="-3.23" transform="translate(59.18,92.54) rotate(-26.4)" width="78.28" height="6.46" rx="0.52"/>
<rect fill="#ffffff" x="-39.14" y="-3.23" transform="translate(396.23,100.24) rotate(-26.4)" width="78.28" height="6.46" rx="0.49"/>
<path fill="#ffffff" d="
  M 314.10 97.92
  A 0.36 0.35 -3.7 0 0 313.79 98.27
  Q 313.80 119.11 313.77 124.50
  Q 313.77 126.60 314.18 129.24
  A 2.81 2.81 0.0 0 0 315.73 131.33
  Q 317.51 132.19 319.82 132.03
  A 0.44 0.43 -1.9 0 1 320.29 132.46
  L 320.29 132.75
  A 0.25 0.25 0.0 0 1 320.04 133.00
  L 304.85 133.00
  A 0.30 0.29 90.0 0 1 304.56 132.70
  L 304.56 132.37
  A 0.33 0.33 0.0 0 1 304.91 132.04
  Q 308.02 132.21 309.93 130.83
  A 1.78 1.78 0.0 0 0 310.65 129.62
  Q 311.14 125.84 311.13 122.75
  Q 311.05 108.52 311.11 94.71
  A 1.73 1.73 0.0 0 0 310.82 93.72
  Q 307.89 89.26 302.67 88.89
  A 0.40 0.39 -88.5 0 1 302.30 88.49
  L 302.30 88.23
  A 0.22 0.22 0.0 0 1 302.52 88.01
  L 313.51 88.01
  A 1.34 1.32 69.9 0 1 314.53 88.49
  L 341.27 121.37
  A 0.35 0.35 0.0 0 0 341.90 121.15
  Q 341.94 102.71 341.87 93.47
  C 341.83 89.22 339.15 89.24 335.85 88.87
  A 0.35 0.35 0.0 0 1 335.53 88.52
  L 335.53 88.26
  A 0.25 0.25 0.0 0 1 335.78 88.01
  L 350.79 88.01
  A 0.38 0.38 0.0 0 1 351.17 88.39
  L 351.17 88.68
  A 0.27 0.26 -90.0 0 1 350.91 88.95
  C 347.83 88.92 344.91 89.39 344.89 92.89
  Q 344.77 109.97 344.84 132.89
  A 0.67 0.66 12.8 0 1 343.88 133.49
  Q 343.02 133.07 342.04 131.85
  Q 332.25 119.62 314.44 98.21
  Q 314.19 97.90 314.10 97.92
  Z"
/>
<rect fill="#ffffff" x="137.54" y="117.03" width="34.96" height="2.94" rx="0.69"/>
<rect fill="#ffffff" x="-39.14" y="-3.23" transform="translate(393.11,150.80) rotate(26.4)" width="78.28" height="6.46" rx="0.50"/>
<path fill="#ffffff" d="
  M 453.7162 160.9324
  A 23.62 22.05 -87.0 0 1 474.4998 185.6740
  A 23.62 22.05 -87.0 0 1 451.2438 208.1076
  A 23.62 22.05 -87.0 0 1 430.4602 183.3660
  A 23.62 22.05 -87.0 0 1 453.7162 160.9324
  Z
  M 452.23 162.92
  C 445.18 162.99 440.18 168.23 438.89 175.00
  Q 438.89 175.02 438.89 175.03
  Q 438.90 174.91 438.91 174.78
  A 0.01 0.01 0.0 0 0 438.90 174.77
  Q 438.89 174.79 438.87 174.81
  A 0.41 0.10 -51.6 0 0 438.79 174.97
  C 436.66 185.53 437.34 206.12 452.71 205.95
  C 468.08 205.78 468.30 185.18 465.93 174.67
  A 0.41 0.10 50.3 0 0 465.85 174.51
  Q 465.83 174.49 465.82 174.47
  A 0.01 0.01 0.0 0 0 465.81 174.48
  Q 465.82 174.61 465.84 174.73
  Q 465.84 174.72 465.83 174.70
  C 464.38 167.95 459.27 162.84 452.23 162.92
  Z"
/>
<rect fill="#ffffff" x="-11.03" y="-1.50" transform="translate(487.70,165.50) rotate(0.1)" width="22.06" height="3.00" rx="0.55"/>
</svg>
