<?xml version="1.0" encoding="UTF-8" standalone="yes"?>
<svg xmlns="http://www.w3.org/2000/svg" xmlns:xlink="http://www.w3.org/1999/xlink" width="251.780pt" height="369.670pt" version="1.1" viewBox="-283.511 668.838 251.780 369.670">
  <!--
	Exported with Concepts: Smarter Sketching
	Version: 4663 on iOS 26.2
	https://concepts.app/
	-->
  <title>554D2681-7E46-4FA2-A36C-CC56A177F44D</title>
  <desc>Drawing exported from Concepts: Smarter Sketching</desc>
  <defs></defs>
  <g id="Wire" opacity="1.000">
    <path id="STROKE_ae4b8706-43e2-498f-9dca-022aa02e7928" opacity="1.000" fill="none" stroke="#f7f5ed" stroke-width="2.897" stroke-opacity="1.000" stroke-linecap="round" stroke-linejoin="round" d="M -267.720 682.008 Q -267.886 680.460 -267.885 681.013 Q -267.918 681.013 -267.951 681.013 Q -268.111 680.520 -269.243 703.638 Q -269.066 704.119 -269.218 701.232 Q -269.369 698.345 -269.086 692.503 Q -268.802 686.661 -268.333 683.742 Q -267.864 680.824 -267.412 678.794 Q -266.959 676.765 -266.165 675.842 Q -265.371 674.919 -264.131 674.594 Q -262.891 674.270 -262.123 674.482 Q -261.355 674.694 -260.602 674.999 Q -259.849 675.304 -258.700 677.045 Q -257.551 678.786 -257.354 679.984 Q -257.157 681.182 -257.289 682.614 Q -257.421 684.045 -259.606 685.530 Q -261.791 687.015 -267.786 690.103 "></path>
    <path id="STROKE_b2a21a16-29ec-450e-85f7-eb91ca8241be" opacity="1.000" fill="none" stroke="#f7f5ed" stroke-width="2.897" stroke-opacity="1.000" stroke-linecap="round" stroke-linejoin="round" d="M -214.152 686.852 Q -214.134 687.106 -215.543 687.382 Q -213.821 687.391 -207.086 687.474 Q -200.351 687.557 -193.758 686.387 Q -193.758 686.354 -193.758 686.321 Q -194.070 686.376 -194.354 686.453 "></path>
    <path id="STROKE_69214f24-a476-416b-ac6f-d9e07cf899dc" opacity="1.000" fill="none" stroke="#f7f5ed" stroke-width="2.897" stroke-opacity="1.000" stroke-linecap="round" stroke-linejoin="round" d="M -210.842 694.416 Q -211.908 694.753 -211.868 694.747 Q -212.483 694.940 -212.398 694.913 Q -212.431 694.980 -212.431 695.079 Q -211.381 695.188 -209.122 695.145 Q -206.864 695.102 -194.089 695.212 Q -194.477 695.169 -195.082 695.477 "></path>
    <path id="STROKE_36cba223-2dba-4eee-be0e-d7b1a9218ae0" opacity="1.000" fill="none" stroke="#f7f5ed" stroke-width="2.897" stroke-opacity="1.000" stroke-linecap="round" stroke-linejoin="round" d="M -151.248 704.236 Q -150.670 704.183 -153.831 704.634 Q -154.008 705.047 -145.310 700.250 Q -136.611 695.453 -131.976 692.943 Q -127.342 690.434 -125.186 689.311 Q -123.031 688.188 -122.059 687.676 Q -121.086 687.165 -120.060 686.612 Q -119.034 686.059 -117.048 685.032 Q -115.061 684.006 -108.805 679.885 Q -106.443 681.411 -101.575 685.043 Q -96.708 688.675 -88.845 693.811 Q -80.982 698.947 -69.341 705.198 L -69.341 705.231 Q -69.374 705.231 -69.540 705.231 Q -68.364 704.652 -61.373 697.846 Q -54.382 691.039 -49.930 687.164 Q -45.478 683.288 -42.551 681.254 Q -39.624 679.220 -37.293 677.363 Q -37.393 677.430 -37.492 677.496 "></path>
    <path id="STROKE_5404b0d0-44c0-43b7-88b0-bd49414800eb" opacity="1.000" fill="none" stroke="#f7f5ed" stroke-width="2.897" stroke-opacity="1.000" stroke-linecap="round" stroke-linejoin="round" d="M -106.686 693.951 Q -107.311 692.797 -107.547 691.894 Q -106.499 692.120 -104.643 693.408 Q -102.787 694.695 -98.261 697.604 Q -93.735 700.514 -91.259 701.995 Q -88.782 703.477 -87.099 704.565 Q -85.417 705.653 -79.869 708.615 Q -80.580 708.424 -80.531 708.349 "></path>
    <path id="STROKE_4ed39726-4e78-4f9c-aeeb-991492211291" opacity="1.000" fill="none" stroke="#f7f5ed" stroke-width="2.897" stroke-opacity="1.000" stroke-linecap="round" stroke-linejoin="round" d="M -266.859 756.056 Q -266.859 755.281 -266.859 755.359 Q -267.718 753.863 -267.599 754.136 Q -267.480 754.410 -267.484 754.359 Q -267.488 754.309 -267.613 754.260 Q -267.737 754.210 -268.183 754.193 Q -268.629 754.175 -268.621 754.223 Q -268.614 754.270 -268.661 754.283 Q -268.708 754.296 -269.663 755.160 Q -270.618 756.024 -271.919 759.224 Q -273.220 762.425 -273.828 764.475 Q -274.436 766.526 -274.597 769.147 Q -274.759 771.769 -274.175 773.768 Q -273.591 775.767 -272.005 776.542 Q -270.419 777.318 -268.892 777.400 Q -267.364 777.481 -265.572 776.726 Q -263.779 775.970 -261.685 773.964 Q -259.591 771.957 -258.228 769.553 Q -256.864 767.149 -256.606 764.432 Q -256.347 761.715 -256.605 759.910 Q -256.863 758.104 -258.352 755.834 Q -259.841 753.563 -261.943 752.507 Q -264.044 751.451 -266.230 751.444 Q -266.338 752.177 -266.599 753.972 Q -266.860 755.766 -265.539 759.235 Q -264.217 762.704 -263.028 764.651 Q -261.838 766.599 -259.451 769.520 Q -257.063 772.441 -255.735 773.918 Q -254.407 775.395 -254.099 776.242 Q -253.791 777.089 -253.876 777.487 Q -253.961 777.885 -254.742 778.416 "></path>
    <path id="STROKE_ed3b6f98-864c-4136-a9c5-7957e52df016" opacity="1.000" fill="none" stroke="#f7f5ed" stroke-width="2.897" stroke-opacity="1.000" stroke-linecap="round" stroke-linejoin="round" d="M -211.504 762.757 Q -212.670 762.757 -212.530 762.757 Q -212.482 762.827 -213.821 762.226 Q -214.285 762.098 -208.834 762.355 Q -203.384 762.611 -193.493 760.568 Q -193.493 760.534 -193.493 760.501 "></path>
    <path id="STROKE_fa6b62a7-e346-4c1b-9607-23944f6d6b32" opacity="1.000" fill="none" stroke="#f7f5ed" stroke-width="2.897" stroke-opacity="1.000" stroke-linecap="round" stroke-linejoin="round" d="M -211.106 768.662 Q -211.139 768.696 -211.504 769.160 Q -211.661 769.639 -192.765 768.198 Q -194.299 768.364 -193.824 768.331 "></path>
    <path id="STROKE_e9fbd624-72c0-45aa-9c33-9e410482c6f7" opacity="1.000" fill="none" stroke="#f7f5ed" stroke-width="2.897" stroke-opacity="1.000" stroke-linecap="round" stroke-linejoin="round" d="M -151.646 771.316 Q -152.611 771.316 -152.606 771.316 Q -153.999 771.316 -153.533 771.316 Q -153.665 771.316 -153.765 771.316 Q -153.765 771.283 -153.765 771.217 Q -153.894 771.408 -149.863 769.477 Q -145.833 767.547 -143.241 766.258 Q -140.649 764.970 -139.050 764.097 Q -137.451 763.224 -132.128 759.899 Q -126.805 756.575 -123.641 754.420 Q -120.476 752.266 -117.810 750.217 Q -117.843 750.217 -118.472 750.217 Q -118.326 750.558 -118.670 750.293 Q -119.014 750.029 -115.713 752.566 Q -112.412 755.103 -106.673 758.671 Q -100.934 762.238 -97.168 764.327 Q -93.402 766.415 -91.723 767.125 Q -90.044 767.835 -88.116 768.759 Q -86.188 769.684 -85.291 769.958 Q -84.395 770.233 -83.945 769.797 Q -83.495 769.361 -82.309 768.558 Q -81.124 767.755 -79.944 766.883 Q -78.763 766.011 -75.000 762.682 Q -71.236 759.353 -65.010 753.470 Q -58.785 747.587 -46.563 739.468 Q -46.596 739.468 -47.159 739.667 "></path>
    <path id="STROKE_0bba7d5a-77a2-48f8-bfd4-fd71d50bab26" opacity="1.000" fill="none" stroke="#f7f5ed" stroke-width="2.897" stroke-opacity="1.000" stroke-linecap="round" stroke-linejoin="round" d="M -83.445 771.051 Q -82.956 771.273 -84.504 770.719 Q -84.757 770.730 -83.974 795.335 Q -83.941 795.335 -83.842 795.335 Q -83.842 795.302 -83.776 794.871 "></path>
    <path id="STROKE_4e68e76a-8bde-4f15-9f0f-17d7f54f4a73" opacity="1.000" fill="none" stroke="#f7f5ed" stroke-width="2.897" stroke-opacity="1.000" stroke-linecap="round" stroke-linejoin="round" d="M -88.808 809.004 Q -89.301 808.168 -89.687 807.791 Q -90.074 807.414 -90.007 807.476 Q -89.941 807.537 -90.077 807.251 Q -90.212 806.964 -91.556 806.582 Q -92.877 808.385 -93.970 812.120 Q -95.062 815.855 -95.059 818.080 Q -95.055 820.305 -94.811 821.010 Q -94.566 821.715 -94.199 822.634 Q -93.831 823.553 -92.911 824.231 Q -91.991 824.909 -91.019 825.304 Q -90.047 825.699 -88.154 825.836 Q -86.261 825.974 -83.584 825.001 Q -80.907 824.029 -78.264 822.251 Q -75.620 820.473 -73.669 817.535 Q -71.717 814.597 -71.718 811.005 Q -71.719 807.414 -72.298 805.942 Q -72.877 804.470 -73.910 804.094 Q -74.240 804.858 -74.438 808.669 Q -74.636 812.481 -73.325 817.353 Q -72.015 822.226 -70.467 828.843 "></path>
    <path id="STROKE_8c2ede70-ffc5-484b-8769-bdbb0b74901e" opacity="1.000" fill="none" stroke="#f7f5ed" stroke-width="2.897" stroke-opacity="1.000" stroke-linecap="round" stroke-linejoin="round" d="M -272.090 861.554 Q -272.138 861.792 -272.951 861.156 Q -273.010 861.714 -273.149 878.540 Q -273.365 877.781 -272.798 872.902 Q -272.231 868.023 -271.134 864.975 Q -270.037 861.927 -268.845 859.775 Q -267.654 857.623 -266.422 856.959 Q -265.191 856.296 -264.149 856.296 Q -263.106 856.297 -262.107 858.049 Q -261.107 859.800 -261.448 861.608 Q -261.789 863.416 -262.456 864.958 Q -263.123 866.500 -270.567 871.573 Q -270.509 871.225 -268.710 871.488 Q -266.911 871.751 -264.375 873.298 Q -261.838 874.846 -259.320 876.876 Q -256.801 878.907 -249.180 881.857 "></path>
    <path id="STROKE_86125cdd-1582-463d-bea3-56f15fe6e60c" opacity="1.000" fill="none" stroke="#f7f5ed" stroke-width="2.897" stroke-opacity="1.000" stroke-linecap="round" stroke-linejoin="round" d="M -218.522 868.521 Q -219.228 868.479 -219.218 868.421 Q -218.938 868.638 -219.979 867.990 Q -219.274 868.659 -199.585 866.663 "></path>
    <path id="STROKE_7bc612c7-4e0a-4fdd-834e-da1b662336dc" opacity="1.000" fill="none" stroke="#f7f5ed" stroke-width="2.897" stroke-opacity="1.000" stroke-linecap="round" stroke-linejoin="round" d="M -216.933 874.028 Q -217.160 873.922 -218.456 874.260 L -218.456 874.293 Q -219.442 874.932 -198.459 873.762 Q -198.459 873.729 -198.459 873.696 Q -198.990 873.604 -200.446 873.961 "></path>
    <path id="STROKE_9458617c-e708-406d-8141-e51879c043b0" opacity="1.000" fill="none" stroke="#f7f5ed" stroke-width="2.897" stroke-opacity="1.000" stroke-linecap="round" stroke-linejoin="round" d="M -153.301 880.198 Q -154.940 880.191 -154.592 880.165 Q -154.835 880.304 -155.883 879.469 Q -156.346 879.381 -151.027 876.974 Q -145.708 874.568 -141.713 872.542 Q -137.718 870.517 -134.661 868.745 Q -131.603 866.973 -129.324 865.809 Q -127.044 864.644 -120.061 859.961 Q -120.095 859.961 -120.724 859.961 Q -120.998 859.953 -118.980 861.601 Q -116.961 863.248 -112.583 865.863 Q -108.206 868.477 -103.848 870.577 Q -99.490 872.677 -87.550 876.350 Q -87.583 876.350 -87.815 876.350 Q -88.227 876.822 -78.320 869.393 Q -68.413 861.963 -62.085 857.568 Q -55.756 853.173 -51.794 849.611 Q -51.827 849.611 -53.185 850.805 "></path>
    <path id="STROKE_59a92fe8-f133-4308-987c-ccbffbe23210" opacity="1.000" fill="none" stroke="#f7f5ed" stroke-width="2.897" stroke-opacity="1.000" stroke-linecap="round" stroke-linejoin="round" d="M -87.285 877.279 Q -87.844 876.551 -87.782 876.649 Q -87.947 876.483 -88.179 876.350 Q -88.775 878.112 -86.756 900.303 Q -86.756 900.104 -86.756 899.905 "></path>
    <path id="STROKE_736cab98-c14d-425a-8a76-5bbf7f9c27e3" opacity="1.000" fill="none" stroke="#f7f5ed" stroke-width="2.897" stroke-opacity="1.000" stroke-linecap="round" stroke-linejoin="round" d="M -96.489 910.654 Q -96.522 910.229 -97.747 908.995 Q -98.103 908.503 -96.489 923.990 "></path>
    <path id="STROKE_8908bfa4-d3f7-47d2-971b-b92bc72dc5dc" opacity="1.000" fill="none" stroke="#f7f5ed" stroke-width="2.897" stroke-opacity="1.000" stroke-linecap="round" stroke-linejoin="round" d="M -96.357 910.654 Q -96.357 910.404 -96.224 909.094 Q -94.843 908.985 -95.198 909.094 Q -94.909 908.853 -91.318 912.443 Q -87.726 916.033 -85.857 917.966 Q -83.988 919.899 -82.570 921.049 Q -81.153 922.198 -78.413 921.734 "></path>
    <path id="STROKE_439fa0b4-ed50-4a92-9cc4-94eacf3384b6" opacity="1.000" fill="none" stroke="#f7f5ed" stroke-width="2.897" stroke-opacity="1.000" stroke-linecap="round" stroke-linejoin="round" d="M -79.008 911.914 Q -79.005 911.405 -79.406 906.540 Q -78.988 907.944 -78.413 923.459 "></path>
    <path id="STROKE_b5b9f5d3-a975-4d0e-8f70-7aad92e3bc23" opacity="1.000" fill="none" stroke="#f7f5ed" stroke-width="2.897" stroke-opacity="1.000" stroke-linecap="round" stroke-linejoin="round" d="M -71.659 908.000 Q -71.659 907.046 -71.659 907.104 Q -71.776 906.152 -71.824 906.341 Q -71.890 906.175 -71.923 906.009 Q -71.816 905.284 -71.526 921.734 "></path>
    <path id="STROKE_5de261f0-96ad-4c78-a2a0-ca58ceb17754" opacity="1.000" fill="none" stroke="#f7f5ed" stroke-width="2.897" stroke-opacity="1.000" stroke-linecap="round" stroke-linejoin="round" d="M -71.129 916.227 Q -71.129 914.857 -71.129 915.199 Q -70.777 914.155 -67.740 914.370 Q -64.702 914.586 -62.872 914.524 Q -61.042 914.462 -60.214 914.235 Q -59.386 914.008 -58.677 913.521 Q -57.967 913.034 -58.566 911.310 Q -59.164 909.586 -60.634 906.805 L -60.700 906.805 Q -60.642 907.438 -61.297 913.825 Q -61.952 920.213 -60.137 927.639 "></path>
    <path id="STROKE_ff7e1ef2-94cb-4334-ad46-090604e36d6d" opacity="1.000" fill="none" stroke="#f7f5ed" stroke-width="2.897" stroke-opacity="1.000" stroke-linecap="round" stroke-linejoin="round" d="M -53.582 926.180 Q -53.582 924.853 -53.582 925.151 Q -53.480 924.068 -53.423 924.106 Q -53.366 924.144 -53.226 924.097 Q -53.086 924.051 -53.183 924.038 Q -53.281 924.025 -51.952 923.746 Q -50.623 923.467 -49.394 923.767 Q -48.165 924.068 -47.542 924.810 Q -46.919 925.552 -46.996 925.921 Q -47.074 926.289 -46.921 926.569 Q -46.768 926.848 -47.331 928.655 Q -47.894 930.462 -53.582 937.061 Q -53.331 936.663 -39.743 934.274 Q -39.832 934.083 -41.663 935.004 "></path>
    <path id="STROKE_fbd475bc-f695-4261-9853-5d92fb370257" opacity="1.000" fill="none" stroke="#f7f5ed" stroke-width="2.897" stroke-opacity="1.000" stroke-linecap="round" stroke-linejoin="round" d="M -264.144 974.019 Q -263.941 974.040 -264.049 973.123 Q -264.158 972.205 -264.284 971.692 Q -264.411 971.180 -264.614 971.034 Q -264.817 970.889 -264.667 970.993 Q -264.516 971.097 -265.544 970.495 Q -266.572 969.892 -267.874 969.886 Q -269.176 969.880 -270.193 970.482 Q -271.210 971.084 -271.916 972.640 Q -272.622 974.195 -272.431 975.781 Q -272.240 977.367 -270.990 978.665 Q -269.740 979.963 -267.951 981.472 Q -266.162 982.980 -264.947 984.590 Q -263.732 986.200 -263.325 987.386 Q -262.917 988.572 -263.447 989.417 Q -263.976 990.262 -264.596 990.242 Q -265.216 990.223 -265.399 990.229 Q -265.582 990.234 -267.172 990.542 Q -268.761 990.851 -271.500 990.326 Q -274.239 989.802 -275.717 989.153 Q -277.195 988.504 -277.983 987.388 Q -277.730 987.056 -277.387 986.758 "></path>
    <path id="STROKE_c289bd95-adbf-4152-80c5-38a2bbce2c73" opacity="1.000" fill="none" stroke="#f7f5ed" stroke-width="2.897" stroke-opacity="1.000" stroke-linecap="round" stroke-linejoin="round" d="M -231.633 977.668 Q -231.389 977.828 -233.950 977.403 Q -232.503 977.403 -232.626 977.403 Q -232.182 977.523 -214.682 977.469 "></path>
    <path id="STROKE_32b62814-b7c7-499b-be06-c08835328041" opacity="1.000" fill="none" stroke="#f7f5ed" stroke-width="2.897" stroke-opacity="1.000" stroke-linecap="round" stroke-linejoin="round" d="M -230.507 985.298 Q -231.107 985.298 -231.103 985.298 Q -231.202 985.298 -231.302 985.298 Q -232.988 985.822 -214.947 984.370 Q -215.212 984.303 -215.477 984.237 "></path>
    <path id="STROKE_5e6e399c-f0b1-4085-8813-cda551db276f" opacity="1.000" fill="none" stroke="#f7f5ed" stroke-width="2.897" stroke-opacity="1.000" stroke-linecap="round" stroke-linejoin="round" d="M -163.962 984.303 Q -163.228 984.519 -166.014 983.938 Q -166.535 983.339 -161.103 981.140 Q -155.671 978.940 -149.315 975.542 Q -142.958 972.143 -139.185 969.912 Q -135.413 967.682 -133.172 964.862 Q -133.238 964.862 -133.635 964.862 Q -132.988 966.301 -133.106 965.858 Q -132.076 966.530 -132.488 966.374 Q -132.900 966.217 -128.087 969.853 Q -123.275 973.489 -103.508 981.616 Q -103.574 981.531 -103.408 982.313 L -103.375 982.313 Q -103.375 982.346 -103.375 982.379 Q -103.646 982.686 -102.384 982.132 Q -101.121 981.577 -99.752 980.717 Q -98.383 979.857 -96.987 978.944 Q -95.592 978.031 -92.997 976.084 Q -90.403 974.137 -88.701 972.783 Q -86.999 971.429 -83.633 968.657 Q -80.266 965.884 -77.815 963.922 Q -75.363 961.960 -72.610 960.196 Q -69.857 958.431 -67.222 956.701 Q -68.351 956.959 -69.076 957.431 "></path>
    <path id="STROKE_57ed4c55-fa52-48ea-9146-696f8b965a5d" opacity="1.000" fill="none" stroke="#f7f5ed" stroke-width="2.897" stroke-opacity="1.000" stroke-linecap="round" stroke-linejoin="round" d="M -102.912 983.706 Q -102.619 984.078 -103.872 982.578 Q -103.922 982.367 -103.910 988.258 Q -103.898 994.149 -103.905 1004.076 Q -102.914 1003.772 -103.044 1003.744 "></path>
    <path id="STROKE_2f1f50b9-9a58-4eef-9097-8ec54e2d75b4" opacity="1.000" fill="none" stroke="#f7f5ed" stroke-width="2.897" stroke-opacity="1.000" stroke-linecap="round" stroke-linejoin="round" d="M -111.056 1017.081 Q -110.627 1017.078 -114.168 1016.019 Q -114.966 1016.729 -115.566 1020.205 Q -116.166 1023.680 -116.136 1026.083 Q -116.106 1028.485 -115.662 1030.161 Q -115.217 1031.836 -113.902 1032.408 Q -112.587 1032.979 -110.507 1032.928 Q -108.427 1032.876 -106.417 1031.076 Q -104.406 1029.276 -103.463 1027.382 Q -102.521 1025.489 -102.104 1023.029 Q -101.687 1020.570 -101.870 1018.784 Q -102.054 1016.997 -102.765 1015.757 Q -103.477 1014.518 -105.479 1013.871 Q -107.481 1013.225 -109.212 1013.497 Q -110.942 1013.769 -111.575 1014.284 Q -112.208 1014.800 -112.527 1015.694 Q -112.845 1016.588 -111.917 1018.408 "></path>
    <path id="STROKE_962c16c4-fb44-4898-b816-3998b4fb72f4" opacity="1.000" fill="none" stroke="#f7f5ed" stroke-width="2.897" stroke-opacity="1.000" stroke-linecap="round" stroke-linejoin="round" d="M -92.450 1015.156 Q -92.260 1015.666 -92.781 1012.768 Q -92.903 1012.206 -92.502 1014.981 Q -92.102 1017.756 -92.250 1022.212 Q -92.399 1026.668 -92.913 1031.014 "></path>
    <path id="STROKE_c07b2cb1-ccd5-42ca-98c0-552b55754453" opacity="1.000" fill="none" stroke="#f7f5ed" stroke-width="2.897" stroke-opacity="1.000" stroke-linecap="round" stroke-linejoin="round" d="M -91.589 1022.256 Q -92.314 1021.305 -92.119 1021.592 Q -92.251 1021.493 -92.450 1021.261 Q -92.403 1021.506 -89.429 1022.020 Q -86.454 1022.535 -84.262 1022.135 Q -82.070 1021.735 -80.868 1020.336 Q -79.665 1018.937 -79.716 1018.738 Q -79.766 1018.539 -79.776 1017.435 Q -79.786 1016.331 -79.896 1015.434 Q -80.007 1014.537 -81.458 1012.104 Q -81.672 1012.009 -81.470 1018.720 Q -81.269 1025.430 -79.803 1032.938 "></path>
  </g>
</svg>