<?xml version="1.0" encoding="UTF-8" standalone="no"?>
<!DOCTYPE svg PUBLIC "-//W3C//DTD SVG 1.1//EN" "http://www.w3.org/Graphics/SVG/1.1/DTD/svg11.dtd">
<svg xmlns="http://www.w3.org/2000/svg" version="1.1" viewBox="0.00 0.00 924.00 328.00">
<path fill="#ffffff" d="
  M 331.4899 17.9225
  A 23.61 22.10 -87.5 0 1 352.5390 42.4740
  A 23.61 22.10 -87.5 0 1 329.4301 65.0975
  A 23.61 22.10 -87.5 0 1 308.3810 40.5460
  A 23.61 22.10 -87.5 0 1 331.4899 17.9225
  Z
  M 316.08 41.57
  Q 316.12 45.45 316.44 48.23
  C 317.34 55.95 322.22 63.06 330.74 62.97
  C 339.25 62.88 343.97 55.67 344.70 47.93
  Q 344.97 45.13 344.93 41.26
  Q 344.88 37.39 344.56 34.60
  C 343.66 26.88 338.78 19.78 330.27 19.87
  C 321.75 19.96 317.03 27.17 316.30 34.91
  Q 316.04 37.70 316.08 41.57
  Z"
/>
<path fill="#ffffff" d="
  M 397.38 53.17
  L 397.46 53.21
  A 0.39 0.39 0.0 0 1 397.60 53.74
  Q 391.86 63.77 382.09 64.86
  C 355.14 67.88 348.93 30.97 370.73 20.13
  Q 379.32 15.86 389.48 20.09
  C 392.01 21.14 393.98 21.63 394.60 18.57
  A 0.65 0.65 0.0 0 1 395.88 18.65
  L 396.88 32.42
  A 0.51 0.51 0.0 0 1 395.89 32.62
  C 394.09 27.46 391.85 22.93 386.48 21.00
  C 377.19 17.66 368.54 22.51 366.08 32.02
  C 364.15 39.45 364.14 51.04 369.72 57.06
  C 375.23 62.99 385.26 63.66 391.48 59.01
  Q 394.03 57.10 396.84 53.28
  A 0.41 0.41 0.0 0 1 397.38 53.17
  Z"
/>
<path fill="#ffffff" d="
  M 424.53 42.00
  Q 415.38 42.00 414.63 42.10
  A 0.62 0.62 0.0 0 0 414.09 42.71
  Q 413.97 50.77 414.21 59.62
  C 414.29 62.65 417.81 63.06 420.18 63.09
  A 0.35 0.34 -90.0 0 1 420.52 63.44
  L 420.52 63.73
  A 0.27 0.27 0.0 0 1 420.25 64.00
  L 401.56 64.00
  A 0.23 0.23 0.0 0 1 401.33 63.77
  L 401.33 63.49
  A 0.47 0.47 0.0 0 1 401.82 63.02
  C 408.89 63.43 407.78 58.39 407.80 52.67
  Q 407.85 36.09 407.79 24.48
  C 407.77 20.36 404.70 20.23 401.54 19.86
  A 0.27 0.27 0.0 0 1 401.30 19.59
  L 401.30 19.29
  A 0.28 0.28 0.0 0 1 401.58 19.01
  L 420.36 19.01
  A 0.18 0.18 0.0 0 1 420.54 19.18
  L 420.55 19.45
  A 0.37 0.36 -1.2 0 1 420.26 19.75
  L 416.33 20.58
  A 2.83 2.83 0.0 0 0 414.07 23.35
  L 414.07 39.63
  A 0.30 0.30 0.0 0 0 414.36 39.92
  Q 416.31 40.00 424.53 40.00
  Q 432.74 40.00 434.70 39.92
  A 0.30 0.30 0.0 0 0 434.98 39.62
  L 434.97 23.35
  A 2.83 2.83 0.0 0 0 432.72 20.58
  L 428.79 19.75
  A 0.37 0.36 1.1 0 1 428.50 19.45
  L 428.51 19.18
  A 0.18 0.18 0.0 0 1 428.69 19.01
  L 447.46 19.00
  A 0.28 0.28 0.0 0 1 447.74 19.28
  L 447.74 19.58
  A 0.27 0.27 0.0 0 1 447.50 19.85
  C 444.34 20.22 441.27 20.35 441.25 24.47
  Q 441.20 36.09 441.26 52.66
  C 441.28 58.38 440.18 63.42 447.25 63.01
  A 0.47 0.47 0.0 0 1 447.74 63.48
  L 447.74 63.76
  A 0.23 0.23 0.0 0 1 447.51 63.99
  L 428.81 64.00
  A 0.27 0.27 0.0 0 1 428.54 63.73
  L 428.54 63.44
  A 0.35 0.34 90.0 0 1 428.88 63.09
  C 431.25 63.06 434.77 62.65 434.85 59.62
  Q 435.09 50.76 434.96 42.70
  A 0.62 0.62 0.0 0 0 434.43 42.10
  Q 433.67 42.00 424.53 42.00
  Z"
/>
<path fill="#ffffff" d="
  M 218.3871 21.9290
  A 23.60 22.10 -87.7 0 1 239.5222 46.3969
  A 23.60 22.10 -87.7 0 1 216.4929 69.0910
  A 23.60 22.10 -87.7 0 1 195.3578 44.6231
  A 23.60 22.10 -87.7 0 1 218.3871 21.9290
  Z
  M 203.11 45.62
  Q 203.15 49.47 203.47 52.25
  C 204.36 59.94 209.22 67.03 217.70 66.94
  C 226.18 66.85 230.90 59.68 231.63 51.97
  Q 231.89 49.18 231.85 45.33
  Q 231.81 41.47 231.49 38.69
  C 230.61 31.00 225.75 23.92 217.27 24.00
  C 208.79 24.09 204.07 31.27 203.34 38.98
  Q 203.08 41.76 203.11 45.62
  Z"
/>
<path fill="#ffffff" d="
  M 451.40 64.90
  A 0.25 0.25 0.0 0 1 450.98 64.65
  Q 451.92 61.60 454.64 60.48
  C 457.80 59.18 462.26 60.79 462.17 64.79
  A 2.45 2.44 57.4 0 1 461.97 65.71
  Q 461.24 67.40 459.33 69.20
  A 0.44 0.44 0.0 0 0 459.47 69.93
  C 465.19 72.38 463.53 79.57 459.01 81.96
  Q 455.57 83.77 451.70 82.67
  A 1.54 1.41 32.2 0 1 451.01 80.14
  Q 451.29 79.92 452.16 80.08
  Q 452.77 80.19 453.25 80.63
  Q 456.12 83.24 459.10 81.05
  A 2.80 2.76 -3.4 0 0 459.82 80.25
  Q 461.67 77.08 459.32 73.86
  A 2.50 2.42 -0.9 0 0 458.66 73.24
  Q 456.79 72.09 454.42 71.84
  A 0.32 0.32 0.0 0 1 454.35 71.22
  Q 456.10 70.63 457.22 69.98
  C 459.88 68.44 460.96 64.10 457.68 62.41
  C 455.96 61.52 453.47 61.97 452.28 63.78
  Q 451.83 64.45 451.40 64.90
  Z"
/>
<rect fill="#ffffff" x="326.76" y="72.74" width="6.24" height="55.02" rx="0.38"/>
<rect fill="#ffffff" x="205.00" y="73.00" width="8.00" height="55.98" rx="0.54"/>
<rect fill="#ffffff" x="220.00" y="73.00" width="8.00" height="56.00" rx="0.57"/>
<path fill="#ffffff" d="
  M 58.37 173.21
  L 58.45 173.25
  A 0.39 0.39 0.0 0 1 58.59 173.78
  Q 52.82 183.79 43.06 184.86
  C 16.12 187.83 9.98 150.93 31.79 140.13
  Q 40.38 135.88 50.53 140.13
  C 53.06 141.18 55.03 141.68 55.65 138.62
  A 0.65 0.65 0.0 0 1 56.93 138.70
  L 57.90 152.46
  A 0.51 0.51 0.0 0 1 56.91 152.66
  C 55.12 147.51 52.89 142.97 47.53 141.04
  C 38.24 137.67 29.60 142.51 27.11 152.01
  C 25.17 159.43 25.14 171.02 30.71 177.05
  C 36.20 182.98 46.23 183.67 52.46 179.03
  Q 55.01 177.12 57.83 173.32
  A 0.41 0.41 0.0 0 1 58.37 173.21
  Z"
/>
<path fill="#ffffff" d="
  M 236.41 173.16
  L 236.49 173.20
  A 0.39 0.39 0.0 0 1 236.63 173.73
  Q 230.90 183.76 221.13 184.87
  C 194.19 187.92 187.93 151.03 209.72 140.16
  Q 218.30 135.88 228.47 140.10
  C 231.00 141.14 232.97 141.63 233.58 138.57
  A 0.65 0.65 0.0 0 1 234.86 138.65
  L 235.88 152.41
  A 0.51 0.51 0.0 0 1 234.89 152.61
  C 233.08 147.46 230.84 142.94 225.47 141.01
  C 216.17 137.68 207.53 142.54 205.08 152.06
  C 203.16 159.48 203.17 171.08 208.76 177.09
  C 214.27 183.01 224.30 183.66 230.52 179.00
  Q 233.07 177.09 235.87 173.27
  A 0.41 0.41 0.0 0 1 236.41 173.16
  Z"
/>
<path fill="#ffffff" d="
  M 349.61 173.75
  Q 343.86 183.77 334.10 184.86
  C 307.16 187.87 300.96 150.97 322.76 140.14
  Q 331.34 135.88 341.50 140.11
  C 344.03 141.16 346.00 141.65 346.62 138.59
  A 0.65 0.65 0.0 0 1 347.90 138.67
  L 348.89 152.43
  A 0.51 0.51 0.0 0 1 347.90 152.63
  C 346.10 147.48 343.87 142.95 338.50 141.02
  C 329.21 137.67 320.57 142.52 318.10 152.03
  C 316.17 159.45 316.16 171.04 321.74 177.06
  C 327.24 182.99 337.27 183.66 343.49 179.01
  Q 346.04 177.10 348.85 173.29
  A 0.41 0.41 0.0 0 1 349.39 173.18
  L 349.47 173.22
  A 0.39 0.39 0.0 0 1 349.61 173.75
  Z"
/>
<path fill="#ffffff" d="
  M 462.37 173.22
  L 462.45 173.26
  A 0.39 0.39 0.0 0 1 462.59 173.79
  Q 456.81 183.80 447.05 184.87
  C 420.10 187.82 413.98 150.90 435.81 140.12
  Q 444.40 135.87 454.55 140.13
  C 457.08 141.18 459.05 141.68 459.68 138.62
  A 0.65 0.65 0.0 0 1 460.96 138.70
  L 461.91 152.47
  A 0.51 0.51 0.0 0 1 460.92 152.67
  C 459.14 147.51 456.92 142.97 451.55 141.03
  C 442.27 137.66 433.61 142.49 431.12 152.00
  C 429.17 159.41 429.14 171.00 434.70 177.04
  C 440.19 182.98 450.22 183.68 456.45 179.04
  Q 459.01 177.13 461.83 173.33
  A 0.41 0.41 0.0 0 1 462.37 173.22
  Z"
/>
<path fill="#ffffff" d="
  M 85.51 160.00
  Q 93.72 160.00 95.68 159.93
  A 0.30 0.30 0.0 0 0 95.96 159.63
  L 95.96 143.36
  A 2.83 2.83 0.0 0 0 93.71 140.59
  L 89.78 139.76
  A 0.37 0.36 1.2 0 1 89.49 139.46
  L 89.50 139.19
  A 0.18 0.18 0.0 0 1 89.68 139.02
  L 108.45 139.02
  A 0.28 0.28 0.0 0 1 108.73 139.30
  L 108.73 139.60
  A 0.27 0.27 0.0 0 1 108.49 139.87
  C 105.33 140.24 102.26 140.37 102.24 144.49
  Q 102.18 156.10 102.23 172.67
  C 102.25 178.39 101.14 183.43 108.21 183.02
  A 0.47 0.47 0.0 0 1 108.70 183.49
  L 108.70 183.77
  A 0.23 0.23 0.0 0 1 108.47 184.00
  L 89.78 184.00
  A 0.27 0.27 0.0 0 1 89.51 183.73
  L 89.51 183.44
  A 0.35 0.34 90.0 0 1 89.85 183.09
  C 92.22 183.06 95.74 182.65 95.82 179.62
  Q 96.06 170.77 95.94 162.71
  A 0.62 0.62 0.0 0 0 95.40 162.11
  Q 94.65 162.01 85.51 162.00
  Q 76.37 162.00 75.61 162.10
  A 0.62 0.62 0.0 0 0 75.08 162.70
  Q 74.95 170.76 75.18 179.61
  C 75.26 182.64 78.78 183.06 81.15 183.09
  A 0.35 0.34 -90.0 0 1 81.49 183.44
  L 81.49 183.73
  A 0.27 0.27 0.0 0 1 81.22 184.00
  L 62.53 183.98
  A 0.23 0.23 0.0 0 1 62.30 183.75
  L 62.30 183.47
  A 0.47 0.47 0.0 0 1 62.79 183.00
  C 69.86 183.42 68.76 178.38 68.78 172.66
  Q 68.84 156.09 68.79 144.48
  C 68.77 140.36 65.70 140.23 62.54 139.85
  A 0.27 0.27 0.0 0 1 62.30 139.58
  L 62.30 139.28
  A 0.28 0.28 0.0 0 1 62.58 139.00
  L 81.35 139.02
  A 0.18 0.18 0.0 0 1 81.53 139.19
  L 81.54 139.46
  A 0.37 0.36 -1.1 0 1 81.25 139.76
  L 77.32 140.58
  A 2.83 2.83 0.0 0 0 75.07 143.35
  L 75.06 159.62
  A 0.30 0.30 0.0 0 0 75.34 159.92
  Q 77.30 160.00 85.51 160.00
  Z"
/>
<path fill="#ffffff" d="
  M 489.52 162.00
  Q 480.37 162.00 479.62 162.10
  A 0.62 0.62 0.0 0 0 479.08 162.70
  Q 478.95 170.76 479.19 179.62
  C 479.26 182.65 482.78 183.06 485.16 183.09
  A 0.35 0.34 -90.0 0 1 485.50 183.44
  L 485.50 183.74
  A 0.27 0.27 0.0 0 1 485.23 184.00
  L 466.53 183.99
  A 0.23 0.23 0.0 0 1 466.30 183.76
  L 466.30 183.48
  A 0.47 0.47 0.0 0 1 466.79 183.01
  C 473.86 183.43 472.75 178.38 472.78 172.66
  Q 472.84 156.08 472.79 144.47
  C 472.78 140.35 469.71 140.21 466.54 139.84
  A 0.27 0.27 0.0 0 1 466.31 139.57
  L 466.31 139.27
  A 0.28 0.28 0.0 0 1 466.59 138.99
  L 485.36 139.01
  A 0.18 0.18 0.0 0 1 485.54 139.18
  L 485.55 139.45
  A 0.37 0.36 -1.1 0 1 485.26 139.75
  L 481.33 140.57
  A 2.83 2.83 0.0 0 0 479.08 143.34
  L 479.06 159.62
  A 0.30 0.30 0.0 0 0 479.35 159.92
  Q 481.31 160.00 489.52 160.00
  Q 497.73 160.00 499.69 159.93
  A 0.30 0.30 0.0 0 0 499.97 159.63
  L 499.98 143.35
  A 2.83 2.83 0.0 0 0 497.73 140.58
  L 493.80 139.75
  A 0.37 0.36 1.2 0 1 493.51 139.45
  L 493.52 139.18
  A 0.18 0.18 0.0 0 1 493.70 139.01
  L 512.47 139.01
  A 0.28 0.28 0.0 0 1 512.75 139.29
  L 512.75 139.59
  A 0.27 0.27 0.0 0 1 512.51 139.86
  C 509.35 140.23 506.28 140.36 506.26 144.49
  Q 506.20 156.10 506.24 172.68
  C 506.26 178.40 505.15 183.44 512.23 183.03
  A 0.47 0.47 0.0 0 1 512.72 183.50
  L 512.72 183.78
  A 0.23 0.23 0.0 0 1 512.49 184.01
  L 493.79 184.01
  A 0.27 0.27 0.0 0 1 493.52 183.74
  L 493.52 183.45
  A 0.35 0.34 -90.0 0 1 493.86 183.10
  C 496.23 183.07 499.75 182.66 499.83 179.63
  Q 500.07 170.77 499.95 162.71
  A 0.62 0.62 0.0 0 0 499.42 162.11
  Q 498.66 162.01 489.52 162.00
  Z"
/>
<rect fill="#ffffff" x="142.55" y="166.00" width="34.92" height="3.00" rx="0.50"/>
<rect fill="#ffffff" x="255.59" y="166.00" width="34.92" height="3.00" rx="0.59"/>
<rect fill="#ffffff" x="368.56" y="166.00" width="34.90" height="3.00" rx="0.49"/>
<path fill="#ffffff" d="
  M 111.39 183.91
  A 0.25 0.25 0.0 0 1 110.97 183.66
  Q 111.91 180.61 114.62 179.49
  C 117.78 178.19 122.24 179.79 122.15 183.79
  A 2.45 2.44 57.3 0 1 121.95 184.71
  Q 121.23 186.40 119.32 188.20
  A 0.44 0.44 0.0 0 0 119.46 188.93
  C 125.18 191.37 123.54 198.56 119.02 200.95
  Q 115.59 202.77 111.72 201.67
  A 1.54 1.41 32.1 0 1 111.02 199.14
  Q 111.30 198.92 112.17 199.08
  Q 112.78 199.19 113.26 199.63
  Q 116.14 202.23 119.11 200.04
  A 2.79 2.76 -3.5 0 0 119.83 199.24
  Q 121.67 196.07 119.32 192.86
  A 2.49 2.42 -1.0 0 0 118.66 192.24
  Q 116.79 191.09 114.42 190.84
  A 0.32 0.32 0.0 0 1 114.35 190.23
  Q 116.10 189.63 117.21 188.98
  C 119.87 187.44 120.94 183.10 117.66 181.42
  C 115.94 180.53 113.45 180.98 112.27 182.79
  Q 111.82 183.46 111.39 183.91
  Z"
/>
<path fill="#ffffff" d="
  M 516.39 183.91
  A 0.25 0.25 0.0 0 1 515.97 183.66
  Q 516.91 180.61 519.62 179.49
  C 522.78 178.19 527.24 179.79 527.15 183.79
  A 2.45 2.44 57.3 0 1 526.96 184.70
  Q 526.23 186.39 524.32 188.20
  A 0.44 0.44 0.0 0 0 524.46 188.92
  C 530.18 191.36 528.54 198.55 524.02 200.94
  Q 520.59 202.76 516.72 201.66
  A 1.54 1.41 32.1 0 1 516.03 199.14
  Q 516.31 198.92 517.18 199.08
  Q 517.79 199.19 518.27 199.62
  Q 521.14 202.23 524.11 200.03
  A 2.79 2.75 -3.5 0 0 524.83 199.23
  Q 526.67 196.06 524.32 192.85
  A 2.49 2.42 -1.0 0 0 523.66 192.23
  Q 521.79 191.09 519.42 190.84
  A 0.32 0.32 0.0 0 1 519.35 190.22
  Q 521.10 189.63 522.22 188.98
  C 524.87 187.44 525.94 183.10 522.66 181.41
  C 520.95 180.53 518.46 180.98 517.27 182.79
  Q 516.82 183.46 516.39 183.91
  Z"
/>
<rect fill="#ffffff" x="326.76" y="189.74" width="6.24" height="55.02" rx="0.38"/>
<path fill="#ffffff" d="
  M 330.2518 251.9330
  A 23.58 22.16 -88.1 0 1 351.6178 276.2347
  A 23.58 22.16 -88.1 0 1 328.6882 299.0670
  A 23.58 22.16 -88.1 0 1 307.3222 274.7653
  A 23.58 22.16 -88.1 0 1 330.2518 251.9330
  Z
  M 315.15 275.55
  Q 315.18 279.41 315.49 282.20
  C 316.36 289.91 321.20 297.02 329.70 296.96
  C 338.20 296.90 342.95 289.73 343.71 282.00
  Q 343.98 279.21 343.95 275.35
  Q 343.93 271.48 343.61 268.70
  C 342.75 260.99 337.90 253.87 329.40 253.93
  C 320.90 253.99 316.16 261.17 315.40 268.89
  Q 315.13 271.68 315.15 275.55
  Z"
/>
<path fill="#ffffff" d="
  M 396.45 287.11
  L 396.53 287.15
  A 0.39 0.39 0.0 0 1 396.68 287.68
  Q 390.96 297.73 381.20 298.86
  C 354.26 301.98 347.91 265.08 369.68 254.16
  Q 378.25 249.86 388.43 254.06
  C 390.96 255.10 392.94 255.58 393.54 252.51
  A 0.65 0.65 0.0 0 1 394.83 252.59
  L 395.87 266.35
  A 0.51 0.51 0.0 0 1 394.88 266.56
  C 393.06 261.41 390.81 256.89 385.43 254.98
  C 376.12 251.66 367.50 256.55 365.07 266.07
  C 363.16 273.51 363.20 285.10 368.81 291.10
  C 374.33 297.01 384.37 297.64 390.58 292.97
  Q 393.12 291.04 395.91 287.22
  A 0.41 0.41 0.0 0 1 396.45 287.11
  Z"
/>
<path fill="#ffffff" d="
  M 423.54 276.00
  Q 414.40 276.00 413.64 276.10
  A 0.62 0.62 0.0 0 0 413.11 276.71
  Q 412.98 284.77 413.22 293.62
  C 413.30 296.65 416.82 297.06 419.19 297.09
  A 0.35 0.34 -90.0 0 1 419.53 297.44
  L 419.53 297.73
  A 0.27 0.27 0.0 0 1 419.26 298.00
  L 400.57 298.00
  A 0.23 0.23 0.0 0 1 400.34 297.77
  L 400.34 297.49
  A 0.47 0.47 0.0 0 1 400.83 297.02
  C 407.90 297.43 406.79 292.39 406.81 286.67
  Q 406.87 270.09 406.81 258.48
  C 406.79 254.36 403.72 254.23 400.56 253.86
  A 0.27 0.27 0.0 0 1 400.32 253.59
  L 400.32 253.29
  A 0.28 0.28 0.0 0 1 400.60 253.01
  L 419.37 253.01
  A 0.18 0.18 0.0 0 1 419.55 253.18
  L 419.56 253.45
  A 0.37 0.36 -1.2 0 1 419.27 253.75
  L 415.34 254.58
  A 2.83 2.83 0.0 0 0 413.09 257.35
  L 413.09 273.63
  A 0.30 0.30 0.0 0 0 413.37 273.92
  Q 415.33 274.00 423.54 274.00
  Q 431.75 274.00 433.71 273.92
  A 0.30 0.30 0.0 0 0 433.99 273.62
  L 433.98 257.35
  A 2.83 2.83 0.0 0 0 431.73 254.58
  L 427.80 253.75
  A 0.37 0.36 1.2 0 1 427.51 253.45
  L 427.52 253.18
  A 0.18 0.18 0.0 0 1 427.70 253.01
  L 446.47 253.00
  A 0.28 0.28 0.0 0 1 446.75 253.28
  L 446.75 253.58
  A 0.27 0.27 0.0 0 1 446.51 253.85
  C 443.35 254.23 440.28 254.36 440.26 258.48
  Q 440.21 270.09 440.27 286.66
  C 440.29 292.38 439.18 297.42 446.25 297.01
  A 0.47 0.47 0.0 0 1 446.74 297.48
  L 446.74 297.76
  A 0.23 0.23 0.0 0 1 446.51 297.99
  L 427.82 298.00
  A 0.27 0.27 0.0 0 1 427.55 297.73
  L 427.55 297.44
  A 0.35 0.34 90.0 0 1 427.89 297.09
  C 430.26 297.06 433.78 296.65 433.86 293.61
  Q 434.10 284.76 433.97 276.70
  A 0.62 0.62 0.0 0 0 433.43 276.10
  Q 432.68 276.00 423.54 276.00
  Z"
/>
<path fill="#ffffff" d="
  M 449.39 297.91
  A 0.25 0.25 0.0 0 1 448.97 297.66
  Q 449.91 294.61 452.62 293.49
  C 455.78 292.18 460.24 293.79 460.15 297.79
  A 2.45 2.44 57.3 0 1 459.96 298.71
  Q 459.23 300.40 457.32 302.20
  A 0.44 0.44 0.0 0 0 457.46 302.93
  C 463.18 305.37 461.53 312.56 457.01 314.95
  Q 453.57 316.77 449.71 315.67
  A 1.54 1.41 32.2 0 1 449.01 313.14
  Q 449.29 312.92 450.16 313.08
  Q 450.77 313.19 451.25 313.63
  Q 454.12 316.24 457.10 314.04
  A 2.80 2.76 -3.5 0 0 457.82 313.24
  Q 459.67 310.07 457.31 306.86
  A 2.50 2.42 -0.9 0 0 456.65 306.24
  Q 454.78 305.09 452.41 304.84
  A 0.32 0.32 0.0 0 1 452.34 304.22
  Q 454.09 303.63 455.21 302.98
  C 457.87 301.44 458.94 297.10 455.66 295.41
  C 453.94 294.53 451.46 294.98 450.27 296.79
  Q 449.82 297.46 449.39 297.91
  Z"
/>
</svg>
